<?xml version="1.0" encoding="utf-8" standalone="no"?>
<!DOCTYPE svg PUBLIC "-//W3C//DTD SVG 1.1//EN"
  "http://www.w3.org/Graphics/SVG/1.1/DTD/svg11.dtd">
<!-- Created with matplotlib (https://matplotlib.org/) -->
<svg height="467.28pt" version="1.1" viewBox="0 0 718.56 467.28" width="718.56pt" xmlns="http://www.w3.org/2000/svg" xmlns:xlink="http://www.w3.org/1999/xlink">
 <defs>
  <style type="text/css">
*{stroke-linecap:butt;stroke-linejoin:round;}
  </style>
 </defs>
 <g id="figure_1">
  <g id="patch_1">
   <path d="M 0 467.28 
L 718.56 467.28 
L 718.56 0 
L 0 0 
z
" style="fill:#ffffff;"/>
  </g>
  <g id="patch_2">
   <path d="M 0 467.28 
L 718.56 467.28 
L 718.56 0 
L 0 0 
z
" style="fill:#ffffff;"/>
  </g>
  <g id="pane3d_1">
   <g id="patch_3">
    <path d="M 117.378461 337.811974 
L 476.872914 317.346633 
L 478.893804 74.460192 
L 112.495268 86.565993 
" style="fill:#f2f2f2;opacity:0.5;stroke:#f2f2f2;stroke-linejoin:miter;"/>
   </g>
  </g>
  <g id="pane3d_2">
   <g id="patch_4">
    <path d="M 476.872914 317.346633 
L 635.66053 373.668798 
L 641.15209 107.815015 
L 478.893804 74.460192 
" style="fill:#e6e6e6;opacity:0.5;stroke:#e6e6e6;stroke-linejoin:miter;"/>
   </g>
  </g>
  <g id="pane3d_3">
   <g id="patch_5">
    <path d="M 117.378461 337.811974 
L 245.997162 398.396954 
L 635.66053 373.668798 
L 476.872914 317.346633 
" style="fill:#ececec;opacity:0.5;stroke:#ececec;stroke-linejoin:miter;"/>
   </g>
  </g>
  <g id="axis3d_1">
   <g id="line2d_1">
    <path d="M 117.378461 337.811974 
L 245.997162 398.396954 
" style="fill:none;stroke:#000000;stroke-linecap:square;stroke-width:0.8;"/>
   </g>
   <g id="text_1">
    <!-- Dealer's Points -->
    <defs>
     <path d="M 19.671875 64.796875 
L 19.671875 8.109375 
L 31.59375 8.109375 
Q 46.6875 8.109375 53.6875 14.9375 
Q 60.6875 21.78125 60.6875 36.53125 
Q 60.6875 51.171875 53.6875 57.984375 
Q 46.6875 64.796875 31.59375 64.796875 
z
M 9.8125 72.90625 
L 30.078125 72.90625 
Q 51.265625 72.90625 61.171875 64.09375 
Q 71.09375 55.28125 71.09375 36.53125 
Q 71.09375 17.671875 61.125 8.828125 
Q 51.171875 0 30.078125 0 
L 9.8125 0 
z
" id="DejaVuSans-68"/>
     <path d="M 56.203125 29.59375 
L 56.203125 25.203125 
L 14.890625 25.203125 
Q 15.484375 15.921875 20.484375 11.0625 
Q 25.484375 6.203125 34.421875 6.203125 
Q 39.59375 6.203125 44.453125 7.46875 
Q 49.3125 8.734375 54.109375 11.28125 
L 54.109375 2.78125 
Q 49.265625 0.734375 44.1875 -0.34375 
Q 39.109375 -1.421875 33.890625 -1.421875 
Q 20.796875 -1.421875 13.15625 6.1875 
Q 5.515625 13.8125 5.515625 26.8125 
Q 5.515625 40.234375 12.765625 48.109375 
Q 20.015625 56 32.328125 56 
Q 43.359375 56 49.78125 48.890625 
Q 56.203125 41.796875 56.203125 29.59375 
z
M 47.21875 32.234375 
Q 47.125 39.59375 43.09375 43.984375 
Q 39.0625 48.390625 32.421875 48.390625 
Q 24.90625 48.390625 20.390625 44.140625 
Q 15.875 39.890625 15.1875 32.171875 
z
" id="DejaVuSans-101"/>
     <path d="M 34.28125 27.484375 
Q 23.390625 27.484375 19.1875 25 
Q 14.984375 22.515625 14.984375 16.5 
Q 14.984375 11.71875 18.140625 8.90625 
Q 21.296875 6.109375 26.703125 6.109375 
Q 34.1875 6.109375 38.703125 11.40625 
Q 43.21875 16.703125 43.21875 25.484375 
L 43.21875 27.484375 
z
M 52.203125 31.203125 
L 52.203125 0 
L 43.21875 0 
L 43.21875 8.296875 
Q 40.140625 3.328125 35.546875 0.953125 
Q 30.953125 -1.421875 24.3125 -1.421875 
Q 15.921875 -1.421875 10.953125 3.296875 
Q 6 8.015625 6 15.921875 
Q 6 25.140625 12.171875 29.828125 
Q 18.359375 34.515625 30.609375 34.515625 
L 43.21875 34.515625 
L 43.21875 35.40625 
Q 43.21875 41.609375 39.140625 45 
Q 35.0625 48.390625 27.6875 48.390625 
Q 23 48.390625 18.546875 47.265625 
Q 14.109375 46.140625 10.015625 43.890625 
L 10.015625 52.203125 
Q 14.9375 54.109375 19.578125 55.046875 
Q 24.21875 56 28.609375 56 
Q 40.484375 56 46.34375 49.84375 
Q 52.203125 43.703125 52.203125 31.203125 
z
" id="DejaVuSans-97"/>
     <path d="M 9.421875 75.984375 
L 18.40625 75.984375 
L 18.40625 0 
L 9.421875 0 
z
" id="DejaVuSans-108"/>
     <path d="M 41.109375 46.296875 
Q 39.59375 47.171875 37.8125 47.578125 
Q 36.03125 48 33.890625 48 
Q 26.265625 48 22.1875 43.046875 
Q 18.109375 38.09375 18.109375 28.8125 
L 18.109375 0 
L 9.078125 0 
L 9.078125 54.6875 
L 18.109375 54.6875 
L 18.109375 46.1875 
Q 20.953125 51.171875 25.484375 53.578125 
Q 30.03125 56 36.53125 56 
Q 37.453125 56 38.578125 55.875 
Q 39.703125 55.765625 41.0625 55.515625 
z
" id="DejaVuSans-114"/>
     <path d="M 17.921875 72.90625 
L 17.921875 45.796875 
L 9.625 45.796875 
L 9.625 72.90625 
z
" id="DejaVuSans-39"/>
     <path d="M 44.28125 53.078125 
L 44.28125 44.578125 
Q 40.484375 46.53125 36.375 47.5 
Q 32.28125 48.484375 27.875 48.484375 
Q 21.1875 48.484375 17.84375 46.4375 
Q 14.5 44.390625 14.5 40.28125 
Q 14.5 37.15625 16.890625 35.375 
Q 19.28125 33.59375 26.515625 31.984375 
L 29.59375 31.296875 
Q 39.15625 29.25 43.1875 25.515625 
Q 47.21875 21.78125 47.21875 15.09375 
Q 47.21875 7.46875 41.1875 3.015625 
Q 35.15625 -1.421875 24.609375 -1.421875 
Q 20.21875 -1.421875 15.453125 -0.5625 
Q 10.6875 0.296875 5.421875 2 
L 5.421875 11.28125 
Q 10.40625 8.6875 15.234375 7.390625 
Q 20.0625 6.109375 24.8125 6.109375 
Q 31.15625 6.109375 34.5625 8.28125 
Q 37.984375 10.453125 37.984375 14.40625 
Q 37.984375 18.0625 35.515625 20.015625 
Q 33.0625 21.96875 24.703125 23.78125 
L 21.578125 24.515625 
Q 13.234375 26.265625 9.515625 29.90625 
Q 5.8125 33.546875 5.8125 39.890625 
Q 5.8125 47.609375 11.28125 51.796875 
Q 16.75 56 26.8125 56 
Q 31.78125 56 36.171875 55.265625 
Q 40.578125 54.546875 44.28125 53.078125 
z
" id="DejaVuSans-115"/>
     <path id="DejaVuSans-32"/>
     <path d="M 19.671875 64.796875 
L 19.671875 37.40625 
L 32.078125 37.40625 
Q 38.96875 37.40625 42.71875 40.96875 
Q 46.484375 44.53125 46.484375 51.125 
Q 46.484375 57.671875 42.71875 61.234375 
Q 38.96875 64.796875 32.078125 64.796875 
z
M 9.8125 72.90625 
L 32.078125 72.90625 
Q 44.34375 72.90625 50.609375 67.359375 
Q 56.890625 61.8125 56.890625 51.125 
Q 56.890625 40.328125 50.609375 34.8125 
Q 44.34375 29.296875 32.078125 29.296875 
L 19.671875 29.296875 
L 19.671875 0 
L 9.8125 0 
z
" id="DejaVuSans-80"/>
     <path d="M 30.609375 48.390625 
Q 23.390625 48.390625 19.1875 42.75 
Q 14.984375 37.109375 14.984375 27.296875 
Q 14.984375 17.484375 19.15625 11.84375 
Q 23.34375 6.203125 30.609375 6.203125 
Q 37.796875 6.203125 41.984375 11.859375 
Q 46.1875 17.53125 46.1875 27.296875 
Q 46.1875 37.015625 41.984375 42.703125 
Q 37.796875 48.390625 30.609375 48.390625 
z
M 30.609375 56 
Q 42.328125 56 49.015625 48.375 
Q 55.71875 40.765625 55.71875 27.296875 
Q 55.71875 13.875 49.015625 6.21875 
Q 42.328125 -1.421875 30.609375 -1.421875 
Q 18.84375 -1.421875 12.171875 6.21875 
Q 5.515625 13.875 5.515625 27.296875 
Q 5.515625 40.765625 12.171875 48.375 
Q 18.84375 56 30.609375 56 
z
" id="DejaVuSans-111"/>
     <path d="M 9.421875 54.6875 
L 18.40625 54.6875 
L 18.40625 0 
L 9.421875 0 
z
M 9.421875 75.984375 
L 18.40625 75.984375 
L 18.40625 64.59375 
L 9.421875 64.59375 
z
" id="DejaVuSans-105"/>
     <path d="M 54.890625 33.015625 
L 54.890625 0 
L 45.90625 0 
L 45.90625 32.71875 
Q 45.90625 40.484375 42.875 44.328125 
Q 39.84375 48.1875 33.796875 48.1875 
Q 26.515625 48.1875 22.3125 43.546875 
Q 18.109375 38.921875 18.109375 30.90625 
L 18.109375 0 
L 9.078125 0 
L 9.078125 54.6875 
L 18.109375 54.6875 
L 18.109375 46.1875 
Q 21.34375 51.125 25.703125 53.5625 
Q 30.078125 56 35.796875 56 
Q 45.21875 56 50.046875 50.171875 
Q 54.890625 44.34375 54.890625 33.015625 
z
" id="DejaVuSans-110"/>
     <path d="M 18.3125 70.21875 
L 18.3125 54.6875 
L 36.8125 54.6875 
L 36.8125 47.703125 
L 18.3125 47.703125 
L 18.3125 18.015625 
Q 18.3125 11.328125 20.140625 9.421875 
Q 21.96875 7.515625 27.59375 7.515625 
L 36.8125 7.515625 
L 36.8125 0 
L 27.59375 0 
Q 17.1875 0 13.234375 3.875 
Q 9.28125 7.765625 9.28125 18.015625 
L 9.28125 47.703125 
L 2.6875 47.703125 
L 2.6875 54.6875 
L 9.28125 54.6875 
L 9.28125 70.21875 
z
" id="DejaVuSans-116"/>
    </defs>
    <g transform="translate(112.562131 376.041206)rotate(-334.777533)scale(0.1 -0.1)">
     <use xlink:href="#DejaVuSans-68"/>
     <use x="77.001953" xlink:href="#DejaVuSans-101"/>
     <use x="138.525391" xlink:href="#DejaVuSans-97"/>
     <use x="199.804688" xlink:href="#DejaVuSans-108"/>
     <use x="227.587891" xlink:href="#DejaVuSans-101"/>
     <use x="289.111328" xlink:href="#DejaVuSans-114"/>
     <use x="330.224609" xlink:href="#DejaVuSans-39"/>
     <use x="357.714844" xlink:href="#DejaVuSans-115"/>
     <use x="409.814453" xlink:href="#DejaVuSans-32"/>
     <use x="441.601562" xlink:href="#DejaVuSans-80"/>
     <use x="501.857422" xlink:href="#DejaVuSans-111"/>
     <use x="563.039062" xlink:href="#DejaVuSans-105"/>
     <use x="590.822266" xlink:href="#DejaVuSans-110"/>
     <use x="654.201172" xlink:href="#DejaVuSans-116"/>
     <use x="693.410156" xlink:href="#DejaVuSans-115"/>
    </g>
   </g>
   <g id="Line3DCollection_1">
    <path d="M 136.419214 346.780993 
L 500.449023 325.709109 
L 502.947811 79.404883 
" style="fill:none;stroke:#b0b0b0;stroke-width:0.8;"/>
    <path d="M 160.185648 357.976013 
L 529.842641 336.135061 
L 532.955501 85.573451 
" style="fill:none;stroke:#b0b0b0;stroke-width:0.8;"/>
    <path d="M 184.843564 369.59096 
L 560.29923 346.938052 
L 564.069757 91.969491 
" style="fill:none;stroke:#b0b0b0;stroke-width:0.8;"/>
    <path d="M 210.44408 381.649912 
L 591.877514 358.138908 
L 596.352938 98.605823 
" style="fill:none;stroke:#b0b0b0;stroke-width:0.8;"/>
    <path d="M 237.042301 394.178826 
L 624.640622 369.760023 
L 629.872178 105.496246 
" style="fill:none;stroke:#b0b0b0;stroke-width:0.8;"/>
   </g>
   <g id="xtick_1">
    <g id="line2d_2">
     <path d="M 139.435124 346.606417 
L 130.382196 347.130447 
" style="fill:none;stroke:#000000;stroke-linecap:square;stroke-width:0.8;"/>
    </g>
    <g id="text_2">
     <!-- 2 -->
     <defs>
      <path d="M 19.1875 8.296875 
L 53.609375 8.296875 
L 53.609375 0 
L 7.328125 0 
L 7.328125 8.296875 
Q 12.9375 14.109375 22.625 23.890625 
Q 32.328125 33.6875 34.8125 36.53125 
Q 39.546875 41.84375 41.421875 45.53125 
Q 43.3125 49.21875 43.3125 52.78125 
Q 43.3125 58.59375 39.234375 62.25 
Q 35.15625 65.921875 28.609375 65.921875 
Q 23.96875 65.921875 18.8125 64.3125 
Q 13.671875 62.703125 7.8125 59.421875 
L 7.8125 69.390625 
Q 13.765625 71.78125 18.9375 73 
Q 24.125 74.21875 28.421875 74.21875 
Q 39.75 74.21875 46.484375 68.546875 
Q 53.21875 62.890625 53.21875 53.421875 
Q 53.21875 48.921875 51.53125 44.890625 
Q 49.859375 40.875 45.40625 35.40625 
Q 44.1875 33.984375 37.640625 27.21875 
Q 31.109375 20.453125 19.1875 8.296875 
z
" id="DejaVuSans-50"/>
     </defs>
     <g transform="translate(119.353876 364.507627)scale(0.1 -0.1)">
      <use xlink:href="#DejaVuSans-50"/>
     </g>
    </g>
   </g>
   <g id="xtick_2">
    <g id="line2d_3">
     <path d="M 163.250115 357.794951 
L 154.051333 358.338455 
" style="fill:none;stroke:#000000;stroke-linecap:square;stroke-width:0.8;"/>
    </g>
    <g id="text_3">
     <!-- 4 -->
     <defs>
      <path d="M 37.796875 64.3125 
L 12.890625 25.390625 
L 37.796875 25.390625 
z
M 35.203125 72.90625 
L 47.609375 72.90625 
L 47.609375 25.390625 
L 58.015625 25.390625 
L 58.015625 17.1875 
L 47.609375 17.1875 
L 47.609375 0 
L 37.796875 0 
L 37.796875 17.1875 
L 4.890625 17.1875 
L 4.890625 26.703125 
z
" id="DejaVuSans-52"/>
     </defs>
     <g transform="translate(142.879492 375.896263)scale(0.1 -0.1)">
      <use xlink:href="#DejaVuSans-52"/>
     </g>
    </g>
   </g>
   <g id="xtick_3">
    <g id="line2d_4">
     <path d="M 187.958143 369.403043 
L 178.608833 369.967129 
" style="fill:none;stroke:#000000;stroke-linecap:square;stroke-width:0.8;"/>
    </g>
    <g id="text_4">
     <!-- 6 -->
     <defs>
      <path d="M 33.015625 40.375 
Q 26.375 40.375 22.484375 35.828125 
Q 18.609375 31.296875 18.609375 23.390625 
Q 18.609375 15.53125 22.484375 10.953125 
Q 26.375 6.390625 33.015625 6.390625 
Q 39.65625 6.390625 43.53125 10.953125 
Q 47.40625 15.53125 47.40625 23.390625 
Q 47.40625 31.296875 43.53125 35.828125 
Q 39.65625 40.375 33.015625 40.375 
z
M 52.59375 71.296875 
L 52.59375 62.3125 
Q 48.875 64.0625 45.09375 64.984375 
Q 41.3125 65.921875 37.59375 65.921875 
Q 27.828125 65.921875 22.671875 59.328125 
Q 17.53125 52.734375 16.796875 39.40625 
Q 19.671875 43.65625 24.015625 45.921875 
Q 28.375 48.1875 33.59375 48.1875 
Q 44.578125 48.1875 50.953125 41.515625 
Q 57.328125 34.859375 57.328125 23.390625 
Q 57.328125 12.15625 50.6875 5.359375 
Q 44.046875 -1.421875 33.015625 -1.421875 
Q 20.359375 -1.421875 13.671875 8.265625 
Q 6.984375 17.96875 6.984375 36.375 
Q 6.984375 53.65625 15.1875 63.9375 
Q 23.390625 74.21875 37.203125 74.21875 
Q 40.921875 74.21875 44.703125 73.484375 
Q 48.484375 72.75 52.59375 71.296875 
z
" id="DejaVuSans-54"/>
     </defs>
     <g transform="translate(167.288124 387.712362)scale(0.1 -0.1)">
      <use xlink:href="#DejaVuSans-54"/>
     </g>
    </g>
   </g>
   <g id="xtick_4">
    <g id="line2d_5">
     <path d="M 213.610402 381.454745 
L 204.105665 382.040603 
" style="fill:none;stroke:#000000;stroke-linecap:square;stroke-width:0.8;"/>
    </g>
    <g id="text_5">
     <!-- 8 -->
     <defs>
      <path d="M 31.78125 34.625 
Q 24.75 34.625 20.71875 30.859375 
Q 16.703125 27.09375 16.703125 20.515625 
Q 16.703125 13.921875 20.71875 10.15625 
Q 24.75 6.390625 31.78125 6.390625 
Q 38.8125 6.390625 42.859375 10.171875 
Q 46.921875 13.96875 46.921875 20.515625 
Q 46.921875 27.09375 42.890625 30.859375 
Q 38.875 34.625 31.78125 34.625 
z
M 21.921875 38.8125 
Q 15.578125 40.375 12.03125 44.71875 
Q 8.5 49.078125 8.5 55.328125 
Q 8.5 64.0625 14.71875 69.140625 
Q 20.953125 74.21875 31.78125 74.21875 
Q 42.671875 74.21875 48.875 69.140625 
Q 55.078125 64.0625 55.078125 55.328125 
Q 55.078125 49.078125 51.53125 44.71875 
Q 48 40.375 41.703125 38.8125 
Q 48.828125 37.15625 52.796875 32.3125 
Q 56.78125 27.484375 56.78125 20.515625 
Q 56.78125 9.90625 50.3125 4.234375 
Q 43.84375 -1.421875 31.78125 -1.421875 
Q 19.734375 -1.421875 13.25 4.234375 
Q 6.78125 9.90625 6.78125 20.515625 
Q 6.78125 27.484375 10.78125 32.3125 
Q 14.796875 37.15625 21.921875 38.8125 
z
M 18.3125 54.390625 
Q 18.3125 48.734375 21.84375 45.5625 
Q 25.390625 42.390625 31.78125 42.390625 
Q 38.140625 42.390625 41.71875 45.5625 
Q 45.3125 48.734375 45.3125 54.390625 
Q 45.3125 60.0625 41.71875 63.234375 
Q 38.140625 66.40625 31.78125 66.40625 
Q 25.390625 66.40625 21.84375 63.234375 
Q 18.3125 60.0625 18.3125 54.390625 
z
" id="DejaVuSans-56"/>
     </defs>
     <g transform="translate(192.630436 399.980451)scale(0.1 -0.1)">
      <use xlink:href="#DejaVuSans-56"/>
     </g>
    </g>
   </g>
   <g id="xtick_5">
    <g id="line2d_6">
     <path d="M 240.262071 393.97598 
L 230.596775 394.584896 
" style="fill:none;stroke:#000000;stroke-linecap:square;stroke-width:0.8;"/>
    </g>
    <g id="text_6">
     <!-- 10 -->
     <defs>
      <path d="M 12.40625 8.296875 
L 28.515625 8.296875 
L 28.515625 63.921875 
L 10.984375 60.40625 
L 10.984375 69.390625 
L 28.421875 72.90625 
L 38.28125 72.90625 
L 38.28125 8.296875 
L 54.390625 8.296875 
L 54.390625 0 
L 12.40625 0 
z
" id="DejaVuSans-49"/>
      <path d="M 31.78125 66.40625 
Q 24.171875 66.40625 20.328125 58.90625 
Q 16.5 51.421875 16.5 36.375 
Q 16.5 21.390625 20.328125 13.890625 
Q 24.171875 6.390625 31.78125 6.390625 
Q 39.453125 6.390625 43.28125 13.890625 
Q 47.125 21.390625 47.125 36.375 
Q 47.125 51.421875 43.28125 58.90625 
Q 39.453125 66.40625 31.78125 66.40625 
z
M 31.78125 74.21875 
Q 44.046875 74.21875 50.515625 64.515625 
Q 56.984375 54.828125 56.984375 36.375 
Q 56.984375 17.96875 50.515625 8.265625 
Q 44.046875 -1.421875 31.78125 -1.421875 
Q 19.53125 -1.421875 13.0625 8.265625 
Q 6.59375 17.96875 6.59375 36.375 
Q 6.59375 54.828125 13.0625 64.515625 
Q 19.53125 74.21875 31.78125 74.21875 
z
" id="DejaVuSans-48"/>
     </defs>
     <g transform="translate(215.779796 412.72697)scale(0.1 -0.1)">
      <use xlink:href="#DejaVuSans-49"/>
      <use x="63.623047" xlink:href="#DejaVuSans-48"/>
     </g>
    </g>
   </g>
  </g>
  <g id="axis3d_2">
   <g id="line2d_7">
    <path d="M 635.66053 373.668798 
L 245.997162 398.396954 
" style="fill:none;stroke:#000000;stroke-linecap:square;stroke-width:0.8;"/>
   </g>
   <g id="text_7">
    <!-- Your Points -->
    <defs>
     <path d="M -0.203125 72.90625 
L 10.40625 72.90625 
L 30.609375 42.921875 
L 50.6875 72.90625 
L 61.28125 72.90625 
L 35.5 34.71875 
L 35.5 0 
L 25.59375 0 
L 25.59375 34.71875 
z
" id="DejaVuSans-89"/>
     <path d="M 8.5 21.578125 
L 8.5 54.6875 
L 17.484375 54.6875 
L 17.484375 21.921875 
Q 17.484375 14.15625 20.5 10.265625 
Q 23.53125 6.390625 29.59375 6.390625 
Q 36.859375 6.390625 41.078125 11.03125 
Q 45.3125 15.671875 45.3125 23.6875 
L 45.3125 54.6875 
L 54.296875 54.6875 
L 54.296875 0 
L 45.3125 0 
L 45.3125 8.40625 
Q 42.046875 3.421875 37.71875 1 
Q 33.40625 -1.421875 27.6875 -1.421875 
Q 18.265625 -1.421875 13.375 4.4375 
Q 8.5 10.296875 8.5 21.578125 
z
M 31.109375 56 
z
" id="DejaVuSans-117"/>
    </defs>
    <g transform="translate(429.466608 417.168632)rotate(-3.631138)scale(0.1 -0.1)">
     <use xlink:href="#DejaVuSans-89"/>
     <use x="60.880859" xlink:href="#DejaVuSans-111"/>
     <use x="122.0625" xlink:href="#DejaVuSans-117"/>
     <use x="185.441406" xlink:href="#DejaVuSans-114"/>
     <use x="226.554688" xlink:href="#DejaVuSans-32"/>
     <use x="258.341797" xlink:href="#DejaVuSans-80"/>
     <use x="318.597656" xlink:href="#DejaVuSans-111"/>
     <use x="379.779297" xlink:href="#DejaVuSans-105"/>
     <use x="407.5625" xlink:href="#DejaVuSans-110"/>
     <use x="470.941406" xlink:href="#DejaVuSans-116"/>
     <use x="510.150391" xlink:href="#DejaVuSans-115"/>
    </g>
   </g>
   <g id="Line3DCollection_2">
    <path d="M 120.081961 86.315329 
L 124.817368 337.388491 
L 254.087619 397.883531 
" style="fill:none;stroke:#b0b0b0;stroke-width:0.8;"/>
    <path d="M 161.272224 84.954404 
L 165.208822 335.089082 
L 297.996646 395.097051 
" style="fill:none;stroke:#b0b0b0;stroke-width:0.8;"/>
    <path d="M 202.141241 83.604092 
L 205.291206 332.807267 
L 341.536024 392.334029 
" style="fill:none;stroke:#b0b0b0;stroke-width:0.8;"/>
    <path d="M 242.692756 82.264271 
L 245.068055 330.542846 
L 384.710403 389.59417 
" style="fill:none;stroke:#b0b0b0;stroke-width:0.8;"/>
    <path d="M 282.930453 80.934818 
L 284.542849 328.295621 
L 427.524353 386.877183 
" style="fill:none;stroke:#b0b0b0;stroke-width:0.8;"/>
    <path d="M 322.857961 79.615614 
L 323.719016 326.065396 
L 469.982368 384.182785 
" style="fill:none;stroke:#b0b0b0;stroke-width:0.8;"/>
    <path d="M 362.478855 78.30654 
L 362.599932 323.851979 
L 512.088869 381.510693 
" style="fill:none;stroke:#b0b0b0;stroke-width:0.8;"/>
    <path d="M 401.796652 77.007481 
L 401.188921 321.65518 
L 553.848204 378.860633 
" style="fill:none;stroke:#b0b0b0;stroke-width:0.8;"/>
    <path d="M 440.814816 75.718321 
L 439.48926 319.474814 
L 595.264648 376.232333 
" style="fill:none;stroke:#b0b0b0;stroke-width:0.8;"/>
   </g>
   <g id="xtick_6">
    <g id="line2d_8">
     <path d="M 252.949882 397.351101 
L 256.368619 398.950979 
" style="fill:none;stroke:#000000;stroke-linecap:square;stroke-width:0.8;"/>
    </g>
    <g id="text_8">
     <!-- 0.0 -->
     <defs>
      <path d="M 10.6875 12.40625 
L 21 12.40625 
L 21 0 
L 10.6875 0 
z
" id="DejaVuSans-46"/>
     </defs>
     <g transform="translate(251.542175 418.051399)scale(0.1 -0.1)">
      <use xlink:href="#DejaVuSans-48"/>
      <use x="63.623047" xlink:href="#DejaVuSans-46"/>
      <use x="95.410156" xlink:href="#DejaVuSans-48"/>
     </g>
    </g>
   </g>
   <g id="xtick_7">
    <g id="line2d_9">
     <path d="M 296.828399 394.56911 
L 300.338789 396.155486 
" style="fill:none;stroke:#000000;stroke-linecap:square;stroke-width:0.8;"/>
    </g>
    <g id="text_9">
     <!-- 2.5 -->
     <defs>
      <path d="M 10.796875 72.90625 
L 49.515625 72.90625 
L 49.515625 64.59375 
L 19.828125 64.59375 
L 19.828125 46.734375 
Q 21.96875 47.46875 24.109375 47.828125 
Q 26.265625 48.1875 28.421875 48.1875 
Q 40.625 48.1875 47.75 41.5 
Q 54.890625 34.8125 54.890625 23.390625 
Q 54.890625 11.625 47.5625 5.09375 
Q 40.234375 -1.421875 26.90625 -1.421875 
Q 22.3125 -1.421875 17.546875 -0.640625 
Q 12.796875 0.140625 7.71875 1.703125 
L 7.71875 11.625 
Q 12.109375 9.234375 16.796875 8.0625 
Q 21.484375 6.890625 26.703125 6.890625 
Q 35.15625 6.890625 40.078125 11.328125 
Q 45.015625 15.765625 45.015625 23.390625 
Q 45.015625 31 40.078125 35.4375 
Q 35.15625 39.890625 26.703125 39.890625 
Q 22.75 39.890625 18.8125 39.015625 
Q 14.890625 38.140625 10.796875 36.28125 
z
" id="DejaVuSans-53"/>
     </defs>
     <g transform="translate(295.559085 415.203328)scale(0.1 -0.1)">
      <use xlink:href="#DejaVuSans-50"/>
      <use x="63.623047" xlink:href="#DejaVuSans-46"/>
      <use x="95.410156" xlink:href="#DejaVuSans-53"/>
     </g>
    </g>
   </g>
   <g id="xtick_8">
    <g id="line2d_10">
     <path d="M 340.337821 391.810522 
L 343.938202 393.383565 
" style="fill:none;stroke:#000000;stroke-linecap:square;stroke-width:0.8;"/>
    </g>
    <g id="text_10">
     <!-- 5.0 -->
     <g transform="translate(339.204339 412.379305)scale(0.1 -0.1)">
      <use xlink:href="#DejaVuSans-53"/>
      <use x="63.623047" xlink:href="#DejaVuSans-46"/>
      <use x="95.410156" xlink:href="#DejaVuSans-48"/>
     </g>
    </g>
   </g>
   <g id="xtick_9">
    <g id="line2d_11">
     <path d="M 383.482785 389.07504 
L 387.171527 390.634919 
" style="fill:none;stroke:#000000;stroke-linecap:square;stroke-width:0.8;"/>
    </g>
    <g id="text_11">
     <!-- 7.5 -->
     <defs>
      <path d="M 8.203125 72.90625 
L 55.078125 72.90625 
L 55.078125 68.703125 
L 28.609375 0 
L 18.3125 0 
L 43.21875 64.59375 
L 8.203125 64.59375 
z
" id="DejaVuSans-55"/>
     </defs>
     <g transform="translate(382.482625 409.579026)scale(0.1 -0.1)">
      <use xlink:href="#DejaVuSans-55"/>
      <use x="63.623047" xlink:href="#DejaVuSans-46"/>
      <use x="95.410156" xlink:href="#DejaVuSans-53"/>
     </g>
    </g>
   </g>
   <g id="xtick_10">
    <g id="line2d_12">
     <path d="M 426.267851 386.362377 
L 430.043357 387.909255 
" style="fill:none;stroke:#000000;stroke-linecap:square;stroke-width:0.8;"/>
    </g>
    <g id="text_12">
     <!-- 10.0 -->
     <g transform="translate(422.217301 406.802193)scale(0.1 -0.1)">
      <use xlink:href="#DejaVuSans-49"/>
      <use x="63.623047" xlink:href="#DejaVuSans-48"/>
      <use x="127.246094" xlink:href="#DejaVuSans-46"/>
      <use x="159.033203" xlink:href="#DejaVuSans-48"/>
     </g>
    </g>
   </g>
   <g id="xtick_11">
    <g id="line2d_13">
     <path d="M 468.697505 383.672248 
L 472.558206 385.206288 
" style="fill:none;stroke:#000000;stroke-linecap:square;stroke-width:0.8;"/>
    </g>
    <g id="text_13">
     <!-- 12.5 -->
     <g transform="translate(464.775401 404.048513)scale(0.1 -0.1)">
      <use xlink:href="#DejaVuSans-49"/>
      <use x="63.623047" xlink:href="#DejaVuSans-50"/>
      <use x="127.246094" xlink:href="#DejaVuSans-46"/>
      <use x="159.033203" xlink:href="#DejaVuSans-53"/>
     </g>
    </g>
   </g>
   <g id="xtick_12">
    <g id="line2d_14">
     <path d="M 510.776156 381.004373 
L 514.720515 382.525734 
" style="fill:none;stroke:#000000;stroke-linecap:square;stroke-width:0.8;"/>
    </g>
    <g id="text_14">
     <!-- 15.0 -->
     <g transform="translate(506.98013 401.317698)scale(0.1 -0.1)">
      <use xlink:href="#DejaVuSans-49"/>
      <use x="63.623047" xlink:href="#DejaVuSans-53"/>
      <use x="127.246094" xlink:href="#DejaVuSans-46"/>
      <use x="159.033203" xlink:href="#DejaVuSans-48"/>
     </g>
    </g>
   </g>
   <g id="xtick_13">
    <g id="line2d_15">
     <path d="M 552.508142 378.358477 
L 556.53465 379.867315 
" style="fill:none;stroke:#000000;stroke-linecap:square;stroke-width:0.8;"/>
    </g>
    <g id="text_15">
     <!-- 17.5 -->
     <g transform="translate(548.835871 398.609463)scale(0.1 -0.1)">
      <use xlink:href="#DejaVuSans-49"/>
      <use x="63.623047" xlink:href="#DejaVuSans-55"/>
      <use x="127.246094" xlink:href="#DejaVuSans-46"/>
      <use x="159.033203" xlink:href="#DejaVuSans-53"/>
     </g>
    </g>
   </g>
   <g id="xtick_14">
    <g id="line2d_16">
     <path d="M 593.897729 375.73429 
L 598.004906 377.23076 
" style="fill:none;stroke:#000000;stroke-linecap:square;stroke-width:0.8;"/>
    </g>
    <g id="text_16">
     <!-- 20.0 -->
     <g transform="translate(590.346936 395.923531)scale(0.1 -0.1)">
      <use xlink:href="#DejaVuSans-50"/>
      <use x="63.623047" xlink:href="#DejaVuSans-48"/>
      <use x="127.246094" xlink:href="#DejaVuSans-46"/>
      <use x="159.033203" xlink:href="#DejaVuSans-48"/>
     </g>
    </g>
   </g>
  </g>
  <g id="axis3d_3">
   <g id="line2d_17">
    <path d="M 635.66053 373.668798 
L 641.15209 107.815015 
" style="fill:none;stroke:#000000;stroke-linecap:square;stroke-width:0.8;"/>
   </g>
   <g id="text_17">
    <!-- Your Win Rate -->
    <defs>
     <path d="M 3.328125 72.90625 
L 13.28125 72.90625 
L 28.609375 11.28125 
L 43.890625 72.90625 
L 54.984375 72.90625 
L 70.3125 11.28125 
L 85.59375 72.90625 
L 95.609375 72.90625 
L 77.296875 0 
L 64.890625 0 
L 49.515625 63.28125 
L 33.984375 0 
L 21.578125 0 
z
" id="DejaVuSans-87"/>
     <path d="M 44.390625 34.1875 
Q 47.5625 33.109375 50.5625 29.59375 
Q 53.5625 26.078125 56.59375 19.921875 
L 66.609375 0 
L 56 0 
L 46.6875 18.703125 
Q 43.0625 26.03125 39.671875 28.421875 
Q 36.28125 30.8125 30.421875 30.8125 
L 19.671875 30.8125 
L 19.671875 0 
L 9.8125 0 
L 9.8125 72.90625 
L 32.078125 72.90625 
Q 44.578125 72.90625 50.734375 67.671875 
Q 56.890625 62.453125 56.890625 51.90625 
Q 56.890625 45.015625 53.6875 40.46875 
Q 50.484375 35.9375 44.390625 34.1875 
z
M 19.671875 64.796875 
L 19.671875 38.921875 
L 32.078125 38.921875 
Q 39.203125 38.921875 42.84375 42.21875 
Q 46.484375 45.515625 46.484375 51.90625 
Q 46.484375 58.296875 42.84375 61.546875 
Q 39.203125 64.796875 32.078125 64.796875 
z
" id="DejaVuSans-82"/>
    </defs>
    <g transform="translate(685.558608 280.200983)rotate(-88.816648)scale(0.1 -0.1)">
     <use xlink:href="#DejaVuSans-89"/>
     <use x="60.880859" xlink:href="#DejaVuSans-111"/>
     <use x="122.0625" xlink:href="#DejaVuSans-117"/>
     <use x="185.441406" xlink:href="#DejaVuSans-114"/>
     <use x="226.554688" xlink:href="#DejaVuSans-32"/>
     <use x="258.341797" xlink:href="#DejaVuSans-87"/>
     <use x="357.1875" xlink:href="#DejaVuSans-105"/>
     <use x="384.970703" xlink:href="#DejaVuSans-110"/>
     <use x="448.349609" xlink:href="#DejaVuSans-32"/>
     <use x="480.136719" xlink:href="#DejaVuSans-82"/>
     <use x="549.587891" xlink:href="#DejaVuSans-97"/>
     <use x="610.867188" xlink:href="#DejaVuSans-116"/>
     <use x="650.076172" xlink:href="#DejaVuSans-101"/>
    </g>
   </g>
   <g id="Line3DCollection_3">
    <path d="M 635.893047 362.412328 
L 476.95863 307.044632 
L 117.171472 327.162164 
" style="fill:none;stroke:#b0b0b0;stroke-width:0.8;"/>
    <path d="M 636.636416 326.424854 
L 477.232578 274.119328 
L 116.509856 293.121247 
" style="fill:none;stroke:#b0b0b0;stroke-width:0.8;"/>
    <path d="M 637.383937 290.236359 
L 477.507921 241.026515 
L 115.844754 258.900985 
" style="fill:none;stroke:#b0b0b0;stroke-width:0.8;"/>
    <path d="M 638.135645 253.845152 
L 477.784668 207.764914 
L 115.176139 224.499955 
" style="fill:none;stroke:#b0b0b0;stroke-width:0.8;"/>
    <path d="M 638.891576 217.249526 
L 478.062829 174.333227 
L 114.503983 189.916722 
" style="fill:none;stroke:#b0b0b0;stroke-width:0.8;"/>
    <path d="M 639.651765 180.447754 
L 478.342417 140.730149 
L 113.828257 155.149835 
" style="fill:none;stroke:#b0b0b0;stroke-width:0.8;"/>
    <path d="M 640.416249 143.438088 
L 478.623442 106.954357 
L 113.148933 120.197826 
" style="fill:none;stroke:#b0b0b0;stroke-width:0.8;"/>
   </g>
   <g id="xtick_15">
    <g id="line2d_18">
     <path d="M 634.498797 361.926615 
L 638.688078 363.386028 
" style="fill:none;stroke:#000000;stroke-linecap:square;stroke-width:0.8;"/>
    </g>
    <g id="text_18">
     <!-- −0.4 -->
     <defs>
      <path d="M 10.59375 35.5 
L 73.1875 35.5 
L 73.1875 27.203125 
L 10.59375 27.203125 
z
" id="DejaVuSans-8722"/>
     </defs>
     <g transform="translate(644.271391 371.405202)scale(0.1 -0.1)">
      <use xlink:href="#DejaVuSans-8722"/>
      <use x="83.789062" xlink:href="#DejaVuSans-48"/>
      <use x="147.412109" xlink:href="#DejaVuSans-46"/>
      <use x="179.199219" xlink:href="#DejaVuSans-52"/>
     </g>
    </g>
   </g>
   <g id="xtick_16">
    <g id="line2d_19">
     <path d="M 635.237705 325.965892 
L 639.440407 327.344934 
" style="fill:none;stroke:#000000;stroke-linecap:square;stroke-width:0.8;"/>
    </g>
    <g id="text_19">
     <!-- −0.2 -->
     <g transform="translate(645.073705 335.340942)scale(0.1 -0.1)">
      <use xlink:href="#DejaVuSans-8722"/>
      <use x="83.789062" xlink:href="#DejaVuSans-48"/>
      <use x="147.412109" xlink:href="#DejaVuSans-46"/>
      <use x="179.199219" xlink:href="#DejaVuSans-50"/>
     </g>
    </g>
   </g>
   <g id="xtick_17">
    <g id="line2d_20">
     <path d="M 635.980737 289.804454 
L 640.196945 291.102203 
" style="fill:none;stroke:#000000;stroke-linecap:square;stroke-width:0.8;"/>
    </g>
    <g id="text_20">
     <!-- 0.0 -->
     <g transform="translate(650.070355 299.074778)scale(0.1 -0.1)">
      <use xlink:href="#DejaVuSans-48"/>
      <use x="63.623047" xlink:href="#DejaVuSans-46"/>
      <use x="95.410156" xlink:href="#DejaVuSans-48"/>
     </g>
    </g>
   </g>
   <g id="xtick_18">
    <g id="line2d_21">
     <path d="M 636.727928 253.440615 
L 640.957728 254.656137 
" style="fill:none;stroke:#000000;stroke-linecap:square;stroke-width:0.8;"/>
    </g>
    <g id="text_21">
     <!-- 0.2 -->
     <g transform="translate(650.881691 262.605009)scale(0.1 -0.1)">
      <use xlink:href="#DejaVuSans-48"/>
      <use x="63.623047" xlink:href="#DejaVuSans-46"/>
      <use x="95.410156" xlink:href="#DejaVuSans-50"/>
     </g>
    </g>
   </g>
   <g id="xtick_19">
    <g id="line2d_22">
     <path d="M 637.479313 216.872671 
L 641.722791 218.005021 
" style="fill:none;stroke:#000000;stroke-linecap:square;stroke-width:0.8;"/>
    </g>
    <g id="text_22">
     <!-- 0.4 -->
     <g transform="translate(651.697594 225.929917)scale(0.1 -0.1)">
      <use xlink:href="#DejaVuSans-48"/>
      <use x="63.623047" xlink:href="#DejaVuSans-46"/>
      <use x="95.410156" xlink:href="#DejaVuSans-52"/>
     </g>
    </g>
   </g>
   <g id="xtick_20">
    <g id="line2d_23">
     <path d="M 638.234927 180.0989 
L 642.49217 181.147119 
" style="fill:none;stroke:#000000;stroke-linecap:square;stroke-width:0.8;"/>
    </g>
    <g id="text_23">
     <!-- 0.6 -->
     <g transform="translate(652.518104 189.047762)scale(0.1 -0.1)">
      <use xlink:href="#DejaVuSans-48"/>
      <use x="63.623047" xlink:href="#DejaVuSans-46"/>
      <use x="95.410156" xlink:href="#DejaVuSans-54"/>
     </g>
    </g>
   </g>
   <g id="xtick_21">
    <g id="line2d_24">
     <path d="M 638.994807 143.117558 
L 643.265903 144.080676 
" style="fill:none;stroke:#000000;stroke-linecap:square;stroke-width:0.8;"/>
    </g>
    <g id="text_24">
     <!-- 0.8 -->
     <g transform="translate(653.343259 151.956787)scale(0.1 -0.1)">
      <use xlink:href="#DejaVuSans-48"/>
      <use x="63.623047" xlink:href="#DejaVuSans-46"/>
      <use x="95.410156" xlink:href="#DejaVuSans-56"/>
     </g>
    </g>
   </g>
  </g>
  <g id="axes_1">
   <g id="Poly3DCollection_1">
    <path clip-path="url(#p99cc1e859e)" d="M 371.330234 210.329837 
L 384.904679 225.781228 
L 400.735614 208.542179 
L 387.037443 194.177397 
z
" style="fill:#7affb7;"/>
    <path clip-path="url(#p99cc1e859e)" d="M 387.037443 194.177397 
L 400.735614 208.542179 
L 416.608766 177.264458 
L 402.766411 165.332136 
z
" style="fill:#aef498;"/>
    <path clip-path="url(#p99cc1e859e)" d="M 402.766411 165.332136 
L 416.608766 177.264458 
L 432.490835 149.310408 
L 418.504747 139.148323 
z
" style="fill:#eec66d;"/>
    <path clip-path="url(#p99cc1e859e)" d="M 355.596241 211.051713 
L 369.065008 226.357274 
L 384.904679 225.781228 
L 371.330234 210.329837 
z
" style="fill:#68fcc1;"/>
    <path clip-path="url(#p99cc1e859e)" d="M 449.954684 97.465553 
L 464.233045 103.444563 
L 480.064282 86.108033 
L 465.639643 82.141565 
z
" style="fill:#ff0000;"/>
    <path clip-path="url(#p99cc1e859e)" d="M 418.504747 139.148323 
L 432.490835 149.310408 
L 448.371014 124.472358 
L 434.238288 116.551049 
z
" style="fill:#ff8444;"/>
    <path clip-path="url(#p99cc1e859e)" d="M 434.238288 116.551049 
L 448.371014 124.472358 
L 464.233045 103.444563 
L 449.954684 97.465553 
z
" style="fill:#ff3e1f;"/>
    <path clip-path="url(#p99cc1e859e)" d="M 339.803079 206.898953 
L 353.165442 218.292363 
L 369.065008 226.357274 
L 355.596241 211.051713 
z
" style="fill:#70febc;"/>
    <path clip-path="url(#p99cc1e859e)" d="M 323.919367 193.969288 
L 337.184208 205.74585 
L 353.165442 218.292363 
L 339.803079 206.898953 
z
" style="fill:#86ffb0;"/>
    <path clip-path="url(#p99cc1e859e)" d="M 307.950826 180.42076 
L 321.119323 192.771294 
L 337.184208 205.74585 
L 323.919367 193.969288 
z
" style="fill:#a6f89d;"/>
    <path clip-path="url(#p99cc1e859e)" d="M 384.904679 225.781228 
L 398.701556 240.394291 
L 414.659565 222.609718 
L 400.735614 208.542179 
z
" style="fill:#62fbc4;"/>
    <path clip-path="url(#p99cc1e859e)" d="M 400.735614 208.542179 
L 414.659565 222.609718 
L 430.684827 188.863853 
L 416.608766 177.264458 
z
" style="fill:#9bfba5;"/>
    <path clip-path="url(#p99cc1e859e)" d="M 369.065008 226.357274 
L 382.754053 240.653341 
L 398.701556 240.394291 
L 384.904679 225.781228 
z
" style="fill:#4ef3cd;"/>
    <path clip-path="url(#p99cc1e859e)" d="M 416.608766 177.264458 
L 430.684827 188.863853 
L 446.718531 158.88376 
L 432.490835 149.310408 
z
" style="fill:#ded579;"/>
    <path clip-path="url(#p99cc1e859e)" d="M 292.063519 194.960035 
L 305.107104 207.674999 
L 321.119323 192.771294 
L 307.950826 180.42076 
z
" style="fill:#a6f89d;"/>
    <path clip-path="url(#p99cc1e859e)" d="M 432.490835 149.310408 
L 446.718531 158.88376 
L 462.749111 132.358506 
L 448.371014 124.472358 
z
" style="fill:#ff934d;"/>
    <path clip-path="url(#p99cc1e859e)" d="M 276.156387 208.897547 
L 289.075285 221.86097 
L 305.107104 207.674999 
L 292.063519 194.960035 
z
" style="fill:#86ffb0;"/>
    <path clip-path="url(#p99cc1e859e)" d="M 464.233045 103.444563 
L 478.763797 109.311611 
L 494.74658 90.10306 
L 480.064282 86.108033 
z
" style="fill:#ff0603;"/>
    <path clip-path="url(#p99cc1e859e)" d="M 448.371014 124.472358 
L 462.749111 132.358506 
L 478.763797 109.311611 
L 464.233045 103.444563 
z
" style="fill:#ff4a26;"/>
    <path clip-path="url(#p99cc1e859e)" d="M 260.168352 215.17376 
L 272.990456 231.158925 
L 289.075285 221.86097 
L 276.156387 208.897547 
z
" style="fill:#70febc;"/>
    <path clip-path="url(#p99cc1e859e)" d="M 353.165442 218.292363 
L 366.7535 229.059522 
L 382.754053 240.653341 
L 369.065008 226.357274 
z
" style="fill:#5df9c7;"/>
    <path clip-path="url(#p99cc1e859e)" d="M 244.091522 215.93089 
L 256.799365 231.499781 
L 272.990456 231.158925 
L 260.168352 215.17376 
z
" style="fill:#68fcc1;"/>
    <path clip-path="url(#p99cc1e859e)" d="M 227.963261 216.541479 
L 240.565344 232.732948 
L 256.799365 231.499781 
L 244.091522 215.93089 
z
" style="fill:#68fcc1;"/>
    <path clip-path="url(#p99cc1e859e)" d="M 337.184208 205.74585 
L 350.671982 217.091215 
L 366.7535 229.059522 
L 353.165442 218.292363 
z
" style="fill:#76ffb9;"/>
    <path clip-path="url(#p99cc1e859e)" d="M 211.786282 217.296203 
L 224.277404 233.588841 
L 240.565344 232.732948 
L 227.963261 216.541479 
z
" style="fill:#68fcc1;"/>
    <path clip-path="url(#p99cc1e859e)" d="M 321.119323 192.771294 
L 334.507336 204.603108 
L 350.671982 217.091215 
L 337.184208 205.74585 
z
" style="fill:#94fda8;"/>
    <path clip-path="url(#p99cc1e859e)" d="M 398.701556 240.394291 
L 412.729899 254.139137 
L 428.821829 235.239062 
L 414.659565 222.609718 
z
" style="fill:#4df3ce;"/>
    <path clip-path="url(#p99cc1e859e)" d="M 195.560035 218.131563 
L 207.934997 234.157445 
L 224.277404 233.588841 
L 211.786282 217.296203 
z
" style="fill:#68fcc1;"/>
    <path clip-path="url(#p99cc1e859e)" d="M 414.659565 222.609718 
L 428.821829 235.239062 
L 445.004018 199.820826 
L 430.684827 188.863853 
z
" style="fill:#86ffb0;"/>
    <path clip-path="url(#p99cc1e859e)" d="M 382.754053 240.653341 
L 396.680756 250.199216 
L 412.729899 254.139137 
L 398.701556 240.394291 
z
" style="fill:#3dead5;"/>
    <path clip-path="url(#p99cc1e859e)" d="M 305.107104 207.674999 
L 318.366735 219.852795 
L 334.507336 204.603108 
L 321.119323 192.771294 
z
" style="fill:#94fda8;"/>
    <path clip-path="url(#p99cc1e859e)" d="M 430.684827 188.863853 
L 445.004018 199.820826 
L 461.193662 168.26889 
L 446.718531 158.88376 
z
" style="fill:#cee184;"/>
    <path clip-path="url(#p99cc1e859e)" d="M 179.285782 219.130466 
L 191.544863 235.032523 
L 207.934997 234.157445 
L 195.560035 218.131563 
z
" style="fill:#68fcc1;"/>
    <path clip-path="url(#p99cc1e859e)" d="M 289.075285 221.86097 
L 302.207017 234.281663 
L 318.366735 219.852795 
L 305.107104 207.674999 
z
" style="fill:#74feba;"/>
    <path clip-path="url(#p99cc1e859e)" d="M 446.718531 158.88376 
L 461.193662 168.26889 
L 477.38344 139.739797 
L 462.749111 132.358506 
z
" style="fill:#ffa256;"/>
    <path clip-path="url(#p99cc1e859e)" d="M 462.749111 132.358506 
L 477.38344 139.739797 
L 493.554095 115.093854 
L 478.763797 109.311611 
z
" style="fill:#ff532a;"/>
    <path clip-path="url(#p99cc1e859e)" d="M 478.763797 109.311611 
L 493.554095 115.093854 
L 509.694185 94.075941 
L 494.74658 90.10306 
z
" style="fill:#ff0905;"/>
    <path clip-path="url(#p99cc1e859e)" d="M 272.990456 231.158925 
L 286.011434 245.751912 
L 302.207017 234.281663 
L 289.075285 221.86097 
z
" style="fill:#5af8c8;"/>
    <path clip-path="url(#p99cc1e859e)" d="M 366.7535 229.059522 
L 380.575795 239.022356 
L 396.680756 250.199216 
L 382.754053 240.653341 
z
" style="fill:#4df3ce;"/>
    <path clip-path="url(#p99cc1e859e)" d="M 162.957367 219.879252 
L 175.097975 235.545653 
L 191.544863 235.032523 
L 179.285782 219.130466 
z
" style="fill:#68fcc1;"/>
    <path clip-path="url(#p99cc1e859e)" d="M 256.799365 231.499781 
L 269.712593 246.882617 
L 286.011434 245.751912 
L 272.990456 231.158925 
z
" style="fill:#4ef3cd;"/>
    <path clip-path="url(#p99cc1e859e)" d="M 146.572277 220.299879 
L 158.605686 236.501727 
L 175.097975 235.545653 
L 162.957367 219.879252 
z
" style="fill:#68fcc1;"/>
    <path clip-path="url(#p99cc1e859e)" d="M 240.565344 232.732948 
L 253.360363 247.697788 
L 269.712593 246.882617 
L 256.799365 231.499781 
z
" style="fill:#4ef3cd;"/>
    <path clip-path="url(#p99cc1e859e)" d="M 350.671982 217.091215 
L 364.390189 227.456079 
L 380.575795 239.022356 
L 366.7535 229.059522 
z
" style="fill:#68fcc1;"/>
    <path clip-path="url(#p99cc1e859e)" d="M 224.277404 233.588841 
L 236.954947 248.359779 
L 253.360363 247.697788 
L 240.565344 232.732948 
z
" style="fill:#4ef3cd;"/>
    <path clip-path="url(#p99cc1e859e)" d="M 334.507336 204.603108 
L 348.121636 215.215875 
L 364.390189 227.456079 
L 350.671982 217.091215 
z
" style="fill:#86ffb0;"/>
    <path clip-path="url(#p99cc1e859e)" d="M 207.934997 234.157445 
L 220.502991 249.52507 
L 236.954947 248.359779 
L 224.277404 233.588841 
z
" style="fill:#4ef3cd;"/>
    <path clip-path="url(#p99cc1e859e)" d="M 412.729899 254.139137 
L 426.999702 266.876259 
L 443.227164 247.592063 
L 428.821829 235.239062 
z
" style="fill:#3ae8d6;"/>
    <path clip-path="url(#p99cc1e859e)" d="M 428.821829 235.239062 
L 443.227164 247.592063 
L 459.570098 210.88451 
L 445.004018 199.820826 
z
" style="fill:#76ffb9;"/>
    <path clip-path="url(#p99cc1e859e)" d="M 396.680756 250.199216 
L 410.853079 259.36794 
L 426.999702 266.876259 
L 412.729899 254.139137 
z
" style="fill:#2ddedc;"/>
    <path clip-path="url(#p99cc1e859e)" d="M 318.366735 219.852795 
L 331.848181 230.758593 
L 348.121636 215.215875 
L 334.507336 204.603108 
z
" style="fill:#84ffb2;"/>
    <path clip-path="url(#p99cc1e859e)" d="M 191.544863 235.032523 
L 203.988896 249.830917 
L 220.502991 249.52507 
L 207.934997 234.157445 
z
" style="fill:#4ef3cd;"/>
    <path clip-path="url(#p99cc1e859e)" d="M 445.004018 199.820826 
L 459.570098 210.88451 
L 475.927174 177.056961 
L 461.193662 168.26889 
z
" style="fill:#c2ea8c;"/>
    <path clip-path="url(#p99cc1e859e)" d="M 302.207017 234.281663 
L 315.556021 245.339188 
L 331.848181 230.758593 
L 318.366735 219.852795 
z
" style="fill:#64fbc3;"/>
    <path clip-path="url(#p99cc1e859e)" d="M 461.193662 168.26889 
L 475.927174 177.056961 
L 492.28013 146.906662 
L 477.38344 139.739797 
z
" style="fill:#ffac5c;"/>
    <path clip-path="url(#p99cc1e859e)" d="M 286.011434 245.751912 
L 299.24184 259.029763 
L 315.556021 245.339188 
L 302.207017 234.281663 
z
" style="fill:#46efd1;"/>
    <path clip-path="url(#p99cc1e859e)" d="M 477.38344 139.739797 
L 492.28013 146.906662 
L 508.615142 120.451812 
L 493.554095 115.093854 
z
" style="fill:#ff5f30;"/>
    <path clip-path="url(#p99cc1e859e)" d="M 493.554095 115.093854 
L 508.615142 120.451812 
L 524.913138 98.15457 
L 509.694185 94.075941 
z
" style="fill:#ff1008;"/>
    <path clip-path="url(#p99cc1e859e)" d="M 175.097975 235.545653 
L 187.429125 250.712436 
L 203.988896 249.830917 
L 191.544863 235.032523 
z
" style="fill:#4ef3cd;"/>
    <path clip-path="url(#p99cc1e859e)" d="M 380.575795 239.022356 
L 394.640558 248.710772 
L 410.853079 259.36794 
L 396.680756 250.199216 
z
" style="fill:#40ecd4;"/>
    <path clip-path="url(#p99cc1e859e)" d="M 269.712593 246.882617 
L 282.828944 260.760174 
L 299.24184 259.029763 
L 286.011434 245.751912 
z
" style="fill:#38e7d7;"/>
    <path clip-path="url(#p99cc1e859e)" d="M 158.605686 236.501727 
L 170.813862 251.396822 
L 187.429125 250.712436 
L 175.097975 235.545653 
z
" style="fill:#4ef3cd;"/>
    <path clip-path="url(#p99cc1e859e)" d="M 253.360363 247.697788 
L 266.358574 261.535447 
L 282.828944 260.760174 
L 269.712593 246.882617 
z
" style="fill:#38e7d7;"/>
    <path clip-path="url(#p99cc1e859e)" d="M 364.390189 227.456079 
L 378.348272 237.271412 
L 394.640558 248.710772 
L 380.575795 239.022356 
z
" style="fill:#5df9c7;"/>
    <path clip-path="url(#p99cc1e859e)" d="M 236.954947 248.359779 
L 249.836188 262.376521 
L 266.358574 261.535447 
L 253.360363 247.697788 
z
" style="fill:#38e7d7;"/>
    <path clip-path="url(#p99cc1e859e)" d="M 220.502991 249.52507 
L 233.26321 263.42111 
L 249.836188 262.376521 
L 236.954947 248.359779 
z
" style="fill:#38e7d7;"/>
    <path clip-path="url(#p99cc1e859e)" d="M 348.121636 215.215875 
L 361.973137 225.535167 
L 378.348272 237.271412 
L 364.390189 227.456079 
z
" style="fill:#78ffb8;"/>
    <path clip-path="url(#p99cc1e859e)" d="M 426.999702 266.876259 
L 441.529225 277.160557 
L 457.894974 257.978419 
L 443.227164 247.592063 
z
" style="fill:#2adddd;"/>
    <path clip-path="url(#p99cc1e859e)" d="M 443.227164 247.592063 
L 457.894974 257.978419 
L 474.477023 211.245868 
L 459.570098 210.88451 
z
" style="fill:#6dfdbf;"/>
    <path clip-path="url(#p99cc1e859e)" d="M 203.988896 249.830917 
L 216.631943 263.967214 
L 233.26321 263.42111 
L 220.502991 249.52507 
z
" style="fill:#38e7d7;"/>
    <path clip-path="url(#p99cc1e859e)" d="M 410.853079 259.36794 
L 425.282945 267.320742 
L 441.529225 277.160557 
L 426.999702 266.876259 
z
" style="fill:#20d5e1;"/>
    <path clip-path="url(#p99cc1e859e)" d="M 331.848181 230.758593 
L 345.563465 241.251509 
L 361.973137 225.535167 
L 348.121636 215.215875 
z
" style="fill:#76ffb9;"/>
    <path clip-path="url(#p99cc1e859e)" d="M 315.556021 245.339188 
L 329.136138 256.07327 
L 345.563465 241.251509 
L 331.848181 230.758593 
z
" style="fill:#56f7ca;"/>
    <path clip-path="url(#p99cc1e859e)" d="M 459.570098 210.88451 
L 474.477023 211.245868 
L 490.992155 178.397453 
L 475.927174 177.056961 
z
" style="fill:#beec8e;"/>
    <path clip-path="url(#p99cc1e859e)" d="M 299.24184 259.029763 
L 312.687117 269.870569 
L 329.136138 256.07327 
L 315.556021 245.339188 
z
" style="fill:#38e7d7;"/>
    <path clip-path="url(#p99cc1e859e)" d="M 475.927174 177.056961 
L 490.992155 178.397453 
L 507.498226 149.035921 
L 492.28013 146.906662 
z
" style="fill:#ffb05f;"/>
    <path clip-path="url(#p99cc1e859e)" d="M 187.429125 250.712436 
L 199.951333 264.871708 
L 216.631943 263.967214 
L 203.988896 249.830917 
z
" style="fill:#38e7d7;"/>
    <path clip-path="url(#p99cc1e859e)" d="M 492.28013 146.906662 
L 507.498226 149.035921 
L 523.982503 123.136686 
L 508.615142 120.451812 
z
" style="fill:#ff5f30;"/>
    <path clip-path="url(#p99cc1e859e)" d="M 508.615142 120.451812 
L 523.982503 123.136686 
L 540.428365 100.990038 
L 524.913138 98.15457 
z
" style="fill:#ff1008;"/>
    <path clip-path="url(#p99cc1e859e)" d="M 282.828944 260.760174 
L 296.163931 273.983507 
L 312.687117 269.870569 
L 299.24184 259.029763 
z
" style="fill:#27dade;"/>
    <path clip-path="url(#p99cc1e859e)" d="M 394.640558 248.710772 
L 408.95892 257.067721 
L 425.282945 267.320742 
L 410.853079 259.36794 
z
" style="fill:#38e7d7;"/>
    <path clip-path="url(#p99cc1e859e)" d="M 170.813862 251.396822 
L 183.213314 265.491311 
L 199.951333 264.871708 
L 187.429125 250.712436 
z
" style="fill:#38e7d7;"/>
    <path clip-path="url(#p99cc1e859e)" d="M 266.358574 261.535447 
L 279.572218 274.63877 
L 296.163931 273.983507 
L 282.828944 260.760174 
z
" style="fill:#24d8df;"/>
    <path clip-path="url(#p99cc1e859e)" d="M 378.348272 237.271412 
L 392.555137 246.431519 
L 408.95892 257.067721 
L 394.640558 248.710772 
z
" style="fill:#52f5cb;"/>
    <path clip-path="url(#p99cc1e859e)" d="M 249.836188 262.376521 
L 262.928855 275.562379 
L 279.572218 274.63877 
L 266.358574 261.535447 
z
" style="fill:#24d8df;"/>
    <path clip-path="url(#p99cc1e859e)" d="M 233.26321 263.42111 
L 246.234709 276.765154 
L 262.928855 275.562379 
L 249.836188 262.376521 
z
" style="fill:#24d8df;"/>
    <path clip-path="url(#p99cc1e859e)" d="M 441.529225 277.160557 
L 456.325701 286.229664 
L 472.728788 280.247449 
L 457.894974 257.978419 
z
" style="fill:#18cde4;"/>
    <path clip-path="url(#p99cc1e859e)" d="M 361.973137 225.535167 
L 376.069693 235.500193 
L 392.555137 246.431519 
L 378.348272 237.271412 
z
" style="fill:#6dfdbf;"/>
    <path clip-path="url(#p99cc1e859e)" d="M 457.894974 257.978419 
L 472.728788 280.247449 
L 489.566455 222.896142 
L 474.477023 211.245868 
z
" style="fill:#5efac6;"/>
    <path clip-path="url(#p99cc1e859e)" d="M 216.631943 263.967214 
L 229.484181 277.649615 
L 246.234709 276.765154 
L 233.26321 263.42111 
z
" style="fill:#24d8df;"/>
    <path clip-path="url(#p99cc1e859e)" d="M 425.282945 267.320742 
L 439.965253 277.093395 
L 456.325701 286.229664 
L 441.529225 277.160557 
z
" style="fill:#18cde4;"/>
    <path clip-path="url(#p99cc1e859e)" d="M 345.563465 241.251509 
L 359.520785 251.432419 
L 376.069693 235.500193 
L 361.973137 225.535167 
z
" style="fill:#68fcc1;"/>
    <path clip-path="url(#p99cc1e859e)" d="M 329.136138 256.07327 
L 342.955342 266.587406 
L 359.520785 251.432419 
L 345.563465 241.251509 
z
" style="fill:#48f1d0;"/>
    <path clip-path="url(#p99cc1e859e)" d="M 312.687117 269.870569 
L 326.36977 280.801236 
L 342.955342 266.587406 
L 329.136138 256.07327 
z
" style="fill:#2adddd;"/>
    <path clip-path="url(#p99cc1e859e)" d="M 474.477023 211.245868 
L 489.566455 222.896142 
L 506.343261 179.837754 
L 490.992155 178.397453 
z
" style="fill:#c0eb8d;"/>
    <path clip-path="url(#p99cc1e859e)" d="M 199.951333 264.871708 
L 212.673855 278.056525 
L 229.484181 277.649615 
L 216.631943 263.967214 
z
" style="fill:#24d8df;"/>
    <path clip-path="url(#p99cc1e859e)" d="M 296.163931 273.983507 
L 309.758185 293.596036 
L 326.36977 280.801236 
L 312.687117 269.870569 
z
" style="fill:#14cae5;"/>
    <path clip-path="url(#p99cc1e859e)" d="M 490.992155 178.397453 
L 506.343261 179.837754 
L 523.005391 151.06813 
L 507.498226 149.035921 
z
" style="fill:#ffa95b;"/>
    <path clip-path="url(#p99cc1e859e)" d="M 507.498226 149.035921 
L 523.005391 151.06813 
L 539.638772 125.837701 
L 523.982503 123.136686 
z
" style="fill:#ff5c2f;"/>
    <path clip-path="url(#p99cc1e859e)" d="M 408.95892 257.067721 
L 423.527583 267.683306 
L 439.965253 277.093395 
L 425.282945 267.320742 
z
" style="fill:#2fe0db;"/>
    <path clip-path="url(#p99cc1e859e)" d="M 523.982503 123.136686 
L 539.638772 125.837701 
L 556.230229 104.142975 
L 540.428365 100.990038 
z
" style="fill:#ff1008;"/>
    <path clip-path="url(#p99cc1e859e)" d="M 183.213314 265.491311 
L 195.811074 278.697349 
L 212.673855 278.056525 
L 199.951333 264.871708 
z
" style="fill:#27dade;"/>
    <path clip-path="url(#p99cc1e859e)" d="M 279.572218 274.63877 
L 293.065457 296.495424 
L 309.758185 293.596036 
L 296.163931 273.983507 
z
" style="fill:#0ac0e8;"/>
    <path clip-path="url(#p99cc1e859e)" d="M 262.928855 275.562379 
L 276.310234 297.497418 
L 293.065457 296.495424 
L 279.572218 274.63877 
z
" style="fill:#0ac0e8;"/>
    <path clip-path="url(#p99cc1e859e)" d="M 392.555137 246.431519 
L 407.012696 257.505152 
L 423.527583 267.683306 
L 408.95892 257.067721 
z
" style="fill:#46efd1;"/>
    <path clip-path="url(#p99cc1e859e)" d="M 246.234709 276.765154 
L 259.499171 298.295066 
L 276.310234 297.497418 
L 262.928855 275.562379 
z
" style="fill:#0ac0e8;"/>
    <path clip-path="url(#p99cc1e859e)" d="M 456.325701 286.229664 
L 471.375791 297.275887 
L 487.808643 301.912537 
L 472.728788 280.247449 
z
" style="fill:#00b5eb;"/>
    <path clip-path="url(#p99cc1e859e)" d="M 376.069693 235.500193 
L 390.416222 247.18364 
L 407.012696 257.505152 
L 392.555137 246.431519 
z
" style="fill:#60fac5;"/>
    <path clip-path="url(#p99cc1e859e)" d="M 472.728788 280.247449 
L 487.808643 301.912537 
L 504.800138 246.458897 
L 489.566455 222.896142 
z
" style="fill:#3febd5;"/>
    <path clip-path="url(#p99cc1e859e)" d="M 229.484181 277.649615 
L 242.633575 299.132893 
L 259.499171 298.295066 
L 246.234709 276.765154 
z
" style="fill:#08bee9;"/>
    <path clip-path="url(#p99cc1e859e)" d="M 359.520785 251.432419 
L 373.72744 263.534886 
L 390.416222 247.18364 
L 376.069693 235.500193 
z
" style="fill:#5df9c7;"/>
    <path clip-path="url(#p99cc1e859e)" d="M 439.965253 277.093395 
L 454.903533 288.363953 
L 471.375791 297.275887 
L 456.325701 286.229664 
z
" style="fill:#0dc2e8;"/>
    <path clip-path="url(#p99cc1e859e)" d="M 342.955342 266.587406 
L 357.023625 279.333833 
L 373.72744 263.534886 
L 359.520785 251.432419 
z
" style="fill:#3ae8d6;"/>
    <path clip-path="url(#p99cc1e859e)" d="M 212.673855 278.056525 
L 225.717092 300.352283 
L 242.633575 299.132893 
L 229.484181 277.649615 
z
" style="fill:#0ac0e8;"/>
    <path clip-path="url(#p99cc1e859e)" d="M 489.566455 222.896142 
L 504.800138 246.458897 
L 521.856041 192.722018 
L 506.343261 179.837754 
z
" style="fill:#aef498;"/>
    <path clip-path="url(#p99cc1e859e)" d="M 326.36977 280.801236 
L 340.300898 293.824659 
L 357.023625 279.333833 
L 342.955342 266.587406 
z
" style="fill:#1dd1e2;"/>
    <path clip-path="url(#p99cc1e859e)" d="M 309.758185 293.596036 
L 323.554464 307.109983 
L 340.300898 293.824659 
L 326.36977 280.801236 
z
" style="fill:#00b5eb;"/>
    <path clip-path="url(#p99cc1e859e)" d="M 195.811074 278.697349 
L 208.740632 301.118297 
L 225.717092 300.352283 
L 212.673855 278.056525 
z
" style="fill:#0ac0e8;"/>
    <path clip-path="url(#p99cc1e859e)" d="M 506.343261 179.837754 
L 521.856041 192.722018 
L 538.809162 153.095916 
L 523.005391 151.06813 
z
" style="fill:#ffac5c;"/>
    <path clip-path="url(#p99cc1e859e)" d="M 423.527583 267.683306 
L 438.351443 279.619533 
L 454.903533 288.363953 
L 439.965253 277.093395 
z
" style="fill:#22d6e0;"/>
    <path clip-path="url(#p99cc1e859e)" d="M 293.065457 296.495424 
L 306.773996 318.036207 
L 323.554464 307.109983 
L 309.758185 293.596036 
z
" style="fill:#149df1;"/>
    <path clip-path="url(#p99cc1e859e)" d="M 523.005391 151.06813 
L 538.809162 153.095916 
L 555.594456 128.402479 
L 539.638772 125.837701 
z
" style="fill:#ff562c;"/>
    <path clip-path="url(#p99cc1e859e)" d="M 539.638772 125.837701 
L 555.594456 128.402479 
L 572.33198 107.226497 
L 556.230229 104.142975 
z
" style="fill:#ff0d06;"/>
    <path clip-path="url(#p99cc1e859e)" d="M 276.310234 297.497418 
L 289.902928 318.859683 
L 306.773996 318.036207 
L 293.065457 296.495424 
z
" style="fill:#1996f3;"/>
    <path clip-path="url(#p99cc1e859e)" d="M 407.012696 257.505152 
L 421.722923 270.262649 
L 438.351443 279.619533 
L 423.527583 267.683306 
z
" style="fill:#38e7d7;"/>
    <path clip-path="url(#p99cc1e859e)" d="M 259.499171 298.295066 
L 272.980845 320.289808 
L 289.902928 318.859683 
L 276.310234 297.497418 
z
" style="fill:#1c93f3;"/>
    <path clip-path="url(#p99cc1e859e)" d="M 471.375791 297.275887 
L 486.688432 309.41606 
L 503.20122 317.427714 
L 487.808643 301.912537 
z
" style="fill:#169bf2;"/>
    <path clip-path="url(#p99cc1e859e)" d="M 487.808643 301.912537 
L 503.20122 317.427714 
L 520.292065 269.094824 
L 504.800138 246.458897 
z
" style="fill:#1acfe3;"/>
    <path clip-path="url(#p99cc1e859e)" d="M 242.633575 299.132893 
L 255.998068 320.975406 
L 272.980845 320.289808 
L 259.499171 298.295066 
z
" style="fill:#1c93f3;"/>
    <path clip-path="url(#p99cc1e859e)" d="M 390.416222 247.18364 
L 405.014047 260.71274 
L 421.722923 270.262649 
L 407.012696 257.505152 
z
" style="fill:#50f4cc;"/>
    <path clip-path="url(#p99cc1e859e)" d="M 373.72744 263.534886 
L 388.184349 277.601783 
L 405.014047 260.71274 
L 390.416222 247.18364 
z
" style="fill:#4af2cf;"/>
    <path clip-path="url(#p99cc1e859e)" d="M 225.717092 300.352283 
L 238.960942 321.869625 
L 255.998068 320.975406 
L 242.633575 299.132893 
z
" style="fill:#1c93f3;"/>
    <path clip-path="url(#p99cc1e859e)" d="M 454.903533 288.363953 
L 470.099654 301.225524 
L 486.688432 309.41606 
L 471.375791 297.275887 
z
" style="fill:#01b3ec;"/>
    <path clip-path="url(#p99cc1e859e)" d="M 504.800138 246.458897 
L 520.292065 269.094824 
L 537.499011 216.921235 
L 521.856041 192.722018 
z
" style="fill:#8bfeae;"/>
    <path clip-path="url(#p99cc1e859e)" d="M 357.023625 279.333833 
L 371.341026 293.774571 
L 388.184349 277.601783 
L 373.72744 263.534886 
z
" style="fill:#28dbde;"/>
    <path clip-path="url(#p99cc1e859e)" d="M 340.300898 293.824659 
L 354.480808 308.867692 
L 371.341026 293.774571 
L 357.023625 279.333833 
z
" style="fill:#08bee9;"/>
    <path clip-path="url(#p99cc1e859e)" d="M 323.554464 307.109983 
L 337.597051 321.914527 
L 354.480808 308.867692 
L 340.300898 293.824659 
z
" style="fill:#149df1;"/>
    <path clip-path="url(#p99cc1e859e)" d="M 208.740632 301.118297 
L 221.866882 322.69742 
L 238.960942 321.869625 
L 225.717092 300.352283 
z
" style="fill:#1c93f3;"/>
    <path clip-path="url(#p99cc1e859e)" d="M 521.856041 192.722018 
L 537.499011 216.921235 
L 554.755072 166.642968 
L 538.809162 153.095916 
z
" style="fill:#f2c26b;"/>
    <path clip-path="url(#p99cc1e859e)" d="M 306.773996 318.036207 
L 320.678335 332.032456 
L 337.597051 321.914527 
L 323.554464 307.109983 
z
" style="fill:#2c7ef7;"/>
    <path clip-path="url(#p99cc1e859e)" d="M 438.351443 279.619533 
L 453.432027 293.128538 
L 470.099654 301.225524 
L 454.903533 288.363953 
z
" style="fill:#12c8e6;"/>
    <path clip-path="url(#p99cc1e859e)" d="M 538.809162 153.095916 
L 554.755072 166.642968 
L 571.850549 131.365402 
L 555.594456 128.402479 
z
" style="fill:#ff5c2f;"/>
    <path clip-path="url(#p99cc1e859e)" d="M 289.902928 318.859683 
L 303.710431 338.711565 
L 320.678335 332.032456 
L 306.773996 318.036207 
z
" style="fill:#386df9;"/>
    <path clip-path="url(#p99cc1e859e)" d="M 555.594456 128.402479 
L 571.850549 131.365402 
L 588.738829 110.468649 
L 572.33198 107.226497 
z
" style="fill:#ff0905;"/>
    <path clip-path="url(#p99cc1e859e)" d="M 421.722923 270.262649 
L 436.689695 284.321152 
L 453.432027 293.128538 
L 438.351443 279.619533 
z
" style="fill:#27dade;"/>
    <path clip-path="url(#p99cc1e859e)" d="M 272.980845 320.289808 
L 286.676241 341.426104 
L 303.710431 338.711565 
L 289.902928 318.859683 
z
" style="fill:#3e65fa;"/>
    <path clip-path="url(#p99cc1e859e)" d="M 503.20122 317.427714 
L 518.891701 330.66383 
L 536.041504 291.700745 
L 520.292065 269.094824 
z
" style="fill:#01b3ec;"/>
    <path clip-path="url(#p99cc1e859e)" d="M 255.998068 320.975406 
L 269.577987 342.539603 
L 286.676241 341.426104 
L 272.980845 320.289808 
z
" style="fill:#3e65fa;"/>
    <path clip-path="url(#p99cc1e859e)" d="M 486.688432 309.41606 
L 502.259898 323.418044 
L 518.891701 330.66383 
L 503.20122 317.427714 
z
" style="fill:#2884f6;"/>
    <path clip-path="url(#p99cc1e859e)" d="M 405.014047 260.71274 
L 419.86734 275.353308 
L 436.689695 284.321152 
L 421.722923 270.262649 
z
" style="fill:#3dead5;"/>
    <path clip-path="url(#p99cc1e859e)" d="M 238.960942 321.869625 
L 252.424663 343.787484 
L 269.577987 342.539603 
L 255.998068 320.975406 
z
" style="fill:#3e65fa;"/>
    <path clip-path="url(#p99cc1e859e)" d="M 520.292065 269.094824 
L 536.041504 291.700745 
L 553.403593 240.737172 
L 537.499011 216.921235 
z
" style="fill:#62fbc4;"/>
    <path clip-path="url(#p99cc1e859e)" d="M 388.184349 277.601783 
L 402.894447 292.84355 
L 419.86734 275.353308 
L 405.014047 260.71274 
z
" style="fill:#37e6d8;"/>
    <path clip-path="url(#p99cc1e859e)" d="M 470.099654 301.225524 
L 485.556707 315.597186 
L 502.259898 323.418044 
L 486.688432 309.41606 
z
" style="fill:#149df1;"/>
    <path clip-path="url(#p99cc1e859e)" d="M 371.341026 293.774571 
L 385.909805 309.518502 
L 402.894447 292.84355 
L 388.184349 277.601783 
z
" style="fill:#14cae5;"/>
    <path clip-path="url(#p99cc1e859e)" d="M 354.480808 308.867692 
L 368.910139 324.627248 
L 385.909805 309.518502 
L 371.341026 293.774571 
z
" style="fill:#0ca7ef;"/>
    <path clip-path="url(#p99cc1e859e)" d="M 221.866882 322.69742 
L 235.209607 344.501929 
L 252.424663 343.787484 
L 238.960942 321.869625 
z
" style="fill:#3e65fa;"/>
    <path clip-path="url(#p99cc1e859e)" d="M 337.597051 321.914527 
L 351.887542 336.920302 
L 368.910139 324.627248 
L 354.480808 308.867692 
z
" style="fill:#2884f6;"/>
    <path clip-path="url(#p99cc1e859e)" d="M 537.499011 216.921235 
L 553.403593 240.737172 
L 570.805467 191.930107 
L 554.755072 166.642968 
z
" style="fill:#cee184;"/>
    <path clip-path="url(#p99cc1e859e)" d="M 320.678335 332.032456 
L 334.830064 346.130832 
L 351.887542 336.920302 
L 337.597051 321.914527 
z
" style="fill:#3e65fa;"/>
    <path clip-path="url(#p99cc1e859e)" d="M 453.432027 293.128538 
L 468.773396 307.993553 
L 485.556707 315.597186 
L 470.099654 301.225524 
z
" style="fill:#01b3ec;"/>
    <path clip-path="url(#p99cc1e859e)" d="M 554.755072 166.642968 
L 570.805467 191.930107 
L 588.233628 145.57271 
L 571.850549 131.365402 
z
" style="fill:#ff7b40;"/>
    <path clip-path="url(#p99cc1e859e)" d="M 303.710431 338.711565 
L 317.727533 352.816509 
L 334.830064 346.130832 
L 320.678335 332.032456 
z
" style="fill:#4e4dfc;"/>
    <path clip-path="url(#p99cc1e859e)" d="M 571.850549 131.365402 
L 588.233628 145.57271 
L 605.462014 113.717041 
L 588.738829 110.468649 
z
" style="fill:#ff1309;"/>
    <path clip-path="url(#p99cc1e859e)" d="M 286.676241 341.426104 
L 300.585675 359.995107 
L 317.727533 352.816509 
L 303.710431 338.711565 
z
" style="fill:#583efd;"/>
    <path clip-path="url(#p99cc1e859e)" d="M 436.689695 284.321152 
L 451.915469 299.814405 
L 468.773396 307.993553 
L 453.432027 293.128538 
z
" style="fill:#12c8e6;"/>
    <path clip-path="url(#p99cc1e859e)" d="M 269.577987 342.539603 
L 283.38061 363.798359 
L 300.585675 359.995107 
L 286.676241 341.426104 
z
" style="fill:#5e35fe;"/>
    <path clip-path="url(#p99cc1e859e)" d="M 419.86734 275.353308 
L 434.976588 291.782891 
L 451.915469 299.814405 
L 436.689695 284.321152 
z
" style="fill:#27dade;"/>
    <path clip-path="url(#p99cc1e859e)" d="M 252.424663 343.787484 
L 266.10546 365.090706 
L 283.38061 363.798359 
L 269.577987 342.539603 
z
" style="fill:#6032fe;"/>
    <path clip-path="url(#p99cc1e859e)" d="M 402.894447 292.84355 
L 417.858936 309.909919 
L 434.976588 291.782891 
L 419.86734 275.353308 
z
" style="fill:#1fd3e1;"/>
    <path clip-path="url(#p99cc1e859e)" d="M 385.909805 309.518502 
L 400.733664 326.346978 
L 417.858936 309.909919 
L 402.894447 292.84355 
z
" style="fill:#04b0ed;"/>
    <path clip-path="url(#p99cc1e859e)" d="M 235.209607 344.501929 
L 248.769993 366.036557 
L 266.10546 365.090706 
L 252.424663 343.787484 
z
" style="fill:#6032fe;"/>
    <path clip-path="url(#p99cc1e859e)" d="M 368.910139 324.627248 
L 383.594694 340.488473 
L 400.733664 326.346978 
L 385.909805 309.518502 
z
" style="fill:#2489f5;"/>
    <path clip-path="url(#p99cc1e859e)" d="M 351.887542 336.920302 
L 366.432735 351.971033 
L 383.594694 340.488473 
L 368.910139 324.627248 
z
" style="fill:#3e65fa;"/>
    <path clip-path="url(#p99cc1e859e)" d="M 334.830064 346.130832 
L 349.236736 360.586486 
L 366.432735 351.971033 
L 351.887542 336.920302 
z
" style="fill:#5247fc;"/>
    <path clip-path="url(#p99cc1e859e)" d="M 317.727533 352.816509 
L 331.99711 367.052801 
L 349.236736 360.586486 
L 334.830064 346.130832 
z
" style="fill:#6032fe;"/>
    <path clip-path="url(#p99cc1e859e)" d="M 300.585675 359.995107 
L 314.716879 374.191293 
L 331.99711 367.052801 
L 317.727533 352.816509 
z
" style="fill:#6c1fff;"/>
    <path clip-path="url(#p99cc1e859e)" d="M 283.38061 363.798359 
L 297.399388 382.157271 
L 314.716879 374.191293 
L 300.585675 359.995107 
z
" style="fill:#780dff;"/>
    <path clip-path="url(#p99cc1e859e)" d="M 266.10546 365.090706 
L 280.014424 386.117839 
L 297.399388 382.157271 
L 283.38061 363.798359 
z
" style="fill:#8000ff;"/>
    <path clip-path="url(#p99cc1e859e)" d="M 248.769993 366.036557 
L 262.554881 387.209512 
L 280.014424 386.117839 
L 266.10546 365.090706 
z
" style="fill:#8000ff;"/>
   </g>
  </g>
 </g>
 <defs>
  <clipPath id="p99cc1e859e">
   <rect height="467.28" width="718.56" x="0" y="0"/>
  </clipPath>
 </defs>
</svg>
