<?xml version="1.0" encoding="utf-8" standalone="no"?>
<!DOCTYPE svg PUBLIC "-//W3C//DTD SVG 1.1//EN"
  "http://www.w3.org/Graphics/SVG/1.1/DTD/svg11.dtd">
<!-- Created with matplotlib (https://matplotlib.org/) -->
<svg height="476.64pt" version="1.1" viewBox="0 0 763.2 476.64" width="763.2pt" xmlns="http://www.w3.org/2000/svg" xmlns:xlink="http://www.w3.org/1999/xlink">
 <defs>
  <style type="text/css">
*{stroke-linecap:butt;stroke-linejoin:round;}
  </style>
 </defs>
 <g id="figure_1">
  <g id="patch_1">
   <path d="M 0 476.64 
L 763.2 476.64 
L 763.2 0 
L 0 0 
z
" style="fill:#ffffff;"/>
  </g>
  <g id="patch_2">
   <path d="M 0 476.64 
L 763.2 476.64 
L 763.2 0 
L 0 0 
z
" style="fill:#ffffff;"/>
  </g>
  <g id="pane3d_1">
   <g id="patch_3">
    <path d="M 116.953116 315.227848 
L 482.062554 258.851937 
L 486.49413 34.021792 
L 102.89158 84.216387 
" style="fill:#f2f2f2;opacity:0.5;stroke:#f2f2f2;stroke-linejoin:miter;"/>
   </g>
  </g>
  <g id="pane3d_2">
   <g id="patch_4">
    <path d="M 482.062554 258.851937 
L 678.209645 378.148827 
L 693.486714 140.462834 
L 486.49413 34.021792 
" style="fill:#e6e6e6;opacity:0.5;stroke:#e6e6e6;stroke-linejoin:miter;"/>
   </g>
  </g>
  <g id="pane3d_3">
   <g id="patch_5">
    <path d="M 116.953116 315.227848 
L 290.39334 444.253193 
L 678.209645 378.148827 
L 482.062554 258.851937 
" style="fill:#ececec;opacity:0.5;stroke:#ececec;stroke-linejoin:miter;"/>
   </g>
  </g>
  <g id="axis3d_1">
   <g id="line2d_1">
    <path d="M 116.953116 315.227848 
L 290.39334 444.253193 
" style="fill:none;stroke:#000000;stroke-linecap:square;stroke-width:0.8;"/>
   </g>
   <g id="text_1">
    <!-- Dealer's Points -->
    <defs>
     <path d="M 19.671875 64.796875 
L 19.671875 8.109375 
L 31.59375 8.109375 
Q 46.6875 8.109375 53.6875 14.9375 
Q 60.6875 21.78125 60.6875 36.53125 
Q 60.6875 51.171875 53.6875 57.984375 
Q 46.6875 64.796875 31.59375 64.796875 
z
M 9.8125 72.90625 
L 30.078125 72.90625 
Q 51.265625 72.90625 61.171875 64.09375 
Q 71.09375 55.28125 71.09375 36.53125 
Q 71.09375 17.671875 61.125 8.828125 
Q 51.171875 0 30.078125 0 
L 9.8125 0 
z
" id="DejaVuSans-68"/>
     <path d="M 56.203125 29.59375 
L 56.203125 25.203125 
L 14.890625 25.203125 
Q 15.484375 15.921875 20.484375 11.0625 
Q 25.484375 6.203125 34.421875 6.203125 
Q 39.59375 6.203125 44.453125 7.46875 
Q 49.3125 8.734375 54.109375 11.28125 
L 54.109375 2.78125 
Q 49.265625 0.734375 44.1875 -0.34375 
Q 39.109375 -1.421875 33.890625 -1.421875 
Q 20.796875 -1.421875 13.15625 6.1875 
Q 5.515625 13.8125 5.515625 26.8125 
Q 5.515625 40.234375 12.765625 48.109375 
Q 20.015625 56 32.328125 56 
Q 43.359375 56 49.78125 48.890625 
Q 56.203125 41.796875 56.203125 29.59375 
z
M 47.21875 32.234375 
Q 47.125 39.59375 43.09375 43.984375 
Q 39.0625 48.390625 32.421875 48.390625 
Q 24.90625 48.390625 20.390625 44.140625 
Q 15.875 39.890625 15.1875 32.171875 
z
" id="DejaVuSans-101"/>
     <path d="M 34.28125 27.484375 
Q 23.390625 27.484375 19.1875 25 
Q 14.984375 22.515625 14.984375 16.5 
Q 14.984375 11.71875 18.140625 8.90625 
Q 21.296875 6.109375 26.703125 6.109375 
Q 34.1875 6.109375 38.703125 11.40625 
Q 43.21875 16.703125 43.21875 25.484375 
L 43.21875 27.484375 
z
M 52.203125 31.203125 
L 52.203125 0 
L 43.21875 0 
L 43.21875 8.296875 
Q 40.140625 3.328125 35.546875 0.953125 
Q 30.953125 -1.421875 24.3125 -1.421875 
Q 15.921875 -1.421875 10.953125 3.296875 
Q 6 8.015625 6 15.921875 
Q 6 25.140625 12.171875 29.828125 
Q 18.359375 34.515625 30.609375 34.515625 
L 43.21875 34.515625 
L 43.21875 35.40625 
Q 43.21875 41.609375 39.140625 45 
Q 35.0625 48.390625 27.6875 48.390625 
Q 23 48.390625 18.546875 47.265625 
Q 14.109375 46.140625 10.015625 43.890625 
L 10.015625 52.203125 
Q 14.9375 54.109375 19.578125 55.046875 
Q 24.21875 56 28.609375 56 
Q 40.484375 56 46.34375 49.84375 
Q 52.203125 43.703125 52.203125 31.203125 
z
" id="DejaVuSans-97"/>
     <path d="M 9.421875 75.984375 
L 18.40625 75.984375 
L 18.40625 0 
L 9.421875 0 
z
" id="DejaVuSans-108"/>
     <path d="M 41.109375 46.296875 
Q 39.59375 47.171875 37.8125 47.578125 
Q 36.03125 48 33.890625 48 
Q 26.265625 48 22.1875 43.046875 
Q 18.109375 38.09375 18.109375 28.8125 
L 18.109375 0 
L 9.078125 0 
L 9.078125 54.6875 
L 18.109375 54.6875 
L 18.109375 46.1875 
Q 20.953125 51.171875 25.484375 53.578125 
Q 30.03125 56 36.53125 56 
Q 37.453125 56 38.578125 55.875 
Q 39.703125 55.765625 41.0625 55.515625 
z
" id="DejaVuSans-114"/>
     <path d="M 17.921875 72.90625 
L 17.921875 45.796875 
L 9.625 45.796875 
L 9.625 72.90625 
z
" id="DejaVuSans-39"/>
     <path d="M 44.28125 53.078125 
L 44.28125 44.578125 
Q 40.484375 46.53125 36.375 47.5 
Q 32.28125 48.484375 27.875 48.484375 
Q 21.1875 48.484375 17.84375 46.4375 
Q 14.5 44.390625 14.5 40.28125 
Q 14.5 37.15625 16.890625 35.375 
Q 19.28125 33.59375 26.515625 31.984375 
L 29.59375 31.296875 
Q 39.15625 29.25 43.1875 25.515625 
Q 47.21875 21.78125 47.21875 15.09375 
Q 47.21875 7.46875 41.1875 3.015625 
Q 35.15625 -1.421875 24.609375 -1.421875 
Q 20.21875 -1.421875 15.453125 -0.5625 
Q 10.6875 0.296875 5.421875 2 
L 5.421875 11.28125 
Q 10.40625 8.6875 15.234375 7.390625 
Q 20.0625 6.109375 24.8125 6.109375 
Q 31.15625 6.109375 34.5625 8.28125 
Q 37.984375 10.453125 37.984375 14.40625 
Q 37.984375 18.0625 35.515625 20.015625 
Q 33.0625 21.96875 24.703125 23.78125 
L 21.578125 24.515625 
Q 13.234375 26.265625 9.515625 29.90625 
Q 5.8125 33.546875 5.8125 39.890625 
Q 5.8125 47.609375 11.28125 51.796875 
Q 16.75 56 26.8125 56 
Q 31.78125 56 36.171875 55.265625 
Q 40.578125 54.546875 44.28125 53.078125 
z
" id="DejaVuSans-115"/>
     <path id="DejaVuSans-32"/>
     <path d="M 19.671875 64.796875 
L 19.671875 37.40625 
L 32.078125 37.40625 
Q 38.96875 37.40625 42.71875 40.96875 
Q 46.484375 44.53125 46.484375 51.125 
Q 46.484375 57.671875 42.71875 61.234375 
Q 38.96875 64.796875 32.078125 64.796875 
z
M 9.8125 72.90625 
L 32.078125 72.90625 
Q 44.34375 72.90625 50.609375 67.359375 
Q 56.890625 61.8125 56.890625 51.125 
Q 56.890625 40.328125 50.609375 34.8125 
Q 44.34375 29.296875 32.078125 29.296875 
L 19.671875 29.296875 
L 19.671875 0 
L 9.8125 0 
z
" id="DejaVuSans-80"/>
     <path d="M 30.609375 48.390625 
Q 23.390625 48.390625 19.1875 42.75 
Q 14.984375 37.109375 14.984375 27.296875 
Q 14.984375 17.484375 19.15625 11.84375 
Q 23.34375 6.203125 30.609375 6.203125 
Q 37.796875 6.203125 41.984375 11.859375 
Q 46.1875 17.53125 46.1875 27.296875 
Q 46.1875 37.015625 41.984375 42.703125 
Q 37.796875 48.390625 30.609375 48.390625 
z
M 30.609375 56 
Q 42.328125 56 49.015625 48.375 
Q 55.71875 40.765625 55.71875 27.296875 
Q 55.71875 13.875 49.015625 6.21875 
Q 42.328125 -1.421875 30.609375 -1.421875 
Q 18.84375 -1.421875 12.171875 6.21875 
Q 5.515625 13.875 5.515625 27.296875 
Q 5.515625 40.765625 12.171875 48.375 
Q 18.84375 56 30.609375 56 
z
" id="DejaVuSans-111"/>
     <path d="M 9.421875 54.6875 
L 18.40625 54.6875 
L 18.40625 0 
L 9.421875 0 
z
M 9.421875 75.984375 
L 18.40625 75.984375 
L 18.40625 64.59375 
L 9.421875 64.59375 
z
" id="DejaVuSans-105"/>
     <path d="M 54.890625 33.015625 
L 54.890625 0 
L 45.90625 0 
L 45.90625 32.71875 
Q 45.90625 40.484375 42.875 44.328125 
Q 39.84375 48.1875 33.796875 48.1875 
Q 26.515625 48.1875 22.3125 43.546875 
Q 18.109375 38.921875 18.109375 30.90625 
L 18.109375 0 
L 9.078125 0 
L 9.078125 54.6875 
L 18.109375 54.6875 
L 18.109375 46.1875 
Q 21.34375 51.125 25.703125 53.5625 
Q 30.078125 56 35.796875 56 
Q 45.21875 56 50.046875 50.171875 
Q 54.890625 44.34375 54.890625 33.015625 
z
" id="DejaVuSans-110"/>
     <path d="M 18.3125 70.21875 
L 18.3125 54.6875 
L 36.8125 54.6875 
L 36.8125 47.703125 
L 18.3125 47.703125 
L 18.3125 18.015625 
Q 18.3125 11.328125 20.140625 9.421875 
Q 21.96875 7.515625 27.59375 7.515625 
L 36.8125 7.515625 
L 36.8125 0 
L 27.59375 0 
Q 17.1875 0 13.234375 3.875 
Q 9.28125 7.765625 9.28125 18.015625 
L 9.28125 47.703125 
L 2.6875 47.703125 
L 2.6875 54.6875 
L 9.28125 54.6875 
L 9.28125 70.21875 
z
" id="DejaVuSans-116"/>
    </defs>
    <g transform="translate(139.091103 379.44362)rotate(-323.353768)scale(0.1 -0.1)">
     <use xlink:href="#DejaVuSans-68"/>
     <use x="77.001953" xlink:href="#DejaVuSans-101"/>
     <use x="138.525391" xlink:href="#DejaVuSans-97"/>
     <use x="199.804688" xlink:href="#DejaVuSans-108"/>
     <use x="227.587891" xlink:href="#DejaVuSans-101"/>
     <use x="289.111328" xlink:href="#DejaVuSans-114"/>
     <use x="330.224609" xlink:href="#DejaVuSans-39"/>
     <use x="357.714844" xlink:href="#DejaVuSans-115"/>
     <use x="409.814453" xlink:href="#DejaVuSans-32"/>
     <use x="441.601562" xlink:href="#DejaVuSans-80"/>
     <use x="501.857422" xlink:href="#DejaVuSans-111"/>
     <use x="563.039062" xlink:href="#DejaVuSans-105"/>
     <use x="590.822266" xlink:href="#DejaVuSans-110"/>
     <use x="654.201172" xlink:href="#DejaVuSans-116"/>
     <use x="693.410156" xlink:href="#DejaVuSans-115"/>
    </g>
   </g>
   <g id="Line3DCollection_1">
    <path d="M 142.962961 334.577045 
L 511.555663 276.78968 
L 517.51242 49.972214 
" style="fill:none;stroke:#b0b0b0;stroke-width:0.8;"/>
    <path d="M 175.263761 358.6062 
L 548.143806 299.042631 
L 556.044444 69.786396 
" style="fill:none;stroke:#b0b0b0;stroke-width:0.8;"/>
    <path d="M 208.584796 383.394325 
L 585.843078 321.971373 
L 595.806751 90.233223 
" style="fill:none;stroke:#b0b0b0;stroke-width:0.8;"/>
    <path d="M 242.975176 408.977956 
L 624.704876 345.607164 
L 636.85922 111.343484 
" style="fill:none;stroke:#b0b0b0;stroke-width:0.8;"/>
    <path d="M 278.487217 435.396011 
L 664.783815 369.983221 
L 679.265678 133.150002 
" style="fill:none;stroke:#b0b0b0;stroke-width:0.8;"/>
   </g>
   <g id="xtick_1">
    <g id="line2d_2">
     <path d="M 146.025284 334.096939 
L 136.832601 335.538153 
" style="fill:none;stroke:#000000;stroke-linecap:square;stroke-width:0.8;"/>
    </g>
    <g id="text_2">
     <!-- 2 -->
     <defs>
      <path d="M 19.1875 8.296875 
L 53.609375 8.296875 
L 53.609375 0 
L 7.328125 0 
L 7.328125 8.296875 
Q 12.9375 14.109375 22.625 23.890625 
Q 32.328125 33.6875 34.8125 36.53125 
Q 39.546875 41.84375 41.421875 45.53125 
Q 43.3125 49.21875 43.3125 52.78125 
Q 43.3125 58.59375 39.234375 62.25 
Q 35.15625 65.921875 28.609375 65.921875 
Q 23.96875 65.921875 18.8125 64.3125 
Q 13.671875 62.703125 7.8125 59.421875 
L 7.8125 69.390625 
Q 13.765625 71.78125 18.9375 73 
Q 24.125 74.21875 28.421875 74.21875 
Q 39.75 74.21875 46.484375 68.546875 
Q 53.21875 62.890625 53.21875 53.421875 
Q 53.21875 48.921875 51.53125 44.890625 
Q 49.859375 40.875 45.40625 35.40625 
Q 44.1875 33.984375 37.640625 27.21875 
Q 31.109375 20.453125 19.1875 8.296875 
z
" id="DejaVuSans-50"/>
     </defs>
     <g transform="translate(126.585206 352.202968)scale(0.1 -0.1)">
      <use xlink:href="#DejaVuSans-50"/>
     </g>
    </g>
   </g>
   <g id="xtick_2">
    <g id="line2d_3">
     <path d="M 178.36349 358.111052 
L 169.058431 359.597435 
" style="fill:none;stroke:#000000;stroke-linecap:square;stroke-width:0.8;"/>
    </g>
    <g id="text_3">
     <!-- 4 -->
     <defs>
      <path d="M 37.796875 64.3125 
L 12.890625 25.390625 
L 37.796875 25.390625 
z
M 35.203125 72.90625 
L 47.609375 72.90625 
L 47.609375 25.390625 
L 58.015625 25.390625 
L 58.015625 17.1875 
L 47.609375 17.1875 
L 47.609375 0 
L 37.796875 0 
L 37.796875 17.1875 
L 4.890625 17.1875 
L 4.890625 26.703125 
z
" id="DejaVuSans-52"/>
     </defs>
     <g transform="translate(158.668737 376.378903)scale(0.1 -0.1)">
      <use xlink:href="#DejaVuSans-52"/>
     </g>
    </g>
   </g>
   <g id="xtick_3">
    <g id="line2d_4">
     <path d="M 211.722785 382.883416 
L 202.302779 384.417126 
" style="fill:none;stroke:#000000;stroke-linecap:square;stroke-width:0.8;"/>
    </g>
    <g id="text_4">
     <!-- 6 -->
     <defs>
      <path d="M 33.015625 40.375 
Q 26.375 40.375 22.484375 35.828125 
Q 18.609375 31.296875 18.609375 23.390625 
Q 18.609375 15.53125 22.484375 10.953125 
Q 26.375 6.390625 33.015625 6.390625 
Q 39.65625 6.390625 43.53125 10.953125 
Q 47.40625 15.53125 47.40625 23.390625 
Q 47.40625 31.296875 43.53125 35.828125 
Q 39.65625 40.375 33.015625 40.375 
z
M 52.59375 71.296875 
L 52.59375 62.3125 
Q 48.875 64.0625 45.09375 64.984375 
Q 41.3125 65.921875 37.59375 65.921875 
Q 27.828125 65.921875 22.671875 59.328125 
Q 17.53125 52.734375 16.796875 39.40625 
Q 19.671875 43.65625 24.015625 45.921875 
Q 28.375 48.1875 33.59375 48.1875 
Q 44.578125 48.1875 50.953125 41.515625 
Q 57.328125 34.859375 57.328125 23.390625 
Q 57.328125 12.15625 50.6875 5.359375 
Q 44.046875 -1.421875 33.015625 -1.421875 
Q 20.359375 -1.421875 13.671875 8.265625 
Q 6.984375 17.96875 6.984375 36.375 
Q 6.984375 53.65625 15.1875 63.9375 
Q 23.390625 74.21875 37.203125 74.21875 
Q 40.921875 74.21875 44.703125 73.484375 
Q 48.484375 72.75 52.59375 71.296875 
z
" id="DejaVuSans-54"/>
     </defs>
     <g transform="translate(191.765251 401.318152)scale(0.1 -0.1)">
      <use xlink:href="#DejaVuSans-54"/>
     </g>
    </g>
   </g>
   <g id="xtick_4">
    <g id="line2d_5">
     <path d="M 246.152304 408.450522 
L 236.614707 410.033854 
" style="fill:none;stroke:#000000;stroke-linecap:square;stroke-width:0.8;"/>
    </g>
    <g id="text_5">
     <!-- 8 -->
     <defs>
      <path d="M 31.78125 34.625 
Q 24.75 34.625 20.71875 30.859375 
Q 16.703125 27.09375 16.703125 20.515625 
Q 16.703125 13.921875 20.71875 10.15625 
Q 24.75 6.390625 31.78125 6.390625 
Q 38.8125 6.390625 42.859375 10.171875 
Q 46.921875 13.96875 46.921875 20.515625 
Q 46.921875 27.09375 42.890625 30.859375 
Q 38.875 34.625 31.78125 34.625 
z
M 21.921875 38.8125 
Q 15.578125 40.375 12.03125 44.71875 
Q 8.5 49.078125 8.5 55.328125 
Q 8.5 64.0625 14.71875 69.140625 
Q 20.953125 74.21875 31.78125 74.21875 
Q 42.671875 74.21875 48.875 69.140625 
Q 55.078125 64.0625 55.078125 55.328125 
Q 55.078125 49.078125 51.53125 44.71875 
Q 48 40.375 41.703125 38.8125 
Q 48.828125 37.15625 52.796875 32.3125 
Q 56.78125 27.484375 56.78125 20.515625 
Q 56.78125 9.90625 50.3125 4.234375 
Q 43.84375 -1.421875 31.78125 -1.421875 
Q 19.734375 -1.421875 13.25 4.234375 
Q 6.78125 9.90625 6.78125 20.515625 
Q 6.78125 27.484375 10.78125 32.3125 
Q 14.796875 37.15625 21.921875 38.8125 
z
M 18.3125 54.390625 
Q 18.3125 48.734375 21.84375 45.5625 
Q 25.390625 42.390625 31.78125 42.390625 
Q 38.140625 42.390625 41.71875 45.5625 
Q 45.3125 48.734375 45.3125 54.390625 
Q 45.3125 60.0625 41.71875 63.234375 
Q 38.140625 66.40625 31.78125 66.40625 
Q 25.390625 66.40625 21.84375 63.234375 
Q 18.3125 60.0625 18.3125 54.390625 
z
" id="DejaVuSans-56"/>
     </defs>
     <g transform="translate(225.923493 427.057445)scale(0.1 -0.1)">
      <use xlink:href="#DejaVuSans-56"/>
     </g>
    </g>
   </g>
   <g id="xtick_5">
    <g id="line2d_6">
     <path d="M 281.70439 434.851237 
L 272.046479 436.486641 
" style="fill:none;stroke:#000000;stroke-linecap:square;stroke-width:0.8;"/>
    </g>
    <g id="text_6">
     <!-- 10 -->
     <defs>
      <path d="M 12.40625 8.296875 
L 28.515625 8.296875 
L 28.515625 63.921875 
L 10.984375 60.40625 
L 10.984375 69.390625 
L 28.421875 72.90625 
L 38.28125 72.90625 
L 38.28125 8.296875 
L 54.390625 8.296875 
L 54.390625 0 
L 12.40625 0 
z
" id="DejaVuSans-49"/>
      <path d="M 31.78125 66.40625 
Q 24.171875 66.40625 20.328125 58.90625 
Q 16.5 51.421875 16.5 36.375 
Q 16.5 21.390625 20.328125 13.890625 
Q 24.171875 6.390625 31.78125 6.390625 
Q 39.453125 6.390625 43.28125 13.890625 
Q 47.125 21.390625 47.125 36.375 
Q 47.125 51.421875 43.28125 58.90625 
Q 39.453125 66.40625 31.78125 66.40625 
z
M 31.78125 74.21875 
Q 44.046875 74.21875 50.515625 64.515625 
Q 56.984375 54.828125 56.984375 36.375 
Q 56.984375 17.96875 50.515625 8.265625 
Q 44.046875 -1.421875 31.78125 -1.421875 
Q 19.53125 -1.421875 13.0625 8.265625 
Q 6.59375 17.96875 6.59375 36.375 
Q 6.59375 54.828125 13.0625 64.515625 
Q 19.53125 74.21875 31.78125 74.21875 
z
" id="DejaVuSans-48"/>
     </defs>
     <g transform="translate(258.014134 453.635907)scale(0.1 -0.1)">
      <use xlink:href="#DejaVuSans-49"/>
      <use x="63.623047" xlink:href="#DejaVuSans-48"/>
     </g>
    </g>
   </g>
  </g>
  <g id="axis3d_2">
   <g id="line2d_7">
    <path d="M 678.209645 378.148827 
L 290.39334 444.253193 
" style="fill:none;stroke:#000000;stroke-linecap:square;stroke-width:0.8;"/>
   </g>
   <g id="text_7">
    <!-- Your Points -->
    <defs>
     <path d="M -0.203125 72.90625 
L 10.40625 72.90625 
L 30.609375 42.921875 
L 50.6875 72.90625 
L 61.28125 72.90625 
L 35.5 34.71875 
L 35.5 0 
L 25.59375 0 
L 25.59375 34.71875 
z
" id="DejaVuSans-89"/>
     <path d="M 8.5 21.578125 
L 8.5 54.6875 
L 17.484375 54.6875 
L 17.484375 21.921875 
Q 17.484375 14.15625 20.5 10.265625 
Q 23.53125 6.390625 29.59375 6.390625 
Q 36.859375 6.390625 41.078125 11.03125 
Q 45.3125 15.671875 45.3125 23.6875 
L 45.3125 54.6875 
L 54.296875 54.6875 
L 54.296875 0 
L 45.3125 0 
L 45.3125 8.40625 
Q 42.046875 3.421875 37.71875 1 
Q 33.40625 -1.421875 27.6875 -1.421875 
Q 18.265625 -1.421875 13.375 4.4375 
Q 8.5 10.296875 8.5 21.578125 
z
M 31.109375 56 
z
" id="DejaVuSans-117"/>
    </defs>
    <g transform="translate(476.192485 446.134913)rotate(-9.673257)scale(0.1 -0.1)">
     <use xlink:href="#DejaVuSans-89"/>
     <use x="60.880859" xlink:href="#DejaVuSans-111"/>
     <use x="122.0625" xlink:href="#DejaVuSans-117"/>
     <use x="185.441406" xlink:href="#DejaVuSans-114"/>
     <use x="226.554688" xlink:href="#DejaVuSans-32"/>
     <use x="258.341797" xlink:href="#DejaVuSans-80"/>
     <use x="318.597656" xlink:href="#DejaVuSans-111"/>
     <use x="379.779297" xlink:href="#DejaVuSans-105"/>
     <use x="407.5625" xlink:href="#DejaVuSans-110"/>
     <use x="470.941406" xlink:href="#DejaVuSans-116"/>
     <use x="510.150391" xlink:href="#DejaVuSans-115"/>
    </g>
   </g>
   <g id="Line3DCollection_2">
    <path d="M 110.866512 83.172863 
L 124.529569 314.057981 
L 298.465596 442.877254 
" style="fill:none;stroke:#b0b0b0;stroke-width:0.8;"/>
    <path d="M 154.140917 77.510385 
L 165.652068 307.708327 
L 342.260904 435.412223 
" style="fill:none;stroke:#b0b0b0;stroke-width:0.8;"/>
    <path d="M 197.038287 71.897241 
L 206.433553 301.41133 
L 385.662632 428.014277 
" style="fill:none;stroke:#b0b0b0;stroke-width:0.8;"/>
    <path d="M 239.563526 66.332791 
L 246.878249 295.166335 
L 428.676061 420.682519 
" style="fill:none;stroke:#b0b0b0;stroke-width:0.8;"/>
    <path d="M 281.721456 60.816404 
L 286.99031 288.972701 
L 471.30638 413.416063 
" style="fill:none;stroke:#b0b0b0;stroke-width:0.8;"/>
    <path d="M 323.516815 55.347459 
L 326.773823 282.829799 
L 513.558684 406.21404 
" style="fill:none;stroke:#b0b0b0;stroke-width:0.8;"/>
    <path d="M 364.954261 49.925348 
L 366.232808 276.737006 
L 555.437978 399.075598 
" style="fill:none;stroke:#b0b0b0;stroke-width:0.8;"/>
    <path d="M 406.038372 44.54947 
L 405.37122 270.693712 
L 596.949182 391.999898 
" style="fill:none;stroke:#b0b0b0;stroke-width:0.8;"/>
    <path d="M 446.773648 39.219238 
L 444.19295 264.699316 
L 638.097125 384.986117 
" style="fill:none;stroke:#b0b0b0;stroke-width:0.8;"/>
   </g>
   <g id="xtick_6">
    <g id="line2d_8">
     <path d="M 296.957589 441.760405 
L 301.487732 445.115488 
" style="fill:none;stroke:#000000;stroke-linecap:square;stroke-width:0.8;"/>
    </g>
    <g id="text_8">
     <!-- 0.0 -->
     <defs>
      <path d="M 10.6875 12.40625 
L 21 12.40625 
L 21 0 
L 10.6875 0 
z
" id="DejaVuSans-46"/>
     </defs>
     <g transform="translate(297.41578 463.709172)scale(0.1 -0.1)">
      <use xlink:href="#DejaVuSans-48"/>
      <use x="63.623047" xlink:href="#DejaVuSans-46"/>
      <use x="95.410156" xlink:href="#DejaVuSans-48"/>
     </g>
    </g>
   </g>
   <g id="xtick_7">
    <g id="line2d_9">
     <path d="M 340.730257 434.305429 
L 345.328383 437.630283 
" style="fill:none;stroke:#000000;stroke-linecap:square;stroke-width:0.8;"/>
    </g>
    <g id="text_9">
     <!-- 2.5 -->
     <defs>
      <path d="M 10.796875 72.90625 
L 49.515625 72.90625 
L 49.515625 64.59375 
L 19.828125 64.59375 
L 19.828125 46.734375 
Q 21.96875 47.46875 24.109375 47.828125 
Q 26.265625 48.1875 28.421875 48.1875 
Q 40.625 48.1875 47.75 41.5 
Q 54.890625 34.8125 54.890625 23.390625 
Q 54.890625 11.625 47.5625 5.09375 
Q 40.234375 -1.421875 26.90625 -1.421875 
Q 22.3125 -1.421875 17.546875 -0.640625 
Q 12.796875 0.140625 7.71875 1.703125 
L 7.71875 11.625 
Q 12.109375 9.234375 16.796875 8.0625 
Q 21.484375 6.890625 26.703125 6.890625 
Q 35.15625 6.890625 40.078125 11.328125 
Q 45.015625 15.765625 45.015625 23.390625 
Q 45.015625 31 40.078125 35.4375 
Q 35.15625 39.890625 26.703125 39.890625 
Q 22.75 39.890625 18.8125 39.015625 
Q 14.890625 38.140625 10.796875 36.28125 
z
" id="DejaVuSans-53"/>
     </defs>
     <g transform="translate(341.229256 456.175929)scale(0.1 -0.1)">
      <use xlink:href="#DejaVuSans-50"/>
      <use x="63.623047" xlink:href="#DejaVuSans-46"/>
      <use x="95.410156" xlink:href="#DejaVuSans-53"/>
     </g>
    </g>
   </g>
   <g id="xtick_8">
    <g id="line2d_10">
     <path d="M 384.109813 426.917405 
L 388.774517 430.212436 
" style="fill:none;stroke:#000000;stroke-linecap:square;stroke-width:0.8;"/>
    </g>
    <g id="text_10">
     <!-- 5.0 -->
     <g transform="translate(384.648546 448.710461)scale(0.1 -0.1)">
      <use xlink:href="#DejaVuSans-53"/>
      <use x="63.623047" xlink:href="#DejaVuSans-46"/>
      <use x="95.410156" xlink:href="#DejaVuSans-48"/>
     </g>
    </g>
   </g>
   <g id="xtick_9">
    <g id="line2d_11">
     <path d="M 427.101526 419.595435 
L 431.831437 422.861042 
" style="fill:none;stroke:#000000;stroke-linecap:square;stroke-width:0.8;"/>
    </g>
    <g id="text_11">
     <!-- 7.5 -->
     <defs>
      <path d="M 8.203125 72.90625 
L 55.078125 72.90625 
L 55.078125 68.703125 
L 28.609375 0 
L 18.3125 0 
L 43.21875 64.59375 
L 8.203125 64.59375 
z
" id="DejaVuSans-55"/>
     </defs>
     <g transform="translate(427.678947 441.311858)scale(0.1 -0.1)">
      <use xlink:href="#DejaVuSans-55"/>
      <use x="63.623047" xlink:href="#DejaVuSans-46"/>
      <use x="95.410156" xlink:href="#DejaVuSans-53"/>
     </g>
    </g>
   </g>
   <g id="xtick_10">
    <g id="line2d_12">
     <path d="M 469.710577 412.338636 
L 474.504349 415.575213 
" style="fill:none;stroke:#000000;stroke-linecap:square;stroke-width:0.8;"/>
    </g>
    <g id="text_12">
     <!-- 10.0 -->
     <g transform="translate(467.14441 433.979227)scale(0.1 -0.1)">
      <use xlink:href="#DejaVuSans-49"/>
      <use x="63.623047" xlink:href="#DejaVuSans-48"/>
      <use x="127.246094" xlink:href="#DejaVuSans-46"/>
      <use x="159.033203" xlink:href="#DejaVuSans-48"/>
     </g>
    </g>
   </g>
   <g id="xtick_11">
    <g id="line2d_13">
     <path d="M 511.942051 405.146143 
L 516.798367 408.354074 
" style="fill:none;stroke:#000000;stroke-linecap:square;stroke-width:0.8;"/>
    </g>
    <g id="text_13">
     <!-- 12.5 -->
     <g transform="translate(509.412544 426.711687)scale(0.1 -0.1)">
      <use xlink:href="#DejaVuSans-49"/>
      <use x="63.623047" xlink:href="#DejaVuSans-50"/>
      <use x="127.246094" xlink:href="#DejaVuSans-46"/>
      <use x="159.033203" xlink:href="#DejaVuSans-53"/>
     </g>
    </g>
   </g>
   <g id="xtick_12">
    <g id="line2d_14">
     <path d="M 553.800944 398.017105 
L 558.718517 401.196769 
" style="fill:none;stroke:#000000;stroke-linecap:square;stroke-width:0.8;"/>
    </g>
    <g id="text_14">
     <!-- 15.0 -->
     <g transform="translate(551.307117 419.508378)scale(0.1 -0.1)">
      <use xlink:href="#DejaVuSans-49"/>
      <use x="63.623047" xlink:href="#DejaVuSans-53"/>
      <use x="127.246094" xlink:href="#DejaVuSans-46"/>
      <use x="159.033203" xlink:href="#DejaVuSans-48"/>
     </g>
    </g>
   </g>
   <g id="xtick_13">
    <g id="line2d_15">
     <path d="M 595.292166 390.950685 
L 600.269732 394.102454 
" style="fill:none;stroke:#000000;stroke-linecap:square;stroke-width:0.8;"/>
    </g>
    <g id="text_15">
     <!-- 17.5 -->
     <g transform="translate(592.833061 412.36845)scale(0.1 -0.1)">
      <use xlink:href="#DejaVuSans-49"/>
      <use x="63.623047" xlink:href="#DejaVuSans-55"/>
      <use x="127.246094" xlink:href="#DejaVuSans-46"/>
      <use x="159.033203" xlink:href="#DejaVuSans-53"/>
     </g>
    </g>
   </g>
   <g id="xtick_14">
    <g id="line2d_16">
     <path d="M 636.42054 383.946062 
L 641.456863 387.070302 
" style="fill:none;stroke:#000000;stroke-linecap:square;stroke-width:0.8;"/>
    </g>
    <g id="text_16">
     <!-- 20.0 -->
     <g transform="translate(633.99522 405.291071)scale(0.1 -0.1)">
      <use xlink:href="#DejaVuSans-50"/>
      <use x="63.623047" xlink:href="#DejaVuSans-48"/>
      <use x="127.246094" xlink:href="#DejaVuSans-46"/>
      <use x="159.033203" xlink:href="#DejaVuSans-48"/>
     </g>
    </g>
   </g>
  </g>
  <g id="axis3d_3">
   <g id="line2d_17">
    <path d="M 678.209645 378.148827 
L 693.486714 140.462834 
" style="fill:none;stroke:#000000;stroke-linecap:square;stroke-width:0.8;"/>
   </g>
   <g id="text_17">
    <!-- Your Win Rate -->
    <defs>
     <path d="M 3.328125 72.90625 
L 13.28125 72.90625 
L 28.609375 11.28125 
L 43.890625 72.90625 
L 54.984375 72.90625 
L 70.3125 11.28125 
L 85.59375 72.90625 
L 95.609375 72.90625 
L 77.296875 0 
L 64.890625 0 
L 49.515625 63.28125 
L 33.984375 0 
L 21.578125 0 
z
" id="DejaVuSans-87"/>
     <path d="M 44.390625 34.1875 
Q 47.5625 33.109375 50.5625 29.59375 
Q 53.5625 26.078125 56.59375 19.921875 
L 66.609375 0 
L 56 0 
L 46.6875 18.703125 
Q 43.0625 26.03125 39.671875 28.421875 
Q 36.28125 30.8125 30.421875 30.8125 
L 19.671875 30.8125 
L 19.671875 0 
L 9.8125 0 
L 9.8125 72.90625 
L 32.078125 72.90625 
Q 44.578125 72.90625 50.734375 67.671875 
Q 56.890625 62.453125 56.890625 51.90625 
Q 56.890625 45.015625 53.6875 40.46875 
Q 50.484375 35.9375 44.390625 34.1875 
z
M 19.671875 64.796875 
L 19.671875 38.921875 
L 32.078125 38.921875 
Q 39.203125 38.921875 42.84375 42.21875 
Q 46.484375 45.515625 46.484375 51.90625 
Q 46.484375 58.296875 42.84375 61.546875 
Q 39.203125 64.796875 32.078125 64.796875 
z
" id="DejaVuSans-82"/>
    </defs>
    <g transform="translate(732.723519 302.918216)rotate(-86.32242)scale(0.1 -0.1)">
     <use xlink:href="#DejaVuSans-89"/>
     <use x="60.880859" xlink:href="#DejaVuSans-111"/>
     <use x="122.0625" xlink:href="#DejaVuSans-117"/>
     <use x="185.441406" xlink:href="#DejaVuSans-114"/>
     <use x="226.554688" xlink:href="#DejaVuSans-32"/>
     <use x="258.341797" xlink:href="#DejaVuSans-87"/>
     <use x="357.1875" xlink:href="#DejaVuSans-105"/>
     <use x="384.970703" xlink:href="#DejaVuSans-110"/>
     <use x="448.349609" xlink:href="#DejaVuSans-32"/>
     <use x="480.136719" xlink:href="#DejaVuSans-82"/>
     <use x="549.587891" xlink:href="#DejaVuSans-97"/>
     <use x="610.867188" xlink:href="#DejaVuSans-116"/>
     <use x="650.076172" xlink:href="#DejaVuSans-101"/>
    </g>
   </g>
   <g id="Line3DCollection_3">
    <path d="M 678.888999 367.579191 
L 482.260376 248.815725 
L 116.326553 304.934284 
" style="fill:none;stroke:#b0b0b0;stroke-width:0.8;"/>
    <path d="M 680.911874 336.106599 
L 482.849 218.952636 
L 114.461568 274.295185 
" style="fill:none;stroke:#b0b0b0;stroke-width:0.8;"/>
    <path d="M 682.963469 304.18716 
L 483.445345 188.697869 
L 112.57117 243.238572 
" style="fill:none;stroke:#b0b0b0;stroke-width:0.8;"/>
    <path d="M 685.044401 271.811289 
L 484.049563 158.043668 
L 110.654834 211.755852 
" style="fill:none;stroke:#b0b0b0;stroke-width:0.8;"/>
    <path d="M 687.155304 238.969127 
L 484.661811 126.98207 
L 108.712025 179.838194 
" style="fill:none;stroke:#b0b0b0;stroke-width:0.8;"/>
    <path d="M 689.296829 205.650525 
L 485.282251 95.504899 
L 106.742188 147.476524 
" style="fill:none;stroke:#b0b0b0;stroke-width:0.8;"/>
    <path d="M 691.469649 171.845042 
L 485.911047 63.60376 
L 104.744757 114.66151 
" style="fill:none;stroke:#b0b0b0;stroke-width:0.8;"/>
   </g>
   <g id="xtick_15">
    <g id="line2d_18">
     <path d="M 677.189102 366.552455 
L 682.295441 369.636679 
" style="fill:none;stroke:#000000;stroke-linecap:square;stroke-width:0.8;"/>
    </g>
    <g id="text_18">
     <!-- −0.4 -->
     <defs>
      <path d="M 10.59375 35.5 
L 73.1875 35.5 
L 73.1875 27.203125 
L 10.59375 27.203125 
z
" id="DejaVuSans-8722"/>
     </defs>
     <g transform="translate(687.643441 377.504514)scale(0.1 -0.1)">
      <use xlink:href="#DejaVuSans-8722"/>
      <use x="83.789062" xlink:href="#DejaVuSans-48"/>
      <use x="147.412109" xlink:href="#DejaVuSans-46"/>
      <use x="179.199219" xlink:href="#DejaVuSans-52"/>
     </g>
    </g>
   </g>
   <g id="xtick_16">
    <g id="line2d_19">
     <path d="M 679.198677 335.093245 
L 684.345015 338.137298 
" style="fill:none;stroke:#000000;stroke-linecap:square;stroke-width:0.8;"/>
    </g>
    <g id="text_19">
     <!-- −0.2 -->
     <g transform="translate(689.816831 346.001629)scale(0.1 -0.1)">
      <use xlink:href="#DejaVuSans-8722"/>
      <use x="83.789062" xlink:href="#DejaVuSans-48"/>
      <use x="147.412109" xlink:href="#DejaVuSans-46"/>
      <use x="179.199219" xlink:href="#DejaVuSans-50"/>
     </g>
    </g>
   </g>
   <g id="xtick_17">
    <g id="line2d_20">
     <path d="M 681.236765 303.187673 
L 686.423726 306.190099 
" style="fill:none;stroke:#000000;stroke-linecap:square;stroke-width:0.8;"/>
    </g>
    <g id="text_20">
     <!-- 0.0 -->
     <g transform="translate(696.210968 314.050798)scale(0.1 -0.1)">
      <use xlink:href="#DejaVuSans-48"/>
      <use x="63.623047" xlink:href="#DejaVuSans-46"/>
      <use x="95.410156" xlink:href="#DejaVuSans-48"/>
     </g>
    </g>
   </g>
   <g id="xtick_18">
    <g id="line2d_21">
     <path d="M 683.303977 270.82617 
L 688.532201 273.785463 
" style="fill:none;stroke:#000000;stroke-linecap:square;stroke-width:0.8;"/>
    </g>
    <g id="text_21">
     <!-- 0.2 -->
     <g transform="translate(698.446829 281.642399)scale(0.1 -0.1)">
      <use xlink:href="#DejaVuSans-48"/>
      <use x="63.623047" xlink:href="#DejaVuSans-46"/>
      <use x="95.410156" xlink:href="#DejaVuSans-50"/>
     </g>
    </g>
   </g>
   <g id="xtick_19">
    <g id="line2d_22">
     <path d="M 685.400942 237.998894 
L 690.671085 240.913495 
" style="fill:none;stroke:#000000;stroke-linecap:square;stroke-width:0.8;"/>
    </g>
    <g id="text_22">
     <!-- 0.4 -->
     <g transform="translate(700.714942 248.766531)scale(0.1 -0.1)">
      <use xlink:href="#DejaVuSans-48"/>
      <use x="63.623047" xlink:href="#DejaVuSans-46"/>
      <use x="95.410156" xlink:href="#DejaVuSans-52"/>
     </g>
    </g>
   </g>
   <g id="xtick_20">
    <g id="line2d_23">
     <path d="M 687.528308 204.695716 
L 692.841039 207.564012 
" style="fill:none;stroke:#000000;stroke-linecap:square;stroke-width:0.8;"/>
    </g>
    <g id="text_23">
     <!-- 0.6 -->
     <g transform="translate(703.016007 215.413006)scale(0.1 -0.1)">
      <use xlink:href="#DejaVuSans-48"/>
      <use x="63.623047" xlink:href="#DejaVuSans-46"/>
      <use x="95.410156" xlink:href="#DejaVuSans-54"/>
     </g>
    </g>
   </g>
   <g id="xtick_21">
    <g id="line2d_24">
     <path d="M 689.686739 170.906212 
L 695.042745 173.726532 
" style="fill:none;stroke:#000000;stroke-linecap:square;stroke-width:0.8;"/>
    </g>
    <g id="text_24">
     <!-- 0.8 -->
     <g transform="translate(705.35075 181.57134)scale(0.1 -0.1)">
      <use xlink:href="#DejaVuSans-48"/>
      <use x="63.623047" xlink:href="#DejaVuSans-46"/>
      <use x="95.410156" xlink:href="#DejaVuSans-56"/>
     </g>
    </g>
   </g>
  </g>
  <g id="axes_1">
   <g id="Poly3DCollection_1">
    <path clip-path="url(#pe9d27d142a)" d="M 360.897296 179.633636 
L 378.48517 200.912943 
L 394.717021 197.94328 
L 377.0724 177.34382 
z
" style="fill:#6afdc0;"/>
    <path clip-path="url(#pe9d27d142a)" d="M 377.0724 177.34382 
L 394.717021 197.94328 
L 410.963795 178.985412 
L 393.197859 157.429844 
z
" style="fill:#7effb5;"/>
    <path clip-path="url(#pe9d27d142a)" d="M 344.610255 176.303615 
L 362.144097 194.791336 
L 378.48517 200.912943 
L 360.897296 179.633636 
z
" style="fill:#72febb;"/>
    <path clip-path="url(#pe9d27d142a)" d="M 393.197859 157.429844 
L 410.963795 178.985412 
L 427.350035 149.642153 
L 409.41111 132.038296 
z
" style="fill:#b4f295;"/>
    <path clip-path="url(#pe9d27d142a)" d="M 378.48517 200.912943 
L 396.262871 221.307212 
L 412.565916 216.462066 
L 394.717021 197.94328 
z
" style="fill:#52f5cb;"/>
    <path clip-path="url(#pe9d27d142a)" d="M 394.717021 197.94328 
L 412.565916 216.462066 
L 428.923222 200.052699 
L 410.963795 178.985412 
z
" style="fill:#66fcc2;"/>
    <path clip-path="url(#pe9d27d142a)" d="M 328.201146 170.966755 
L 345.66055 185.958363 
L 362.144097 194.791336 
L 344.610255 176.303615 
z
" style="fill:#86ffb0;"/>
    <path clip-path="url(#pe9d27d142a)" d="M 409.41111 132.038296 
L 427.350035 149.642153 
L 443.817671 124.916546 
L 425.741025 104.95635 
z
" style="fill:#f0c46c;"/>
    <path clip-path="url(#pe9d27d142a)" d="M 362.144097 194.791336 
L 379.883829 211.704342 
L 396.262871 221.307212 
L 378.48517 200.912943 
z
" style="fill:#5df9c7;"/>
    <path clip-path="url(#pe9d27d142a)" d="M 410.963795 178.985412 
L 428.923222 200.052699 
L 445.511292 167.306288 
L 427.350035 149.642153 
z
" style="fill:#9efaa2;"/>
    <path clip-path="url(#pe9d27d142a)" d="M 425.741025 104.95635 
L 443.817671 124.916546 
L 460.430147 97.067369 
L 442.121186 84.041032 
z
" style="fill:#ff8143;"/>
    <path clip-path="url(#pe9d27d142a)" d="M 311.56636 158.866715 
L 329.020027 175.535795 
L 345.66055 185.958363 
L 328.201146 170.966755 
z
" style="fill:#a4f89f;"/>
    <path clip-path="url(#pe9d27d142a)" d="M 262.642898 191.960788 
L 279.918959 214.813174 
L 296.333702 204.991769 
L 279.190259 191.016626 
z
" style="fill:#70febc;"/>
    <path clip-path="url(#pe9d27d142a)" d="M 279.190259 191.016626 
L 296.333702 204.991769 
L 312.657326 190.041144 
L 295.332594 173.732084 
z
" style="fill:#84ffb2;"/>
    <path clip-path="url(#pe9d27d142a)" d="M 412.565916 216.462066 
L 430.61421 237.108752 
L 447.123836 217.612504 
L 428.923222 200.052699 
z
" style="fill:#52f5cb;"/>
    <path clip-path="url(#pe9d27d142a)" d="M 396.262871 221.307212 
L 414.271993 235.589585 
L 430.61421 237.108752 
L 412.565916 216.462066 
z
" style="fill:#3febd5;"/>
    <path clip-path="url(#pe9d27d142a)" d="M 295.332594 173.732084 
L 312.657326 190.041144 
L 329.020027 175.535795 
L 311.56636 158.866715 
z
" style="fill:#a4f89f;"/>
    <path clip-path="url(#pe9d27d142a)" d="M 246.099126 195.140636 
L 263.29775 217.35428 
L 279.918959 214.813174 
L 262.642898 191.960788 
z
" style="fill:#6dfdbf;"/>
    <path clip-path="url(#pe9d27d142a)" d="M 442.121186 84.041032 
L 460.430147 97.067369 
L 477.045175 75.803462 
L 458.546983 65.064089 
z
" style="fill:#ff381c;"/>
    <path clip-path="url(#pe9d27d142a)" d="M 345.66055 185.958363 
L 363.37216 203.554123 
L 379.883829 211.704342 
L 362.144097 194.791336 
z
" style="fill:#76ffb9;"/>
    <path clip-path="url(#pe9d27d142a)" d="M 427.350035 149.642153 
L 445.511292 167.306288 
L 462.219155 137.019714 
L 443.817671 124.916546 
z
" style="fill:#e0d377;"/>
    <path clip-path="url(#pe9d27d142a)" d="M 229.542176 199.401003 
L 246.601155 219.294876 
L 263.29775 217.35428 
L 246.099126 195.140636 
z
" style="fill:#6afdc0;"/>
    <path clip-path="url(#pe9d27d142a)" d="M 458.546983 65.064089 
L 477.045175 75.803462 
L 493.663346 57.895911 
L 474.930077 51.950624 
z
" style="fill:#ff0000;"/>
    <path clip-path="url(#pe9d27d142a)" d="M 379.883829 211.704342 
L 397.85348 227.646157 
L 414.271993 235.589585 
L 396.262871 221.307212 
z
" style="fill:#4ef3cd;"/>
    <path clip-path="url(#pe9d27d142a)" d="M 428.923222 200.052699 
L 447.123836 217.612504 
L 463.892697 185.56087 
L 445.511292 167.306288 
z
" style="fill:#8bfeae;"/>
    <path clip-path="url(#pe9d27d142a)" d="M 212.83263 200.841542 
L 229.844274 221.262355 
L 246.601155 219.294876 
L 229.542176 199.401003 
z
" style="fill:#6afdc0;"/>
    <path clip-path="url(#pe9d27d142a)" d="M 443.817671 124.916546 
L 462.219155 137.019714 
L 478.9451 113.263993 
L 460.430147 97.067369 
z
" style="fill:#ff914c;"/>
    <path clip-path="url(#pe9d27d142a)" d="M 329.020027 175.535795 
L 346.719297 194.474689 
L 363.37216 203.554123 
L 345.66055 185.958363 
z
" style="fill:#94fda8;"/>
    <path clip-path="url(#pe9d27d142a)" d="M 279.918959 214.813174 
L 297.316538 235.170944 
L 313.797955 223.777205 
L 296.333702 204.991769 
z
" style="fill:#5df9c7;"/>
    <path clip-path="url(#pe9d27d142a)" d="M 196.081549 202.821622 
L 213.038934 223.564535 
L 229.844274 221.262355 
L 212.83263 200.841542 
z
" style="fill:#6dfdbf;"/>
    <path clip-path="url(#pe9d27d142a)" d="M 296.333702 204.991769 
L 313.797955 223.777205 
L 330.236957 208.652847 
L 312.657326 190.041144 
z
" style="fill:#76ffb9;"/>
    <path clip-path="url(#pe9d27d142a)" d="M 430.61421 237.108752 
L 448.907562 254.686844 
L 465.506511 238.400889 
L 447.123836 217.612504 
z
" style="fill:#3dead5;"/>
    <path clip-path="url(#pe9d27d142a)" d="M 263.29775 217.35428 
L 280.622661 237.487203 
L 297.316538 235.170944 
L 279.918959 214.813174 
z
" style="fill:#52f5cb;"/>
    <path clip-path="url(#pe9d27d142a)" d="M 414.271993 235.589585 
L 432.511224 252.883998 
L 448.907562 254.686844 
L 430.61421 237.108752 
z
" style="fill:#2fe0db;"/>
    <path clip-path="url(#pe9d27d142a)" d="M 312.657326 190.041144 
L 330.236957 208.652847 
L 346.719297 194.474689 
L 329.020027 175.535795 
z
" style="fill:#94fda8;"/>
    <path clip-path="url(#pe9d27d142a)" d="M 363.37216 203.554123 
L 381.303837 219.768473 
L 397.85348 227.646157 
L 379.883829 211.704342 
z
" style="fill:#68fcc1;"/>
    <path clip-path="url(#pe9d27d142a)" d="M 179.32781 206.068083 
L 196.261451 227.920262 
L 213.038934 223.564535 
L 196.081549 202.821622 
z
" style="fill:#6afdc0;"/>
    <path clip-path="url(#pe9d27d142a)" d="M 246.601155 219.294876 
L 263.898476 240.832561 
L 280.622661 237.487203 
L 263.29775 217.35428 
z
" style="fill:#52f5cb;"/>
    <path clip-path="url(#pe9d27d142a)" d="M 460.430147 97.067369 
L 478.9451 113.263993 
L 495.783765 88.584893 
L 477.045175 75.803462 
z
" style="fill:#ff4422;"/>
    <path clip-path="url(#pe9d27d142a)" d="M 445.511292 167.306288 
L 463.892697 185.56087 
L 480.804945 153.987308 
L 462.219155 137.019714 
z
" style="fill:#d2de81;"/>
    <path clip-path="url(#pe9d27d142a)" d="M 162.477181 208.409244 
L 179.287064 228.978988 
L 196.261451 227.920262 
L 179.32781 206.068083 
z
" style="fill:#6afdc0;"/>
    <path clip-path="url(#pe9d27d142a)" d="M 229.844274 221.262355 
L 247.099274 243.443223 
L 263.898476 240.832561 
L 246.601155 219.294876 
z
" style="fill:#52f5cb;"/>
    <path clip-path="url(#pe9d27d142a)" d="M 447.123836 217.612504 
L 465.506511 238.400889 
L 482.57793 200.119286 
L 463.892697 185.56087 
z
" style="fill:#78ffb8;"/>
    <path clip-path="url(#pe9d27d142a)" d="M 397.85348 227.646157 
L 416.065825 243.729917 
L 432.511224 252.883998 
L 414.271993 235.589585 
z
" style="fill:#42edd3;"/>
    <path clip-path="url(#pe9d27d142a)" d="M 477.045175 75.803462 
L 495.783765 88.584893 
L 512.574538 69.674053 
L 493.663346 57.895911 
z
" style="fill:#ff0000;"/>
    <path clip-path="url(#pe9d27d142a)" d="M 145.564873 210.699963 
L 162.352709 232.230908 
L 179.287064 228.978988 
L 162.477181 208.409244 
z
" style="fill:#6afdc0;"/>
    <path clip-path="url(#pe9d27d142a)" d="M 213.038934 223.564535 
L 230.17649 244.182503 
L 247.099274 243.443223 
L 229.844274 221.262355 
z
" style="fill:#52f5cb;"/>
    <path clip-path="url(#pe9d27d142a)" d="M 297.316538 235.170944 
L 314.879898 253.678323 
L 331.446829 240.614647 
L 313.797955 223.777205 
z
" style="fill:#48f1d0;"/>
    <path clip-path="url(#pe9d27d142a)" d="M 346.719297 194.474689 
L 364.613062 210.293922 
L 381.303837 219.768473 
L 363.37216 203.554123 
z
" style="fill:#84ffb2;"/>
    <path clip-path="url(#pe9d27d142a)" d="M 280.622661 237.487203 
L 298.33414 266.837233 
L 314.879898 253.678323 
L 297.316538 235.170944 
z
" style="fill:#37e6d8;"/>
    <path clip-path="url(#pe9d27d142a)" d="M 462.219155 137.019714 
L 480.804945 153.987308 
L 497.784659 125.998799 
L 478.9451 113.263993 
z
" style="fill:#ff9d53;"/>
    <path clip-path="url(#pe9d27d142a)" d="M 313.797955 223.777205 
L 331.446829 240.614647 
L 348.015028 225.680813 
L 330.236957 208.652847 
z
" style="fill:#64fbc3;"/>
    <path clip-path="url(#pe9d27d142a)" d="M 448.907562 254.686844 
L 467.308295 280.182279 
L 484.269459 250.955513 
L 465.506511 238.400889 
z
" style="fill:#2adddd;"/>
    <path clip-path="url(#pe9d27d142a)" d="M 432.511224 252.883998 
L 451.023168 267.667526 
L 467.308295 280.182279 
L 448.907562 254.686844 
z
" style="fill:#1dd1e2;"/>
    <path clip-path="url(#pe9d27d142a)" d="M 196.261451 227.920262 
L 213.265184 247.061765 
L 230.17649 244.182503 
L 213.038934 223.564535 
z
" style="fill:#52f5cb;"/>
    <path clip-path="url(#pe9d27d142a)" d="M 330.236957 208.652847 
L 348.015028 225.680813 
L 364.613062 210.293922 
L 346.719297 194.474689 
z
" style="fill:#84ffb2;"/>
    <path clip-path="url(#pe9d27d142a)" d="M 263.898476 240.832561 
L 281.293914 258.722476 
L 298.33414 266.837233 
L 280.622661 237.487203 
z
" style="fill:#37e6d8;"/>
    <path clip-path="url(#pe9d27d142a)" d="M 381.303837 219.768473 
L 399.477778 235.245246 
L 416.065825 243.729917 
L 397.85348 227.646157 
z
" style="fill:#5df9c7;"/>
    <path clip-path="url(#pe9d27d142a)" d="M 463.892697 185.56087 
L 482.57793 200.119286 
L 499.697061 168.30981 
L 480.804945 153.987308 
z
" style="fill:#c4e88a;"/>
    <path clip-path="url(#pe9d27d142a)" d="M 179.287064 228.978988 
L 196.304037 250.09552 
L 213.265184 247.061765 
L 196.261451 227.920262 
z
" style="fill:#52f5cb;"/>
    <path clip-path="url(#pe9d27d142a)" d="M 478.9451 113.263993 
L 497.784659 125.998799 
L 514.793529 101.59159 
L 495.783765 88.584893 
z
" style="fill:#ff5029;"/>
    <path clip-path="url(#pe9d27d142a)" d="M 247.099274 243.443223 
L 264.415115 261.324858 
L 281.293914 258.722476 
L 263.898476 240.832561 
z
" style="fill:#3dead5;"/>
    <path clip-path="url(#pe9d27d142a)" d="M 162.352709 232.230908 
L 179.279042 252.953136 
L 196.304037 250.09552 
L 179.287064 228.978988 
z
" style="fill:#52f5cb;"/>
    <path clip-path="url(#pe9d27d142a)" d="M 465.506511 238.400889 
L 484.269459 250.955513 
L 501.677252 208.584144 
L 482.57793 200.119286 
z
" style="fill:#72febb;"/>
    <path clip-path="url(#pe9d27d142a)" d="M 416.065825 243.729917 
L 434.534155 259.158731 
L 451.023168 267.667526 
L 432.511224 252.883998 
z
" style="fill:#37e6d8;"/>
    <path clip-path="url(#pe9d27d142a)" d="M 230.17649 244.182503 
L 247.505378 264.803495 
L 264.415115 261.324858 
L 247.099274 243.443223 
z
" style="fill:#3dead5;"/>
    <path clip-path="url(#pe9d27d142a)" d="M 495.783765 88.584893 
L 514.793529 101.59159 
L 531.824402 79.71698 
L 512.574538 69.674053 
z
" style="fill:#ff0603;"/>
    <path clip-path="url(#pe9d27d142a)" d="M 298.33414 266.837233 
L 315.848811 276.387228 
L 332.639734 270.587942 
L 314.879898 253.678323 
z
" style="fill:#24d8df;"/>
    <path clip-path="url(#pe9d27d142a)" d="M 314.879898 253.678323 
L 332.639734 270.587942 
L 349.329105 257.617698 
L 331.446829 240.614647 
z
" style="fill:#3ae8d6;"/>
    <path clip-path="url(#pe9d27d142a)" d="M 364.613062 210.293922 
L 382.752035 226.74003 
L 399.477778 235.245246 
L 381.303837 219.768473 
z
" style="fill:#78ffb8;"/>
    <path clip-path="url(#pe9d27d142a)" d="M 467.308295 280.182279 
L 486.243528 288.578201 
L 502.877417 281.783201 
L 484.269459 250.955513 
z
" style="fill:#17cbe4;"/>
    <path clip-path="url(#pe9d27d142a)" d="M 480.804945 153.987308 
L 499.697061 168.30981 
L 516.827862 141.708753 
L 497.784659 125.998799 
z
" style="fill:#ffa95b;"/>
    <path clip-path="url(#pe9d27d142a)" d="M 331.446829 240.614647 
L 349.329105 257.617698 
L 366.022199 242.108265 
L 348.015028 225.680813 
z
" style="fill:#56f7ca;"/>
    <path clip-path="url(#pe9d27d142a)" d="M 213.265184 247.061765 
L 230.525475 267.782208 
L 247.505378 264.803495 
L 230.17649 244.182503 
z
" style="fill:#3dead5;"/>
    <path clip-path="url(#pe9d27d142a)" d="M 281.293914 258.722476 
L 298.956279 278.925774 
L 315.848811 276.387228 
L 298.33414 266.837233 
z
" style="fill:#22d6e0;"/>
    <path clip-path="url(#pe9d27d142a)" d="M 451.023168 267.667526 
L 469.811369 282.008875 
L 486.243528 288.578201 
L 467.308295 280.182279 
z
" style="fill:#12c8e6;"/>
    <path clip-path="url(#pe9d27d142a)" d="M 348.015028 225.680813 
L 366.022199 242.108265 
L 382.752035 226.74003 
L 364.613062 210.293922 
z
" style="fill:#76ffb9;"/>
    <path clip-path="url(#pe9d27d142a)" d="M 196.304037 250.09552 
L 213.507907 271.245328 
L 230.525475 267.782208 
L 213.265184 247.061765 
z
" style="fill:#3dead5;"/>
    <path clip-path="url(#pe9d27d142a)" d="M 399.477778 235.245246 
L 417.896799 252.386943 
L 434.534155 259.158731 
L 416.065825 243.729917 
z
" style="fill:#52f5cb;"/>
    <path clip-path="url(#pe9d27d142a)" d="M 264.415115 261.324858 
L 281.988992 280.838995 
L 298.956279 278.925774 
L 281.293914 258.722476 
z
" style="fill:#2adddd;"/>
    <path clip-path="url(#pe9d27d142a)" d="M 497.784659 125.998799 
L 516.827862 141.708753 
L 534.084224 114.685758 
L 514.793529 101.59159 
z
" style="fill:#ff5c2f;"/>
    <path clip-path="url(#pe9d27d142a)" d="M 179.279042 252.953136 
L 196.340207 272.45186 
L 213.507907 271.245328 
L 196.304037 250.09552 
z
" style="fill:#3ae8d6;"/>
    <path clip-path="url(#pe9d27d142a)" d="M 482.57793 200.119286 
L 501.677252 208.584144 
L 519.033229 176.438349 
L 499.697061 168.30981 
z
" style="fill:#c4e88a;"/>
    <path clip-path="url(#pe9d27d142a)" d="M 484.269459 250.955513 
L 502.877417 281.783201 
L 520.833604 226.789482 
L 501.677252 208.584144 
z
" style="fill:#62fbc4;"/>
    <path clip-path="url(#pe9d27d142a)" d="M 247.505378 264.803495 
L 265.026198 285.234208 
L 281.988992 280.838995 
L 264.415115 261.324858 
z
" style="fill:#28dbde;"/>
    <path clip-path="url(#pe9d27d142a)" d="M 434.534155 259.158731 
L 453.237419 276.685888 
L 469.811369 282.008875 
L 451.023168 267.667526 
z
" style="fill:#2ddedc;"/>
    <path clip-path="url(#pe9d27d142a)" d="M 486.243528 288.578201 
L 505.339586 303.800537 
L 521.72766 309.119475 
L 502.877417 281.783201 
z
" style="fill:#00b5eb;"/>
    <path clip-path="url(#pe9d27d142a)" d="M 315.848811 276.387228 
L 333.873162 302.948964 
L 350.650904 289.121237 
L 332.639734 270.587942 
z
" style="fill:#17cbe4;"/>
    <path clip-path="url(#pe9d27d142a)" d="M 332.639734 270.587942 
L 350.650904 289.121237 
L 367.456675 276.007227 
L 349.329105 257.617698 
z
" style="fill:#2ddedc;"/>
    <path clip-path="url(#pe9d27d142a)" d="M 382.752035 226.74003 
L 401.135787 244.088055 
L 417.896799 252.386943 
L 399.477778 235.245246 
z
" style="fill:#6dfdbf;"/>
    <path clip-path="url(#pe9d27d142a)" d="M 230.525475 267.782208 
L 247.928578 286.84086 
L 265.026198 285.234208 
L 247.505378 264.803495 
z
" style="fill:#28dbde;"/>
    <path clip-path="url(#pe9d27d142a)" d="M 514.793529 101.59159 
L 534.084224 114.685758 
L 551.382031 89.851297 
L 531.824402 79.71698 
z
" style="fill:#ff0d06;"/>
    <path clip-path="url(#pe9d27d142a)" d="M 298.956279 278.925774 
L 316.917601 304.569551 
L 333.873162 302.948964 
L 315.848811 276.387228 
z
" style="fill:#0dc2e8;"/>
    <path clip-path="url(#pe9d27d142a)" d="M 349.329105 257.617698 
L 367.456675 276.007227 
L 384.277128 260.454879 
L 366.022199 242.108265 
z
" style="fill:#48f1d0;"/>
    <path clip-path="url(#pe9d27d142a)" d="M 499.697061 168.30981 
L 519.033229 176.438349 
L 536.360364 150.195539 
L 516.827862 141.708753 
z
" style="fill:#ffae5e;"/>
    <path clip-path="url(#pe9d27d142a)" d="M 366.022199 242.108265 
L 384.277128 260.454879 
L 401.135787 244.088055 
L 382.752035 226.74003 
z
" style="fill:#68fcc1;"/>
    <path clip-path="url(#pe9d27d142a)" d="M 213.507907 271.245328 
L 230.806825 289.68313 
L 247.928578 286.84086 
L 230.525475 267.782208 
z
" style="fill:#27dade;"/>
    <path clip-path="url(#pe9d27d142a)" d="M 281.988992 280.838995 
L 299.955406 309.180401 
L 316.917601 304.569551 
L 298.956279 278.925774 
z
" style="fill:#0dc2e8;"/>
    <path clip-path="url(#pe9d27d142a)" d="M 469.811369 282.008875 
L 488.838126 298.335265 
L 505.339586 303.800537 
L 486.243528 288.578201 
z
" style="fill:#0fc4e7;"/>
    <path clip-path="url(#pe9d27d142a)" d="M 417.896799 252.386943 
L 436.583966 267.558837 
L 453.237419 276.685888 
L 434.534155 259.158731 
z
" style="fill:#46efd1;"/>
    <path clip-path="url(#pe9d27d142a)" d="M 502.877417 281.783201 
L 521.72766 309.119475 
L 539.965091 253.665192 
L 520.833604 226.789482 
z
" style="fill:#3febd5;"/>
    <path clip-path="url(#pe9d27d142a)" d="M 196.340207 272.45186 
L 213.581653 291.394934 
L 230.806825 289.68313 
L 213.507907 271.245328 
z
" style="fill:#28dbde;"/>
    <path clip-path="url(#pe9d27d142a)" d="M 265.026198 285.234208 
L 282.900728 311.833259 
L 299.955406 309.180401 
L 281.988992 280.838995 
z
" style="fill:#0ac0e8;"/>
    <path clip-path="url(#pe9d27d142a)" d="M 516.827862 141.708753 
L 536.360364 150.195539 
L 553.820382 123.302591 
L 534.084224 114.685758 
z
" style="fill:#ff5f30;"/>
    <path clip-path="url(#pe9d27d142a)" d="M 333.873162 302.948964 
L 351.998858 322.188823 
L 368.894847 307.972032 
L 350.650904 289.121237 
z
" style="fill:#00b5eb;"/>
    <path clip-path="url(#pe9d27d142a)" d="M 505.339586 303.800537 
L 524.574819 323.899194 
L 541.021554 328.413138 
L 521.72766 309.119475 
z
" style="fill:#149df1;"/>
    <path clip-path="url(#pe9d27d142a)" d="M 247.928578 286.84086 
L 265.794914 314.820675 
L 282.900728 311.833259 
L 265.026198 285.234208 
z
" style="fill:#0ac0e8;"/>
    <path clip-path="url(#pe9d27d142a)" d="M 316.917601 304.569551 
L 335.087275 333.033519 
L 351.998858 322.188823 
L 333.873162 302.948964 
z
" style="fill:#149df1;"/>
    <path clip-path="url(#pe9d27d142a)" d="M 501.677252 208.584144 
L 520.833604 226.789482 
L 538.735447 183.632216 
L 519.033229 176.438349 
z
" style="fill:#c6e789;"/>
    <path clip-path="url(#pe9d27d142a)" d="M 453.237419 276.685888 
L 472.231776 292.105459 
L 488.838126 298.335265 
L 469.811369 282.008875 
z
" style="fill:#22d6e0;"/>
    <path clip-path="url(#pe9d27d142a)" d="M 350.650904 289.121237 
L 368.894847 307.972032 
L 385.817339 293.530503 
L 367.456675 276.007227 
z
" style="fill:#1acfe3;"/>
    <path clip-path="url(#pe9d27d142a)" d="M 299.955406 309.180401 
L 318.014253 333.955138 
L 335.087275 333.033519 
L 316.917601 304.569551 
z
" style="fill:#1898f2;"/>
    <path clip-path="url(#pe9d27d142a)" d="M 401.135787 244.088055 
L 419.768666 261.091953 
L 436.583966 267.558837 
L 417.896799 252.386943 
z
" style="fill:#5efac6;"/>
    <path clip-path="url(#pe9d27d142a)" d="M 367.456675 276.007227 
L 385.817339 293.530503 
L 402.770912 277.919238 
L 384.277128 260.454879 
z
" style="fill:#38e7d7;"/>
    <path clip-path="url(#pe9d27d142a)" d="M 230.806825 289.68313 
L 248.590985 316.55515 
L 265.794914 314.820675 
L 247.928578 286.84086 
z
" style="fill:#0dc2e8;"/>
    <path clip-path="url(#pe9d27d142a)" d="M 534.084224 114.685758 
L 553.820382 123.302591 
L 571.213785 101.184887 
L 551.382031 89.851297 
z
" style="fill:#ff0d06;"/>
    <path clip-path="url(#pe9d27d142a)" d="M 521.72766 309.119475 
L 541.021554 328.413138 
L 559.165175 283.753631 
L 539.965091 253.665192 
z
" style="fill:#1dd1e2;"/>
    <path clip-path="url(#pe9d27d142a)" d="M 384.277128 260.454879 
L 402.770912 277.919238 
L 419.768666 261.091953 
L 401.135787 244.088055 
z
" style="fill:#5af8c8;"/>
    <path clip-path="url(#pe9d27d142a)" d="M 282.900728 311.833259 
L 300.920998 337.539998 
L 318.014253 333.955138 
L 299.955406 309.180401 
z
" style="fill:#1898f2;"/>
    <path clip-path="url(#pe9d27d142a)" d="M 488.838126 298.335265 
L 508.039954 318.458434 
L 524.574819 323.899194 
L 505.339586 303.800537 
z
" style="fill:#01b3ec;"/>
    <path clip-path="url(#pe9d27d142a)" d="M 213.581653 291.394934 
L 231.368183 319.681269 
L 248.590985 316.55515 
L 230.806825 289.68313 
z
" style="fill:#0dc2e8;"/>
    <path clip-path="url(#pe9d27d142a)" d="M 436.583966 267.558837 
L 455.514215 284.895657 
L 472.231776 292.105459 
L 453.237419 276.685888 
z
" style="fill:#3ae8d6;"/>
    <path clip-path="url(#pe9d27d142a)" d="M 519.033229 176.438349 
L 538.735447 183.632216 
L 556.273326 157.445286 
L 536.360364 150.195539 
z
" style="fill:#ffa558;"/>
    <path clip-path="url(#pe9d27d142a)" d="M 265.794914 314.820675 
L 283.774521 341.16771 
L 300.920998 337.539998 
L 282.900728 311.833259 
z
" style="fill:#1996f3;"/>
    <path clip-path="url(#pe9d27d142a)" d="M 335.087275 333.033519 
L 353.3185 350.568834 
L 370.348074 339.910796 
L 351.998858 322.188823 
z
" style="fill:#2884f6;"/>
    <path clip-path="url(#pe9d27d142a)" d="M 520.833604 226.789482 
L 539.965091 253.665192 
L 558.263352 205.556663 
L 538.735447 183.632216 
z
" style="fill:#b4f295;"/>
    <path clip-path="url(#pe9d27d142a)" d="M 351.998858 322.188823 
L 370.348074 339.910796 
L 387.374178 326.199517 
L 368.894847 307.972032 
z
" style="fill:#10a2f0;"/>
    <path clip-path="url(#pe9d27d142a)" d="M 248.590985 316.55515 
L 266.531957 343.299744 
L 283.774521 341.16771 
L 265.794914 314.820675 
z
" style="fill:#1996f3;"/>
    <path clip-path="url(#pe9d27d142a)" d="M 524.574819 323.899194 
L 544.181624 340.357942 
L 560.669293 345.092715 
L 541.021554 328.413138 
z
" style="fill:#2489f5;"/>
    <path clip-path="url(#pe9d27d142a)" d="M 318.014253 333.955138 
L 336.256775 358.674428 
L 353.3185 350.568834 
L 335.087275 333.033519 
z
" style="fill:#3473f8;"/>
    <path clip-path="url(#pe9d27d142a)" d="M 472.231776 292.105459 
L 491.381555 313.193734 
L 508.039954 318.458434 
L 488.838126 298.335265 
z
" style="fill:#14cae5;"/>
    <path clip-path="url(#pe9d27d142a)" d="M 368.894847 307.972032 
L 387.374178 326.199517 
L 404.427489 310.845766 
L 385.817339 293.530503 
z
" style="fill:#0dc2e8;"/>
    <path clip-path="url(#pe9d27d142a)" d="M 536.360364 150.195539 
L 556.273326 157.445286 
L 573.878842 132.360342 
L 553.820382 123.302591 
z
" style="fill:#ff592d;"/>
    <path clip-path="url(#pe9d27d142a)" d="M 300.920998 337.539998 
L 319.172734 366.640362 
L 336.256775 358.674428 
L 318.014253 333.955138 
z
" style="fill:#396bf9;"/>
    <path clip-path="url(#pe9d27d142a)" d="M 541.021554 328.413138 
L 560.669293 345.092715 
L 578.623626 311.54827 
L 559.165175 283.753631 
z
" style="fill:#00b5eb;"/>
    <path clip-path="url(#pe9d27d142a)" d="M 419.768666 261.091953 
L 438.654935 278.526066 
L 455.514215 284.895657 
L 436.583966 267.558837 
z
" style="fill:#52f5cb;"/>
    <path clip-path="url(#pe9d27d142a)" d="M 385.817339 293.530503 
L 404.427489 310.845766 
L 421.521474 294.59791 
L 402.770912 277.919238 
z
" style="fill:#2ddedc;"/>
    <path clip-path="url(#pe9d27d142a)" d="M 231.368183 319.681269 
L 249.247634 346.202897 
L 266.531957 343.299744 
L 248.590985 316.55515 
z
" style="fill:#1898f2;"/>
    <path clip-path="url(#pe9d27d142a)" d="M 402.770912 277.919238 
L 421.521474 294.59791 
L 438.654935 278.526066 
L 419.768666 261.091953 
z
" style="fill:#4df3ce;"/>
    <path clip-path="url(#pe9d27d142a)" d="M 283.774521 341.16771 
L 301.90605 366.599378 
L 319.172734 366.640362 
L 300.920998 337.539998 
z
" style="fill:#3c68f9;"/>
    <path clip-path="url(#pe9d27d142a)" d="M 508.039954 318.458434 
L 527.574813 335.758417 
L 544.181624 340.357942 
L 524.574819 323.899194 
z
" style="fill:#10a2f0;"/>
    <path clip-path="url(#pe9d27d142a)" d="M 553.820382 123.302591 
L 573.878842 132.360342 
L 591.433438 110.888033 
L 571.213785 101.184887 
z
" style="fill:#ff0905;"/>
    <path clip-path="url(#pe9d27d142a)" d="M 455.514215 284.895657 
L 474.605596 307.839315 
L 491.381555 313.193734 
L 472.231776 292.105459 
z
" style="fill:#28dbde;"/>
    <path clip-path="url(#pe9d27d142a)" d="M 539.965091 253.665192 
L 559.165175 283.753631 
L 577.759027 234.095911 
L 558.263352 205.556663 
z
" style="fill:#8efeac;"/>
    <path clip-path="url(#pe9d27d142a)" d="M 266.531957 343.299744 
L 284.628435 369.582639 
L 301.90605 366.599378 
L 283.774521 341.16771 
z
" style="fill:#3c68f9;"/>
    <path clip-path="url(#pe9d27d142a)" d="M 353.3185 350.568834 
L 371.823189 373.200359 
L 388.951905 363.232468 
L 370.348074 339.910796 
z
" style="fill:#3c68f9;"/>
    <path clip-path="url(#pe9d27d142a)" d="M 370.348074 339.910796 
L 388.951905 363.232468 
L 406.083113 350.530496 
L 387.374178 326.199517 
z
" style="fill:#2686f5;"/>
    <path clip-path="url(#pe9d27d142a)" d="M 538.735447 183.632216 
L 558.263352 205.556663 
L 576.491007 166.052917 
L 556.273326 157.445286 
z
" style="fill:#ffa558;"/>
    <path clip-path="url(#pe9d27d142a)" d="M 336.256775 358.674428 
L 354.671237 381.131613 
L 371.823189 373.200359 
L 353.3185 350.568834 
z
" style="fill:#4c50fc;"/>
    <path clip-path="url(#pe9d27d142a)" d="M 249.247634 346.202897 
L 267.260281 371.495499 
L 284.628435 369.582639 
L 266.531957 343.299744 
z
" style="fill:#396bf9;"/>
    <path clip-path="url(#pe9d27d142a)" d="M 387.374178 326.199517 
L 406.083113 350.530496 
L 423.246331 335.344796 
L 404.427489 310.845766 
z
" style="fill:#09a9ee;"/>
    <path clip-path="url(#pe9d27d142a)" d="M 319.172734 366.640362 
L 337.489098 388.397938 
L 354.671237 381.131613 
L 336.256775 358.674428 
z
" style="fill:#583efd;"/>
    <path clip-path="url(#pe9d27d142a)" d="M 491.381555 313.193734 
L 510.886264 329.904658 
L 527.574813 335.758417 
L 508.039954 318.458434 
z
" style="fill:#04b9ea;"/>
    <path clip-path="url(#pe9d27d142a)" d="M 404.427489 310.845766 
L 423.246331 335.344796 
L 440.453387 319.18979 
L 421.521474 294.59791 
z
" style="fill:#17cbe4;"/>
    <path clip-path="url(#pe9d27d142a)" d="M 438.654935 278.526066 
L 457.721377 301.626633 
L 474.605596 307.839315 
L 455.514215 284.895657 
z
" style="fill:#3febd5;"/>
    <path clip-path="url(#pe9d27d142a)" d="M 301.90605 366.599378 
L 320.241322 393.295541 
L 337.489098 388.397938 
L 319.172734 366.640362 
z
" style="fill:#5e35fe;"/>
    <path clip-path="url(#pe9d27d142a)" d="M 559.165175 283.753631 
L 578.623626 311.54827 
L 597.381386 263.87319 
L 577.759027 234.095911 
z
" style="fill:#64fbc3;"/>
    <path clip-path="url(#pe9d27d142a)" d="M 421.521474 294.59791 
L 440.453387 319.18979 
L 457.721377 301.626633 
L 438.654935 278.526066 
z
" style="fill:#38e7d7;"/>
    <path clip-path="url(#pe9d27d142a)" d="M 556.273326 157.445286 
L 576.491007 166.052917 
L 594.222979 142.818794 
L 573.878842 132.360342 
z
" style="fill:#ff5029;"/>
    <path clip-path="url(#pe9d27d142a)" d="M 284.628435 369.582639 
L 302.920634 396.859343 
L 320.241322 393.295541 
L 301.90605 366.599378 
z
" style="fill:#5e35fe;"/>
    <path clip-path="url(#pe9d27d142a)" d="M 474.605596 307.839315 
L 494.067461 324.276207 
L 510.886264 329.904658 
L 491.381555 313.193734 
z
" style="fill:#18cde4;"/>
    <path clip-path="url(#pe9d27d142a)" d="M 267.260281 371.495499 
L 285.567112 401.429768 
L 302.920634 396.859343 
L 284.628435 369.582639 
z
" style="fill:#5e35fe;"/>
    <path clip-path="url(#pe9d27d142a)" d="M 558.263352 205.556663 
L 577.759027 234.095911 
L 596.492073 187.697752 
L 576.491007 166.052917 
z
" style="fill:#f6be68;"/>
    <path clip-path="url(#pe9d27d142a)" d="M 573.878842 132.360342 
L 594.222979 142.818794 
L 611.971638 121.125112 
L 591.433438 110.888033 
z
" style="fill:#ff0603;"/>
    <path clip-path="url(#pe9d27d142a)" d="M 371.823189 373.200359 
L 390.541434 387.853791 
L 407.795512 378.71668 
L 388.951905 363.232468 
z
" style="fill:#4c50fc;"/>
    <path clip-path="url(#pe9d27d142a)" d="M 388.951905 363.232468 
L 407.795512 378.71668 
L 425.055398 367.011892 
L 406.083113 350.530496 
z
" style="fill:#386df9;"/>
    <path clip-path="url(#pe9d27d142a)" d="M 354.671237 381.131613 
L 373.26878 395.746493 
L 390.541434 387.853791 
L 371.823189 373.200359 
z
" style="fill:#5a3bfd;"/>
    <path clip-path="url(#pe9d27d142a)" d="M 406.083113 350.530496 
L 425.055398 367.011892 
L 442.345723 353.185493 
L 423.246331 335.344796 
z
" style="fill:#1e91f3;"/>
    <path clip-path="url(#pe9d27d142a)" d="M 337.489098 388.397938 
L 355.979773 404.480837 
L 373.26878 395.746493 
L 354.671237 381.131613 
z
" style="fill:#6629fe;"/>
    <path clip-path="url(#pe9d27d142a)" d="M 423.246331 335.344796 
L 442.345723 353.185493 
L 459.696131 336.880265 
L 440.453387 319.18979 
z
" style="fill:#02b7eb;"/>
    <path clip-path="url(#pe9d27d142a)" d="M 457.721377 301.626633 
L 477.109314 319.441945 
L 494.067461 324.276207 
L 474.605596 307.839315 
z
" style="fill:#2ddedc;"/>
    <path clip-path="url(#pe9d27d142a)" d="M 320.241322 393.295541 
L 338.6635 412.341016 
L 355.979773 404.480837 
L 337.489098 388.397938 
z
" style="fill:#7216ff;"/>
    <path clip-path="url(#pe9d27d142a)" d="M 302.920634 396.859343 
L 321.359193 422.434799 
L 338.6635 412.341016 
L 320.241322 393.295541 
z
" style="fill:#7a09ff;"/>
    <path clip-path="url(#pe9d27d142a)" d="M 440.453387 319.18979 
L 459.696131 336.880265 
L 477.109314 319.441945 
L 457.721377 301.626633 
z
" style="fill:#24d8df;"/>
    <path clip-path="url(#pe9d27d142a)" d="M 285.567112 401.429768 
L 303.927493 426.459908 
L 321.359193 422.434799 
L 302.920634 396.859343 
z
" style="fill:#8000ff;"/>
    <path clip-path="url(#pe9d27d142a)" d="M 577.759027 234.095911 
L 597.381386 263.87319 
L 616.302055 218.40192 
L 596.492073 187.697752 
z
" style="fill:#d0e082;"/>
    <path clip-path="url(#pe9d27d142a)" d="M 576.491007 166.052917 
L 596.492073 187.697752 
L 614.894115 153.642479 
L 594.222979 142.818794 
z
" style="fill:#ff562c;"/>
    <path clip-path="url(#pe9d27d142a)" d="M 594.222979 142.818794 
L 614.894115 153.642479 
L 632.82311 132.068698 
L 611.971638 121.125112 
z
" style="fill:#ff0603;"/>
    <path clip-path="url(#pe9d27d142a)" d="M 596.492073 187.697752 
L 616.302055 218.40192 
L 635.460388 173.207332 
L 614.894115 153.642479 
z
" style="fill:#ff763d;"/>
    <path clip-path="url(#pe9d27d142a)" d="M 614.894115 153.642479 
L 635.460388 173.207332 
L 654.052331 142.588829 
L 632.82311 132.068698 
z
" style="fill:#ff0d06;"/>
   </g>
  </g>
 </g>
 <defs>
  <clipPath id="pe9d27d142a">
   <rect height="476.64" width="763.2" x="0" y="0"/>
  </clipPath>
 </defs>
</svg>
