<?xml version="1.0" encoding="utf-8" standalone="no"?>
<!DOCTYPE svg PUBLIC "-//W3C//DTD SVG 1.1//EN"
  "http://www.w3.org/Graphics/SVG/1.1/DTD/svg11.dtd">
<!-- Created with matplotlib (https://matplotlib.org/) -->
<svg height="476.64pt" version="1.1" viewBox="0 0 763.2 476.64" width="763.2pt" xmlns="http://www.w3.org/2000/svg" xmlns:xlink="http://www.w3.org/1999/xlink">
 <defs>
  <style type="text/css">
*{stroke-linecap:butt;stroke-linejoin:round;}
  </style>
 </defs>
 <g id="figure_1">
  <g id="patch_1">
   <path d="M 0 476.64 
L 763.2 476.64 
L 763.2 0 
L 0 0 
z
" style="fill:#ffffff;"/>
  </g>
  <g id="patch_2">
   <path d="M 0 476.64 
L 763.2 476.64 
L 763.2 0 
L 0 0 
z
" style="fill:#ffffff;"/>
  </g>
  <g id="pane3d_1">
   <g id="patch_3">
    <path d="M 185.298816 346.144511 
L 591.846163 345.581558 
L 593.784225 91.711067 
L 183.292871 91.885282 
" style="fill:#f2f2f2;opacity:0.5;stroke:#f2f2f2;stroke-linejoin:miter;"/>
   </g>
  </g>
  <g id="pane3d_2">
   <g id="patch_4">
    <path d="M 591.846163 345.581558 
L 620.624988 385.354389 
L 623.085489 104.032241 
L 593.784225 91.711067 
" style="fill:#e6e6e6;opacity:0.5;stroke:#e6e6e6;stroke-linejoin:miter;"/>
   </g>
  </g>
  <g id="pane3d_3">
   <g id="patch_5">
    <path d="M 185.298816 346.144511 
L 169.880394 386.046432 
L 620.624988 385.354389 
L 591.846163 345.581558 
" style="fill:#ececec;opacity:0.5;stroke:#ececec;stroke-linejoin:miter;"/>
   </g>
  </g>
  <g id="axis3d_1">
   <g id="line2d_1">
    <path d="M 185.298816 346.144511 
L 169.880394 386.046432 
" style="fill:none;stroke:#000000;stroke-linecap:square;stroke-width:0.8;"/>
   </g>
   <g id="text_1">
    <!-- Dealer's Points -->
    <defs>
     <path d="M 19.671875 64.796875 
L 19.671875 8.109375 
L 31.59375 8.109375 
Q 46.6875 8.109375 53.6875 14.9375 
Q 60.6875 21.78125 60.6875 36.53125 
Q 60.6875 51.171875 53.6875 57.984375 
Q 46.6875 64.796875 31.59375 64.796875 
z
M 9.8125 72.90625 
L 30.078125 72.90625 
Q 51.265625 72.90625 61.171875 64.09375 
Q 71.09375 55.28125 71.09375 36.53125 
Q 71.09375 17.671875 61.125 8.828125 
Q 51.171875 0 30.078125 0 
L 9.8125 0 
z
" id="DejaVuSans-68"/>
     <path d="M 56.203125 29.59375 
L 56.203125 25.203125 
L 14.890625 25.203125 
Q 15.484375 15.921875 20.484375 11.0625 
Q 25.484375 6.203125 34.421875 6.203125 
Q 39.59375 6.203125 44.453125 7.46875 
Q 49.3125 8.734375 54.109375 11.28125 
L 54.109375 2.78125 
Q 49.265625 0.734375 44.1875 -0.34375 
Q 39.109375 -1.421875 33.890625 -1.421875 
Q 20.796875 -1.421875 13.15625 6.1875 
Q 5.515625 13.8125 5.515625 26.8125 
Q 5.515625 40.234375 12.765625 48.109375 
Q 20.015625 56 32.328125 56 
Q 43.359375 56 49.78125 48.890625 
Q 56.203125 41.796875 56.203125 29.59375 
z
M 47.21875 32.234375 
Q 47.125 39.59375 43.09375 43.984375 
Q 39.0625 48.390625 32.421875 48.390625 
Q 24.90625 48.390625 20.390625 44.140625 
Q 15.875 39.890625 15.1875 32.171875 
z
" id="DejaVuSans-101"/>
     <path d="M 34.28125 27.484375 
Q 23.390625 27.484375 19.1875 25 
Q 14.984375 22.515625 14.984375 16.5 
Q 14.984375 11.71875 18.140625 8.90625 
Q 21.296875 6.109375 26.703125 6.109375 
Q 34.1875 6.109375 38.703125 11.40625 
Q 43.21875 16.703125 43.21875 25.484375 
L 43.21875 27.484375 
z
M 52.203125 31.203125 
L 52.203125 0 
L 43.21875 0 
L 43.21875 8.296875 
Q 40.140625 3.328125 35.546875 0.953125 
Q 30.953125 -1.421875 24.3125 -1.421875 
Q 15.921875 -1.421875 10.953125 3.296875 
Q 6 8.015625 6 15.921875 
Q 6 25.140625 12.171875 29.828125 
Q 18.359375 34.515625 30.609375 34.515625 
L 43.21875 34.515625 
L 43.21875 35.40625 
Q 43.21875 41.609375 39.140625 45 
Q 35.0625 48.390625 27.6875 48.390625 
Q 23 48.390625 18.546875 47.265625 
Q 14.109375 46.140625 10.015625 43.890625 
L 10.015625 52.203125 
Q 14.9375 54.109375 19.578125 55.046875 
Q 24.21875 56 28.609375 56 
Q 40.484375 56 46.34375 49.84375 
Q 52.203125 43.703125 52.203125 31.203125 
z
" id="DejaVuSans-97"/>
     <path d="M 9.421875 75.984375 
L 18.40625 75.984375 
L 18.40625 0 
L 9.421875 0 
z
" id="DejaVuSans-108"/>
     <path d="M 41.109375 46.296875 
Q 39.59375 47.171875 37.8125 47.578125 
Q 36.03125 48 33.890625 48 
Q 26.265625 48 22.1875 43.046875 
Q 18.109375 38.09375 18.109375 28.8125 
L 18.109375 0 
L 9.078125 0 
L 9.078125 54.6875 
L 18.109375 54.6875 
L 18.109375 46.1875 
Q 20.953125 51.171875 25.484375 53.578125 
Q 30.03125 56 36.53125 56 
Q 37.453125 56 38.578125 55.875 
Q 39.703125 55.765625 41.0625 55.515625 
z
" id="DejaVuSans-114"/>
     <path d="M 17.921875 72.90625 
L 17.921875 45.796875 
L 9.625 45.796875 
L 9.625 72.90625 
z
" id="DejaVuSans-39"/>
     <path d="M 44.28125 53.078125 
L 44.28125 44.578125 
Q 40.484375 46.53125 36.375 47.5 
Q 32.28125 48.484375 27.875 48.484375 
Q 21.1875 48.484375 17.84375 46.4375 
Q 14.5 44.390625 14.5 40.28125 
Q 14.5 37.15625 16.890625 35.375 
Q 19.28125 33.59375 26.515625 31.984375 
L 29.59375 31.296875 
Q 39.15625 29.25 43.1875 25.515625 
Q 47.21875 21.78125 47.21875 15.09375 
Q 47.21875 7.46875 41.1875 3.015625 
Q 35.15625 -1.421875 24.609375 -1.421875 
Q 20.21875 -1.421875 15.453125 -0.5625 
Q 10.6875 0.296875 5.421875 2 
L 5.421875 11.28125 
Q 10.40625 8.6875 15.234375 7.390625 
Q 20.0625 6.109375 24.8125 6.109375 
Q 31.15625 6.109375 34.5625 8.28125 
Q 37.984375 10.453125 37.984375 14.40625 
Q 37.984375 18.0625 35.515625 20.015625 
Q 33.0625 21.96875 24.703125 23.78125 
L 21.578125 24.515625 
Q 13.234375 26.265625 9.515625 29.90625 
Q 5.8125 33.546875 5.8125 39.890625 
Q 5.8125 47.609375 11.28125 51.796875 
Q 16.75 56 26.8125 56 
Q 31.78125 56 36.171875 55.265625 
Q 40.578125 54.546875 44.28125 53.078125 
z
" id="DejaVuSans-115"/>
     <path id="DejaVuSans-32"/>
     <path d="M 19.671875 64.796875 
L 19.671875 37.40625 
L 32.078125 37.40625 
Q 38.96875 37.40625 42.71875 40.96875 
Q 46.484375 44.53125 46.484375 51.125 
Q 46.484375 57.671875 42.71875 61.234375 
Q 38.96875 64.796875 32.078125 64.796875 
z
M 9.8125 72.90625 
L 32.078125 72.90625 
Q 44.34375 72.90625 50.609375 67.359375 
Q 56.890625 61.8125 56.890625 51.125 
Q 56.890625 40.328125 50.609375 34.8125 
Q 44.34375 29.296875 32.078125 29.296875 
L 19.671875 29.296875 
L 19.671875 0 
L 9.8125 0 
z
" id="DejaVuSans-80"/>
     <path d="M 30.609375 48.390625 
Q 23.390625 48.390625 19.1875 42.75 
Q 14.984375 37.109375 14.984375 27.296875 
Q 14.984375 17.484375 19.15625 11.84375 
Q 23.34375 6.203125 30.609375 6.203125 
Q 37.796875 6.203125 41.984375 11.859375 
Q 46.1875 17.53125 46.1875 27.296875 
Q 46.1875 37.015625 41.984375 42.703125 
Q 37.796875 48.390625 30.609375 48.390625 
z
M 30.609375 56 
Q 42.328125 56 49.015625 48.375 
Q 55.71875 40.765625 55.71875 27.296875 
Q 55.71875 13.875 49.015625 6.21875 
Q 42.328125 -1.421875 30.609375 -1.421875 
Q 18.84375 -1.421875 12.171875 6.21875 
Q 5.515625 13.875 5.515625 27.296875 
Q 5.515625 40.765625 12.171875 48.375 
Q 18.84375 56 30.609375 56 
z
" id="DejaVuSans-111"/>
     <path d="M 9.421875 54.6875 
L 18.40625 54.6875 
L 18.40625 0 
L 9.421875 0 
z
M 9.421875 75.984375 
L 18.40625 75.984375 
L 18.40625 64.59375 
L 9.421875 64.59375 
z
" id="DejaVuSans-105"/>
     <path d="M 54.890625 33.015625 
L 54.890625 0 
L 45.90625 0 
L 45.90625 32.71875 
Q 45.90625 40.484375 42.875 44.328125 
Q 39.84375 48.1875 33.796875 48.1875 
Q 26.515625 48.1875 22.3125 43.546875 
Q 18.109375 38.921875 18.109375 30.90625 
L 18.109375 0 
L 9.078125 0 
L 9.078125 54.6875 
L 18.109375 54.6875 
L 18.109375 46.1875 
Q 21.34375 51.125 25.703125 53.5625 
Q 30.078125 56 35.796875 56 
Q 45.21875 56 50.046875 50.171875 
Q 54.890625 44.34375 54.890625 33.015625 
z
" id="DejaVuSans-110"/>
     <path d="M 18.3125 70.21875 
L 18.3125 54.6875 
L 36.8125 54.6875 
L 36.8125 47.703125 
L 18.3125 47.703125 
L 18.3125 18.015625 
Q 18.3125 11.328125 20.140625 9.421875 
Q 21.96875 7.515625 27.59375 7.515625 
L 36.8125 7.515625 
L 36.8125 0 
L 27.59375 0 
Q 17.1875 0 13.234375 3.875 
Q 9.28125 7.765625 9.28125 18.015625 
L 9.28125 47.703125 
L 2.6875 47.703125 
L 2.6875 54.6875 
L 9.28125 54.6875 
L 9.28125 70.21875 
z
" id="DejaVuSans-116"/>
    </defs>
    <g transform="translate(134.160501 421.353259)rotate(-68.873069)scale(0.1 -0.1)">
     <use xlink:href="#DejaVuSans-68"/>
     <use x="77.001953" xlink:href="#DejaVuSans-101"/>
     <use x="138.525391" xlink:href="#DejaVuSans-97"/>
     <use x="199.804688" xlink:href="#DejaVuSans-108"/>
     <use x="227.587891" xlink:href="#DejaVuSans-101"/>
     <use x="289.111328" xlink:href="#DejaVuSans-114"/>
     <use x="330.224609" xlink:href="#DejaVuSans-39"/>
     <use x="357.714844" xlink:href="#DejaVuSans-115"/>
     <use x="409.814453" xlink:href="#DejaVuSans-32"/>
     <use x="441.601562" xlink:href="#DejaVuSans-80"/>
     <use x="501.857422" xlink:href="#DejaVuSans-111"/>
     <use x="563.039062" xlink:href="#DejaVuSans-105"/>
     <use x="590.822266" xlink:href="#DejaVuSans-110"/>
     <use x="654.201172" xlink:href="#DejaVuSans-116"/>
     <use x="693.410156" xlink:href="#DejaVuSans-115"/>
    </g>
   </g>
   <g id="Line3DCollection_1">
    <path d="M 183.029809 352.016561 
L 596.081919 351.435445 
L 598.093 93.522906 
" style="fill:none;stroke:#b0b0b0;stroke-width:0.8;"/>
    <path d="M 180.19109 359.362989 
L 601.380911 358.758744 
L 603.485224 95.790334 
" style="fill:none;stroke:#b0b0b0;stroke-width:0.8;"/>
    <path d="M 177.238149 367.005017 
L 606.892775 366.376235 
L 609.096284 98.149784 
" style="fill:none;stroke:#b0b0b0;stroke-width:0.8;"/>
    <path d="M 174.163951 374.960853 
L 612.6306 374.306007 
L 614.939779 100.606972 
" style="fill:none;stroke:#b0b0b0;stroke-width:0.8;"/>
    <path d="M 170.960869 383.250231 
L 618.608572 382.567667 
L 621.030455 103.1681 
" style="fill:none;stroke:#b0b0b0;stroke-width:0.8;"/>
   </g>
   <g id="xtick_1">
    <g id="line2d_2">
     <path d="M 186.339347 352.011905 
L 176.410484 352.025873 
" style="fill:none;stroke:#000000;stroke-linecap:square;stroke-width:0.8;"/>
    </g>
    <g id="text_2">
     <!-- 2 -->
     <defs>
      <path d="M 19.1875 8.296875 
L 53.609375 8.296875 
L 53.609375 0 
L 7.328125 0 
L 7.328125 8.296875 
Q 12.9375 14.109375 22.625 23.890625 
Q 32.328125 33.6875 34.8125 36.53125 
Q 39.546875 41.84375 41.421875 45.53125 
Q 43.3125 49.21875 43.3125 52.78125 
Q 43.3125 58.59375 39.234375 62.25 
Q 35.15625 65.921875 28.609375 65.921875 
Q 23.96875 65.921875 18.8125 64.3125 
Q 13.671875 62.703125 7.8125 59.421875 
L 7.8125 69.390625 
Q 13.765625 71.78125 18.9375 73 
Q 24.125 74.21875 28.421875 74.21875 
Q 39.75 74.21875 46.484375 68.546875 
Q 53.21875 62.890625 53.21875 53.421875 
Q 53.21875 48.921875 51.53125 44.890625 
Q 49.859375 40.875 45.40625 35.40625 
Q 44.1875 33.984375 37.640625 27.21875 
Q 31.109375 20.453125 19.1875 8.296875 
z
" id="DejaVuSans-50"/>
     </defs>
     <g transform="translate(165.190656 368.743668)scale(0.1 -0.1)">
      <use xlink:href="#DejaVuSans-50"/>
     </g>
    </g>
   </g>
   <g id="xtick_2">
    <g id="line2d_3">
     <path d="M 183.565934 359.358147 
L 173.441144 359.372672 
" style="fill:none;stroke:#000000;stroke-linecap:square;stroke-width:0.8;"/>
    </g>
    <g id="text_3">
     <!-- 4 -->
     <defs>
      <path d="M 37.796875 64.3125 
L 12.890625 25.390625 
L 37.796875 25.390625 
z
M 35.203125 72.90625 
L 47.609375 72.90625 
L 47.609375 25.390625 
L 58.015625 25.390625 
L 58.015625 17.1875 
L 47.609375 17.1875 
L 47.609375 0 
L 37.796875 0 
L 37.796875 17.1875 
L 4.890625 17.1875 
L 4.890625 26.703125 
z
" id="DejaVuSans-52"/>
     </defs>
     <g transform="translate(162.063788 376.267888)scale(0.1 -0.1)">
      <use xlink:href="#DejaVuSans-52"/>
     </g>
    </g>
   </g>
   <g id="xtick_3">
    <g id="line2d_4">
     <path d="M 180.680928 366.999979 
L 170.352323 367.015094 
" style="fill:none;stroke:#000000;stroke-linecap:square;stroke-width:0.8;"/>
    </g>
    <g id="text_4">
     <!-- 6 -->
     <defs>
      <path d="M 33.015625 40.375 
Q 26.375 40.375 22.484375 35.828125 
Q 18.609375 31.296875 18.609375 23.390625 
Q 18.609375 15.53125 22.484375 10.953125 
Q 26.375 6.390625 33.015625 6.390625 
Q 39.65625 6.390625 43.53125 10.953125 
Q 47.40625 15.53125 47.40625 23.390625 
Q 47.40625 31.296875 43.53125 35.828125 
Q 39.65625 40.375 33.015625 40.375 
z
M 52.59375 71.296875 
L 52.59375 62.3125 
Q 48.875 64.0625 45.09375 64.984375 
Q 41.3125 65.921875 37.59375 65.921875 
Q 27.828125 65.921875 22.671875 59.328125 
Q 17.53125 52.734375 16.796875 39.40625 
Q 19.671875 43.65625 24.015625 45.921875 
Q 28.375 48.1875 33.59375 48.1875 
Q 44.578125 48.1875 50.953125 41.515625 
Q 57.328125 34.859375 57.328125 23.390625 
Q 57.328125 12.15625 50.6875 5.359375 
Q 44.046875 -1.421875 33.015625 -1.421875 
Q 20.359375 -1.421875 13.671875 8.265625 
Q 6.984375 17.96875 6.984375 36.375 
Q 6.984375 53.65625 15.1875 63.9375 
Q 23.390625 74.21875 37.203125 74.21875 
Q 40.921875 74.21875 44.703125 73.484375 
Q 48.484375 72.75 52.59375 71.296875 
z
" id="DejaVuSans-54"/>
     </defs>
     <g transform="translate(158.811142 384.094769)scale(0.1 -0.1)">
      <use xlink:href="#DejaVuSans-54"/>
     </g>
    </g>
   </g>
   <g id="xtick_4">
    <g id="line2d_5">
     <path d="M 177.677455 374.955606 
L 167.136661 374.971348 
" style="fill:none;stroke:#000000;stroke-linecap:square;stroke-width:0.8;"/>
    </g>
    <g id="text_5">
     <!-- 8 -->
     <defs>
      <path d="M 31.78125 34.625 
Q 24.75 34.625 20.71875 30.859375 
Q 16.703125 27.09375 16.703125 20.515625 
Q 16.703125 13.921875 20.71875 10.15625 
Q 24.75 6.390625 31.78125 6.390625 
Q 38.8125 6.390625 42.859375 10.171875 
Q 46.921875 13.96875 46.921875 20.515625 
Q 46.921875 27.09375 42.890625 30.859375 
Q 38.875 34.625 31.78125 34.625 
z
M 21.921875 38.8125 
Q 15.578125 40.375 12.03125 44.71875 
Q 8.5 49.078125 8.5 55.328125 
Q 8.5 64.0625 14.71875 69.140625 
Q 20.953125 74.21875 31.78125 74.21875 
Q 42.671875 74.21875 48.875 69.140625 
Q 55.078125 64.0625 55.078125 55.328125 
Q 55.078125 49.078125 51.53125 44.71875 
Q 48 40.375 41.703125 38.8125 
Q 48.828125 37.15625 52.796875 32.3125 
Q 56.78125 27.484375 56.78125 20.515625 
Q 56.78125 9.90625 50.3125 4.234375 
Q 43.84375 -1.421875 31.78125 -1.421875 
Q 19.734375 -1.421875 13.25 4.234375 
Q 6.78125 9.90625 6.78125 20.515625 
Q 6.78125 27.484375 10.78125 32.3125 
Q 14.796875 37.15625 21.921875 38.8125 
z
M 18.3125 54.390625 
Q 18.3125 48.734375 21.84375 45.5625 
Q 25.390625 42.390625 31.78125 42.390625 
Q 38.140625 42.390625 41.71875 45.5625 
Q 45.3125 48.734375 45.3125 54.390625 
Q 45.3125 60.0625 41.71875 63.234375 
Q 38.140625 66.40625 31.78125 66.40625 
Q 25.390625 66.40625 21.84375 63.234375 
Q 18.3125 60.0625 18.3125 54.390625 
z
" id="DejaVuSans-56"/>
     </defs>
     <g transform="translate(155.424973 392.24295)scale(0.1 -0.1)">
      <use xlink:href="#DejaVuSans-56"/>
     </g>
    </g>
   </g>
   <g id="xtick_5">
    <g id="line2d_6">
     <path d="M 174.548066 383.244761 
L 163.786182 383.261171 
" style="fill:none;stroke:#000000;stroke-linecap:square;stroke-width:0.8;"/>
    </g>
    <g id="text_6">
     <!-- 10 -->
     <defs>
      <path d="M 12.40625 8.296875 
L 28.515625 8.296875 
L 28.515625 63.921875 
L 10.984375 60.40625 
L 10.984375 69.390625 
L 28.421875 72.90625 
L 38.28125 72.90625 
L 38.28125 8.296875 
L 54.390625 8.296875 
L 54.390625 0 
L 12.40625 0 
z
" id="DejaVuSans-49"/>
      <path d="M 31.78125 66.40625 
Q 24.171875 66.40625 20.328125 58.90625 
Q 16.5 51.421875 16.5 36.375 
Q 16.5 21.390625 20.328125 13.890625 
Q 24.171875 6.390625 31.78125 6.390625 
Q 39.453125 6.390625 43.28125 13.890625 
Q 47.125 21.390625 47.125 36.375 
Q 47.125 51.421875 43.28125 58.90625 
Q 39.453125 66.40625 31.78125 66.40625 
z
M 31.78125 74.21875 
Q 44.046875 74.21875 50.515625 64.515625 
Q 56.984375 54.828125 56.984375 36.375 
Q 56.984375 17.96875 50.515625 8.265625 
Q 44.046875 -1.421875 31.78125 -1.421875 
Q 19.53125 -1.421875 13.0625 8.265625 
Q 6.59375 17.96875 6.59375 36.375 
Q 6.59375 54.828125 13.0625 64.515625 
Q 19.53125 74.21875 31.78125 74.21875 
z
" id="DejaVuSans-48"/>
     </defs>
     <g transform="translate(148.715636 400.732628)scale(0.1 -0.1)">
      <use xlink:href="#DejaVuSans-49"/>
      <use x="63.623047" xlink:href="#DejaVuSans-48"/>
     </g>
    </g>
   </g>
  </g>
  <g id="axis3d_2">
   <g id="line2d_7">
    <path d="M 620.624988 385.354389 
L 169.880394 386.046432 
" style="fill:none;stroke:#000000;stroke-linecap:square;stroke-width:0.8;"/>
   </g>
   <g id="text_7">
    <!-- Your Points -->
    <defs>
     <path d="M -0.203125 72.90625 
L 10.40625 72.90625 
L 30.609375 42.921875 
L 50.6875 72.90625 
L 61.28125 72.90625 
L 35.5 34.71875 
L 35.5 0 
L 25.59375 0 
L 25.59375 34.71875 
z
" id="DejaVuSans-89"/>
     <path d="M 8.5 21.578125 
L 8.5 54.6875 
L 17.484375 54.6875 
L 17.484375 21.921875 
Q 17.484375 14.15625 20.5 10.265625 
Q 23.53125 6.390625 29.59375 6.390625 
Q 36.859375 6.390625 41.078125 11.03125 
Q 45.3125 15.671875 45.3125 23.6875 
L 45.3125 54.6875 
L 54.296875 54.6875 
L 54.296875 0 
L 45.3125 0 
L 45.3125 8.40625 
Q 42.046875 3.421875 37.71875 1 
Q 33.40625 -1.421875 27.6875 -1.421875 
Q 18.265625 -1.421875 13.375 4.4375 
Q 8.5 10.296875 8.5 21.578125 
z
M 31.109375 56 
z
" id="DejaVuSans-117"/>
    </defs>
    <g transform="translate(367.916055 413.682704)rotate(-0.087968)scale(0.1 -0.1)">
     <use xlink:href="#DejaVuSans-89"/>
     <use x="60.880859" xlink:href="#DejaVuSans-111"/>
     <use x="122.0625" xlink:href="#DejaVuSans-117"/>
     <use x="185.441406" xlink:href="#DejaVuSans-114"/>
     <use x="226.554688" xlink:href="#DejaVuSans-32"/>
     <use x="258.341797" xlink:href="#DejaVuSans-80"/>
     <use x="318.597656" xlink:href="#DejaVuSans-111"/>
     <use x="379.779297" xlink:href="#DejaVuSans-105"/>
     <use x="407.5625" xlink:href="#DejaVuSans-110"/>
     <use x="470.941406" xlink:href="#DejaVuSans-116"/>
     <use x="510.150391" xlink:href="#DejaVuSans-115"/>
    </g>
   </g>
   <g id="Line3DCollection_2">
    <path d="M 191.515191 91.881792 
L 193.442017 346.133235 
L 178.91035 386.032568 
" style="fill:none;stroke:#b0b0b0;stroke-width:0.8;"/>
    <path d="M 236.35522 91.862762 
L 237.850658 346.071741 
L 228.153817 385.956963 
" style="fill:none;stroke:#b0b0b0;stroke-width:0.8;"/>
    <path d="M 281.180062 91.843738 
L 282.244405 346.010269 
L 277.378971 385.881386 
" style="fill:none;stroke:#b0b0b0;stroke-width:0.8;"/>
    <path d="M 325.989728 91.824721 
L 326.623264 345.948817 
L 326.585821 385.805837 
" style="fill:none;stroke:#b0b0b0;stroke-width:0.8;"/>
    <path d="M 370.784222 91.805709 
L 370.987244 345.887385 
L 375.774378 385.730316 
" style="fill:none;stroke:#b0b0b0;stroke-width:0.8;"/>
    <path d="M 415.563555 91.786705 
L 415.336351 345.825974 
L 424.944652 385.654823 
" style="fill:none;stroke:#b0b0b0;stroke-width:0.8;"/>
    <path d="M 460.327732 91.767707 
L 459.670593 345.764584 
L 474.096654 385.579359 
" style="fill:none;stroke:#b0b0b0;stroke-width:0.8;"/>
    <path d="M 505.076763 91.748715 
L 503.989977 345.703214 
L 523.230394 385.503922 
" style="fill:none;stroke:#b0b0b0;stroke-width:0.8;"/>
    <path d="M 549.810654 91.729729 
L 548.294511 345.641865 
L 572.345881 385.428513 
" style="fill:none;stroke:#b0b0b0;stroke-width:0.8;"/>
   </g>
   <g id="xtick_6">
    <g id="line2d_8">
     <path d="M 179.039143 385.678943 
L 178.65209 386.741668 
" style="fill:none;stroke:#000000;stroke-linecap:square;stroke-width:0.8;"/>
    </g>
    <g id="text_8">
     <!-- 0.0 -->
     <defs>
      <path d="M 10.6875 12.40625 
L 21 12.40625 
L 21 0 
L 10.6875 0 
z
" id="DejaVuSans-46"/>
     </defs>
     <g transform="translate(170.464032 405.176801)scale(0.1 -0.1)">
      <use xlink:href="#DejaVuSans-48"/>
      <use x="63.623047" xlink:href="#DejaVuSans-46"/>
      <use x="95.410156" xlink:href="#DejaVuSans-48"/>
     </g>
    </g>
   </g>
   <g id="xtick_7">
    <g id="line2d_9">
     <path d="M 228.239758 385.603469 
L 227.981486 386.665799 
" style="fill:none;stroke:#000000;stroke-linecap:square;stroke-width:0.8;"/>
    </g>
    <g id="text_9">
     <!-- 2.5 -->
     <defs>
      <path d="M 10.796875 72.90625 
L 49.515625 72.90625 
L 49.515625 64.59375 
L 19.828125 64.59375 
L 19.828125 46.734375 
Q 21.96875 47.46875 24.109375 47.828125 
Q 26.265625 48.1875 28.421875 48.1875 
Q 40.625 48.1875 47.75 41.5 
Q 54.890625 34.8125 54.890625 23.390625 
Q 54.890625 11.625 47.5625 5.09375 
Q 40.234375 -1.421875 26.90625 -1.421875 
Q 22.3125 -1.421875 17.546875 -0.640625 
Q 12.796875 0.140625 7.71875 1.703125 
L 7.71875 11.625 
Q 12.109375 9.234375 16.796875 8.0625 
Q 21.484375 6.890625 26.703125 6.890625 
Q 35.15625 6.890625 40.078125 11.328125 
Q 45.015625 15.765625 45.015625 23.390625 
Q 45.015625 31 40.078125 35.4375 
Q 35.15625 39.890625 26.703125 39.890625 
Q 22.75 39.890625 18.8125 39.015625 
Q 14.890625 38.140625 10.796875 36.28125 
z
" id="DejaVuSans-53"/>
     </defs>
     <g transform="translate(219.880345 405.098776)scale(0.1 -0.1)">
      <use xlink:href="#DejaVuSans-50"/>
      <use x="63.623047" xlink:href="#DejaVuSans-46"/>
      <use x="95.410156" xlink:href="#DejaVuSans-53"/>
     </g>
    </g>
   </g>
   <g id="xtick_8">
    <g id="line2d_10">
     <path d="M 277.422091 385.528023 
L 277.292504 386.589958 
" style="fill:none;stroke:#000000;stroke-linecap:square;stroke-width:0.8;"/>
    </g>
    <g id="text_10">
     <!-- 5.0 -->
     <g transform="translate(269.278215 405.02078)scale(0.1 -0.1)">
      <use xlink:href="#DejaVuSans-53"/>
      <use x="63.623047" xlink:href="#DejaVuSans-46"/>
      <use x="95.410156" xlink:href="#DejaVuSans-48"/>
     </g>
    </g>
   </g>
   <g id="xtick_9">
    <g id="line2d_11">
     <path d="M 326.586153 385.452606 
L 326.585155 386.514146 
" style="fill:none;stroke:#000000;stroke-linecap:square;stroke-width:0.8;"/>
    </g>
    <g id="text_11">
     <!-- 7.5 -->
     <defs>
      <path d="M 8.203125 72.90625 
L 55.078125 72.90625 
L 55.078125 68.703125 
L 28.609375 0 
L 18.3125 0 
L 43.21875 64.59375 
L 8.203125 64.59375 
z
" id="DejaVuSans-55"/>
     </defs>
     <g transform="translate(318.657655 404.942813)scale(0.1 -0.1)">
      <use xlink:href="#DejaVuSans-55"/>
      <use x="63.623047" xlink:href="#DejaVuSans-46"/>
      <use x="95.410156" xlink:href="#DejaVuSans-53"/>
     </g>
    </g>
   </g>
   <g id="xtick_10">
    <g id="line2d_12">
     <path d="M 375.731953 385.377216 
L 375.85945 386.438361 
" style="fill:none;stroke:#000000;stroke-linecap:square;stroke-width:0.8;"/>
    </g>
    <g id="text_12">
     <!-- 10.0 -->
     <g transform="translate(364.837422 404.864875)scale(0.1 -0.1)">
      <use xlink:href="#DejaVuSans-49"/>
      <use x="63.623047" xlink:href="#DejaVuSans-48"/>
      <use x="127.246094" xlink:href="#DejaVuSans-46"/>
      <use x="159.033203" xlink:href="#DejaVuSans-48"/>
     </g>
    </g>
   </g>
   <g id="xtick_11">
    <g id="line2d_13">
     <path d="M 424.859502 385.301855 
L 425.115398 386.362605 
" style="fill:none;stroke:#000000;stroke-linecap:square;stroke-width:0.8;"/>
    </g>
    <g id="text_13">
     <!-- 12.5 -->
     <g transform="translate(414.180028 404.786967)scale(0.1 -0.1)">
      <use xlink:href="#DejaVuSans-49"/>
      <use x="63.623047" xlink:href="#DejaVuSans-50"/>
      <use x="127.246094" xlink:href="#DejaVuSans-46"/>
      <use x="159.033203" xlink:href="#DejaVuSans-53"/>
     </g>
    </g>
   </g>
   <g id="xtick_12">
    <g id="line2d_14">
     <path d="M 473.968811 385.226521 
L 474.353009 386.286877 
" style="fill:none;stroke:#000000;stroke-linecap:square;stroke-width:0.8;"/>
    </g>
    <g id="text_14">
     <!-- 15.0 -->
     <g transform="translate(463.504234 404.709087)scale(0.1 -0.1)">
      <use xlink:href="#DejaVuSans-49"/>
      <use x="63.623047" xlink:href="#DejaVuSans-53"/>
      <use x="127.246094" xlink:href="#DejaVuSans-46"/>
      <use x="159.033203" xlink:href="#DejaVuSans-48"/>
     </g>
    </g>
   </g>
   <g id="xtick_13">
    <g id="line2d_15">
     <path d="M 523.059889 385.151216 
L 523.572295 386.211178 
" style="fill:none;stroke:#000000;stroke-linecap:square;stroke-width:0.8;"/>
    </g>
    <g id="text_15">
     <!-- 17.5 -->
     <g transform="translate(512.810049 404.631236)scale(0.1 -0.1)">
      <use xlink:href="#DejaVuSans-49"/>
      <use x="63.623047" xlink:href="#DejaVuSans-55"/>
      <use x="127.246094" xlink:href="#DejaVuSans-46"/>
      <use x="159.033203" xlink:href="#DejaVuSans-53"/>
     </g>
    </g>
   </g>
   <g id="xtick_14">
    <g id="line2d_16">
     <path d="M 572.132746 385.075938 
L 572.773264 386.135506 
" style="fill:none;stroke:#000000;stroke-linecap:square;stroke-width:0.8;"/>
    </g>
    <g id="text_16">
     <!-- 20.0 -->
     <g transform="translate(562.097483 404.553415)scale(0.1 -0.1)">
      <use xlink:href="#DejaVuSans-50"/>
      <use x="63.623047" xlink:href="#DejaVuSans-48"/>
      <use x="127.246094" xlink:href="#DejaVuSans-46"/>
      <use x="159.033203" xlink:href="#DejaVuSans-48"/>
     </g>
    </g>
   </g>
  </g>
  <g id="axis3d_3">
   <g id="line2d_17">
    <path d="M 620.624988 385.354389 
L 623.085489 104.032241 
" style="fill:none;stroke:#000000;stroke-linecap:square;stroke-width:0.8;"/>
   </g>
   <g id="text_17">
    <!-- Your Win Rate -->
    <defs>
     <path d="M 3.328125 72.90625 
L 13.28125 72.90625 
L 28.609375 11.28125 
L 43.890625 72.90625 
L 54.984375 72.90625 
L 70.3125 11.28125 
L 85.59375 72.90625 
L 95.609375 72.90625 
L 77.296875 0 
L 64.890625 0 
L 49.515625 63.28125 
L 33.984375 0 
L 21.578125 0 
z
" id="DejaVuSans-87"/>
     <path d="M 44.390625 34.1875 
Q 47.5625 33.109375 50.5625 29.59375 
Q 53.5625 26.078125 56.59375 19.921875 
L 66.609375 0 
L 56 0 
L 46.6875 18.703125 
Q 43.0625 26.03125 39.671875 28.421875 
Q 36.28125 30.8125 30.421875 30.8125 
L 19.671875 30.8125 
L 19.671875 0 
L 9.8125 0 
L 9.8125 72.90625 
L 32.078125 72.90625 
Q 44.578125 72.90625 50.734375 67.671875 
Q 56.890625 62.453125 56.890625 51.90625 
Q 56.890625 45.015625 53.6875 40.46875 
Q 50.484375 35.9375 44.390625 34.1875 
z
M 19.671875 64.796875 
L 19.671875 38.921875 
L 32.078125 38.921875 
Q 39.203125 38.921875 42.84375 42.21875 
Q 46.484375 45.515625 46.484375 51.90625 
Q 46.484375 58.296875 42.84375 61.546875 
Q 39.203125 64.796875 32.078125 64.796875 
z
" id="DejaVuSans-82"/>
    </defs>
    <g transform="translate(662.133447 283.280064)rotate(-89.498892)scale(0.1 -0.1)">
     <use xlink:href="#DejaVuSans-89"/>
     <use x="60.880859" xlink:href="#DejaVuSans-111"/>
     <use x="122.0625" xlink:href="#DejaVuSans-117"/>
     <use x="185.441406" xlink:href="#DejaVuSans-114"/>
     <use x="226.554688" xlink:href="#DejaVuSans-32"/>
     <use x="258.341797" xlink:href="#DejaVuSans-87"/>
     <use x="357.1875" xlink:href="#DejaVuSans-105"/>
     <use x="384.970703" xlink:href="#DejaVuSans-110"/>
     <use x="448.349609" xlink:href="#DejaVuSans-32"/>
     <use x="480.136719" xlink:href="#DejaVuSans-82"/>
     <use x="549.587891" xlink:href="#DejaVuSans-97"/>
     <use x="610.867188" xlink:href="#DejaVuSans-116"/>
     <use x="650.076172" xlink:href="#DejaVuSans-101"/>
    </g>
   </g>
   <g id="Line3DCollection_3">
    <path d="M 620.738802 372.341398 
L 591.935901 333.826578 
L 185.205936 334.371699 
" style="fill:none;stroke:#b0b0b0;stroke-width:0.8;"/>
    <path d="M 621.075193 333.880115 
L 592.201081 299.090182 
L 184.931471 299.582513 
" style="fill:none;stroke:#b0b0b0;stroke-width:0.8;"/>
    <path d="M 621.412573 295.305583 
L 592.466965 264.261561 
L 184.656277 264.700818 
" style="fill:none;stroke:#b0b0b0;stroke-width:0.8;"/>
    <path d="M 621.750949 256.617302 
L 592.733555 229.340345 
L 184.380349 229.726245 
" style="fill:none;stroke:#b0b0b0;stroke-width:0.8;"/>
    <path d="M 622.090324 217.814768 
L 593.000855 194.326166 
L 184.103686 194.658423 
" style="fill:none;stroke:#b0b0b0;stroke-width:0.8;"/>
    <path d="M 622.430703 178.897474 
L 593.268868 159.218653 
L 183.826285 159.496979 
" style="fill:none;stroke:#b0b0b0;stroke-width:0.8;"/>
    <path d="M 622.772089 139.86491 
L 593.537596 124.01743 
L 183.548142 124.241535 
" style="fill:none;stroke:#b0b0b0;stroke-width:0.8;"/>
   </g>
   <g id="xtick_15">
    <g id="line2d_18">
     <path d="M 620.483553 372.000083 
L 621.250634 373.025813 
" style="fill:none;stroke:#000000;stroke-linecap:square;stroke-width:0.8;"/>
    </g>
    <g id="text_18">
     <!-- −0.4 -->
     <defs>
      <path d="M 10.59375 35.5 
L 73.1875 35.5 
L 73.1875 27.203125 
L 10.59375 27.203125 
z
" id="DejaVuSans-8722"/>
     </defs>
     <g transform="translate(625.835531 381.442654)scale(0.1 -0.1)">
      <use xlink:href="#DejaVuSans-8722"/>
      <use x="83.789062" xlink:href="#DejaVuSans-48"/>
      <use x="147.412109" xlink:href="#DejaVuSans-46"/>
      <use x="179.199219" xlink:href="#DejaVuSans-52"/>
     </g>
    </g>
   </g>
   <g id="xtick_16">
    <g id="line2d_19">
     <path d="M 620.819276 333.571765 
L 621.588365 334.498428 
" style="fill:none;stroke:#000000;stroke-linecap:square;stroke-width:0.8;"/>
    </g>
    <g id="text_19">
     <!-- −0.2 -->
     <g transform="translate(626.198648 342.836232)scale(0.1 -0.1)">
      <use xlink:href="#DejaVuSans-8722"/>
      <use x="83.789062" xlink:href="#DejaVuSans-48"/>
      <use x="147.412109" xlink:href="#DejaVuSans-46"/>
      <use x="179.199219" xlink:href="#DejaVuSans-50"/>
     </g>
    </g>
   </g>
   <g id="xtick_17">
    <g id="line2d_20">
     <path d="M 621.155986 295.030395 
L 621.927093 295.857403 
" style="fill:none;stroke:#000000;stroke-linecap:square;stroke-width:0.8;"/>
    </g>
    <g id="text_20">
     <!-- 0.0 -->
     <g transform="translate(630.752683 304.115698)scale(0.1 -0.1)">
      <use xlink:href="#DejaVuSans-48"/>
      <use x="63.623047" xlink:href="#DejaVuSans-46"/>
      <use x="95.410156" xlink:href="#DejaVuSans-48"/>
     </g>
    </g>
   </g>
   <g id="xtick_18">
    <g id="line2d_21">
     <path d="M 621.493689 256.375472 
L 622.26682 257.102232 
" style="fill:none;stroke:#000000;stroke-linecap:square;stroke-width:0.8;"/>
    </g>
    <g id="text_21">
     <!-- 0.2 -->
     <g transform="translate(631.117952 265.280545)scale(0.1 -0.1)">
      <use xlink:href="#DejaVuSans-48"/>
      <use x="63.623047" xlink:href="#DejaVuSans-46"/>
      <use x="95.410156" xlink:href="#DejaVuSans-50"/>
     </g>
    </g>
   </g>
   <g id="xtick_19">
    <g id="line2d_22">
     <path d="M 621.832388 217.606495 
L 622.607553 218.23241 
" style="fill:none;stroke:#000000;stroke-linecap:square;stroke-width:0.8;"/>
    </g>
    <g id="text_22">
     <!-- 0.4 -->
     <g transform="translate(631.484303 226.330264)scale(0.1 -0.1)">
      <use xlink:href="#DejaVuSans-48"/>
      <use x="63.623047" xlink:href="#DejaVuSans-46"/>
      <use x="95.410156" xlink:href="#DejaVuSans-52"/>
     </g>
    </g>
   </g>
   <g id="xtick_20">
    <g id="line2d_23">
     <path d="M 622.172087 178.722956 
L 622.949295 179.247428 
" style="fill:none;stroke:#000000;stroke-linecap:square;stroke-width:0.8;"/>
    </g>
    <g id="text_23">
     <!-- 0.6 -->
     <g transform="translate(631.851743 187.264342)scale(0.1 -0.1)">
      <use xlink:href="#DejaVuSans-48"/>
      <use x="63.623047" xlink:href="#DejaVuSans-46"/>
      <use x="95.410156" xlink:href="#DejaVuSans-54"/>
     </g>
    </g>
   </g>
   <g id="xtick_21">
    <g id="line2d_24">
     <path d="M 622.512792 139.724349 
L 623.292052 140.146772 
" style="fill:none;stroke:#000000;stroke-linecap:square;stroke-width:0.8;"/>
    </g>
    <g id="text_24">
     <!-- 0.8 -->
     <g transform="translate(632.220275 148.082263)scale(0.1 -0.1)">
      <use xlink:href="#DejaVuSans-48"/>
      <use x="63.623047" xlink:href="#DejaVuSans-46"/>
      <use x="95.410156" xlink:href="#DejaVuSans-56"/>
     </g>
    </g>
   </g>
  </g>
  <g id="axes_1">
   <g id="Poly3DCollection_1">
    <path clip-path="url(#pfee4fc759a)" d="M 442.897559 225.812026 
L 443.998963 240.238711 
L 462.092867 239.553938 
L 460.823925 225.844199 
z
" style="fill:#6afdc0;"/>
    <path clip-path="url(#pfee4fc759a)" d="M 424.976627 219.467677 
L 425.916796 230.638733 
L 443.998963 240.238711 
L 442.897559 225.812026 
z
" style="fill:#72febb;"/>
    <path clip-path="url(#pfee4fc759a)" d="M 460.823925 225.844199 
L 462.092867 239.553938 
L 480.245995 220.762397 
L 478.813154 206.073492 
z
" style="fill:#7effb5;"/>
    <path clip-path="url(#pfee4fc759a)" d="M 317.34072 224.760452 
L 317.283295 239.849135 
L 335.392863 239.715676 
L 335.28313 223.859972 
z
" style="fill:#6dfdbf;"/>
    <path clip-path="url(#pfee4fc759a)" d="M 335.28313 223.859972 
L 335.392863 239.715676 
L 353.488133 231.382396 
L 353.227968 225.446371 
z
" style="fill:#70febc;"/>
    <path clip-path="url(#pfee4fc759a)" d="M 299.401277 226.853973 
L 299.168996 239.2988 
L 317.283295 239.849135 
L 317.34072 224.760452 
z
" style="fill:#6afdc0;"/>
    <path clip-path="url(#pfee4fc759a)" d="M 281.449001 225.795872 
L 281.051528 238.770558 
L 299.168996 239.2988 
L 299.401277 226.853973 
z
" style="fill:#6afdc0;"/>
    <path clip-path="url(#pfee4fc759a)" d="M 407.045872 210.899959 
L 407.820731 218.033641 
L 425.916796 230.638733 
L 424.976627 219.467677 
z
" style="fill:#86ffb0;"/>
    <path clip-path="url(#pfee4fc759a)" d="M 263.495719 225.330938 
L 262.932625 238.60895 
L 281.051528 238.770558 
L 281.449001 225.795872 
z
" style="fill:#6dfdbf;"/>
    <path clip-path="url(#pfee4fc759a)" d="M 245.547121 226.263838 
L 244.823797 240.735918 
L 262.932625 238.60895 
L 263.495719 225.330938 
z
" style="fill:#6afdc0;"/>
    <path clip-path="url(#pfee4fc759a)" d="M 353.227968 225.446371 
L 353.488133 231.382396 
L 371.587931 217.293071 
L 371.153801 208.788141 
z
" style="fill:#84ffb2;"/>
    <path clip-path="url(#pfee4fc759a)" d="M 227.590997 226.181505 
L 226.692151 239.163622 
L 244.823797 240.735918 
L 245.547121 226.263838 
z
" style="fill:#6afdc0;"/>
    <path clip-path="url(#pfee4fc759a)" d="M 209.631852 226.034269 
L 208.572863 240.0339 
L 226.692151 239.163622 
L 227.590997 226.181505 
z
" style="fill:#6afdc0;"/>
    <path clip-path="url(#pfee4fc759a)" d="M 478.813154 206.073492 
L 480.245995 220.762397 
L 498.469361 190.379017 
L 496.850882 180.271193 
z
" style="fill:#b4f295;"/>
    <path clip-path="url(#pfee4fc759a)" d="M 389.100183 194.852313 
L 389.704668 203.721112 
L 407.820731 218.033641 
L 407.045872 210.899959 
z
" style="fill:#a4f89f;"/>
    <path clip-path="url(#pfee4fc759a)" d="M 371.153801 208.788141 
L 371.587931 217.293071 
L 389.704668 203.721112 
L 389.100183 194.852313 
z
" style="fill:#a4f89f;"/>
    <path clip-path="url(#pfee4fc759a)" d="M 496.850882 180.271193 
L 498.469361 190.379017 
L 516.706774 165.330309 
L 514.929376 152.737896 
z
" style="fill:#f0c46c;"/>
    <path clip-path="url(#pfee4fc759a)" d="M 514.929376 152.737896 
L 516.706774 165.330309 
L 534.994159 136.956231 
L 533.005904 132.130685 
z
" style="fill:#ff8143;"/>
    <path clip-path="url(#pfee4fc759a)" d="M 533.005904 132.130685 
L 534.994159 136.956231 
L 553.272894 115.976777 
L 551.094826 113.716251 
z
" style="fill:#ff381c;"/>
    <path clip-path="url(#pfee4fc759a)" d="M 551.094826 113.716251 
L 553.272894 115.976777 
L 571.552516 98.74289 
L 569.163168 101.743683 
z
" style="fill:#ff0000;"/>
    <path clip-path="url(#pfee4fc759a)" d="M 443.998963 240.238711 
L 445.123493 253.66324 
L 463.392725 250.884664 
L 462.092867 239.553938 
z
" style="fill:#52f5cb;"/>
    <path clip-path="url(#pfee4fc759a)" d="M 425.916796 230.638733 
L 426.877463 239.980078 
L 445.123493 253.66324 
L 443.998963 240.238711 
z
" style="fill:#5df9c7;"/>
    <path clip-path="url(#pfee4fc759a)" d="M 462.092867 239.553938 
L 463.392725 250.884664 
L 481.708324 234.91029 
L 480.245995 220.762397 
z
" style="fill:#66fcc2;"/>
    <path clip-path="url(#pfee4fc759a)" d="M 317.283295 239.849135 
L 317.217344 252.59472 
L 335.497987 252.769471 
L 335.392863 239.715676 
z
" style="fill:#52f5cb;"/>
    <path clip-path="url(#pfee4fc759a)" d="M 299.168996 239.2988 
L 298.937992 253.574917 
L 317.217344 252.59472 
L 317.283295 239.849135 
z
" style="fill:#52f5cb;"/>
    <path clip-path="url(#pfee4fc759a)" d="M 335.392863 239.715676 
L 335.497987 252.769471 
L 353.760895 242.647885 
L 353.488133 231.382396 
z
" style="fill:#5df9c7;"/>
    <path clip-path="url(#pfee4fc759a)" d="M 281.051528 238.770558 
L 280.653886 253.713019 
L 298.937992 253.574917 
L 299.168996 239.2988 
z
" style="fill:#52f5cb;"/>
    <path clip-path="url(#pfee4fc759a)" d="M 262.932625 238.60895 
L 262.356958 251.728888 
L 280.653886 253.713019 
L 281.051528 238.770558 
z
" style="fill:#52f5cb;"/>
    <path clip-path="url(#pfee4fc759a)" d="M 244.823797 240.735918 
L 244.068255 252.151933 
L 262.356958 251.728888 
L 262.932625 238.60895 
z
" style="fill:#52f5cb;"/>
    <path clip-path="url(#pfee4fc759a)" d="M 407.820731 218.033641 
L 408.608772 228.01623 
L 426.877463 239.980078 
L 425.916796 230.638733 
z
" style="fill:#76ffb9;"/>
    <path clip-path="url(#pfee4fc759a)" d="M 226.692151 239.163622 
L 225.77862 252.738257 
L 244.068255 252.151933 
L 244.823797 240.735918 
z
" style="fill:#52f5cb;"/>
    <path clip-path="url(#pfee4fc759a)" d="M 208.572863 240.0339 
L 207.485777 253.11536 
L 225.77862 252.738257 
L 226.692151 239.163622 
z
" style="fill:#52f5cb;"/>
    <path clip-path="url(#pfee4fc759a)" d="M 353.488133 231.382396 
L 353.760895 242.647885 
L 372.032145 228.315643 
L 371.587931 217.293071 
z
" style="fill:#76ffb9;"/>
    <path clip-path="url(#pfee4fc759a)" d="M 480.245995 220.762397 
L 481.708324 234.91029 
L 500.119308 200.502857 
L 498.469361 190.379017 
z
" style="fill:#9efaa2;"/>
    <path clip-path="url(#pfee4fc759a)" d="M 389.704668 203.721112 
L 390.320838 215.068517 
L 408.608772 228.01623 
L 407.820731 218.033641 
z
" style="fill:#94fda8;"/>
    <path clip-path="url(#pfee4fc759a)" d="M 371.587931 217.293071 
L 372.032145 228.315643 
L 390.320838 215.068517 
L 389.704668 203.721112 
z
" style="fill:#94fda8;"/>
    <path clip-path="url(#pfee4fc759a)" d="M 498.469361 190.379017 
L 500.119308 200.502857 
L 518.56104 169.113986 
L 516.706774 165.330309 
z
" style="fill:#e0d377;"/>
    <path clip-path="url(#pfee4fc759a)" d="M 516.706774 165.330309 
L 518.56104 169.113986 
L 537.002781 145.189046 
L 534.994159 136.956231 
z
" style="fill:#ff914c;"/>
    <path clip-path="url(#pfee4fc759a)" d="M 534.994159 136.956231 
L 537.002781 145.189046 
L 555.480828 120.354397 
L 553.272894 115.976777 
z
" style="fill:#ff4422;"/>
    <path clip-path="url(#pfee4fc759a)" d="M 553.272894 115.976777 
L 555.480828 120.354397 
L 573.946365 101.972527 
L 571.552516 98.74289 
z
" style="fill:#ff0000;"/>
    <path clip-path="url(#pfee4fc759a)" d="M 445.123493 253.66324 
L 446.284401 260.053448 
L 464.711339 264.62271 
L 463.392725 250.884664 
z
" style="fill:#3febd5;"/>
    <path clip-path="url(#pfee4fc759a)" d="M 463.392725 250.884664 
L 464.711339 264.62271 
L 483.213136 245.041315 
L 481.708324 234.91029 
z
" style="fill:#52f5cb;"/>
    <path clip-path="url(#pfee4fc759a)" d="M 426.877463 239.980078 
L 427.858489 248.1426 
L 446.284401 260.053448 
L 445.123493 253.66324 
z
" style="fill:#4ef3cd;"/>
    <path clip-path="url(#pfee4fc759a)" d="M 317.217344 252.59472 
L 317.179353 275.846999 
L 335.600001 263.689299 
L 335.497987 252.769471 
z
" style="fill:#37e6d8;"/>
    <path clip-path="url(#pfee4fc759a)" d="M 298.937992 253.574917 
L 298.686903 263.68995 
L 317.179353 275.846999 
L 317.217344 252.59472 
z
" style="fill:#37e6d8;"/>
    <path clip-path="url(#pfee4fc759a)" d="M 280.653886 253.713019 
L 280.226776 263.766666 
L 298.686903 263.68995 
L 298.937992 253.574917 
z
" style="fill:#3dead5;"/>
    <path clip-path="url(#pfee4fc759a)" d="M 335.497987 252.769471 
L 335.600001 263.689299 
L 354.035295 251.648343 
L 353.760895 242.647885 
z
" style="fill:#48f1d0;"/>
    <path clip-path="url(#pfee4fc759a)" d="M 262.356958 251.728888 
L 261.769037 264.829269 
L 280.226776 263.766666 
L 280.653886 253.713019 
z
" style="fill:#3dead5;"/>
    <path clip-path="url(#pfee4fc759a)" d="M 244.068255 252.151933 
L 243.306907 265.311868 
L 261.769037 264.829269 
L 262.356958 251.728888 
z
" style="fill:#3dead5;"/>
    <path clip-path="url(#pfee4fc759a)" d="M 225.77862 252.738257 
L 224.846277 266.333052 
L 243.306907 265.311868 
L 244.068255 252.151933 
z
" style="fill:#3dead5;"/>
    <path clip-path="url(#pfee4fc759a)" d="M 207.485777 253.11536 
L 206.366325 264.784066 
L 224.846277 266.333052 
L 225.77862 252.738257 
z
" style="fill:#3ae8d6;"/>
    <path clip-path="url(#pfee4fc759a)" d="M 408.608772 228.01623 
L 409.413166 236.366339 
L 427.858489 248.1426 
L 426.877463 239.980078 
z
" style="fill:#68fcc1;"/>
    <path clip-path="url(#pfee4fc759a)" d="M 353.760895 242.647885 
L 354.035295 251.648343 
L 372.483338 237.491635 
L 372.032145 228.315643 
z
" style="fill:#64fbc3;"/>
    <path clip-path="url(#pfee4fc759a)" d="M 481.708324 234.91029 
L 483.213136 245.041315 
L 501.799164 211.241736 
L 500.119308 200.502857 
z
" style="fill:#8bfeae;"/>
    <path clip-path="url(#pfee4fc759a)" d="M 390.320838 215.068517 
L 390.948641 222.842098 
L 409.413166 236.366339 
L 408.608772 228.01623 
z
" style="fill:#84ffb2;"/>
    <path clip-path="url(#pfee4fc759a)" d="M 372.032145 228.315643 
L 372.483338 237.491635 
L 390.948641 222.842098 
L 390.320838 215.068517 
z
" style="fill:#84ffb2;"/>
    <path clip-path="url(#pfee4fc759a)" d="M 500.119308 200.502857 
L 501.799164 211.241736 
L 520.426135 178.237776 
L 518.56104 169.113986 
z
" style="fill:#d2de81;"/>
    <path clip-path="url(#pfee4fc759a)" d="M 518.56104 169.113986 
L 520.426135 178.237776 
L 539.073134 149.477389 
L 537.002781 145.189046 
z
" style="fill:#ff9d53;"/>
    <path clip-path="url(#pfee4fc759a)" d="M 537.002781 145.189046 
L 539.073134 149.477389 
L 557.731845 124.861912 
L 555.480828 120.354397 
z
" style="fill:#ff5029;"/>
    <path clip-path="url(#pfee4fc759a)" d="M 555.480828 120.354397 
L 557.731845 124.861912 
L 576.402157 103.156572 
L 573.946365 101.972527 
z
" style="fill:#ff0603;"/>
    <path clip-path="url(#pfee4fc759a)" d="M 446.284401 260.053448 
L 447.461301 269.814925 
L 466.065961 274.795407 
L 464.711339 264.62271 
z
" style="fill:#2fe0db;"/>
    <path clip-path="url(#pfee4fc759a)" d="M 464.711339 264.62271 
L 466.065961 274.795407 
L 484.734877 258.837546 
L 483.213136 245.041315 
z
" style="fill:#3dead5;"/>
    <path clip-path="url(#pfee4fc759a)" d="M 317.179353 275.846999 
L 317.074846 276.433344 
L 335.699486 272.717238 
L 335.600001 263.689299 
z
" style="fill:#24d8df;"/>
    <path clip-path="url(#pfee4fc759a)" d="M 298.686903 263.68995 
L 298.439447 276.390614 
L 317.074846 276.433344 
L 317.179353 275.846999 
z
" style="fill:#22d6e0;"/>
    <path clip-path="url(#pfee4fc759a)" d="M 427.858489 248.1426 
L 428.858813 256.380759 
L 447.461301 269.814925 
L 446.284401 260.053448 
z
" style="fill:#42edd3;"/>
    <path clip-path="url(#pfee4fc759a)" d="M 280.226776 263.766666 
L 279.798228 275.620839 
L 298.439447 276.390614 
L 298.686903 263.68995 
z
" style="fill:#2adddd;"/>
    <path clip-path="url(#pfee4fc759a)" d="M 261.769037 264.829269 
L 261.167372 277.684729 
L 279.798228 275.620839 
L 280.226776 263.766666 
z
" style="fill:#28dbde;"/>
    <path clip-path="url(#pfee4fc759a)" d="M 335.600001 263.689299 
L 335.699486 272.717238 
L 354.314949 260.75825 
L 354.035295 251.648343 
z
" style="fill:#3ae8d6;"/>
    <path clip-path="url(#pfee4fc759a)" d="M 243.306907 265.311868 
L 242.518554 276.543401 
L 261.167372 277.684729 
L 261.769037 264.829269 
z
" style="fill:#28dbde;"/>
    <path clip-path="url(#pfee4fc759a)" d="M 224.846277 266.333052 
L 223.874446 276.806245 
L 242.518554 276.543401 
L 243.306907 265.311868 
z
" style="fill:#27dade;"/>
    <path clip-path="url(#pfee4fc759a)" d="M 206.366325 264.784066 
L 205.218803 275.767755 
L 223.874446 276.806245 
L 224.846277 266.333052 
z
" style="fill:#28dbde;"/>
    <path clip-path="url(#pfee4fc759a)" d="M 409.413166 236.366339 
L 410.234037 243.786663 
L 428.858813 256.380759 
L 427.858489 248.1426 
z
" style="fill:#5df9c7;"/>
    <path clip-path="url(#pfee4fc759a)" d="M 354.035295 251.648343 
L 354.314949 260.75825 
L 372.942638 245.904627 
L 372.483338 237.491635 
z
" style="fill:#56f7ca;"/>
    <path clip-path="url(#pfee4fc759a)" d="M 483.213136 245.041315 
L 484.734877 258.837546 
L 503.530515 217.709077 
L 501.799164 211.241736 
z
" style="fill:#78ffb8;"/>
    <path clip-path="url(#pfee4fc759a)" d="M 390.948641 222.842098 
L 391.588746 231.235534 
L 410.234037 243.786663 
L 409.413166 236.366339 
z
" style="fill:#78ffb8;"/>
    <path clip-path="url(#pfee4fc759a)" d="M 372.483338 237.491635 
L 372.942638 245.904627 
L 391.588746 231.235534 
L 390.948641 222.842098 
z
" style="fill:#76ffb9;"/>
    <path clip-path="url(#pfee4fc759a)" d="M 501.799164 211.241736 
L 503.530515 217.709077 
L 522.343591 184.297431 
L 520.426135 178.237776 
z
" style="fill:#c4e88a;"/>
    <path clip-path="url(#pfee4fc759a)" d="M 520.426135 178.237776 
L 522.343591 184.297431 
L 541.166873 156.98006 
L 539.073134 149.477389 
z
" style="fill:#ffa95b;"/>
    <path clip-path="url(#pfee4fc759a)" d="M 539.073134 149.477389 
L 541.166873 156.98006 
L 560.028226 129.344364 
L 557.731845 124.861912 
z
" style="fill:#ff5c2f;"/>
    <path clip-path="url(#pfee4fc759a)" d="M 557.731845 124.861912 
L 560.028226 129.344364 
L 578.907812 104.289078 
L 576.402157 103.156572 
z
" style="fill:#ff0d06;"/>
    <path clip-path="url(#pfee4fc759a)" d="M 447.461301 269.814925 
L 448.668179 276.58654 
L 467.421274 294.152762 
L 466.065961 274.795407 
z
" style="fill:#1dd1e2;"/>
    <path clip-path="url(#pfee4fc759a)" d="M 466.065961 274.795407 
L 467.421274 294.152762 
L 486.321372 263.058157 
L 484.734877 258.837546 
z
" style="fill:#2adddd;"/>
    <path clip-path="url(#pfee4fc759a)" d="M 298.439447 276.390614 
L 298.208671 295.353754 
L 317.023856 296.527192 
L 317.074846 276.433344 
z
" style="fill:#0dc2e8;"/>
    <path clip-path="url(#pfee4fc759a)" d="M 279.798228 275.620839 
L 279.403906 297.634028 
L 298.208671 295.353754 
L 298.439447 276.390614 
z
" style="fill:#0dc2e8;"/>
    <path clip-path="url(#pfee4fc759a)" d="M 317.074846 276.433344 
L 317.023856 296.527192 
L 335.804383 283.538345 
L 335.699486 272.717238 
z
" style="fill:#17cbe4;"/>
    <path clip-path="url(#pfee4fc759a)" d="M 261.167372 277.684729 
L 260.588291 297.634088 
L 279.403906 297.634028 
L 279.798228 275.620839 
z
" style="fill:#0ac0e8;"/>
    <path clip-path="url(#pfee4fc759a)" d="M 242.518554 276.543401 
L 241.772119 298.00997 
L 260.588291 297.634088 
L 261.167372 277.684729 
z
" style="fill:#0ac0e8;"/>
    <path clip-path="url(#pfee4fc759a)" d="M 428.858813 256.380759 
L 429.880355 263.770862 
L 448.668179 276.58654 
L 447.461301 269.814925 
z
" style="fill:#37e6d8;"/>
    <path clip-path="url(#pfee4fc759a)" d="M 223.874446 276.806245 
L 222.944389 296.927851 
L 241.772119 298.00997 
L 242.518554 276.543401 
z
" style="fill:#0dc2e8;"/>
    <path clip-path="url(#pfee4fc759a)" d="M 205.218803 275.767755 
L 204.12382 297.441754 
L 222.944389 296.927851 
L 223.874446 276.806245 
z
" style="fill:#0dc2e8;"/>
    <path clip-path="url(#pfee4fc759a)" d="M 335.699486 272.717238 
L 335.804383 283.538345 
L 354.60201 271.384977 
L 354.314949 260.75825 
z
" style="fill:#2ddedc;"/>
    <path clip-path="url(#pfee4fc759a)" d="M 410.234037 243.786663 
L 411.069959 253.022382 
L 429.880355 263.770862 
L 428.858813 256.380759 
z
" style="fill:#52f5cb;"/>
    <path clip-path="url(#pfee4fc759a)" d="M 354.314949 260.75825 
L 354.60201 271.384977 
L 373.412378 256.433385 
L 372.942638 245.904627 
z
" style="fill:#48f1d0;"/>
    <path clip-path="url(#pfee4fc759a)" d="M 484.734877 258.837546 
L 486.321372 263.058157 
L 505.327425 217.080666 
L 503.530515 217.709077 
z
" style="fill:#72febb;"/>
    <path clip-path="url(#pfee4fc759a)" d="M 391.588746 231.235534 
L 392.241477 240.572334 
L 411.069959 253.022382 
L 410.234037 243.786663 
z
" style="fill:#6dfdbf;"/>
    <path clip-path="url(#pfee4fc759a)" d="M 372.942638 245.904627 
L 373.412378 256.433385 
L 392.241477 240.572334 
L 391.588746 231.235534 
z
" style="fill:#68fcc1;"/>
    <path clip-path="url(#pfee4fc759a)" d="M 503.530515 217.709077 
L 505.327425 217.080666 
L 524.335772 183.206683 
L 522.343591 184.297431 
z
" style="fill:#c4e88a;"/>
    <path clip-path="url(#pfee4fc759a)" d="M 522.343591 184.297431 
L 524.335772 183.206683 
L 543.350264 156.23652 
L 541.166873 156.98006 
z
" style="fill:#ffae5e;"/>
    <path clip-path="url(#pfee4fc759a)" d="M 541.166873 156.98006 
L 543.350264 156.23652 
L 562.404398 128.684949 
L 560.028226 129.344364 
z
" style="fill:#ff5f30;"/>
    <path clip-path="url(#pfee4fc759a)" d="M 560.028226 129.344364 
L 562.404398 128.684949 
L 581.456049 106.598469 
L 578.907812 104.289078 
z
" style="fill:#ff0d06;"/>
    <path clip-path="url(#pfee4fc759a)" d="M 279.403906 297.634028 
L 278.982933 315.605051 
L 297.984253 317.686448 
L 298.208671 295.353754 
z
" style="fill:#1898f2;"/>
    <path clip-path="url(#pfee4fc759a)" d="M 298.208671 295.353754 
L 297.984253 317.686448 
L 316.94657 308.143761 
L 317.023856 296.527192 
z
" style="fill:#149df1;"/>
    <path clip-path="url(#pfee4fc759a)" d="M 260.588291 297.634088 
L 259.991454 316.62754 
L 278.982933 315.605051 
L 279.403906 297.634028 
z
" style="fill:#1898f2;"/>
    <path clip-path="url(#pfee4fc759a)" d="M 448.668179 276.58654 
L 449.900973 282.729701 
L 468.862331 293.459467 
L 467.421274 294.152762 
z
" style="fill:#12c8e6;"/>
    <path clip-path="url(#pfee4fc759a)" d="M 467.421274 294.152762 
L 468.862331 293.459467 
L 487.8627 288.516738 
L 486.321372 263.058157 
z
" style="fill:#17cbe4;"/>
    <path clip-path="url(#pfee4fc759a)" d="M 241.772119 298.00997 
L 240.998907 317.686897 
L 259.991454 316.62754 
L 260.588291 297.634088 
z
" style="fill:#1996f3;"/>
    <path clip-path="url(#pfee4fc759a)" d="M 222.944389 296.927851 
L 221.993745 316.989218 
L 240.998907 317.686897 
L 241.772119 298.00997 
z
" style="fill:#1996f3;"/>
    <path clip-path="url(#pfee4fc759a)" d="M 204.12382 297.441754 
L 202.991209 317.179634 
L 221.993745 316.989218 
L 222.944389 296.927851 
z
" style="fill:#1898f2;"/>
    <path clip-path="url(#pfee4fc759a)" d="M 317.023856 296.527192 
L 316.94657 308.143761 
L 335.911548 294.66468 
L 335.804383 283.538345 
z
" style="fill:#00b5eb;"/>
    <path clip-path="url(#pfee4fc759a)" d="M 429.880355 263.770862 
L 430.919104 273.498338 
L 449.900973 282.729701 
L 448.668179 276.58654 
z
" style="fill:#2ddedc;"/>
    <path clip-path="url(#pfee4fc759a)" d="M 335.804383 283.538345 
L 335.911548 294.66468 
L 354.892938 280.938764 
L 354.60201 271.384977 
z
" style="fill:#1acfe3;"/>
    <path clip-path="url(#pfee4fc759a)" d="M 354.60201 271.384977 
L 354.892938 280.938764 
L 373.890524 265.873905 
L 373.412378 256.433385 
z
" style="fill:#38e7d7;"/>
    <path clip-path="url(#pfee4fc759a)" d="M 411.069959 253.022382 
L 411.924444 259.893277 
L 430.919104 273.498338 
L 429.880355 263.770862 
z
" style="fill:#46efd1;"/>
    <path clip-path="url(#pfee4fc759a)" d="M 486.321372 263.058157 
L 487.8627 288.516738 
L 507.113047 227.490776 
L 505.327425 217.080666 
z
" style="fill:#62fbc4;"/>
    <path clip-path="url(#pfee4fc759a)" d="M 373.412378 256.433385 
L 373.890524 265.873905 
L 392.90721 249.430447 
L 392.241477 240.572334 
z
" style="fill:#5af8c8;"/>
    <path clip-path="url(#pfee4fc759a)" d="M 392.241477 240.572334 
L 392.90721 249.430447 
L 411.924444 259.893277 
L 411.069959 253.022382 
z
" style="fill:#5efac6;"/>
    <path clip-path="url(#pfee4fc759a)" d="M 505.327425 217.080666 
L 507.113047 227.490776 
L 526.375405 180.869738 
L 524.335772 183.206683 
z
" style="fill:#c6e789;"/>
    <path clip-path="url(#pfee4fc759a)" d="M 524.335772 183.206683 
L 526.375405 180.869738 
L 545.587857 153.915198 
L 543.350264 156.23652 
z
" style="fill:#ffa558;"/>
    <path clip-path="url(#pfee4fc759a)" d="M 543.350264 156.23652 
L 545.587857 153.915198 
L 564.827461 128.343578 
L 562.404398 128.684949 
z
" style="fill:#ff592d;"/>
    <path clip-path="url(#pfee4fc759a)" d="M 562.404398 128.684949 
L 564.827461 128.343578 
L 584.071006 106.933258 
L 581.456049 106.598469 
z
" style="fill:#ff0905;"/>
    <path clip-path="url(#pfee4fc759a)" d="M 259.991454 316.62754 
L 259.401794 339.689307 
L 278.552188 333.556087 
L 278.982933 315.605051 
z
" style="fill:#396bf9;"/>
    <path clip-path="url(#pfee4fc759a)" d="M 240.998907 317.686897 
L 240.202776 336.361511 
L 259.401794 339.689307 
L 259.991454 316.62754 
z
" style="fill:#3c68f9;"/>
    <path clip-path="url(#pfee4fc759a)" d="M 278.982933 315.605051 
L 278.552188 333.556087 
L 297.708103 327.244697 
L 297.984253 317.686448 
z
" style="fill:#3473f8;"/>
    <path clip-path="url(#pfee4fc759a)" d="M 221.993745 316.989218 
L 221.019267 336.590285 
L 240.202776 336.361511 
L 240.998907 317.686897 
z
" style="fill:#3c68f9;"/>
    <path clip-path="url(#pfee4fc759a)" d="M 297.984253 317.686448 
L 297.708103 327.244697 
L 316.8618 317.915054 
L 316.94657 308.143761 
z
" style="fill:#2884f6;"/>
    <path clip-path="url(#pfee4fc759a)" d="M 202.991209 317.179634 
L 201.824055 335.548482 
L 221.019267 336.590285 
L 221.993745 316.989218 
z
" style="fill:#396bf9;"/>
    <path clip-path="url(#pfee4fc759a)" d="M 468.862331 293.459467 
L 470.309916 300.632853 
L 489.449434 310.045551 
L 487.8627 288.516738 
z
" style="fill:#00b5eb;"/>
    <path clip-path="url(#pfee4fc759a)" d="M 316.94657 308.143761 
L 316.8618 317.915054 
L 336.018683 304.994966 
L 335.911548 294.66468 
z
" style="fill:#10a2f0;"/>
    <path clip-path="url(#pfee4fc759a)" d="M 449.900973 282.729701 
L 451.154129 291.084046 
L 470.309916 300.632853 
L 468.862331 293.459467 
z
" style="fill:#0fc4e7;"/>
    <path clip-path="url(#pfee4fc759a)" d="M 335.911548 294.66468 
L 336.018683 304.994966 
L 355.18898 290.163945 
L 354.892938 280.938764 
z
" style="fill:#0dc2e8;"/>
    <path clip-path="url(#pfee4fc759a)" d="M 430.919104 273.498338 
L 431.982875 280.67686 
L 451.154129 291.084046 
L 449.900973 282.729701 
z
" style="fill:#22d6e0;"/>
    <path clip-path="url(#pfee4fc759a)" d="M 487.8627 288.516738 
L 489.449434 310.045551 
L 508.89071 247.923079 
L 507.113047 227.490776 
z
" style="fill:#3febd5;"/>
    <path clip-path="url(#pfee4fc759a)" d="M 354.892938 280.938764 
L 355.18898 290.163945 
L 374.377477 274.313081 
L 373.890524 265.873905 
z
" style="fill:#2ddedc;"/>
    <path clip-path="url(#pfee4fc759a)" d="M 411.924444 259.893277 
L 412.794458 269.171326 
L 431.982875 280.67686 
L 430.919104 273.498338 
z
" style="fill:#3ae8d6;"/>
    <path clip-path="url(#pfee4fc759a)" d="M 373.890524 265.873905 
L 374.377477 274.313081 
L 393.586328 258.695751 
L 392.90721 249.430447 
z
" style="fill:#4df3ce;"/>
    <path clip-path="url(#pfee4fc759a)" d="M 392.90721 249.430447 
L 393.586328 258.695751 
L 412.794458 269.171326 
L 411.924444 259.893277 
z
" style="fill:#52f5cb;"/>
    <path clip-path="url(#pfee4fc759a)" d="M 507.113047 227.490776 
L 508.89071 247.923079 
L 528.371213 195.209364 
L 526.375405 180.869738 
z
" style="fill:#b4f295;"/>
    <path clip-path="url(#pfee4fc759a)" d="M 526.375405 180.869738 
L 528.371213 195.209364 
L 547.86418 152.940151 
L 545.587857 153.915198 
z
" style="fill:#ffa558;"/>
    <path clip-path="url(#pfee4fc759a)" d="M 545.587857 153.915198 
L 547.86418 152.940151 
L 567.291667 129.402367 
L 564.827461 128.343578 
z
" style="fill:#ff5029;"/>
    <path clip-path="url(#pfee4fc759a)" d="M 564.827461 128.343578 
L 567.291667 129.402367 
L 586.737228 107.693304 
L 584.071006 106.933258 
z
" style="fill:#ff0603;"/>
    <path clip-path="url(#pfee4fc759a)" d="M 240.202776 336.361511 
L 239.397993 356.593406 
L 258.754744 354.142049 
L 259.401794 339.689307 
z
" style="fill:#5e35fe;"/>
    <path clip-path="url(#pfee4fc759a)" d="M 259.401794 339.689307 
L 258.754744 354.142049 
L 278.099925 348.855541 
L 278.552188 333.556087 
z
" style="fill:#583efd;"/>
    <path clip-path="url(#pfee4fc759a)" d="M 221.019267 336.590285 
L 220.031476 357.442801 
L 239.397993 356.593406 
L 240.202776 336.361511 
z
" style="fill:#5e35fe;"/>
    <path clip-path="url(#pfee4fc759a)" d="M 201.824055 335.548482 
L 200.671978 359.474579 
L 220.031476 357.442801 
L 221.019267 336.590285 
z
" style="fill:#5e35fe;"/>
    <path clip-path="url(#pfee4fc759a)" d="M 278.552188 333.556087 
L 278.099925 348.855541 
L 297.447146 342.763376 
L 297.708103 327.244697 
z
" style="fill:#4c50fc;"/>
    <path clip-path="url(#pfee4fc759a)" d="M 297.708103 327.244697 
L 297.447146 342.763376 
L 316.793528 334.238499 
L 316.8618 317.915054 
z
" style="fill:#3c68f9;"/>
    <path clip-path="url(#pfee4fc759a)" d="M 470.309916 300.632853 
L 471.770274 313.490492 
L 491.104382 322.075619 
L 489.449434 310.045551 
z
" style="fill:#149df1;"/>
    <path clip-path="url(#pfee4fc759a)" d="M 316.8618 317.915054 
L 316.793528 334.238499 
L 336.142732 322.465554 
L 336.018683 304.994966 
z
" style="fill:#2686f5;"/>
    <path clip-path="url(#pfee4fc759a)" d="M 451.154129 291.084046 
L 452.423077 303.835715 
L 471.770274 313.490492 
L 470.309916 300.632853 
z
" style="fill:#01b3ec;"/>
    <path clip-path="url(#pfee4fc759a)" d="M 336.018683 304.994966 
L 336.142732 322.465554 
L 355.502404 307.763705 
L 355.18898 290.163945 
z
" style="fill:#09a9ee;"/>
    <path clip-path="url(#pfee4fc759a)" d="M 489.449434 310.045551 
L 491.104382 322.075619 
L 510.687134 272.242504 
L 508.89071 247.923079 
z
" style="fill:#1dd1e2;"/>
    <path clip-path="url(#pfee4fc759a)" d="M 431.982875 280.67686 
L 433.058357 294.426451 
L 452.423077 303.835715 
L 451.154129 291.084046 
z
" style="fill:#14cae5;"/>
    <path clip-path="url(#pfee4fc759a)" d="M 355.18898 290.163945 
L 355.502404 307.763705 
L 374.88021 291.942479 
L 374.377477 274.313081 
z
" style="fill:#17cbe4;"/>
    <path clip-path="url(#pfee4fc759a)" d="M 412.794458 269.171326 
L 413.676914 284.947562 
L 433.058357 294.426451 
L 431.982875 280.67686 
z
" style="fill:#28dbde;"/>
    <path clip-path="url(#pfee4fc759a)" d="M 374.377477 274.313081 
L 374.88021 291.942479 
L 394.278672 274.499966 
L 393.586328 258.695751 
z
" style="fill:#38e7d7;"/>
    <path clip-path="url(#pfee4fc759a)" d="M 393.586328 258.695751 
L 394.278672 274.499966 
L 413.676914 284.947562 
L 412.794458 269.171326 
z
" style="fill:#3febd5;"/>
    <path clip-path="url(#pfee4fc759a)" d="M 508.89071 247.923079 
L 510.687134 272.242504 
L 530.367958 217.210034 
L 528.371213 195.209364 
z
" style="fill:#8efeac;"/>
    <path clip-path="url(#pfee4fc759a)" d="M 528.371213 195.209364 
L 530.367958 217.210034 
L 550.100264 166.661125 
L 547.86418 152.940151 
z
" style="fill:#f6be68;"/>
    <path clip-path="url(#pfee4fc759a)" d="M 547.86418 152.940151 
L 550.100264 166.661125 
L 569.806022 130.701428 
L 567.291667 129.402367 
z
" style="fill:#ff562c;"/>
    <path clip-path="url(#pfee4fc759a)" d="M 567.291667 129.402367 
L 569.806022 130.701428 
L 589.454833 109.074295 
L 586.737228 107.693304 
z
" style="fill:#ff0603;"/>
    <path clip-path="url(#pfee4fc759a)" d="M 200.671978 359.474579 
L 199.451955 377.667999 
L 219.008674 376.3432 
L 220.031476 357.442801 
z
" style="fill:#8000ff;"/>
    <path clip-path="url(#pfee4fc759a)" d="M 220.031476 357.442801 
L 219.008674 376.3432 
L 238.521661 367.720672 
L 239.397993 356.593406 
z
" style="fill:#7a09ff;"/>
    <path clip-path="url(#pfee4fc759a)" d="M 239.397993 356.593406 
L 238.521661 367.720672 
L 258.058241 361.764007 
L 258.754744 354.142049 
z
" style="fill:#7216ff;"/>
    <path clip-path="url(#pfee4fc759a)" d="M 258.754744 354.142049 
L 258.058241 361.764007 
L 277.596161 354.746487 
L 278.099925 348.855541 
z
" style="fill:#6629fe;"/>
    <path clip-path="url(#pfee4fc759a)" d="M 278.099925 348.855541 
L 277.596161 354.746487 
L 297.145233 348.722502 
L 297.447146 342.763376 
z
" style="fill:#5a3bfd;"/>
    <path clip-path="url(#pfee4fc759a)" d="M 297.447146 342.763376 
L 297.145233 348.722502 
L 316.696063 341.197416 
L 316.793528 334.238499 
z
" style="fill:#4c50fc;"/>
    <path clip-path="url(#pfee4fc759a)" d="M 471.770274 313.490492 
L 473.274679 321.94459 
L 492.806197 330.908748 
L 491.104382 322.075619 
z
" style="fill:#2489f5;"/>
    <path clip-path="url(#pfee4fc759a)" d="M 316.793528 334.238499 
L 316.696063 341.197416 
L 336.248677 330.598886 
L 336.142732 322.465554 
z
" style="fill:#386df9;"/>
    <path clip-path="url(#pfee4fc759a)" d="M 452.423077 303.835715 
L 453.726391 313.173477 
L 473.274679 321.94459 
L 471.770274 313.490492 
z
" style="fill:#10a2f0;"/>
    <path clip-path="url(#pfee4fc759a)" d="M 491.104382 322.075619 
L 492.806197 330.908748 
L 512.532199 294.012917 
L 510.687134 272.242504 
z
" style="fill:#00b5eb;"/>
    <path clip-path="url(#pfee4fc759a)" d="M 336.142732 322.465554 
L 336.248677 330.598886 
L 355.810718 317.476114 
L 355.502404 307.763705 
z
" style="fill:#1e91f3;"/>
    <path clip-path="url(#pfee4fc759a)" d="M 433.058357 294.426451 
L 434.164424 302.941559 
L 453.726391 313.173477 
L 452.423077 303.835715 
z
" style="fill:#04b9ea;"/>
    <path clip-path="url(#pfee4fc759a)" d="M 355.502404 307.763705 
L 355.810718 317.476114 
L 375.387587 301.427332 
L 374.88021 291.942479 
z
" style="fill:#02b7eb;"/>
    <path clip-path="url(#pfee4fc759a)" d="M 413.676914 284.947562 
L 414.583973 293.018384 
L 434.164424 302.941559 
L 433.058357 294.426451 
z
" style="fill:#18cde4;"/>
    <path clip-path="url(#pfee4fc759a)" d="M 374.88021 291.942479 
L 375.387587 301.427332 
L 394.985648 284.071449 
L 394.278672 274.499966 
z
" style="fill:#24d8df;"/>
    <path clip-path="url(#pfee4fc759a)" d="M 394.278672 274.499966 
L 394.985648 284.071449 
L 414.583973 293.018384 
L 413.676914 284.947562 
z
" style="fill:#2ddedc;"/>
    <path clip-path="url(#pfee4fc759a)" d="M 510.687134 272.242504 
L 512.532199 294.012917 
L 532.397516 240.799166 
L 530.367958 217.210034 
z
" style="fill:#64fbc3;"/>
    <path clip-path="url(#pfee4fc759a)" d="M 530.367958 217.210034 
L 532.397516 240.799166 
L 552.319528 190.832992 
L 550.100264 166.661125 
z
" style="fill:#d0e082;"/>
    <path clip-path="url(#pfee4fc759a)" d="M 550.100264 166.661125 
L 552.319528 190.832992 
L 572.306829 141.79127 
L 569.806022 130.701428 
z
" style="fill:#ff763d;"/>
    <path clip-path="url(#pfee4fc759a)" d="M 569.806022 130.701428 
L 572.306829 141.79127 
L 592.235085 109.800414 
L 589.454833 109.074295 
z
" style="fill:#ff0d06;"/>
   </g>
  </g>
 </g>
 <defs>
  <clipPath id="pfee4fc759a">
   <rect height="476.64" width="763.2" x="0" y="0"/>
  </clipPath>
 </defs>
</svg>
