<?xml version="1.0" encoding="utf-8" standalone="no"?>
<!DOCTYPE svg PUBLIC "-//W3C//DTD SVG 1.1//EN"
  "http://www.w3.org/Graphics/SVG/1.1/DTD/svg11.dtd">
<!-- Created with matplotlib (https://matplotlib.org/) -->
<svg height="476.64pt" version="1.1" viewBox="0 0 763.2 476.64" width="763.2pt" xmlns="http://www.w3.org/2000/svg" xmlns:xlink="http://www.w3.org/1999/xlink">
 <defs>
  <style type="text/css">
*{stroke-linecap:butt;stroke-linejoin:round;}
  </style>
 </defs>
 <g id="figure_1">
  <g id="patch_1">
   <path d="M 0 476.64 
L 763.2 476.64 
L 763.2 0 
L 0 0 
z
" style="fill:#ffffff;"/>
  </g>
  <g id="patch_2">
   <path d="M 0 476.64 
L 763.2 476.64 
L 763.2 0 
L 0 0 
z
" style="fill:#ffffff;"/>
  </g>
  <g id="pane3d_1">
   <g id="patch_3">
    <path d="M 625.320518 375.933585 
L 588.667889 356.200697 
L 589.090549 101.5735 
L 625.876929 93.413882 
" style="fill:#f2f2f2;opacity:0.5;stroke:#f2f2f2;stroke-linejoin:miter;"/>
   </g>
  </g>
  <g id="pane3d_2">
   <g id="patch_4">
    <path d="M 180.838914 356.797817 
L 588.667889 356.200697 
L 589.090549 101.5735 
L 180.383988 101.326645 
" style="fill:#e6e6e6;opacity:0.5;stroke:#e6e6e6;stroke-linejoin:miter;"/>
   </g>
  </g>
  <g id="pane3d_3">
   <g id="patch_5">
    <path d="M 172.818632 376.668856 
L 625.320518 375.933585 
L 588.667889 356.200697 
L 180.838914 356.797817 
" style="fill:#ececec;opacity:0.5;stroke:#ececec;stroke-linejoin:miter;"/>
   </g>
  </g>
  <g id="axis3d_1">
   <g id="line2d_1">
    <path d="M 625.320518 375.933585 
L 172.818632 376.668856 
" style="fill:none;stroke:#000000;stroke-linecap:square;stroke-width:0.8;"/>
   </g>
   <g id="text_1">
    <!-- Dealer's Points -->
    <defs>
     <path d="M 19.671875 64.796875 
L 19.671875 8.109375 
L 31.59375 8.109375 
Q 46.6875 8.109375 53.6875 14.9375 
Q 60.6875 21.78125 60.6875 36.53125 
Q 60.6875 51.171875 53.6875 57.984375 
Q 46.6875 64.796875 31.59375 64.796875 
z
M 9.8125 72.90625 
L 30.078125 72.90625 
Q 51.265625 72.90625 61.171875 64.09375 
Q 71.09375 55.28125 71.09375 36.53125 
Q 71.09375 17.671875 61.125 8.828125 
Q 51.171875 0 30.078125 0 
L 9.8125 0 
z
" id="DejaVuSans-68"/>
     <path d="M 56.203125 29.59375 
L 56.203125 25.203125 
L 14.890625 25.203125 
Q 15.484375 15.921875 20.484375 11.0625 
Q 25.484375 6.203125 34.421875 6.203125 
Q 39.59375 6.203125 44.453125 7.46875 
Q 49.3125 8.734375 54.109375 11.28125 
L 54.109375 2.78125 
Q 49.265625 0.734375 44.1875 -0.34375 
Q 39.109375 -1.421875 33.890625 -1.421875 
Q 20.796875 -1.421875 13.15625 6.1875 
Q 5.515625 13.8125 5.515625 26.8125 
Q 5.515625 40.234375 12.765625 48.109375 
Q 20.015625 56 32.328125 56 
Q 43.359375 56 49.78125 48.890625 
Q 56.203125 41.796875 56.203125 29.59375 
z
M 47.21875 32.234375 
Q 47.125 39.59375 43.09375 43.984375 
Q 39.0625 48.390625 32.421875 48.390625 
Q 24.90625 48.390625 20.390625 44.140625 
Q 15.875 39.890625 15.1875 32.171875 
z
" id="DejaVuSans-101"/>
     <path d="M 34.28125 27.484375 
Q 23.390625 27.484375 19.1875 25 
Q 14.984375 22.515625 14.984375 16.5 
Q 14.984375 11.71875 18.140625 8.90625 
Q 21.296875 6.109375 26.703125 6.109375 
Q 34.1875 6.109375 38.703125 11.40625 
Q 43.21875 16.703125 43.21875 25.484375 
L 43.21875 27.484375 
z
M 52.203125 31.203125 
L 52.203125 0 
L 43.21875 0 
L 43.21875 8.296875 
Q 40.140625 3.328125 35.546875 0.953125 
Q 30.953125 -1.421875 24.3125 -1.421875 
Q 15.921875 -1.421875 10.953125 3.296875 
Q 6 8.015625 6 15.921875 
Q 6 25.140625 12.171875 29.828125 
Q 18.359375 34.515625 30.609375 34.515625 
L 43.21875 34.515625 
L 43.21875 35.40625 
Q 43.21875 41.609375 39.140625 45 
Q 35.0625 48.390625 27.6875 48.390625 
Q 23 48.390625 18.546875 47.265625 
Q 14.109375 46.140625 10.015625 43.890625 
L 10.015625 52.203125 
Q 14.9375 54.109375 19.578125 55.046875 
Q 24.21875 56 28.609375 56 
Q 40.484375 56 46.34375 49.84375 
Q 52.203125 43.703125 52.203125 31.203125 
z
" id="DejaVuSans-97"/>
     <path d="M 9.421875 75.984375 
L 18.40625 75.984375 
L 18.40625 0 
L 9.421875 0 
z
" id="DejaVuSans-108"/>
     <path d="M 41.109375 46.296875 
Q 39.59375 47.171875 37.8125 47.578125 
Q 36.03125 48 33.890625 48 
Q 26.265625 48 22.1875 43.046875 
Q 18.109375 38.09375 18.109375 28.8125 
L 18.109375 0 
L 9.078125 0 
L 9.078125 54.6875 
L 18.109375 54.6875 
L 18.109375 46.1875 
Q 20.953125 51.171875 25.484375 53.578125 
Q 30.03125 56 36.53125 56 
Q 37.453125 56 38.578125 55.875 
Q 39.703125 55.765625 41.0625 55.515625 
z
" id="DejaVuSans-114"/>
     <path d="M 17.921875 72.90625 
L 17.921875 45.796875 
L 9.625 45.796875 
L 9.625 72.90625 
z
" id="DejaVuSans-39"/>
     <path d="M 44.28125 53.078125 
L 44.28125 44.578125 
Q 40.484375 46.53125 36.375 47.5 
Q 32.28125 48.484375 27.875 48.484375 
Q 21.1875 48.484375 17.84375 46.4375 
Q 14.5 44.390625 14.5 40.28125 
Q 14.5 37.15625 16.890625 35.375 
Q 19.28125 33.59375 26.515625 31.984375 
L 29.59375 31.296875 
Q 39.15625 29.25 43.1875 25.515625 
Q 47.21875 21.78125 47.21875 15.09375 
Q 47.21875 7.46875 41.1875 3.015625 
Q 35.15625 -1.421875 24.609375 -1.421875 
Q 20.21875 -1.421875 15.453125 -0.5625 
Q 10.6875 0.296875 5.421875 2 
L 5.421875 11.28125 
Q 10.40625 8.6875 15.234375 7.390625 
Q 20.0625 6.109375 24.8125 6.109375 
Q 31.15625 6.109375 34.5625 8.28125 
Q 37.984375 10.453125 37.984375 14.40625 
Q 37.984375 18.0625 35.515625 20.015625 
Q 33.0625 21.96875 24.703125 23.78125 
L 21.578125 24.515625 
Q 13.234375 26.265625 9.515625 29.90625 
Q 5.8125 33.546875 5.8125 39.890625 
Q 5.8125 47.609375 11.28125 51.796875 
Q 16.75 56 26.8125 56 
Q 31.78125 56 36.171875 55.265625 
Q 40.578125 54.546875 44.28125 53.078125 
z
" id="DejaVuSans-115"/>
     <path id="DejaVuSans-32"/>
     <path d="M 19.671875 64.796875 
L 19.671875 37.40625 
L 32.078125 37.40625 
Q 38.96875 37.40625 42.71875 40.96875 
Q 46.484375 44.53125 46.484375 51.125 
Q 46.484375 57.671875 42.71875 61.234375 
Q 38.96875 64.796875 32.078125 64.796875 
z
M 9.8125 72.90625 
L 32.078125 72.90625 
Q 44.34375 72.90625 50.609375 67.359375 
Q 56.890625 61.8125 56.890625 51.125 
Q 56.890625 40.328125 50.609375 34.8125 
Q 44.34375 29.296875 32.078125 29.296875 
L 19.671875 29.296875 
L 19.671875 0 
L 9.8125 0 
z
" id="DejaVuSans-80"/>
     <path d="M 30.609375 48.390625 
Q 23.390625 48.390625 19.1875 42.75 
Q 14.984375 37.109375 14.984375 27.296875 
Q 14.984375 17.484375 19.15625 11.84375 
Q 23.34375 6.203125 30.609375 6.203125 
Q 37.796875 6.203125 41.984375 11.859375 
Q 46.1875 17.53125 46.1875 27.296875 
Q 46.1875 37.015625 41.984375 42.703125 
Q 37.796875 48.390625 30.609375 48.390625 
z
M 30.609375 56 
Q 42.328125 56 49.015625 48.375 
Q 55.71875 40.765625 55.71875 27.296875 
Q 55.71875 13.875 49.015625 6.21875 
Q 42.328125 -1.421875 30.609375 -1.421875 
Q 18.84375 -1.421875 12.171875 6.21875 
Q 5.515625 13.875 5.515625 27.296875 
Q 5.515625 40.765625 12.171875 48.375 
Q 18.84375 56 30.609375 56 
z
" id="DejaVuSans-111"/>
     <path d="M 9.421875 54.6875 
L 18.40625 54.6875 
L 18.40625 0 
L 9.421875 0 
z
M 9.421875 75.984375 
L 18.40625 75.984375 
L 18.40625 64.59375 
L 9.421875 64.59375 
z
" id="DejaVuSans-105"/>
     <path d="M 54.890625 33.015625 
L 54.890625 0 
L 45.90625 0 
L 45.90625 32.71875 
Q 45.90625 40.484375 42.875 44.328125 
Q 39.84375 48.1875 33.796875 48.1875 
Q 26.515625 48.1875 22.3125 43.546875 
Q 18.109375 38.921875 18.109375 30.90625 
L 18.109375 0 
L 9.078125 0 
L 9.078125 54.6875 
L 18.109375 54.6875 
L 18.109375 46.1875 
Q 21.34375 51.125 25.703125 53.5625 
Q 30.078125 56 35.796875 56 
Q 45.21875 56 50.046875 50.171875 
Q 54.890625 44.34375 54.890625 33.015625 
z
" id="DejaVuSans-110"/>
     <path d="M 18.3125 70.21875 
L 18.3125 54.6875 
L 36.8125 54.6875 
L 36.8125 47.703125 
L 18.3125 47.703125 
L 18.3125 18.015625 
Q 18.3125 11.328125 20.140625 9.421875 
Q 21.96875 7.515625 27.59375 7.515625 
L 36.8125 7.515625 
L 36.8125 0 
L 27.59375 0 
Q 17.1875 0 13.234375 3.875 
Q 9.28125 7.765625 9.28125 18.015625 
L 9.28125 47.703125 
L 2.6875 47.703125 
L 2.6875 54.6875 
L 9.28125 54.6875 
L 9.28125 70.21875 
z
" id="DejaVuSans-116"/>
    </defs>
    <g transform="translate(363.460727 402.882526)rotate(-0.0931)scale(0.1 -0.1)">
     <use xlink:href="#DejaVuSans-68"/>
     <use x="77.001953" xlink:href="#DejaVuSans-101"/>
     <use x="138.525391" xlink:href="#DejaVuSans-97"/>
     <use x="199.804688" xlink:href="#DejaVuSans-108"/>
     <use x="227.587891" xlink:href="#DejaVuSans-101"/>
     <use x="289.111328" xlink:href="#DejaVuSans-114"/>
     <use x="330.224609" xlink:href="#DejaVuSans-39"/>
     <use x="357.714844" xlink:href="#DejaVuSans-115"/>
     <use x="409.814453" xlink:href="#DejaVuSans-32"/>
     <use x="441.601562" xlink:href="#DejaVuSans-80"/>
     <use x="501.857422" xlink:href="#DejaVuSans-111"/>
     <use x="563.039062" xlink:href="#DejaVuSans-105"/>
     <use x="590.822266" xlink:href="#DejaVuSans-110"/>
     <use x="654.201172" xlink:href="#DejaVuSans-116"/>
     <use x="693.410156" xlink:href="#DejaVuSans-115"/>
    </g>
   </g>
   <g id="Line3DCollection_1">
    <path d="M 245.717315 376.550402 
L 246.520742 356.70165 
L 246.207546 101.366402 
" style="fill:none;stroke:#b0b0b0;stroke-width:0.8;"/>
    <path d="M 333.631321 376.407551 
L 325.741609 356.585659 
L 325.599158 101.414354 
" style="fill:none;stroke:#b0b0b0;stroke-width:0.8;"/>
    <path d="M 421.420215 376.264903 
L 404.860875 356.469817 
L 404.88873 101.462244 
" style="fill:none;stroke:#b0b0b0;stroke-width:0.8;"/>
    <path d="M 509.084263 376.122457 
L 483.878735 356.354124 
L 484.07646 101.510072 
" style="fill:none;stroke:#b0b0b0;stroke-width:0.8;"/>
    <path d="M 596.62373 375.980214 
L 562.795384 356.238578 
L 563.162543 101.55784 
" style="fill:none;stroke:#b0b0b0;stroke-width:0.8;"/>
   </g>
   <g id="xtick_1">
    <g id="line2d_2">
     <path d="M 245.724441 376.374331 
L 245.703023 376.903474 
" style="fill:none;stroke:#000000;stroke-linecap:square;stroke-width:0.8;"/>
    </g>
    <g id="text_2">
     <!-- 2 -->
     <defs>
      <path d="M 19.1875 8.296875 
L 53.609375 8.296875 
L 53.609375 0 
L 7.328125 0 
L 7.328125 8.296875 
Q 12.9375 14.109375 22.625 23.890625 
Q 32.328125 33.6875 34.8125 36.53125 
Q 39.546875 41.84375 41.421875 45.53125 
Q 43.3125 49.21875 43.3125 52.78125 
Q 43.3125 58.59375 39.234375 62.25 
Q 35.15625 65.921875 28.609375 65.921875 
Q 23.96875 65.921875 18.8125 64.3125 
Q 13.671875 62.703125 7.8125 59.421875 
L 7.8125 69.390625 
Q 13.765625 71.78125 18.9375 73 
Q 24.125 74.21875 28.421875 74.21875 
Q 39.75 74.21875 46.484375 68.546875 
Q 53.21875 62.890625 53.21875 53.421875 
Q 53.21875 48.921875 51.53125 44.890625 
Q 49.859375 40.875 45.40625 35.40625 
Q 44.1875 33.984375 37.640625 27.21875 
Q 31.109375 20.453125 19.1875 8.296875 
z
" id="DejaVuSans-50"/>
     </defs>
     <g transform="translate(242.516654 395.04474)scale(0.1 -0.1)">
      <use xlink:href="#DejaVuSans-50"/>
     </g>
    </g>
   </g>
   <g id="xtick_2">
    <g id="line2d_3">
     <path d="M 333.561339 376.23173 
L 333.771654 376.76012 
" style="fill:none;stroke:#000000;stroke-linecap:square;stroke-width:0.8;"/>
    </g>
    <g id="text_3">
     <!-- 4 -->
     <defs>
      <path d="M 37.796875 64.3125 
L 12.890625 25.390625 
L 37.796875 25.390625 
z
M 35.203125 72.90625 
L 47.609375 72.90625 
L 47.609375 25.390625 
L 58.015625 25.390625 
L 58.015625 17.1875 
L 47.609375 17.1875 
L 47.609375 0 
L 37.796875 0 
L 37.796875 17.1875 
L 4.890625 17.1875 
L 4.890625 26.703125 
z
" id="DejaVuSans-52"/>
     </defs>
     <g transform="translate(330.768082 394.893552)scale(0.1 -0.1)">
      <use xlink:href="#DejaVuSans-52"/>
     </g>
    </g>
   </g>
   <g id="xtick_3">
    <g id="line2d_4">
     <path d="M 421.273344 376.089332 
L 421.714732 376.616969 
" style="fill:none;stroke:#000000;stroke-linecap:square;stroke-width:0.8;"/>
    </g>
    <g id="text_4">
     <!-- 6 -->
     <defs>
      <path d="M 33.015625 40.375 
Q 26.375 40.375 22.484375 35.828125 
Q 18.609375 31.296875 18.609375 23.390625 
Q 18.609375 15.53125 22.484375 10.953125 
Q 26.375 6.390625 33.015625 6.390625 
Q 39.65625 6.390625 43.53125 10.953125 
Q 47.40625 15.53125 47.40625 23.390625 
Q 47.40625 31.296875 43.53125 35.828125 
Q 39.65625 40.375 33.015625 40.375 
z
M 52.59375 71.296875 
L 52.59375 62.3125 
Q 48.875 64.0625 45.09375 64.984375 
Q 41.3125 65.921875 37.59375 65.921875 
Q 27.828125 65.921875 22.671875 59.328125 
Q 17.53125 52.734375 16.796875 39.40625 
Q 19.671875 43.65625 24.015625 45.921875 
Q 28.375 48.1875 33.59375 48.1875 
Q 44.578125 48.1875 50.953125 41.515625 
Q 57.328125 34.859375 57.328125 23.390625 
Q 57.328125 12.15625 50.6875 5.359375 
Q 44.046875 -1.421875 33.015625 -1.421875 
Q 20.359375 -1.421875 13.671875 8.265625 
Q 6.984375 17.96875 6.984375 36.375 
Q 6.984375 53.65625 15.1875 63.9375 
Q 23.390625 74.21875 37.203125 74.21875 
Q 40.921875 74.21875 44.703125 73.484375 
Q 48.484375 72.75 52.59375 71.296875 
z
" id="DejaVuSans-54"/>
     </defs>
     <g transform="translate(418.893435 394.74258)scale(0.1 -0.1)">
      <use xlink:href="#DejaVuSans-54"/>
     </g>
    </g>
   </g>
   <g id="xtick_4">
    <g id="line2d_5">
     <path d="M 508.86072 375.947136 
L 509.532525 376.474023 
" style="fill:none;stroke:#000000;stroke-linecap:square;stroke-width:0.8;"/>
    </g>
    <g id="text_5">
     <!-- 8 -->
     <defs>
      <path d="M 31.78125 34.625 
Q 24.75 34.625 20.71875 30.859375 
Q 16.703125 27.09375 16.703125 20.515625 
Q 16.703125 13.921875 20.71875 10.15625 
Q 24.75 6.390625 31.78125 6.390625 
Q 38.8125 6.390625 42.859375 10.171875 
Q 46.921875 13.96875 46.921875 20.515625 
Q 46.921875 27.09375 42.890625 30.859375 
Q 38.875 34.625 31.78125 34.625 
z
M 21.921875 38.8125 
Q 15.578125 40.375 12.03125 44.71875 
Q 8.5 49.078125 8.5 55.328125 
Q 8.5 64.0625 14.71875 69.140625 
Q 20.953125 74.21875 31.78125 74.21875 
Q 42.671875 74.21875 48.875 69.140625 
Q 55.078125 64.0625 55.078125 55.328125 
Q 55.078125 49.078125 51.53125 44.71875 
Q 48 40.375 41.703125 38.8125 
Q 48.828125 37.15625 52.796875 32.3125 
Q 56.78125 27.484375 56.78125 20.515625 
Q 56.78125 9.90625 50.3125 4.234375 
Q 43.84375 -1.421875 31.78125 -1.421875 
Q 19.734375 -1.421875 13.25 4.234375 
Q 6.78125 9.90625 6.78125 20.515625 
Q 6.78125 27.484375 10.78125 32.3125 
Q 14.796875 37.15625 21.921875 38.8125 
z
M 18.3125 54.390625 
Q 18.3125 48.734375 21.84375 45.5625 
Q 25.390625 42.390625 31.78125 42.390625 
Q 38.140625 42.390625 41.71875 45.5625 
Q 45.3125 48.734375 45.3125 54.390625 
Q 45.3125 60.0625 41.71875 63.234375 
Q 38.140625 66.40625 31.78125 66.40625 
Q 25.390625 66.40625 21.84375 63.234375 
Q 18.3125 60.0625 18.3125 54.390625 
z
" id="DejaVuSans-56"/>
     </defs>
     <g transform="translate(506.892983 394.591823)scale(0.1 -0.1)">
      <use xlink:href="#DejaVuSans-56"/>
     </g>
    </g>
   </g>
   <g id="xtick_5">
    <g id="line2d_6">
     <path d="M 596.323735 375.805142 
L 597.225301 376.33128 
" style="fill:none;stroke:#000000;stroke-linecap:square;stroke-width:0.8;"/>
    </g>
    <g id="text_6">
     <!-- 10 -->
     <defs>
      <path d="M 12.40625 8.296875 
L 28.515625 8.296875 
L 28.515625 63.921875 
L 10.984375 60.40625 
L 10.984375 69.390625 
L 28.421875 72.90625 
L 38.28125 72.90625 
L 38.28125 8.296875 
L 54.390625 8.296875 
L 54.390625 0 
L 12.40625 0 
z
" id="DejaVuSans-49"/>
      <path d="M 31.78125 66.40625 
Q 24.171875 66.40625 20.328125 58.90625 
Q 16.5 51.421875 16.5 36.375 
Q 16.5 21.390625 20.328125 13.890625 
Q 24.171875 6.390625 31.78125 6.390625 
Q 39.453125 6.390625 43.28125 13.890625 
Q 47.125 21.390625 47.125 36.375 
Q 47.125 51.421875 43.28125 58.90625 
Q 39.453125 66.40625 31.78125 66.40625 
z
M 31.78125 74.21875 
Q 44.046875 74.21875 50.515625 64.515625 
Q 56.984375 54.828125 56.984375 36.375 
Q 56.984375 17.96875 50.515625 8.265625 
Q 44.046875 -1.421875 31.78125 -1.421875 
Q 19.53125 -1.421875 13.0625 8.265625 
Q 6.59375 17.96875 6.59375 36.375 
Q 6.59375 54.828125 13.0625 64.515625 
Q 19.53125 74.21875 31.78125 74.21875 
z
" id="DejaVuSans-48"/>
     </defs>
     <g transform="translate(591.585745 394.441281)scale(0.1 -0.1)">
      <use xlink:href="#DejaVuSans-49"/>
      <use x="63.623047" xlink:href="#DejaVuSans-48"/>
     </g>
    </g>
   </g>
  </g>
  <g id="axis3d_2">
   <g id="line2d_7">
    <path d="M 180.838914 356.797817 
L 172.818632 376.668856 
" style="fill:none;stroke:#000000;stroke-linecap:square;stroke-width:0.8;"/>
   </g>
   <g id="text_7">
    <!-- Your Points -->
    <defs>
     <path d="M -0.203125 72.90625 
L 10.40625 72.90625 
L 30.609375 42.921875 
L 50.6875 72.90625 
L 61.28125 72.90625 
L 35.5 34.71875 
L 35.5 0 
L 25.59375 0 
L 25.59375 34.71875 
z
" id="DejaVuSans-89"/>
     <path d="M 8.5 21.578125 
L 8.5 54.6875 
L 17.484375 54.6875 
L 17.484375 21.921875 
Q 17.484375 14.15625 20.5 10.265625 
Q 23.53125 6.390625 29.59375 6.390625 
Q 36.859375 6.390625 41.078125 11.03125 
Q 45.3125 15.671875 45.3125 23.6875 
L 45.3125 54.6875 
L 54.296875 54.6875 
L 54.296875 0 
L 45.3125 0 
L 45.3125 8.40625 
Q 42.046875 3.421875 37.71875 1 
Q 33.40625 -1.421875 27.6875 -1.421875 
Q 18.265625 -1.421875 13.375 4.4375 
Q 8.5 10.296875 8.5 21.578125 
z
M 31.109375 56 
z
" id="DejaVuSans-117"/>
    </defs>
    <g transform="translate(135.776152 414.134392)rotate(-68.020174)scale(0.1 -0.1)">
     <use xlink:href="#DejaVuSans-89"/>
     <use x="60.880859" xlink:href="#DejaVuSans-111"/>
     <use x="122.0625" xlink:href="#DejaVuSans-117"/>
     <use x="185.441406" xlink:href="#DejaVuSans-114"/>
     <use x="226.554688" xlink:href="#DejaVuSans-32"/>
     <use x="258.341797" xlink:href="#DejaVuSans-80"/>
     <use x="318.597656" xlink:href="#DejaVuSans-111"/>
     <use x="379.779297" xlink:href="#DejaVuSans-105"/>
     <use x="407.5625" xlink:href="#DejaVuSans-110"/>
     <use x="470.941406" xlink:href="#DejaVuSans-116"/>
     <use x="510.150391" xlink:href="#DejaVuSans-115"/>
    </g>
   </g>
   <g id="Line3DCollection_2">
    <path d="M 625.06226 93.594584 
L 624.508997 375.496682 
L 172.996271 376.228738 
" style="fill:none;stroke:#b0b0b0;stroke-width:0.8;"/>
    <path d="M 620.680674 94.566468 
L 620.144202 373.146782 
L 173.95166 373.861668 
" style="fill:none;stroke:#b0b0b0;stroke-width:0.8;"/>
    <path d="M 616.401314 95.515676 
L 615.881004 370.851579 
L 174.884731 371.549892 
" style="fill:none;stroke:#b0b0b0;stroke-width:0.8;"/>
    <path d="M 612.220644 96.442994 
L 611.715897 368.609187 
L 175.796257 369.291497 
" style="fill:none;stroke:#b0b0b0;stroke-width:0.8;"/>
    <path d="M 608.135287 97.34917 
L 607.645535 366.417802 
L 176.686976 367.084653 
" style="fill:none;stroke:#b0b0b0;stroke-width:0.8;"/>
    <path d="M 604.142023 98.23492 
L 603.666721 364.275705 
L 177.557592 364.927616 
" style="fill:none;stroke:#b0b0b0;stroke-width:0.8;"/>
    <path d="M 600.23777 99.100925 
L 599.776401 362.181251 
L 178.408778 362.818719 
" style="fill:none;stroke:#b0b0b0;stroke-width:0.8;"/>
    <path d="M 596.419587 99.94784 
L 595.971655 360.132868 
L 179.241178 360.756367 
" style="fill:none;stroke:#b0b0b0;stroke-width:0.8;"/>
    <path d="M 592.684658 100.776288 
L 592.24969 358.129052 
L 180.055406 358.739037 
" style="fill:none;stroke:#b0b0b0;stroke-width:0.8;"/>
   </g>
   <g id="xtick_6">
    <g id="line2d_8">
     <path d="M 176.621516 376.22286 
L 165.74514 376.240494 
" style="fill:none;stroke:#000000;stroke-linecap:square;stroke-width:0.8;"/>
    </g>
    <g id="text_8">
     <!-- 0.0 -->
     <defs>
      <path d="M 10.6875 12.40625 
L 21 12.40625 
L 21 0 
L 10.6875 0 
z
" id="DejaVuSans-46"/>
     </defs>
     <g transform="translate(148.921793 393.907311)scale(0.1 -0.1)">
      <use xlink:href="#DejaVuSans-48"/>
      <use x="63.623047" xlink:href="#DejaVuSans-46"/>
      <use x="95.410156" xlink:href="#DejaVuSans-48"/>
     </g>
    </g>
   </g>
   <g id="xtick_7">
    <g id="line2d_9">
     <path d="M 177.534036 373.855928 
L 166.786284 373.873148 
" style="fill:none;stroke:#000000;stroke-linecap:square;stroke-width:0.8;"/>
    </g>
    <g id="text_9">
     <!-- 2.5 -->
     <defs>
      <path d="M 10.796875 72.90625 
L 49.515625 72.90625 
L 49.515625 64.59375 
L 19.828125 64.59375 
L 19.828125 46.734375 
Q 21.96875 47.46875 24.109375 47.828125 
Q 26.265625 48.1875 28.421875 48.1875 
Q 40.625 48.1875 47.75 41.5 
Q 54.890625 34.8125 54.890625 23.390625 
Q 54.890625 11.625 47.5625 5.09375 
Q 40.234375 -1.421875 26.90625 -1.421875 
Q 22.3125 -1.421875 17.546875 -0.640625 
Q 12.796875 0.140625 7.71875 1.703125 
L 7.71875 11.625 
Q 12.109375 9.234375 16.796875 8.0625 
Q 21.484375 6.890625 26.703125 6.890625 
Q 35.15625 6.890625 40.078125 11.328125 
Q 45.015625 15.765625 45.015625 23.390625 
Q 45.015625 31 40.078125 35.4375 
Q 35.15625 39.890625 26.703125 39.890625 
Q 22.75 39.890625 18.8125 39.015625 
Q 14.890625 38.140625 10.796875 36.28125 
z
" id="DejaVuSans-53"/>
     </defs>
     <g transform="translate(150.067775 391.421001)scale(0.1 -0.1)">
      <use xlink:href="#DejaVuSans-50"/>
      <use x="63.623047" xlink:href="#DejaVuSans-46"/>
      <use x="95.410156" xlink:href="#DejaVuSans-53"/>
     </g>
    </g>
   </g>
   <g id="xtick_8">
    <g id="line2d_10">
     <path d="M 178.425239 371.544286 
L 167.803105 371.561106 
" style="fill:none;stroke:#000000;stroke-linecap:square;stroke-width:0.8;"/>
    </g>
    <g id="text_10">
     <!-- 5.0 -->
     <g transform="translate(151.186986 388.992773)scale(0.1 -0.1)">
      <use xlink:href="#DejaVuSans-53"/>
      <use x="63.623047" xlink:href="#DejaVuSans-46"/>
      <use x="95.410156" xlink:href="#DejaVuSans-48"/>
     </g>
    </g>
   </g>
   <g id="xtick_9">
    <g id="line2d_11">
     <path d="M 179.295865 369.286019 
L 168.796446 369.302453 
" style="fill:none;stroke:#000000;stroke-linecap:square;stroke-width:0.8;"/>
    </g>
    <g id="text_11">
     <!-- 7.5 -->
     <defs>
      <path d="M 8.203125 72.90625 
L 55.078125 72.90625 
L 55.078125 68.703125 
L 28.609375 0 
L 18.3125 0 
L 43.21875 64.59375 
L 8.203125 64.59375 
z
" id="DejaVuSans-55"/>
     </defs>
     <g transform="translate(152.280353 386.620617)scale(0.1 -0.1)">
      <use xlink:href="#DejaVuSans-55"/>
      <use x="63.623047" xlink:href="#DejaVuSans-46"/>
      <use x="95.410156" xlink:href="#DejaVuSans-53"/>
     </g>
    </g>
   </g>
   <g id="xtick_10">
    <g id="line2d_12">
     <path d="M 180.146617 367.0793 
L 169.767111 367.095361 
" style="fill:none;stroke:#000000;stroke-linecap:square;stroke-width:0.8;"/>
    </g>
    <g id="text_12">
     <!-- 10.0 -->
     <g transform="translate(150.167511 384.302611)scale(0.1 -0.1)">
      <use xlink:href="#DejaVuSans-49"/>
      <use x="63.623047" xlink:href="#DejaVuSans-48"/>
      <use x="127.246094" xlink:href="#DejaVuSans-46"/>
      <use x="159.033203" xlink:href="#DejaVuSans-48"/>
     </g>
    </g>
   </g>
   <g id="xtick_11">
    <g id="line2d_13">
     <path d="M 180.978169 364.922383 
L 170.715868 364.938084 
" style="fill:none;stroke:#000000;stroke-linecap:square;stroke-width:0.8;"/>
    </g>
    <g id="text_13">
     <!-- 12.5 -->
     <g transform="translate(151.211805 382.036924)scale(0.1 -0.1)">
      <use xlink:href="#DejaVuSans-49"/>
      <use x="63.623047" xlink:href="#DejaVuSans-50"/>
      <use x="127.246094" xlink:href="#DejaVuSans-46"/>
      <use x="159.033203" xlink:href="#DejaVuSans-53"/>
     </g>
    </g>
   </g>
   <g id="xtick_12">
    <g id="line2d_14">
     <path d="M 181.791164 362.813602 
L 171.64345 362.828954 
" style="fill:none;stroke:#000000;stroke-linecap:square;stroke-width:0.8;"/>
    </g>
    <g id="text_14">
     <!-- 15.0 -->
     <g transform="translate(152.232792 379.821803)scale(0.1 -0.1)">
      <use xlink:href="#DejaVuSans-49"/>
      <use x="63.623047" xlink:href="#DejaVuSans-53"/>
      <use x="127.246094" xlink:href="#DejaVuSans-46"/>
      <use x="159.033203" xlink:href="#DejaVuSans-48"/>
     </g>
    </g>
   </g>
   <g id="xtick_13">
    <g id="line2d_15">
     <path d="M 182.586216 360.751363 
L 172.550558 360.766378 
" style="fill:none;stroke:#000000;stroke-linecap:square;stroke-width:0.8;"/>
    </g>
    <g id="text_15">
     <!-- 17.5 -->
     <g transform="translate(153.231243 377.655574)scale(0.1 -0.1)">
      <use xlink:href="#DejaVuSans-49"/>
      <use x="63.623047" xlink:href="#DejaVuSans-55"/>
      <use x="127.246094" xlink:href="#DejaVuSans-46"/>
      <use x="159.033203" xlink:href="#DejaVuSans-53"/>
     </g>
    </g>
   </g>
   <g id="xtick_14">
    <g id="line2d_16">
     <path d="M 183.363912 358.734141 
L 173.437862 358.74883 
" style="fill:none;stroke:#000000;stroke-linecap:square;stroke-width:0.8;"/>
    </g>
    <g id="text_16">
     <!-- 20.0 -->
     <g transform="translate(154.207898 375.536637)scale(0.1 -0.1)">
      <use xlink:href="#DejaVuSans-50"/>
      <use x="63.623047" xlink:href="#DejaVuSans-48"/>
      <use x="127.246094" xlink:href="#DejaVuSans-46"/>
      <use x="159.033203" xlink:href="#DejaVuSans-48"/>
     </g>
    </g>
   </g>
  </g>
  <g id="axis3d_3">
   <g id="line2d_17">
    <path d="M 180.838914 356.797817 
L 180.383988 101.326645 
" style="fill:none;stroke:#000000;stroke-linecap:square;stroke-width:0.8;"/>
   </g>
   <g id="text_17">
    <!-- Your Win Rate -->
    <defs>
     <path d="M 3.328125 72.90625 
L 13.28125 72.90625 
L 28.609375 11.28125 
L 43.890625 72.90625 
L 54.984375 72.90625 
L 70.3125 11.28125 
L 85.59375 72.90625 
L 95.609375 72.90625 
L 77.296875 0 
L 64.890625 0 
L 49.515625 63.28125 
L 33.984375 0 
L 21.578125 0 
z
" id="DejaVuSans-87"/>
     <path d="M 44.390625 34.1875 
Q 47.5625 33.109375 50.5625 29.59375 
Q 53.5625 26.078125 56.59375 19.921875 
L 66.609375 0 
L 56 0 
L 46.6875 18.703125 
Q 43.0625 26.03125 39.671875 28.421875 
Q 36.28125 30.8125 30.421875 30.8125 
L 19.671875 30.8125 
L 19.671875 0 
L 9.8125 0 
L 9.8125 72.90625 
L 32.078125 72.90625 
Q 44.578125 72.90625 50.734375 67.671875 
Q 56.890625 62.453125 56.890625 51.90625 
Q 56.890625 45.015625 53.6875 40.46875 
Q 50.484375 35.9375 44.390625 34.1875 
z
M 19.671875 64.796875 
L 19.671875 38.921875 
L 32.078125 38.921875 
Q 39.203125 38.921875 42.84375 42.21875 
Q 46.484375 45.515625 46.484375 51.90625 
Q 46.484375 58.296875 42.84375 61.546875 
Q 39.203125 64.796875 32.078125 64.796875 
z
" id="DejaVuSans-82"/>
    </defs>
    <g transform="translate(146.863506 193.233684)rotate(-270.102029)scale(0.1 -0.1)">
     <use xlink:href="#DejaVuSans-89"/>
     <use x="60.880859" xlink:href="#DejaVuSans-111"/>
     <use x="122.0625" xlink:href="#DejaVuSans-117"/>
     <use x="185.441406" xlink:href="#DejaVuSans-114"/>
     <use x="226.554688" xlink:href="#DejaVuSans-32"/>
     <use x="258.341797" xlink:href="#DejaVuSans-87"/>
     <use x="357.1875" xlink:href="#DejaVuSans-105"/>
     <use x="384.970703" xlink:href="#DejaVuSans-110"/>
     <use x="448.349609" xlink:href="#DejaVuSans-32"/>
     <use x="480.136719" xlink:href="#DejaVuSans-82"/>
     <use x="549.587891" xlink:href="#DejaVuSans-97"/>
     <use x="610.867188" xlink:href="#DejaVuSans-116"/>
     <use x="650.076172" xlink:href="#DejaVuSans-101"/>
    </g>
   </g>
   <g id="Line3DCollection_3">
    <path d="M 180.817699 344.883892 
L 588.6876 344.32605 
L 625.346461 362.761113 
" style="fill:none;stroke:#b0b0b0;stroke-width:0.8;"/>
    <path d="M 180.755092 309.726234 
L 588.745766 309.284348 
L 625.42302 323.887886 
" style="fill:none;stroke:#b0b0b0;stroke-width:0.8;"/>
    <path d="M 180.692449 274.547716 
L 588.803967 274.221923 
L 625.499629 284.989152 
" style="fill:none;stroke:#b0b0b0;stroke-width:0.8;"/>
    <path d="M 180.629768 239.34832 
L 588.862202 239.138756 
L 625.576289 246.064886 
" style="fill:none;stroke:#b0b0b0;stroke-width:0.8;"/>
    <path d="M 180.56705 204.128026 
L 588.920472 204.034831 
L 625.652999 207.115063 
" style="fill:none;stroke:#b0b0b0;stroke-width:0.8;"/>
    <path d="M 180.504295 168.886816 
L 588.978776 168.910127 
L 625.72976 168.139658 
" style="fill:none;stroke:#b0b0b0;stroke-width:0.8;"/>
    <path d="M 180.441502 133.624672 
L 589.037114 133.764627 
L 625.806571 129.138645 
" style="fill:none;stroke:#b0b0b0;stroke-width:0.8;"/>
   </g>
   <g id="xtick_15">
    <g id="line2d_18">
     <path d="M 184.091381 344.879414 
L 174.269814 344.892847 
" style="fill:none;stroke:#000000;stroke-linecap:square;stroke-width:0.8;"/>
    </g>
    <g id="text_18">
     <!-- −0.4 -->
     <defs>
      <path d="M 10.59375 35.5 
L 73.1875 35.5 
L 73.1875 27.203125 
L 10.59375 27.203125 
z
" id="DejaVuSans-8722"/>
     </defs>
     <g transform="translate(154.406979 351.908473)scale(0.1 -0.1)">
      <use xlink:href="#DejaVuSans-8722"/>
      <use x="83.789062" xlink:href="#DejaVuSans-48"/>
      <use x="147.412109" xlink:href="#DejaVuSans-46"/>
      <use x="179.199219" xlink:href="#DejaVuSans-52"/>
     </g>
    </g>
   </g>
   <g id="xtick_16">
    <g id="line2d_19">
     <path d="M 184.029747 309.722687 
L 174.205263 309.733328 
" style="fill:none;stroke:#000000;stroke-linecap:square;stroke-width:0.8;"/>
    </g>
    <g id="text_19">
     <!-- −0.2 -->
     <g transform="translate(154.340367 316.870099)scale(0.1 -0.1)">
      <use xlink:href="#DejaVuSans-8722"/>
      <use x="83.789062" xlink:href="#DejaVuSans-48"/>
      <use x="147.412109" xlink:href="#DejaVuSans-46"/>
      <use x="179.199219" xlink:href="#DejaVuSans-50"/>
     </g>
    </g>
   </g>
   <g id="xtick_17">
    <g id="line2d_20">
     <path d="M 183.968076 274.545101 
L 174.140672 274.552947 
" style="fill:none;stroke:#000000;stroke-linecap:square;stroke-width:0.8;"/>
    </g>
    <g id="text_20">
     <!-- 0.0 -->
     <g transform="translate(158.46356 281.811007)scale(0.1 -0.1)">
      <use xlink:href="#DejaVuSans-48"/>
      <use x="63.623047" xlink:href="#DejaVuSans-46"/>
      <use x="95.410156" xlink:href="#DejaVuSans-48"/>
     </g>
    </g>
   </g>
   <g id="xtick_18">
    <g id="line2d_21">
     <path d="M 183.906369 239.346638 
L 174.076044 239.351684 
" style="fill:none;stroke:#000000;stroke-linecap:square;stroke-width:0.8;"/>
    </g>
    <g id="text_21">
     <!-- 0.2 -->
     <g transform="translate(158.39687 246.731178)scale(0.1 -0.1)">
      <use xlink:href="#DejaVuSans-48"/>
      <use x="63.623047" xlink:href="#DejaVuSans-46"/>
      <use x="95.410156" xlink:href="#DejaVuSans-50"/>
     </g>
    </g>
   </g>
   <g id="xtick_19">
    <g id="line2d_22">
     <path d="M 183.844626 204.127278 
L 174.011377 204.129522 
" style="fill:none;stroke:#000000;stroke-linecap:square;stroke-width:0.8;"/>
    </g>
    <g id="text_22">
     <!-- 0.4 -->
     <g transform="translate(158.33014 211.630593)scale(0.1 -0.1)">
      <use xlink:href="#DejaVuSans-48"/>
      <use x="63.623047" xlink:href="#DejaVuSans-46"/>
      <use x="95.410156" xlink:href="#DejaVuSans-52"/>
     </g>
    </g>
   </g>
   <g id="xtick_20">
    <g id="line2d_23">
     <path d="M 183.782845 168.887003 
L 173.946672 168.886442 
" style="fill:none;stroke:#000000;stroke-linecap:square;stroke-width:0.8;"/>
    </g>
    <g id="text_23">
     <!-- 0.6 -->
     <g transform="translate(158.263371 176.509234)scale(0.1 -0.1)">
      <use xlink:href="#DejaVuSans-48"/>
      <use x="63.623047" xlink:href="#DejaVuSans-46"/>
      <use x="95.410156" xlink:href="#DejaVuSans-54"/>
     </g>
    </g>
   </g>
   <g id="xtick_21">
    <g id="line2d_24">
     <path d="M 183.721028 133.625795 
L 173.881928 133.622425 
" style="fill:none;stroke:#000000;stroke-linecap:square;stroke-width:0.8;"/>
    </g>
    <g id="text_24">
     <!-- 0.8 -->
     <g transform="translate(158.196563 141.367082)scale(0.1 -0.1)">
      <use xlink:href="#DejaVuSans-48"/>
      <use x="63.623047" xlink:href="#DejaVuSans-46"/>
      <use x="95.410156" xlink:href="#DejaVuSans-56"/>
     </g>
    </g>
   </g>
  </g>
  <g id="axes_1">
   <g id="Poly3DCollection_1">
    <path clip-path="url(#pa82a259d35)" d="M 526.495942 127.354043 
L 566.427523 136.057606 
L 565.112842 107.107574 
L 525.33404 107.67125 
z
" style="fill:#ff0d06;"/>
    <path clip-path="url(#pa82a259d35)" d="M 486.525473 127.586219 
L 526.495942 127.354043 
L 525.33404 107.67125 
L 485.530415 107.612491 
z
" style="fill:#ff0603;"/>
    <path clip-path="url(#pa82a259d35)" d="M 446.529132 128.020383 
L 486.525473 127.586219 
L 485.530415 107.612491 
L 445.700782 108.110482 
z
" style="fill:#ff0603;"/>
    <path clip-path="url(#pa82a259d35)" d="M 406.506958 129.771109 
L 446.529132 128.020383 
L 445.700782 108.110482 
L 405.845695 108.997881 
z
" style="fill:#ff0905;"/>
    <path clip-path="url(#pa82a259d35)" d="M 366.460046 131.83644 
L 406.506958 129.771109 
L 405.845695 108.997881 
L 365.965022 107.985027 
z
" style="fill:#ff0d06;"/>
    <path clip-path="url(#pa82a259d35)" d="M 326.385757 128.903747 
L 366.460046 131.83644 
L 365.965022 107.985027 
L 326.058485 108.067769 
z
" style="fill:#ff0d06;"/>
    <path clip-path="url(#pa82a259d35)" d="M 286.28335 125.8585 
L 326.385757 128.903747 
L 326.058485 108.067769 
L 286.126123 108.078261 
z
" style="fill:#ff0603;"/>
    <path clip-path="url(#pa82a259d35)" d="M 246.152872 122.853962 
L 286.28335 125.8585 
L 286.126123 108.078261 
L 246.165415 106.042897 
z
" style="fill:#ff0000;"/>
    <path clip-path="url(#pa82a259d35)" d="M 205.997466 121.889092 
L 246.152872 122.853962 
L 246.165415 106.042897 
L 206.187104 110.167874 
z
" style="fill:#ff0000;"/>
    <path clip-path="url(#pa82a259d35)" d="M 527.652349 160.568621 
L 567.729691 181.029218 
L 566.427523 136.057606 
L 526.495942 127.354043 
z
" style="fill:#ff763d;"/>
    <path clip-path="url(#pa82a259d35)" d="M 487.527503 149.477875 
L 527.652349 160.568621 
L 526.495942 127.354043 
L 486.525473 127.586219 
z
" style="fill:#ff562c;"/>
    <path clip-path="url(#pa82a259d35)" d="M 447.3626 152.081955 
L 487.527503 149.477875 
L 486.525473 127.586219 
L 446.529132 128.020383 
z
" style="fill:#ff5029;"/>
    <path clip-path="url(#pa82a259d35)" d="M 407.173107 155.999817 
L 447.3626 152.081955 
L 446.529132 128.020383 
L 406.506958 129.771109 
z
" style="fill:#ff592d;"/>
    <path clip-path="url(#pa82a259d35)" d="M 366.959745 158.434343 
L 407.173107 155.999817 
L 406.506958 129.771109 
L 366.460046 131.83644 
z
" style="fill:#ff5f30;"/>
    <path clip-path="url(#pa82a259d35)" d="M 326.717367 152.799508 
L 366.959745 158.434343 
L 366.460046 131.83644 
L 326.385757 128.903747 
z
" style="fill:#ff5c2f;"/>
    <path clip-path="url(#pa82a259d35)" d="M 286.447603 150.19985 
L 326.717367 152.799508 
L 326.385757 128.903747 
L 286.28335 125.8585 
z
" style="fill:#ff5029;"/>
    <path clip-path="url(#pa82a259d35)" d="M 246.144842 143.57194 
L 286.447603 150.19985 
L 286.28335 125.8585 
L 246.152872 122.853962 
z
" style="fill:#ff4422;"/>
    <path clip-path="url(#pa82a259d35)" d="M 205.816404 140.222163 
L 246.144842 143.57194 
L 246.152872 122.853962 
L 205.997466 121.889092 
z
" style="fill:#ff381c;"/>
    <path clip-path="url(#pa82a259d35)" d="M 528.802402 207.818258 
L 569.040789 227.382773 
L 567.729691 181.029218 
L 527.652349 160.568621 
z
" style="fill:#d0e082;"/>
    <path clip-path="url(#pa82a259d35)" d="M 488.523522 189.312212 
L 528.802402 207.818258 
L 527.652349 160.568621 
L 487.527503 149.477875 
z
" style="fill:#f6be68;"/>
    <path clip-path="url(#pa82a259d35)" d="M 448.202417 177.711169 
L 488.523522 189.312212 
L 487.527503 149.477875 
L 447.3626 152.081955 
z
" style="fill:#ffa558;"/>
    <path clip-path="url(#pa82a259d35)" d="M 407.844892 181.937677 
L 448.202417 177.711169 
L 447.3626 152.081955 
L 407.173107 155.999817 
z
" style="fill:#ffa558;"/>
    <path clip-path="url(#pa82a259d35)" d="M 367.463566 184.996262 
L 407.844892 181.937677 
L 407.173107 155.999817 
L 366.959745 158.434343 
z
" style="fill:#ffae5e;"/>
    <path clip-path="url(#pa82a259d35)" d="M 327.05402 181.025084 
L 367.463566 184.996262 
L 366.959745 158.434343 
L 326.717367 152.799508 
z
" style="fill:#ffa95b;"/>
    <path clip-path="url(#pa82a259d35)" d="M 286.612471 173.882763 
L 327.05402 181.025084 
L 326.717367 152.799508 
L 286.447603 150.19985 
z
" style="fill:#ff9d53;"/>
    <path clip-path="url(#pa82a259d35)" d="M 246.145912 171.931233 
L 286.612471 173.882763 
L 286.447603 150.19985 
L 246.144842 143.57194 
z
" style="fill:#ff914c;"/>
    <path clip-path="url(#pa82a259d35)" d="M 205.637331 160.960515 
L 246.145912 171.931233 
L 246.144842 143.57194 
L 205.816404 140.222163 
z
" style="fill:#ff8143;"/>
    <path clip-path="url(#pa82a259d35)" d="M 529.956557 259.859161 
L 570.357603 277.318545 
L 569.040789 227.382773 
L 528.802402 207.818258 
z
" style="fill:#64fbc3;"/>
    <path clip-path="url(#pa82a259d35)" d="M 489.519376 239.552978 
L 529.956557 259.859161 
L 528.802402 207.818258 
L 488.523522 189.312212 
z
" style="fill:#8efeac;"/>
    <path clip-path="url(#pa82a259d35)" d="M 449.040158 222.528295 
L 489.519376 239.552978 
L 488.523522 189.312212 
L 448.202417 177.711169 
z
" style="fill:#b4f295;"/>
    <path clip-path="url(#pa82a259d35)" d="M 408.521375 214.854967 
L 449.040158 222.528295 
L 448.202417 177.711169 
L 407.844892 181.937677 
z
" style="fill:#c6e789;"/>
    <path clip-path="url(#pa82a259d35)" d="M 367.972835 217.82006 
L 408.521375 214.854967 
L 407.844892 181.937677 
L 367.463566 184.996262 
z
" style="fill:#c4e88a;"/>
    <path clip-path="url(#pa82a259d35)" d="M 327.395812 213.755941 
L 367.972835 217.82006 
L 367.463566 184.996262 
L 327.05402 181.025084 
z
" style="fill:#c4e88a;"/>
    <path clip-path="url(#pa82a259d35)" d="M 286.78539 205.283086 
L 327.395812 213.755941 
L 327.05402 181.025084 
L 286.612471 173.882763 
z
" style="fill:#d2de81;"/>
    <path clip-path="url(#pa82a259d35)" d="M 246.14293 197.221383 
L 286.78539 205.283086 
L 286.612471 173.882763 
L 246.145912 171.931233 
z
" style="fill:#e0d377;"/>
    <path clip-path="url(#pa82a259d35)" d="M 205.46789 188.976762 
L 246.14293 197.221383 
L 246.145912 171.931233 
L 205.637331 160.960515 
z
" style="fill:#f0c46c;"/>
    <path clip-path="url(#pa82a259d35)" d="M 531.125494 307.576608 
L 571.708005 312.468604 
L 570.357603 277.318545 
L 529.956557 259.859161 
z
" style="fill:#00b5eb;"/>
    <path clip-path="url(#pa82a259d35)" d="M 490.515536 299.435575 
L 531.125494 307.576608 
L 529.956557 259.859161 
L 489.519376 239.552978 
z
" style="fill:#1dd1e2;"/>
    <path clip-path="url(#pa82a259d35)" d="M 449.877796 281.83648 
L 490.515536 299.435575 
L 489.519376 239.552978 
L 449.040158 222.528295 
z
" style="fill:#3febd5;"/>
    <path clip-path="url(#pa82a259d35)" d="M 409.20175 259.975229 
L 449.877796 281.83648 
L 449.040158 222.528295 
L 408.521375 214.854967 
z
" style="fill:#62fbc4;"/>
    <path clip-path="url(#pa82a259d35)" d="M 368.487867 258.628787 
L 409.20175 259.975229 
L 408.521375 214.854967 
L 367.972835 217.82006 
z
" style="fill:#72febb;"/>
    <path clip-path="url(#pa82a259d35)" d="M 327.740924 247.631942 
L 368.487867 258.628787 
L 367.972835 217.82006 
L 327.395812 213.755941 
z
" style="fill:#78ffb8;"/>
    <path clip-path="url(#pa82a259d35)" d="M 286.962509 240.060438 
L 327.740924 247.631942 
L 327.395812 213.755941 
L 286.78539 205.283086 
z
" style="fill:#8bfeae;"/>
    <path clip-path="url(#pa82a259d35)" d="M 246.146647 228.199526 
L 286.962509 240.060438 
L 286.78539 205.283086 
L 246.14293 197.221383 
z
" style="fill:#9efaa2;"/>
    <path clip-path="url(#pa82a259d35)" d="M 205.294311 215.505824 
L 246.146647 228.199526 
L 246.14293 197.221383 
L 205.46789 188.976762 
z
" style="fill:#b4f295;"/>
    <path clip-path="url(#pa82a259d35)" d="M 532.369927 299.932882 
L 573.135863 304.571555 
L 571.708005 312.468604 
L 531.125494 307.576608 
z
" style="fill:#2489f5;"/>
    <path clip-path="url(#pa82a259d35)" d="M 491.577475 290.8753 
L 532.369927 299.932882 
L 531.125494 307.576608 
L 490.515536 299.435575 
z
" style="fill:#149df1;"/>
    <path clip-path="url(#pa82a259d35)" d="M 450.749098 287.105527 
L 491.577475 290.8753 
L 490.515536 299.435575 
L 449.877796 281.83648 
z
" style="fill:#00b5eb;"/>
    <path clip-path="url(#pa82a259d35)" d="M 409.889874 290.94278 
L 450.749098 287.105527 
L 449.877796 281.83648 
L 409.20175 259.975229 
z
" style="fill:#17cbe4;"/>
    <path clip-path="url(#pa82a259d35)" d="M 369.002323 274.842166 
L 409.889874 290.94278 
L 409.20175 259.975229 
L 368.487867 258.628787 
z
" style="fill:#2adddd;"/>
    <path clip-path="url(#pa82a259d35)" d="M 328.081274 267.587729 
L 369.002323 274.842166 
L 368.487867 258.628787 
L 327.740924 247.631942 
z
" style="fill:#3dead5;"/>
    <path clip-path="url(#pa82a259d35)" d="M 287.124666 256.516237 
L 328.081274 267.587729 
L 327.740924 247.631942 
L 286.962509 240.060438 
z
" style="fill:#52f5cb;"/>
    <path clip-path="url(#pa82a259d35)" d="M 246.135895 247.637741 
L 287.124666 256.516237 
L 286.962509 240.060438 
L 246.146647 228.199526 
z
" style="fill:#66fcc2;"/>
    <path clip-path="url(#pa82a259d35)" d="M 205.109526 236.0771 
L 246.135895 247.637741 
L 246.146647 228.199526 
L 205.294311 215.505824 
z
" style="fill:#7effb5;"/>
    <path clip-path="url(#pa82a259d35)" d="M 533.626886 291.200256 
L 574.576403 296.793122 
L 573.135863 304.571555 
L 532.369927 299.932882 
z
" style="fill:#10a2f0;"/>
    <path clip-path="url(#pa82a259d35)" d="M 492.649188 282.113108 
L 533.626886 291.200256 
L 532.369927 299.932882 
L 491.577475 290.8753 
z
" style="fill:#01b3ec;"/>
    <path clip-path="url(#pa82a259d35)" d="M 451.635856 277.076344 
L 492.649188 282.113108 
L 491.577475 290.8753 
L 450.749098 287.105527 
z
" style="fill:#0fc4e7;"/>
    <path clip-path="url(#pa82a259d35)" d="M 410.591379 274.058538 
L 451.635856 277.076344 
L 450.749098 287.105527 
L 409.889874 290.94278 
z
" style="fill:#12c8e6;"/>
    <path clip-path="url(#pa82a259d35)" d="M 369.517302 270.289848 
L 410.591379 274.058538 
L 409.889874 290.94278 
L 369.002323 274.842166 
z
" style="fill:#1dd1e2;"/>
    <path clip-path="url(#pa82a259d35)" d="M 328.411529 263.369862 
L 369.517302 270.289848 
L 369.002323 274.842166 
L 328.081274 267.587729 
z
" style="fill:#2fe0db;"/>
    <path clip-path="url(#pa82a259d35)" d="M 287.276389 259.688054 
L 328.411529 263.369862 
L 328.081274 267.587729 
L 287.124666 256.516237 
z
" style="fill:#3febd5;"/>
    <path clip-path="url(#pa82a259d35)" d="M 246.102193 248.645006 
L 287.276389 259.688054 
L 287.124666 256.516237 
L 246.135895 247.637741 
z
" style="fill:#52f5cb;"/>
    <path clip-path="url(#pa82a259d35)" d="M 204.890787 236.29627 
L 246.102193 248.645006 
L 246.135895 247.637741 
L 205.109526 236.0771 
z
" style="fill:#6afdc0;"/>
    <path clip-path="url(#pa82a259d35)" d="M 534.895044 282.632407 
L 576.03224 287.55834 
L 574.576403 296.793122 
L 533.626886 291.200256 
z
" style="fill:#04b9ea;"/>
    <path clip-path="url(#pa82a259d35)" d="M 493.731415 272.444071 
L 534.895044 282.632407 
L 533.626886 291.200256 
L 492.649188 282.113108 
z
" style="fill:#14cae5;"/>
    <path clip-path="url(#pa82a259d35)" d="M 452.529991 268.437436 
L 493.731415 272.444071 
L 492.649188 282.113108 
L 451.635856 277.076344 
z
" style="fill:#22d6e0;"/>
    <path clip-path="url(#pa82a259d35)" d="M 411.298629 261.756704 
L 452.529991 268.437436 
L 451.635856 277.076344 
L 410.591379 274.058538 
z
" style="fill:#2ddedc;"/>
    <path clip-path="url(#pa82a259d35)" d="M 370.035397 257.22351 
L 411.298629 261.756704 
L 410.591379 274.058538 
L 369.517302 270.289848 
z
" style="fill:#37e6d8;"/>
    <path clip-path="url(#pa82a259d35)" d="M 328.740827 251.68304 
L 370.035397 257.22351 
L 369.517302 270.289848 
L 328.411529 263.369862 
z
" style="fill:#42edd3;"/>
    <path clip-path="url(#pa82a259d35)" d="M 287.414644 246.054123 
L 328.740827 251.68304 
L 328.411529 263.369862 
L 287.276389 259.688054 
z
" style="fill:#4ef3cd;"/>
    <path clip-path="url(#pa82a259d35)" d="M 246.055135 239.044307 
L 287.414644 246.054123 
L 287.276389 259.688054 
L 246.102193 248.645006 
z
" style="fill:#5df9c7;"/>
    <path clip-path="url(#pa82a259d35)" d="M 204.659698 229.940642 
L 246.055135 239.044307 
L 246.102193 248.645006 
L 204.890787 236.29627 
z
" style="fill:#72febb;"/>
    <path clip-path="url(#pa82a259d35)" d="M 536.17492 273.926458 
L 577.500981 278.543152 
L 576.03224 287.55834 
L 534.895044 282.632407 
z
" style="fill:#18cde4;"/>
    <path clip-path="url(#pa82a259d35)" d="M 494.824526 261.623387 
L 536.17492 273.926458 
L 534.895044 282.632407 
L 493.731415 272.444071 
z
" style="fill:#28dbde;"/>
    <path clip-path="url(#pa82a259d35)" d="M 453.434575 255.41355 
L 494.824526 261.623387 
L 493.731415 272.444071 
L 452.529991 268.437436 
z
" style="fill:#3ae8d6;"/>
    <path clip-path="url(#pa82a259d35)" d="M 412.012073 251.414339 
L 453.434575 255.41355 
L 452.529991 268.437436 
L 411.298629 261.756704 
z
" style="fill:#46efd1;"/>
    <path clip-path="url(#pa82a259d35)" d="M 370.558452 244.896879 
L 412.012073 251.414339 
L 411.298629 261.756704 
L 370.035397 257.22351 
z
" style="fill:#52f5cb;"/>
    <path clip-path="url(#pa82a259d35)" d="M 329.073251 240.037528 
L 370.558452 244.896879 
L 370.035397 257.22351 
L 328.740827 251.68304 
z
" style="fill:#5df9c7;"/>
    <path clip-path="url(#pa82a259d35)" d="M 287.555749 234.074028 
L 329.073251 240.037528 
L 328.740827 251.68304 
L 287.414644 246.054123 
z
" style="fill:#68fcc1;"/>
    <path clip-path="url(#pa82a259d35)" d="M 246.003826 226.250674 
L 287.555749 234.074028 
L 287.414644 246.054123 
L 246.055135 239.044307 
z
" style="fill:#76ffb9;"/>
    <path clip-path="url(#pa82a259d35)" d="M 204.422821 221.205391 
L 246.003826 226.250674 
L 246.055135 239.044307 
L 204.659698 229.940642 
z
" style="fill:#86ffb0;"/>
    <path clip-path="url(#pa82a259d35)" d="M 537.467747 264.208201 
L 578.981783 270.39097 
L 577.500981 278.543152 
L 536.17492 273.926458 
z
" style="fill:#2ddedc;"/>
    <path clip-path="url(#pa82a259d35)" d="M 495.926869 251.723222 
L 537.467747 264.208201 
L 536.17492 273.926458 
L 494.824526 261.623387 
z
" style="fill:#3febd5;"/>
    <path clip-path="url(#pa82a259d35)" d="M 454.345933 245.394434 
L 495.926869 251.723222 
L 494.824526 261.623387 
L 453.434575 255.41355 
z
" style="fill:#52f5cb;"/>
    <path clip-path="url(#pa82a259d35)" d="M 412.732423 239.285171 
L 454.345933 245.394434 
L 453.434575 255.41355 
L 412.012073 251.414339 
z
" style="fill:#5efac6;"/>
    <path clip-path="url(#pa82a259d35)" d="M 371.08638 232.513004 
L 412.732423 239.285171 
L 412.012073 251.414339 
L 370.558452 244.896879 
z
" style="fill:#6dfdbf;"/>
    <path clip-path="url(#pa82a259d35)" d="M 329.407831 226.513677 
L 371.08638 232.513004 
L 370.558452 244.896879 
L 329.073251 240.037528 
z
" style="fill:#78ffb8;"/>
    <path clip-path="url(#pa82a259d35)" d="M 287.697288 220.982262 
L 329.407831 226.513677 
L 329.073251 240.037528 
L 287.555749 234.074028 
z
" style="fill:#84ffb2;"/>
    <path clip-path="url(#pa82a259d35)" d="M 245.949873 211.577096 
L 287.697288 220.982262 
L 287.555749 234.074028 
L 246.003826 226.250674 
z
" style="fill:#94fda8;"/>
    <path clip-path="url(#pa82a259d35)" d="M 204.171344 204.544149 
L 245.949873 211.577096 
L 246.003826 226.250674 
L 204.422821 221.205391 
z
" style="fill:#a4f89f;"/>
    <path clip-path="url(#pa82a259d35)" d="M 538.738907 281.59908 
L 580.435935 287.551352 
L 578.981783 270.39097 
L 537.467747 264.208201 
z
" style="fill:#24d8df;"/>
    <path clip-path="url(#pa82a259d35)" d="M 497.016685 267.427951 
L 538.738907 281.59908 
L 537.467747 264.208201 
L 495.926869 251.723222 
z
" style="fill:#38e7d7;"/>
    <path clip-path="url(#pa82a259d35)" d="M 455.251471 262.049397 
L 497.016685 267.427951 
L 495.926869 251.723222 
L 454.345933 245.394434 
z
" style="fill:#4df3ce;"/>
    <path clip-path="url(#pa82a259d35)" d="M 413.454331 255.492279 
L 455.251471 262.049397 
L 454.345933 245.394434 
L 412.732423 239.285171 
z
" style="fill:#5af8c8;"/>
    <path clip-path="url(#pa82a259d35)" d="M 371.623965 247.63833 
L 413.454331 255.492279 
L 412.732423 239.285171 
L 371.08638 232.513004 
z
" style="fill:#68fcc1;"/>
    <path clip-path="url(#pa82a259d35)" d="M 329.760671 241.739588 
L 371.623965 247.63833 
L 371.08638 232.513004 
L 329.407831 226.513677 
z
" style="fill:#76ffb9;"/>
    <path clip-path="url(#pa82a259d35)" d="M 287.863926 234.879368 
L 329.760671 241.739588 
L 329.407831 226.513677 
L 287.697288 220.982262 
z
" style="fill:#84ffb2;"/>
    <path clip-path="url(#pa82a259d35)" d="M 245.931259 225.902243 
L 287.863926 234.879368 
L 287.697288 220.982262 
L 245.949873 211.577096 
z
" style="fill:#94fda8;"/>
    <path clip-path="url(#pa82a259d35)" d="M 203.967593 219.357641 
L 245.931259 225.902243 
L 245.949873 211.577096 
L 204.171344 204.544149 
z
" style="fill:#a4f89f;"/>
    <path clip-path="url(#pa82a259d35)" d="M 540.023296 297.573695 
L 581.904979 303.614371 
L 580.435935 287.551352 
L 538.738907 281.59908 
z
" style="fill:#02b7eb;"/>
    <path clip-path="url(#pa82a259d35)" d="M 498.115974 283.51982 
L 540.023296 297.573695 
L 538.738907 281.59908 
L 497.016685 267.427951 
z
" style="fill:#17cbe4;"/>
    <path clip-path="url(#pa82a259d35)" d="M 456.16579 277.490943 
L 498.115974 283.51982 
L 497.016685 267.427951 
L 455.251471 262.049397 
z
" style="fill:#2ddedc;"/>
    <path clip-path="url(#pa82a259d35)" d="M 414.182829 270.941352 
L 456.16579 277.490943 
L 455.251471 262.049397 
L 413.454331 255.492279 
z
" style="fill:#38e7d7;"/>
    <path clip-path="url(#pa82a259d35)" d="M 372.166376 263.101387 
L 414.182829 270.941352 
L 413.454331 255.492279 
L 371.623965 247.63833 
z
" style="fill:#48f1d0;"/>
    <path clip-path="url(#pa82a259d35)" d="M 330.1164 256.607964 
L 372.166376 263.101387 
L 371.623965 247.63833 
L 329.760671 241.739588 
z
" style="fill:#56f7ca;"/>
    <path clip-path="url(#pa82a259d35)" d="M 288.033054 250.041994 
L 330.1164 256.607964 
L 329.760671 241.739588 
L 287.863926 234.879368 
z
" style="fill:#64fbc3;"/>
    <path clip-path="url(#pa82a259d35)" d="M 245.913162 240.911724 
L 288.033054 250.041994 
L 287.863926 234.879368 
L 245.931259 225.902243 
z
" style="fill:#76ffb9;"/>
    <path clip-path="url(#pa82a259d35)" d="M 203.766623 237.205107 
L 245.913162 240.911724 
L 245.931259 225.902243 
L 203.967593 219.357641 
z
" style="fill:#84ffb2;"/>
    <path clip-path="url(#pa82a259d35)" d="M 541.320523 312.603357 
L 583.391718 316.98114 
L 581.904979 303.614371 
L 540.023296 297.573695 
z
" style="fill:#1e91f3;"/>
    <path clip-path="url(#pa82a259d35)" d="M 499.225985 298.756401 
L 541.320523 312.603357 
L 540.023296 297.573695 
L 498.115974 283.51982 
z
" style="fill:#09a9ee;"/>
    <path clip-path="url(#pa82a259d35)" d="M 457.089019 291.738781 
L 499.225985 298.756401 
L 498.115974 283.51982 
L 456.16579 277.490943 
z
" style="fill:#0dc2e8;"/>
    <path clip-path="url(#pa82a259d35)" d="M 414.918394 283.7006 
L 457.089019 291.738781 
L 456.16579 277.490943 
L 414.182829 270.941352 
z
" style="fill:#1acfe3;"/>
    <path clip-path="url(#pa82a259d35)" d="M 372.713164 275.747801 
L 414.918394 283.7006 
L 414.182829 270.941352 
L 372.166376 263.101387 
z
" style="fill:#2ddedc;"/>
    <path clip-path="url(#pa82a259d35)" d="M 330.474189 269.431084 
L 372.713164 275.747801 
L 372.166376 263.101387 
L 330.1164 256.607964 
z
" style="fill:#3ae8d6;"/>
    <path clip-path="url(#pa82a259d35)" d="M 288.199858 260.949463 
L 330.474189 269.431084 
L 330.1164 256.607964 
L 288.033054 250.041994 
z
" style="fill:#48f1d0;"/>
    <path clip-path="url(#pa82a259d35)" d="M 245.887438 249.990517 
L 288.199858 260.949463 
L 288.033054 250.041994 
L 245.913162 240.911724 
z
" style="fill:#5df9c7;"/>
    <path clip-path="url(#pa82a259d35)" d="M 203.533008 235.779261 
L 245.887438 249.990517 
L 245.913162 240.911724 
L 203.766623 237.205107 
z
" style="fill:#70febc;"/>
    <path clip-path="url(#pa82a259d35)" d="M 542.633084 324.87807 
L 584.895873 328.002421 
L 583.391718 316.98114 
L 541.320523 312.603357 
z
" style="fill:#386df9;"/>
    <path clip-path="url(#pa82a259d35)" d="M 500.347708 312.231132 
L 542.633084 324.87807 
L 541.320523 312.603357 
L 499.225985 298.756401 
z
" style="fill:#2686f5;"/>
    <path clip-path="url(#pa82a259d35)" d="M 458.020697 305.877815 
L 500.347708 312.231132 
L 499.225985 298.756401 
L 457.089019 291.738781 
z
" style="fill:#10a2f0;"/>
    <path clip-path="url(#pa82a259d35)" d="M 415.660433 297.438163 
L 458.020697 305.877815 
L 457.089019 291.738781 
L 414.918394 283.7006 
z
" style="fill:#00b5eb;"/>
    <path clip-path="url(#pa82a259d35)" d="M 373.263561 280.018575 
L 415.660433 297.438163 
L 414.918394 283.7006 
L 372.713164 275.747801 
z
" style="fill:#17cbe4;"/>
    <path clip-path="url(#pa82a259d35)" d="M 330.835281 282.501462 
L 373.263561 280.018575 
L 372.713164 275.747801 
L 330.474189 269.431084 
z
" style="fill:#24d8df;"/>
    <path clip-path="url(#pa82a259d35)" d="M 288.358735 261.139494 
L 330.835281 282.501462 
L 330.474189 269.431084 
L 288.199858 260.949463 
z
" style="fill:#37e6d8;"/>
    <path clip-path="url(#pa82a259d35)" d="M 245.850773 250.456127 
L 288.358735 261.139494 
L 288.199858 260.949463 
L 245.887438 249.990517 
z
" style="fill:#52f5cb;"/>
    <path clip-path="url(#pa82a259d35)" d="M 203.301454 237.002766 
L 245.850773 250.456127 
L 245.887438 249.990517 
L 203.533008 235.779261 
z
" style="fill:#6dfdbf;"/>
    <path clip-path="url(#pa82a259d35)" d="M 543.961701 334.03597 
L 586.41867 336.099861 
L 584.895873 328.002421 
L 542.633084 324.87807 
z
" style="fill:#4c50fc;"/>
    <path clip-path="url(#pa82a259d35)" d="M 501.482925 322.225213 
L 543.961701 334.03597 
L 542.633084 324.87807 
L 500.347708 312.231132 
z
" style="fill:#3c68f9;"/>
    <path clip-path="url(#pa82a259d35)" d="M 458.963065 316.154926 
L 501.482925 322.225213 
L 500.347708 312.231132 
L 458.020697 305.877815 
z
" style="fill:#2884f6;"/>
    <path clip-path="url(#pa82a259d35)" d="M 416.412198 296.775347 
L 458.963065 316.154926 
L 458.020697 305.877815 
L 415.660433 297.438163 
z
" style="fill:#149df1;"/>
    <path clip-path="url(#pa82a259d35)" d="M 373.818443 280.436273 
L 416.412198 296.775347 
L 415.660433 297.438163 
L 373.263561 280.018575 
z
" style="fill:#0dc2e8;"/>
    <path clip-path="url(#pa82a259d35)" d="M 331.186633 270.259508 
L 373.818443 280.436273 
L 373.263561 280.018575 
L 330.835281 282.501462 
z
" style="fill:#22d6e0;"/>
    <path clip-path="url(#pa82a259d35)" d="M 288.520152 262.550582 
L 331.186633 270.259508 
L 330.835281 282.501462 
L 288.358735 261.139494 
z
" style="fill:#37e6d8;"/>
    <path clip-path="url(#pa82a259d35)" d="M 245.81287 250.19738 
L 288.520152 262.550582 
L 288.358735 261.139494 
L 245.850773 250.456127 
z
" style="fill:#52f5cb;"/>
    <path clip-path="url(#pa82a259d35)" d="M 203.069791 239.520767 
L 245.81287 250.19738 
L 245.850773 250.456127 
L 203.301454 237.002766 
z
" style="fill:#6afdc0;"/>
    <path clip-path="url(#pa82a259d35)" d="M 545.305655 340.845802 
L 587.957917 342.787276 
L 586.41867 336.099861 
L 543.961701 334.03597 
z
" style="fill:#5a3bfd;"/>
    <path clip-path="url(#pa82a259d35)" d="M 502.63139 329.263444 
L 545.305655 340.845802 
L 543.961701 334.03597 
L 501.482925 322.225213 
z
" style="fill:#4c50fc;"/>
    <path clip-path="url(#pa82a259d35)" d="M 459.920873 314.658621 
L 502.63139 329.263444 
L 501.482925 322.225213 
L 458.963065 316.154926 
z
" style="fill:#3473f8;"/>
    <path clip-path="url(#pa82a259d35)" d="M 417.170235 299.666399 
L 459.920873 314.658621 
L 458.963065 316.154926 
L 416.412198 296.775347 
z
" style="fill:#1898f2;"/>
    <path clip-path="url(#pa82a259d35)" d="M 374.378394 280.101519 
L 417.170235 299.666399 
L 416.412198 296.775347 
L 373.818443 280.436273 
z
" style="fill:#0dc2e8;"/>
    <path clip-path="url(#pa82a259d35)" d="M 331.547887 270.759763 
L 374.378394 280.101519 
L 373.818443 280.436273 
L 331.186633 270.259508 
z
" style="fill:#2adddd;"/>
    <path clip-path="url(#pa82a259d35)" d="M 288.682298 263.081629 
L 331.547887 270.759763 
L 331.186633 270.259508 
L 288.520152 262.550582 
z
" style="fill:#3dead5;"/>
    <path clip-path="url(#pa82a259d35)" d="M 245.774641 249.959968 
L 288.682298 263.081629 
L 288.520152 262.550582 
L 245.81287 250.19738 
z
" style="fill:#52f5cb;"/>
    <path clip-path="url(#pa82a259d35)" d="M 202.830542 238.656672 
L 245.774641 249.959968 
L 245.81287 250.19738 
L 203.069791 239.520767 
z
" style="fill:#6afdc0;"/>
    <path clip-path="url(#pa82a259d35)" d="M 546.663107 346.909827 
L 589.509761 350.527928 
L 587.957917 342.787276 
L 545.305655 340.845802 
z
" style="fill:#6629fe;"/>
    <path clip-path="url(#pa82a259d35)" d="M 503.790656 336.187896 
L 546.663107 346.909827 
L 545.305655 340.845802 
L 502.63139 329.263444 
z
" style="fill:#583efd;"/>
    <path clip-path="url(#pa82a259d35)" d="M 460.88584 316.332722 
L 503.790656 336.187896 
L 502.63139 329.263444 
L 459.920873 314.658621 
z
" style="fill:#396bf9;"/>
    <path clip-path="url(#pa82a259d35)" d="M 417.935867 300.223032 
L 460.88584 316.332722 
L 459.920873 314.658621 
L 417.170235 299.666399 
z
" style="fill:#1898f2;"/>
    <path clip-path="url(#pa82a259d35)" d="M 374.944029 282.725347 
L 417.935867 300.223032 
L 417.170235 299.666399 
L 374.378394 280.101519 
z
" style="fill:#0ac0e8;"/>
    <path clip-path="url(#pa82a259d35)" d="M 331.913056 272.305079 
L 374.944029 282.725347 
L 374.378394 280.101519 
L 331.547887 270.759763 
z
" style="fill:#28dbde;"/>
    <path clip-path="url(#pa82a259d35)" d="M 288.844001 261.356557 
L 331.913056 272.305079 
L 331.547887 270.759763 
L 288.682298 263.081629 
z
" style="fill:#3dead5;"/>
    <path clip-path="url(#pa82a259d35)" d="M 245.736539 250.114706 
L 288.844001 261.356557 
L 288.682298 263.081629 
L 245.774641 249.959968 
z
" style="fill:#52f5cb;"/>
    <path clip-path="url(#pa82a259d35)" d="M 202.590069 238.428538 
L 245.736539 250.114706 
L 245.774641 249.959968 
L 202.830542 238.656672 
z
" style="fill:#6dfdbf;"/>
    <path clip-path="url(#pa82a259d35)" d="M 548.036979 350.164688 
L 591.077791 357.281319 
L 589.509761 350.527928 
L 546.663107 346.909827 
z
" style="fill:#7216ff;"/>
    <path clip-path="url(#pa82a259d35)" d="M 504.969919 333.517639 
L 548.036979 350.164688 
L 546.663107 346.909827 
L 503.790656 336.187896 
z
" style="fill:#5e35fe;"/>
    <path clip-path="url(#pa82a259d35)" d="M 461.859852 318.060484 
L 504.969919 333.517639 
L 503.790656 336.187896 
L 460.88584 316.332722 
z
" style="fill:#3c68f9;"/>
    <path clip-path="url(#pa82a259d35)" d="M 418.708622 301.175904 
L 461.859852 318.060484 
L 460.88584 316.332722 
L 417.935867 300.223032 
z
" style="fill:#1996f3;"/>
    <path clip-path="url(#pa82a259d35)" d="M 375.514509 282.00805 
L 418.708622 301.175904 
L 417.935867 300.223032 
L 374.944029 282.725347 
z
" style="fill:#0ac0e8;"/>
    <path clip-path="url(#pa82a259d35)" d="M 332.281352 273.24992 
L 375.514509 282.00805 
L 374.944029 282.725347 
L 331.913056 272.305079 
z
" style="fill:#28dbde;"/>
    <path clip-path="url(#pa82a259d35)" d="M 289.00947 262.19207 
L 332.281352 273.24992 
L 331.913056 272.305079 
L 288.844001 261.356557 
z
" style="fill:#3dead5;"/>
    <path clip-path="url(#pa82a259d35)" d="M 245.701125 252.743679 
L 289.00947 262.19207 
L 288.844001 261.356557 
L 245.736539 250.114706 
z
" style="fill:#52f5cb;"/>
    <path clip-path="url(#pa82a259d35)" d="M 202.349758 239.7227 
L 245.701125 252.743679 
L 245.736539 250.114706 
L 202.590069 238.428538 
z
" style="fill:#6afdc0;"/>
    <path clip-path="url(#pa82a259d35)" d="M 549.425939 351.822752 
L 592.655928 366.781429 
L 591.077791 357.281319 
L 548.036979 350.164688 
z
" style="fill:#7a09ff;"/>
    <path clip-path="url(#pa82a259d35)" d="M 506.156885 334.470677 
L 549.425939 351.822752 
L 548.036979 350.164688 
L 504.969919 333.517639 
z
" style="fill:#5e35fe;"/>
    <path clip-path="url(#pa82a259d35)" d="M 462.844148 317.985129 
L 506.156885 334.470677 
L 504.969919 333.517639 
L 461.859852 318.060484 
z
" style="fill:#3c68f9;"/>
    <path clip-path="url(#pa82a259d35)" d="M 419.48904 300.613823 
L 462.844148 317.985129 
L 461.859852 318.060484 
L 418.708622 301.175904 
z
" style="fill:#1996f3;"/>
    <path clip-path="url(#pa82a259d35)" d="M 376.0906 282.76543 
L 419.48904 300.613823 
L 418.708622 301.175904 
L 375.514509 282.00805 
z
" style="fill:#0dc2e8;"/>
    <path clip-path="url(#pa82a259d35)" d="M 332.653421 274.77736 
L 376.0906 282.76543 
L 375.514509 282.00805 
L 332.281352 273.24992 
z
" style="fill:#27dade;"/>
    <path clip-path="url(#pa82a259d35)" d="M 289.176659 263.21103 
L 332.653421 274.77736 
L 332.281352 273.24992 
L 289.00947 262.19207 
z
" style="fill:#3dead5;"/>
    <path clip-path="url(#pa82a259d35)" d="M 245.660425 251.381579 
L 289.176659 263.21103 
L 289.00947 262.19207 
L 245.701125 252.743679 
z
" style="fill:#52f5cb;"/>
    <path clip-path="url(#pa82a259d35)" d="M 202.105393 239.916674 
L 245.660425 251.381579 
L 245.701125 252.743679 
L 202.349758 239.7227 
z
" style="fill:#6afdc0;"/>
    <path clip-path="url(#pa82a259d35)" d="M 550.826449 354.703358 
L 594.2614 368.996435 
L 592.655928 366.781429 
L 549.425939 351.822752 
z
" style="fill:#8000ff;"/>
    <path clip-path="url(#pa82a259d35)" d="M 507.356396 334.123543 
L 550.826449 354.703358 
L 549.425939 351.822752 
L 506.156885 334.470677 
z
" style="fill:#5e35fe;"/>
    <path clip-path="url(#pa82a259d35)" d="M 463.837251 318.833034 
L 507.356396 334.123543 
L 506.156885 334.470677 
L 462.844148 317.985129 
z
" style="fill:#396bf9;"/>
    <path clip-path="url(#pa82a259d35)" d="M 420.276494 301.722528 
L 463.837251 318.833034 
L 462.844148 317.985129 
L 419.48904 300.613823 
z
" style="fill:#1898f2;"/>
    <path clip-path="url(#pa82a259d35)" d="M 376.671991 282.150799 
L 420.276494 301.722528 
L 419.48904 300.613823 
L 376.0906 282.76543 
z
" style="fill:#0dc2e8;"/>
    <path clip-path="url(#pa82a259d35)" d="M 333.027658 273.568627 
L 376.671991 282.150799 
L 376.0906 282.76543 
L 332.653421 274.77736 
z
" style="fill:#28dbde;"/>
    <path clip-path="url(#pa82a259d35)" d="M 289.345242 264.013572 
L 333.027658 273.568627 
L 332.653421 274.77736 
L 289.176659 263.21103 
z
" style="fill:#3ae8d6;"/>
    <path clip-path="url(#pa82a259d35)" d="M 245.622622 252.670684 
L 289.345242 264.013572 
L 289.176659 263.21103 
L 245.660425 251.381579 
z
" style="fill:#52f5cb;"/>
    <path clip-path="url(#pa82a259d35)" d="M 201.858584 240.041064 
L 245.622622 252.670684 
L 245.660425 251.381579 
L 202.105393 239.916674 
z
" style="fill:#6afdc0;"/>
   </g>
  </g>
 </g>
 <defs>
  <clipPath id="pa82a259d35">
   <rect height="476.64" width="763.2" x="0" y="0"/>
  </clipPath>
 </defs>
</svg>
