<?xml version="1.0" encoding="utf-8" standalone="no"?>
<!DOCTYPE svg PUBLIC "-//W3C//DTD SVG 1.1//EN"
  "http://www.w3.org/Graphics/SVG/1.1/DTD/svg11.dtd">
<!-- Created with matplotlib (https://matplotlib.org/) -->
<svg height="468pt" version="1.1" viewBox="0 0 711.36 468" width="711.36pt" xmlns="http://www.w3.org/2000/svg" xmlns:xlink="http://www.w3.org/1999/xlink">
 <defs>
  <style type="text/css">
*{stroke-linecap:butt;stroke-linejoin:round;}
  </style>
 </defs>
 <g id="figure_1">
  <g id="patch_1">
   <path d="M 0 468 
L 711.36 468 
L 711.36 0 
L 0 0 
z
" style="fill:#ffffff;"/>
  </g>
  <g id="axes_1">
   <g id="patch_2">
    <path d="M 88.92 416.52 
L 640.224 416.52 
L 640.224 56.16 
L 88.92 56.16 
z
" style="fill:#ffffff;"/>
   </g>
   <g id="matplotlib.axis_1">
    <g id="xtick_1">
     <g id="line2d_1">
      <defs>
       <path d="M 0 0 
L 0 3.5 
" id="m2407327322" style="stroke:#000000;stroke-width:0.8;"/>
      </defs>
      <g>
       <use style="stroke:#000000;stroke-width:0.8;" x="88.92" xlink:href="#m2407327322" y="416.52"/>
      </g>
     </g>
     <g id="text_1">
      <!-- 0.0 -->
      <defs>
       <path d="M 31.78125 66.40625 
Q 24.171875 66.40625 20.328125 58.90625 
Q 16.5 51.421875 16.5 36.375 
Q 16.5 21.390625 20.328125 13.890625 
Q 24.171875 6.390625 31.78125 6.390625 
Q 39.453125 6.390625 43.28125 13.890625 
Q 47.125 21.390625 47.125 36.375 
Q 47.125 51.421875 43.28125 58.90625 
Q 39.453125 66.40625 31.78125 66.40625 
z
M 31.78125 74.21875 
Q 44.046875 74.21875 50.515625 64.515625 
Q 56.984375 54.828125 56.984375 36.375 
Q 56.984375 17.96875 50.515625 8.265625 
Q 44.046875 -1.421875 31.78125 -1.421875 
Q 19.53125 -1.421875 13.0625 8.265625 
Q 6.59375 17.96875 6.59375 36.375 
Q 6.59375 54.828125 13.0625 64.515625 
Q 19.53125 74.21875 31.78125 74.21875 
z
" id="DejaVuSans-48"/>
       <path d="M 10.6875 12.40625 
L 21 12.40625 
L 21 0 
L 10.6875 0 
z
" id="DejaVuSans-46"/>
      </defs>
      <g transform="translate(80.968438 431.118438)scale(0.1 -0.1)">
       <use xlink:href="#DejaVuSans-48"/>
       <use x="63.623047" xlink:href="#DejaVuSans-46"/>
       <use x="95.410156" xlink:href="#DejaVuSans-48"/>
      </g>
     </g>
    </g>
    <g id="xtick_2">
     <g id="line2d_2">
      <g>
       <use style="stroke:#000000;stroke-width:0.8;" x="199.1808" xlink:href="#m2407327322" y="416.52"/>
      </g>
     </g>
     <g id="text_2">
      <!-- 0.2 -->
      <defs>
       <path d="M 19.1875 8.296875 
L 53.609375 8.296875 
L 53.609375 0 
L 7.328125 0 
L 7.328125 8.296875 
Q 12.9375 14.109375 22.625 23.890625 
Q 32.328125 33.6875 34.8125 36.53125 
Q 39.546875 41.84375 41.421875 45.53125 
Q 43.3125 49.21875 43.3125 52.78125 
Q 43.3125 58.59375 39.234375 62.25 
Q 35.15625 65.921875 28.609375 65.921875 
Q 23.96875 65.921875 18.8125 64.3125 
Q 13.671875 62.703125 7.8125 59.421875 
L 7.8125 69.390625 
Q 13.765625 71.78125 18.9375 73 
Q 24.125 74.21875 28.421875 74.21875 
Q 39.75 74.21875 46.484375 68.546875 
Q 53.21875 62.890625 53.21875 53.421875 
Q 53.21875 48.921875 51.53125 44.890625 
Q 49.859375 40.875 45.40625 35.40625 
Q 44.1875 33.984375 37.640625 27.21875 
Q 31.109375 20.453125 19.1875 8.296875 
z
" id="DejaVuSans-50"/>
      </defs>
      <g transform="translate(191.229238 431.118438)scale(0.1 -0.1)">
       <use xlink:href="#DejaVuSans-48"/>
       <use x="63.623047" xlink:href="#DejaVuSans-46"/>
       <use x="95.410156" xlink:href="#DejaVuSans-50"/>
      </g>
     </g>
    </g>
    <g id="xtick_3">
     <g id="line2d_3">
      <g>
       <use style="stroke:#000000;stroke-width:0.8;" x="309.4416" xlink:href="#m2407327322" y="416.52"/>
      </g>
     </g>
     <g id="text_3">
      <!-- 0.4 -->
      <defs>
       <path d="M 37.796875 64.3125 
L 12.890625 25.390625 
L 37.796875 25.390625 
z
M 35.203125 72.90625 
L 47.609375 72.90625 
L 47.609375 25.390625 
L 58.015625 25.390625 
L 58.015625 17.1875 
L 47.609375 17.1875 
L 47.609375 0 
L 37.796875 0 
L 37.796875 17.1875 
L 4.890625 17.1875 
L 4.890625 26.703125 
z
" id="DejaVuSans-52"/>
      </defs>
      <g transform="translate(301.490038 431.118438)scale(0.1 -0.1)">
       <use xlink:href="#DejaVuSans-48"/>
       <use x="63.623047" xlink:href="#DejaVuSans-46"/>
       <use x="95.410156" xlink:href="#DejaVuSans-52"/>
      </g>
     </g>
    </g>
    <g id="xtick_4">
     <g id="line2d_4">
      <g>
       <use style="stroke:#000000;stroke-width:0.8;" x="419.7024" xlink:href="#m2407327322" y="416.52"/>
      </g>
     </g>
     <g id="text_4">
      <!-- 0.6 -->
      <defs>
       <path d="M 33.015625 40.375 
Q 26.375 40.375 22.484375 35.828125 
Q 18.609375 31.296875 18.609375 23.390625 
Q 18.609375 15.53125 22.484375 10.953125 
Q 26.375 6.390625 33.015625 6.390625 
Q 39.65625 6.390625 43.53125 10.953125 
Q 47.40625 15.53125 47.40625 23.390625 
Q 47.40625 31.296875 43.53125 35.828125 
Q 39.65625 40.375 33.015625 40.375 
z
M 52.59375 71.296875 
L 52.59375 62.3125 
Q 48.875 64.0625 45.09375 64.984375 
Q 41.3125 65.921875 37.59375 65.921875 
Q 27.828125 65.921875 22.671875 59.328125 
Q 17.53125 52.734375 16.796875 39.40625 
Q 19.671875 43.65625 24.015625 45.921875 
Q 28.375 48.1875 33.59375 48.1875 
Q 44.578125 48.1875 50.953125 41.515625 
Q 57.328125 34.859375 57.328125 23.390625 
Q 57.328125 12.15625 50.6875 5.359375 
Q 44.046875 -1.421875 33.015625 -1.421875 
Q 20.359375 -1.421875 13.671875 8.265625 
Q 6.984375 17.96875 6.984375 36.375 
Q 6.984375 53.65625 15.1875 63.9375 
Q 23.390625 74.21875 37.203125 74.21875 
Q 40.921875 74.21875 44.703125 73.484375 
Q 48.484375 72.75 52.59375 71.296875 
z
" id="DejaVuSans-54"/>
      </defs>
      <g transform="translate(411.750838 431.118438)scale(0.1 -0.1)">
       <use xlink:href="#DejaVuSans-48"/>
       <use x="63.623047" xlink:href="#DejaVuSans-46"/>
       <use x="95.410156" xlink:href="#DejaVuSans-54"/>
      </g>
     </g>
    </g>
    <g id="xtick_5">
     <g id="line2d_5">
      <g>
       <use style="stroke:#000000;stroke-width:0.8;" x="529.9632" xlink:href="#m2407327322" y="416.52"/>
      </g>
     </g>
     <g id="text_5">
      <!-- 0.8 -->
      <defs>
       <path d="M 31.78125 34.625 
Q 24.75 34.625 20.71875 30.859375 
Q 16.703125 27.09375 16.703125 20.515625 
Q 16.703125 13.921875 20.71875 10.15625 
Q 24.75 6.390625 31.78125 6.390625 
Q 38.8125 6.390625 42.859375 10.171875 
Q 46.921875 13.96875 46.921875 20.515625 
Q 46.921875 27.09375 42.890625 30.859375 
Q 38.875 34.625 31.78125 34.625 
z
M 21.921875 38.8125 
Q 15.578125 40.375 12.03125 44.71875 
Q 8.5 49.078125 8.5 55.328125 
Q 8.5 64.0625 14.71875 69.140625 
Q 20.953125 74.21875 31.78125 74.21875 
Q 42.671875 74.21875 48.875 69.140625 
Q 55.078125 64.0625 55.078125 55.328125 
Q 55.078125 49.078125 51.53125 44.71875 
Q 48 40.375 41.703125 38.8125 
Q 48.828125 37.15625 52.796875 32.3125 
Q 56.78125 27.484375 56.78125 20.515625 
Q 56.78125 9.90625 50.3125 4.234375 
Q 43.84375 -1.421875 31.78125 -1.421875 
Q 19.734375 -1.421875 13.25 4.234375 
Q 6.78125 9.90625 6.78125 20.515625 
Q 6.78125 27.484375 10.78125 32.3125 
Q 14.796875 37.15625 21.921875 38.8125 
z
M 18.3125 54.390625 
Q 18.3125 48.734375 21.84375 45.5625 
Q 25.390625 42.390625 31.78125 42.390625 
Q 38.140625 42.390625 41.71875 45.5625 
Q 45.3125 48.734375 45.3125 54.390625 
Q 45.3125 60.0625 41.71875 63.234375 
Q 38.140625 66.40625 31.78125 66.40625 
Q 25.390625 66.40625 21.84375 63.234375 
Q 18.3125 60.0625 18.3125 54.390625 
z
" id="DejaVuSans-56"/>
      </defs>
      <g transform="translate(522.011638 431.118438)scale(0.1 -0.1)">
       <use xlink:href="#DejaVuSans-48"/>
       <use x="63.623047" xlink:href="#DejaVuSans-46"/>
       <use x="95.410156" xlink:href="#DejaVuSans-56"/>
      </g>
     </g>
    </g>
    <g id="xtick_6">
     <g id="line2d_6">
      <g>
       <use style="stroke:#000000;stroke-width:0.8;" x="640.224" xlink:href="#m2407327322" y="416.52"/>
      </g>
     </g>
     <g id="text_6">
      <!-- 1.0 -->
      <defs>
       <path d="M 12.40625 8.296875 
L 28.515625 8.296875 
L 28.515625 63.921875 
L 10.984375 60.40625 
L 10.984375 69.390625 
L 28.421875 72.90625 
L 38.28125 72.90625 
L 38.28125 8.296875 
L 54.390625 8.296875 
L 54.390625 0 
L 12.40625 0 
z
" id="DejaVuSans-49"/>
      </defs>
      <g transform="translate(632.272438 431.118438)scale(0.1 -0.1)">
       <use xlink:href="#DejaVuSans-49"/>
       <use x="63.623047" xlink:href="#DejaVuSans-46"/>
       <use x="95.410156" xlink:href="#DejaVuSans-48"/>
      </g>
     </g>
    </g>
    <g id="text_7">
     <!-- Dealer's Points -->
     <defs>
      <path d="M 19.671875 64.796875 
L 19.671875 8.109375 
L 31.59375 8.109375 
Q 46.6875 8.109375 53.6875 14.9375 
Q 60.6875 21.78125 60.6875 36.53125 
Q 60.6875 51.171875 53.6875 57.984375 
Q 46.6875 64.796875 31.59375 64.796875 
z
M 9.8125 72.90625 
L 30.078125 72.90625 
Q 51.265625 72.90625 61.171875 64.09375 
Q 71.09375 55.28125 71.09375 36.53125 
Q 71.09375 17.671875 61.125 8.828125 
Q 51.171875 0 30.078125 0 
L 9.8125 0 
z
" id="DejaVuSans-68"/>
      <path d="M 56.203125 29.59375 
L 56.203125 25.203125 
L 14.890625 25.203125 
Q 15.484375 15.921875 20.484375 11.0625 
Q 25.484375 6.203125 34.421875 6.203125 
Q 39.59375 6.203125 44.453125 7.46875 
Q 49.3125 8.734375 54.109375 11.28125 
L 54.109375 2.78125 
Q 49.265625 0.734375 44.1875 -0.34375 
Q 39.109375 -1.421875 33.890625 -1.421875 
Q 20.796875 -1.421875 13.15625 6.1875 
Q 5.515625 13.8125 5.515625 26.8125 
Q 5.515625 40.234375 12.765625 48.109375 
Q 20.015625 56 32.328125 56 
Q 43.359375 56 49.78125 48.890625 
Q 56.203125 41.796875 56.203125 29.59375 
z
M 47.21875 32.234375 
Q 47.125 39.59375 43.09375 43.984375 
Q 39.0625 48.390625 32.421875 48.390625 
Q 24.90625 48.390625 20.390625 44.140625 
Q 15.875 39.890625 15.1875 32.171875 
z
" id="DejaVuSans-101"/>
      <path d="M 34.28125 27.484375 
Q 23.390625 27.484375 19.1875 25 
Q 14.984375 22.515625 14.984375 16.5 
Q 14.984375 11.71875 18.140625 8.90625 
Q 21.296875 6.109375 26.703125 6.109375 
Q 34.1875 6.109375 38.703125 11.40625 
Q 43.21875 16.703125 43.21875 25.484375 
L 43.21875 27.484375 
z
M 52.203125 31.203125 
L 52.203125 0 
L 43.21875 0 
L 43.21875 8.296875 
Q 40.140625 3.328125 35.546875 0.953125 
Q 30.953125 -1.421875 24.3125 -1.421875 
Q 15.921875 -1.421875 10.953125 3.296875 
Q 6 8.015625 6 15.921875 
Q 6 25.140625 12.171875 29.828125 
Q 18.359375 34.515625 30.609375 34.515625 
L 43.21875 34.515625 
L 43.21875 35.40625 
Q 43.21875 41.609375 39.140625 45 
Q 35.0625 48.390625 27.6875 48.390625 
Q 23 48.390625 18.546875 47.265625 
Q 14.109375 46.140625 10.015625 43.890625 
L 10.015625 52.203125 
Q 14.9375 54.109375 19.578125 55.046875 
Q 24.21875 56 28.609375 56 
Q 40.484375 56 46.34375 49.84375 
Q 52.203125 43.703125 52.203125 31.203125 
z
" id="DejaVuSans-97"/>
      <path d="M 9.421875 75.984375 
L 18.40625 75.984375 
L 18.40625 0 
L 9.421875 0 
z
" id="DejaVuSans-108"/>
      <path d="M 41.109375 46.296875 
Q 39.59375 47.171875 37.8125 47.578125 
Q 36.03125 48 33.890625 48 
Q 26.265625 48 22.1875 43.046875 
Q 18.109375 38.09375 18.109375 28.8125 
L 18.109375 0 
L 9.078125 0 
L 9.078125 54.6875 
L 18.109375 54.6875 
L 18.109375 46.1875 
Q 20.953125 51.171875 25.484375 53.578125 
Q 30.03125 56 36.53125 56 
Q 37.453125 56 38.578125 55.875 
Q 39.703125 55.765625 41.0625 55.515625 
z
" id="DejaVuSans-114"/>
      <path d="M 17.921875 72.90625 
L 17.921875 45.796875 
L 9.625 45.796875 
L 9.625 72.90625 
z
" id="DejaVuSans-39"/>
      <path d="M 44.28125 53.078125 
L 44.28125 44.578125 
Q 40.484375 46.53125 36.375 47.5 
Q 32.28125 48.484375 27.875 48.484375 
Q 21.1875 48.484375 17.84375 46.4375 
Q 14.5 44.390625 14.5 40.28125 
Q 14.5 37.15625 16.890625 35.375 
Q 19.28125 33.59375 26.515625 31.984375 
L 29.59375 31.296875 
Q 39.15625 29.25 43.1875 25.515625 
Q 47.21875 21.78125 47.21875 15.09375 
Q 47.21875 7.46875 41.1875 3.015625 
Q 35.15625 -1.421875 24.609375 -1.421875 
Q 20.21875 -1.421875 15.453125 -0.5625 
Q 10.6875 0.296875 5.421875 2 
L 5.421875 11.28125 
Q 10.40625 8.6875 15.234375 7.390625 
Q 20.0625 6.109375 24.8125 6.109375 
Q 31.15625 6.109375 34.5625 8.28125 
Q 37.984375 10.453125 37.984375 14.40625 
Q 37.984375 18.0625 35.515625 20.015625 
Q 33.0625 21.96875 24.703125 23.78125 
L 21.578125 24.515625 
Q 13.234375 26.265625 9.515625 29.90625 
Q 5.8125 33.546875 5.8125 39.890625 
Q 5.8125 47.609375 11.28125 51.796875 
Q 16.75 56 26.8125 56 
Q 31.78125 56 36.171875 55.265625 
Q 40.578125 54.546875 44.28125 53.078125 
z
" id="DejaVuSans-115"/>
      <path id="DejaVuSans-32"/>
      <path d="M 19.671875 64.796875 
L 19.671875 37.40625 
L 32.078125 37.40625 
Q 38.96875 37.40625 42.71875 40.96875 
Q 46.484375 44.53125 46.484375 51.125 
Q 46.484375 57.671875 42.71875 61.234375 
Q 38.96875 64.796875 32.078125 64.796875 
z
M 9.8125 72.90625 
L 32.078125 72.90625 
Q 44.34375 72.90625 50.609375 67.359375 
Q 56.890625 61.8125 56.890625 51.125 
Q 56.890625 40.328125 50.609375 34.8125 
Q 44.34375 29.296875 32.078125 29.296875 
L 19.671875 29.296875 
L 19.671875 0 
L 9.8125 0 
z
" id="DejaVuSans-80"/>
      <path d="M 30.609375 48.390625 
Q 23.390625 48.390625 19.1875 42.75 
Q 14.984375 37.109375 14.984375 27.296875 
Q 14.984375 17.484375 19.15625 11.84375 
Q 23.34375 6.203125 30.609375 6.203125 
Q 37.796875 6.203125 41.984375 11.859375 
Q 46.1875 17.53125 46.1875 27.296875 
Q 46.1875 37.015625 41.984375 42.703125 
Q 37.796875 48.390625 30.609375 48.390625 
z
M 30.609375 56 
Q 42.328125 56 49.015625 48.375 
Q 55.71875 40.765625 55.71875 27.296875 
Q 55.71875 13.875 49.015625 6.21875 
Q 42.328125 -1.421875 30.609375 -1.421875 
Q 18.84375 -1.421875 12.171875 6.21875 
Q 5.515625 13.875 5.515625 27.296875 
Q 5.515625 40.765625 12.171875 48.375 
Q 18.84375 56 30.609375 56 
z
" id="DejaVuSans-111"/>
      <path d="M 9.421875 54.6875 
L 18.40625 54.6875 
L 18.40625 0 
L 9.421875 0 
z
M 9.421875 75.984375 
L 18.40625 75.984375 
L 18.40625 64.59375 
L 9.421875 64.59375 
z
" id="DejaVuSans-105"/>
      <path d="M 54.890625 33.015625 
L 54.890625 0 
L 45.90625 0 
L 45.90625 32.71875 
Q 45.90625 40.484375 42.875 44.328125 
Q 39.84375 48.1875 33.796875 48.1875 
Q 26.515625 48.1875 22.3125 43.546875 
Q 18.109375 38.921875 18.109375 30.90625 
L 18.109375 0 
L 9.078125 0 
L 9.078125 54.6875 
L 18.109375 54.6875 
L 18.109375 46.1875 
Q 21.34375 51.125 25.703125 53.5625 
Q 30.078125 56 35.796875 56 
Q 45.21875 56 50.046875 50.171875 
Q 54.890625 44.34375 54.890625 33.015625 
z
" id="DejaVuSans-110"/>
      <path d="M 18.3125 70.21875 
L 18.3125 54.6875 
L 36.8125 54.6875 
L 36.8125 47.703125 
L 18.3125 47.703125 
L 18.3125 18.015625 
Q 18.3125 11.328125 20.140625 9.421875 
Q 21.96875 7.515625 27.59375 7.515625 
L 36.8125 7.515625 
L 36.8125 0 
L 27.59375 0 
Q 17.1875 0 13.234375 3.875 
Q 9.28125 7.765625 9.28125 18.015625 
L 9.28125 47.703125 
L 2.6875 47.703125 
L 2.6875 54.6875 
L 9.28125 54.6875 
L 9.28125 70.21875 
z
" id="DejaVuSans-116"/>
     </defs>
     <g transform="translate(327.297781 444.796562)scale(0.1 -0.1)">
      <use xlink:href="#DejaVuSans-68"/>
      <use x="77.001953" xlink:href="#DejaVuSans-101"/>
      <use x="138.525391" xlink:href="#DejaVuSans-97"/>
      <use x="199.804688" xlink:href="#DejaVuSans-108"/>
      <use x="227.587891" xlink:href="#DejaVuSans-101"/>
      <use x="289.111328" xlink:href="#DejaVuSans-114"/>
      <use x="330.224609" xlink:href="#DejaVuSans-39"/>
      <use x="357.714844" xlink:href="#DejaVuSans-115"/>
      <use x="409.814453" xlink:href="#DejaVuSans-32"/>
      <use x="441.601562" xlink:href="#DejaVuSans-80"/>
      <use x="501.857422" xlink:href="#DejaVuSans-111"/>
      <use x="563.039062" xlink:href="#DejaVuSans-105"/>
      <use x="590.822266" xlink:href="#DejaVuSans-110"/>
      <use x="654.201172" xlink:href="#DejaVuSans-116"/>
      <use x="693.410156" xlink:href="#DejaVuSans-115"/>
     </g>
    </g>
   </g>
   <g id="matplotlib.axis_2">
    <g id="ytick_1">
     <g id="line2d_7">
      <defs>
       <path d="M 0 0 
L -3.5 0 
" id="m9ce7a51854" style="stroke:#000000;stroke-width:0.8;"/>
      </defs>
      <g>
       <use style="stroke:#000000;stroke-width:0.8;" x="88.92" xlink:href="#m9ce7a51854" y="416.52"/>
      </g>
     </g>
     <g id="text_8">
      <!-- 0.0 -->
      <g transform="translate(66.016875 420.319219)scale(0.1 -0.1)">
       <use xlink:href="#DejaVuSans-48"/>
       <use x="63.623047" xlink:href="#DejaVuSans-46"/>
       <use x="95.410156" xlink:href="#DejaVuSans-48"/>
      </g>
     </g>
    </g>
    <g id="ytick_2">
     <g id="line2d_8">
      <g>
       <use style="stroke:#000000;stroke-width:0.8;" x="88.92" xlink:href="#m9ce7a51854" y="344.448"/>
      </g>
     </g>
     <g id="text_9">
      <!-- 0.2 -->
      <g transform="translate(66.016875 348.247219)scale(0.1 -0.1)">
       <use xlink:href="#DejaVuSans-48"/>
       <use x="63.623047" xlink:href="#DejaVuSans-46"/>
       <use x="95.410156" xlink:href="#DejaVuSans-50"/>
      </g>
     </g>
    </g>
    <g id="ytick_3">
     <g id="line2d_9">
      <g>
       <use style="stroke:#000000;stroke-width:0.8;" x="88.92" xlink:href="#m9ce7a51854" y="272.376"/>
      </g>
     </g>
     <g id="text_10">
      <!-- 0.4 -->
      <g transform="translate(66.016875 276.175219)scale(0.1 -0.1)">
       <use xlink:href="#DejaVuSans-48"/>
       <use x="63.623047" xlink:href="#DejaVuSans-46"/>
       <use x="95.410156" xlink:href="#DejaVuSans-52"/>
      </g>
     </g>
    </g>
    <g id="ytick_4">
     <g id="line2d_10">
      <g>
       <use style="stroke:#000000;stroke-width:0.8;" x="88.92" xlink:href="#m9ce7a51854" y="200.304"/>
      </g>
     </g>
     <g id="text_11">
      <!-- 0.6 -->
      <g transform="translate(66.016875 204.103219)scale(0.1 -0.1)">
       <use xlink:href="#DejaVuSans-48"/>
       <use x="63.623047" xlink:href="#DejaVuSans-46"/>
       <use x="95.410156" xlink:href="#DejaVuSans-54"/>
      </g>
     </g>
    </g>
    <g id="ytick_5">
     <g id="line2d_11">
      <g>
       <use style="stroke:#000000;stroke-width:0.8;" x="88.92" xlink:href="#m9ce7a51854" y="128.232"/>
      </g>
     </g>
     <g id="text_12">
      <!-- 0.8 -->
      <g transform="translate(66.016875 132.031219)scale(0.1 -0.1)">
       <use xlink:href="#DejaVuSans-48"/>
       <use x="63.623047" xlink:href="#DejaVuSans-46"/>
       <use x="95.410156" xlink:href="#DejaVuSans-56"/>
      </g>
     </g>
    </g>
    <g id="ytick_6">
     <g id="line2d_12">
      <g>
       <use style="stroke:#000000;stroke-width:0.8;" x="88.92" xlink:href="#m9ce7a51854" y="56.16"/>
      </g>
     </g>
     <g id="text_13">
      <!-- 1.0 -->
      <g transform="translate(66.016875 59.959219)scale(0.1 -0.1)">
       <use xlink:href="#DejaVuSans-49"/>
       <use x="63.623047" xlink:href="#DejaVuSans-46"/>
       <use x="95.410156" xlink:href="#DejaVuSans-48"/>
      </g>
     </g>
    </g>
    <g id="text_14">
     <!-- Your Points -->
     <defs>
      <path d="M -0.203125 72.90625 
L 10.40625 72.90625 
L 30.609375 42.921875 
L 50.6875 72.90625 
L 61.28125 72.90625 
L 35.5 34.71875 
L 35.5 0 
L 25.59375 0 
L 25.59375 34.71875 
z
" id="DejaVuSans-89"/>
      <path d="M 8.5 21.578125 
L 8.5 54.6875 
L 17.484375 54.6875 
L 17.484375 21.921875 
Q 17.484375 14.15625 20.5 10.265625 
Q 23.53125 6.390625 29.59375 6.390625 
Q 36.859375 6.390625 41.078125 11.03125 
Q 45.3125 15.671875 45.3125 23.6875 
L 45.3125 54.6875 
L 54.296875 54.6875 
L 54.296875 0 
L 45.3125 0 
L 45.3125 8.40625 
Q 42.046875 3.421875 37.71875 1 
Q 33.40625 -1.421875 27.6875 -1.421875 
Q 18.265625 -1.421875 13.375 4.4375 
Q 8.5 10.296875 8.5 21.578125 
z
M 31.109375 56 
z
" id="DejaVuSans-117"/>
     </defs>
     <g transform="translate(59.937187 264.450938)rotate(-90)scale(0.1 -0.1)">
      <use xlink:href="#DejaVuSans-89"/>
      <use x="60.880859" xlink:href="#DejaVuSans-111"/>
      <use x="122.0625" xlink:href="#DejaVuSans-117"/>
      <use x="185.441406" xlink:href="#DejaVuSans-114"/>
      <use x="226.554688" xlink:href="#DejaVuSans-32"/>
      <use x="258.341797" xlink:href="#DejaVuSans-80"/>
      <use x="318.597656" xlink:href="#DejaVuSans-111"/>
      <use x="379.779297" xlink:href="#DejaVuSans-105"/>
      <use x="407.5625" xlink:href="#DejaVuSans-110"/>
      <use x="470.941406" xlink:href="#DejaVuSans-116"/>
      <use x="510.150391" xlink:href="#DejaVuSans-115"/>
     </g>
    </g>
   </g>
   <g id="patch_3">
    <path d="M 88.92 416.52 
L 88.92 56.16 
" style="fill:none;stroke:#000000;stroke-linecap:square;stroke-linejoin:miter;stroke-width:0.8;"/>
   </g>
   <g id="patch_4">
    <path d="M 640.224 416.52 
L 640.224 56.16 
" style="fill:none;stroke:#000000;stroke-linecap:square;stroke-linejoin:miter;stroke-width:0.8;"/>
   </g>
   <g id="patch_5">
    <path d="M 88.92 416.52 
L 640.224 416.52 
" style="fill:none;stroke:#000000;stroke-linecap:square;stroke-linejoin:miter;stroke-width:0.8;"/>
   </g>
   <g id="patch_6">
    <path d="M 88.92 56.16 
L 640.224 56.16 
" style="fill:none;stroke:#000000;stroke-linecap:square;stroke-linejoin:miter;stroke-width:0.8;"/>
   </g>
  </g>
  <g id="patch_7">
   <path d="M 0 468 
L 711.36 468 
L 711.36 0 
L 0 0 
z
" style="fill:#ffffff;"/>
  </g>
  <g id="pane3d_1">
   <g id="patch_8">
    <path d="M 108.164565 309.074409 
L 447.00461 251.687242 
L 451.102872 32.070549 
L 94.741205 83.478471 
" style="fill:#f2f2f2;opacity:0.5;stroke:#f2f2f2;stroke-linejoin:miter;"/>
   </g>
  </g>
  <g id="pane3d_2">
   <g id="patch_9">
    <path d="M 447.00461 251.687242 
L 632.656626 370.173697 
L 647.200138 138.432771 
L 451.102872 32.070549 
" style="fill:#e6e6e6;opacity:0.5;stroke:#e6e6e6;stroke-linejoin:miter;"/>
   </g>
  </g>
  <g id="pane3d_3">
   <g id="patch_10">
    <path d="M 108.164565 309.074409 
L 273.314112 437.343056 
L 632.656626 370.173697 
L 447.00461 251.687242 
" style="fill:#ececec;opacity:0.5;stroke:#ececec;stroke-linejoin:miter;"/>
   </g>
  </g>
  <g id="axis3d_1">
   <g id="line2d_13">
    <path d="M 108.164565 309.074409 
L 273.314112 437.343056 
" style="fill:none;stroke:#000000;stroke-linecap:square;stroke-width:0.8;"/>
   </g>
   <g id="Line3DCollection_1">
    <path d="M 132.950002 328.324807 
L 474.940984 269.516739 
L 480.510132 48.020907 
" style="fill:none;stroke:#b0b0b0;stroke-width:0.8;"/>
    <path d="M 163.720962 352.224051 
L 509.587398 291.628703 
L 517.030239 67.829239 
" style="fill:none;stroke:#b0b0b0;stroke-width:0.8;"/>
    <path d="M 195.453057 376.869792 
L 545.27382 314.404419 
L 554.704037 88.263327 
" style="fill:none;stroke:#b0b0b0;stroke-width:0.8;"/>
    <path d="M 228.192034 402.29756 
L 582.047792 337.874229 
L 593.587072 109.3533 
" style="fill:none;stroke:#b0b0b0;stroke-width:0.8;"/>
    <path d="M 261.986589 428.545176 
L 619.959798 362.070353 
L 633.738514 131.13125 
" style="fill:none;stroke:#b0b0b0;stroke-width:0.8;"/>
   </g>
   <g id="xtick_7">
    <g id="line2d_14">
     <path d="M 135.792631 327.835994 
L 127.259375 329.303355 
" style="fill:none;stroke:#000000;stroke-linecap:square;stroke-width:0.8;"/>
    </g>
    <g id="text_15">
     <!-- 2 -->
     <g transform="translate(116.90194 346.300204)scale(0.1 -0.1)">
      <use xlink:href="#DejaVuSans-50"/>
     </g>
    </g>
   </g>
   <g id="xtick_8">
    <g id="line2d_15">
     <path d="M 166.597462 351.720092 
L 157.962444 353.232936 
" style="fill:none;stroke:#000000;stroke-linecap:square;stroke-width:0.8;"/>
    </g>
    <g id="text_16">
     <!-- 4 -->
     <g transform="translate(147.462365 370.349044)scale(0.1 -0.1)">
      <use xlink:href="#DejaVuSans-52"/>
     </g>
    </g>
   </g>
   <g id="xtick_9">
    <g id="line2d_16">
     <path d="M 198.364175 376.349971 
L 189.625151 377.910446 
" style="fill:none;stroke:#000000;stroke-linecap:square;stroke-width:0.8;"/>
    </g>
    <g id="text_17">
     <!-- 6 -->
     <g transform="translate(178.976948 395.148736)scale(0.1 -0.1)">
      <use xlink:href="#DejaVuSans-54"/>
     </g>
    </g>
   </g>
   <g id="xtick_10">
    <g id="line2d_17">
     <path d="M 231.138536 401.761117 
L 222.2932 403.371507 
" style="fill:none;stroke:#000000;stroke-linecap:square;stroke-width:0.8;"/>
    </g>
    <g id="text_18">
     <!-- 8 -->
     <g transform="translate(211.491082 420.735004)scale(0.1 -0.1)">
      <use xlink:href="#DejaVuSans-56"/>
     </g>
    </g>
   </g>
   <g id="xtick_11">
    <g id="line2d_18">
     <path d="M 264.969262 427.9913 
L 256.015247 429.654041 
" style="fill:none;stroke:#000000;stroke-linecap:square;stroke-width:0.8;"/>
    </g>
    <g id="text_19">
     <!-- 10 -->
     <g transform="translate(241.871839 447.145871)scale(0.1 -0.1)">
      <use xlink:href="#DejaVuSans-49"/>
      <use x="63.623047" xlink:href="#DejaVuSans-48"/>
     </g>
    </g>
   </g>
  </g>
  <g id="axis3d_2">
   <g id="line2d_19">
    <path d="M 632.656626 370.173697 
L 273.314112 437.343056 
" style="fill:none;stroke:#000000;stroke-linecap:square;stroke-width:0.8;"/>
   </g>
   <g id="Line3DCollection_2">
    <path d="M 102.153651 82.409168 
L 115.19911 307.883013 
L 280.797125 435.94431 
" style="fill:none;stroke:#b0b0b0;stroke-width:0.8;"/>
    <path d="M 142.37299 76.607218 
L 153.377934 301.41691 
L 321.393008 428.356008 
" style="fill:none;stroke:#b0b0b0;stroke-width:0.8;"/>
    <path d="M 182.237171 70.856502 
L 191.236191 295.0051 
L 361.619829 420.836692 
" style="fill:none;stroke:#b0b0b0;stroke-width:0.8;"/>
    <path d="M 221.750877 65.156345 
L 228.777903 288.646901 
L 401.482597 413.385426 
" style="fill:none;stroke:#b0b0b0;stroke-width:0.8;"/>
    <path d="M 260.91871 59.506083 
L 266.007024 282.341643 
L 440.986233 406.00129 
" style="fill:none;stroke:#b0b0b0;stroke-width:0.8;"/>
    <path d="M 299.745192 53.905063 
L 302.92744 276.088669 
L 480.135568 398.683382 
" style="fill:none;stroke:#b0b0b0;stroke-width:0.8;"/>
    <path d="M 338.234764 48.352645 
L 339.542977 269.88733 
L 518.935346 391.430813 
" style="fill:none;stroke:#b0b0b0;stroke-width:0.8;"/>
    <path d="M 376.391794 42.848199 
L 375.857394 263.73699 
L 557.39023 384.242713 
" style="fill:none;stroke:#b0b0b0;stroke-width:0.8;"/>
    <path d="M 414.220573 37.391106 
L 411.874392 257.637022 
L 595.504797 377.118226 
" style="fill:none;stroke:#b0b0b0;stroke-width:0.8;"/>
   </g>
   <g id="xtick_12">
    <g id="line2d_20">
     <path d="M 279.362684 434.835019 
L 283.671762 438.167342 
" style="fill:none;stroke:#000000;stroke-linecap:square;stroke-width:0.8;"/>
    </g>
    <g id="text_20">
     <!-- 0.0 -->
     <g transform="translate(279.741591 457.189978)scale(0.1 -0.1)">
      <use xlink:href="#DejaVuSans-48"/>
      <use x="63.623047" xlink:href="#DejaVuSans-46"/>
      <use x="95.410156" xlink:href="#DejaVuSans-48"/>
     </g>
    </g>
   </g>
   <g id="xtick_13">
    <g id="line2d_21">
     <path d="M 319.938138 427.256821 
L 324.30856 430.558771 
" style="fill:none;stroke:#000000;stroke-linecap:square;stroke-width:0.8;"/>
    </g>
    <g id="text_21">
     <!-- 2.5 -->
     <defs>
      <path d="M 10.796875 72.90625 
L 49.515625 72.90625 
L 49.515625 64.59375 
L 19.828125 64.59375 
L 19.828125 46.734375 
Q 21.96875 47.46875 24.109375 47.828125 
Q 26.265625 48.1875 28.421875 48.1875 
Q 40.625 48.1875 47.75 41.5 
Q 54.890625 34.8125 54.890625 23.390625 
Q 54.890625 11.625 47.5625 5.09375 
Q 40.234375 -1.421875 26.90625 -1.421875 
Q 22.3125 -1.421875 17.546875 -0.640625 
Q 12.796875 0.140625 7.71875 1.703125 
L 7.71875 11.625 
Q 12.109375 9.234375 16.796875 8.0625 
Q 21.484375 6.890625 26.703125 6.890625 
Q 35.15625 6.890625 40.078125 11.328125 
Q 45.015625 15.765625 45.015625 23.390625 
Q 45.015625 31 40.078125 35.4375 
Q 35.15625 39.890625 26.703125 39.890625 
Q 22.75 39.890625 18.8125 39.015625 
Q 14.890625 38.140625 10.796875 36.28125 
z
" id="DejaVuSans-53"/>
     </defs>
     <g transform="translate(320.351062 449.530856)scale(0.1 -0.1)">
      <use xlink:href="#DejaVuSans-50"/>
      <use x="63.623047" xlink:href="#DejaVuSans-46"/>
      <use x="95.410156" xlink:href="#DejaVuSans-53"/>
     </g>
    </g>
   </g>
   <g id="xtick_14">
    <g id="line2d_22">
     <path d="M 360.144959 419.747473 
L 364.575433 423.019462 
" style="fill:none;stroke:#000000;stroke-linecap:square;stroke-width:0.8;"/>
    </g>
    <g id="text_22">
     <!-- 5.0 -->
     <g transform="translate(360.590939 441.941442)scale(0.1 -0.1)">
      <use xlink:href="#DejaVuSans-53"/>
      <use x="63.623047" xlink:href="#DejaVuSans-46"/>
      <use x="95.410156" xlink:href="#DejaVuSans-48"/>
     </g>
    </g>
   </g>
   <g id="xtick_15">
    <g id="line2d_23">
     <path d="M 399.988149 412.306039 
L 404.47741 415.548474 
" style="fill:none;stroke:#000000;stroke-linecap:square;stroke-width:0.8;"/>
    </g>
    <g id="text_23">
     <!-- 7.5 -->
     <defs>
      <path d="M 8.203125 72.90625 
L 55.078125 72.90625 
L 55.078125 68.703125 
L 28.609375 0 
L 18.3125 0 
L 43.21875 64.59375 
L 8.203125 64.59375 
z
" id="DejaVuSans-55"/>
     </defs>
     <g transform="translate(400.466244 434.420788)scale(0.1 -0.1)">
      <use xlink:href="#DejaVuSans-55"/>
      <use x="63.623047" xlink:href="#DejaVuSans-46"/>
      <use x="95.410156" xlink:href="#DejaVuSans-53"/>
     </g>
    </g>
   </g>
   <g id="xtick_16">
    <g id="line2d_24">
     <path d="M 439.472617 404.931602 
L 444.019429 408.144882 
" style="fill:none;stroke:#000000;stroke-linecap:square;stroke-width:0.8;"/>
    </g>
    <g id="text_24">
     <!-- 10.0 -->
     <g transform="translate(436.800659 426.967963)scale(0.1 -0.1)">
      <use xlink:href="#DejaVuSans-49"/>
      <use x="63.623047" xlink:href="#DejaVuSans-48"/>
      <use x="127.246094" xlink:href="#DejaVuSans-46"/>
      <use x="159.033203" xlink:href="#DejaVuSans-48"/>
     </g>
    </g>
   </g>
   <g id="xtick_17">
    <g id="line2d_25">
     <path d="M 478.603188 397.623263 
L 483.206339 400.807779 
" style="fill:none;stroke:#000000;stroke-linecap:square;stroke-width:0.8;"/>
    </g>
    <g id="text_25">
     <!-- 12.5 -->
     <g transform="translate(475.961529 419.582054)scale(0.1 -0.1)">
      <use xlink:href="#DejaVuSans-49"/>
      <use x="63.623047" xlink:href="#DejaVuSans-50"/>
      <use x="127.246094" xlink:href="#DejaVuSans-46"/>
      <use x="159.033203" xlink:href="#DejaVuSans-53"/>
     </g>
    </g>
   </g>
   <g id="xtick_18">
    <g id="line2d_26">
     <path d="M 517.384596 390.380136 
L 522.042903 393.536272 
" style="fill:none;stroke:#000000;stroke-linecap:square;stroke-width:0.8;"/>
    </g>
    <g id="text_26">
     <!-- 15.0 -->
     <g transform="translate(514.77236 412.262164)scale(0.1 -0.1)">
      <use xlink:href="#DejaVuSans-49"/>
      <use x="63.623047" xlink:href="#DejaVuSans-53"/>
      <use x="127.246094" xlink:href="#DejaVuSans-46"/>
      <use x="159.033203" xlink:href="#DejaVuSans-48"/>
     </g>
    </g>
   </g>
   <g id="xtick_19">
    <g id="line2d_27">
     <path d="M 555.821496 383.201351 
L 560.533796 386.329486 
" style="fill:none;stroke:#000000;stroke-linecap:square;stroke-width:0.8;"/>
    </g>
    <g id="text_27">
     <!-- 17.5 -->
     <g transform="translate(553.237824 405.007412)scale(0.1 -0.1)">
      <use xlink:href="#DejaVuSans-49"/>
      <use x="63.623047" xlink:href="#DejaVuSans-55"/>
      <use x="127.246094" xlink:href="#DejaVuSans-46"/>
      <use x="159.033203" xlink:href="#DejaVuSans-53"/>
     </g>
    </g>
   </g>
   <g id="xtick_20">
    <g id="line2d_28">
     <path d="M 593.918458 376.086057 
L 598.683615 379.18656 
" style="fill:none;stroke:#000000;stroke-linecap:square;stroke-width:0.8;"/>
    </g>
    <g id="text_28">
     <!-- 20.0 -->
     <g transform="translate(591.362512 397.816932)scale(0.1 -0.1)">
      <use xlink:href="#DejaVuSans-50"/>
      <use x="63.623047" xlink:href="#DejaVuSans-48"/>
      <use x="127.246094" xlink:href="#DejaVuSans-46"/>
      <use x="159.033203" xlink:href="#DejaVuSans-48"/>
     </g>
    </g>
   </g>
  </g>
  <g id="axis3d_3">
   <g id="line2d_29">
    <path d="M 632.656626 370.173697 
L 647.200138 138.432771 
" style="fill:none;stroke:#000000;stroke-linecap:square;stroke-width:0.8;"/>
   </g>
   <g id="text_29">
    <!-- Your Expected Reward -->
    <defs>
     <path d="M 9.8125 72.90625 
L 55.90625 72.90625 
L 55.90625 64.59375 
L 19.671875 64.59375 
L 19.671875 43.015625 
L 54.390625 43.015625 
L 54.390625 34.71875 
L 19.671875 34.71875 
L 19.671875 8.296875 
L 56.78125 8.296875 
L 56.78125 0 
L 9.8125 0 
z
" id="DejaVuSans-69"/>
     <path d="M 54.890625 54.6875 
L 35.109375 28.078125 
L 55.90625 0 
L 45.3125 0 
L 29.390625 21.484375 
L 13.484375 0 
L 2.875 0 
L 24.125 28.609375 
L 4.6875 54.6875 
L 15.28125 54.6875 
L 29.78125 35.203125 
L 44.28125 54.6875 
z
" id="DejaVuSans-120"/>
     <path d="M 18.109375 8.203125 
L 18.109375 -20.796875 
L 9.078125 -20.796875 
L 9.078125 54.6875 
L 18.109375 54.6875 
L 18.109375 46.390625 
Q 20.953125 51.265625 25.265625 53.625 
Q 29.59375 56 35.59375 56 
Q 45.5625 56 51.78125 48.09375 
Q 58.015625 40.1875 58.015625 27.296875 
Q 58.015625 14.40625 51.78125 6.484375 
Q 45.5625 -1.421875 35.59375 -1.421875 
Q 29.59375 -1.421875 25.265625 0.953125 
Q 20.953125 3.328125 18.109375 8.203125 
z
M 48.6875 27.296875 
Q 48.6875 37.203125 44.609375 42.84375 
Q 40.53125 48.484375 33.40625 48.484375 
Q 26.265625 48.484375 22.1875 42.84375 
Q 18.109375 37.203125 18.109375 27.296875 
Q 18.109375 17.390625 22.1875 11.75 
Q 26.265625 6.109375 33.40625 6.109375 
Q 40.53125 6.109375 44.609375 11.75 
Q 48.6875 17.390625 48.6875 27.296875 
z
" id="DejaVuSans-112"/>
     <path d="M 48.78125 52.59375 
L 48.78125 44.1875 
Q 44.96875 46.296875 41.140625 47.34375 
Q 37.3125 48.390625 33.40625 48.390625 
Q 24.65625 48.390625 19.8125 42.84375 
Q 14.984375 37.3125 14.984375 27.296875 
Q 14.984375 17.28125 19.8125 11.734375 
Q 24.65625 6.203125 33.40625 6.203125 
Q 37.3125 6.203125 41.140625 7.25 
Q 44.96875 8.296875 48.78125 10.40625 
L 48.78125 2.09375 
Q 45.015625 0.34375 40.984375 -0.53125 
Q 36.96875 -1.421875 32.421875 -1.421875 
Q 20.0625 -1.421875 12.78125 6.34375 
Q 5.515625 14.109375 5.515625 27.296875 
Q 5.515625 40.671875 12.859375 48.328125 
Q 20.21875 56 33.015625 56 
Q 37.15625 56 41.109375 55.140625 
Q 45.0625 54.296875 48.78125 52.59375 
z
" id="DejaVuSans-99"/>
     <path d="M 45.40625 46.390625 
L 45.40625 75.984375 
L 54.390625 75.984375 
L 54.390625 0 
L 45.40625 0 
L 45.40625 8.203125 
Q 42.578125 3.328125 38.25 0.953125 
Q 33.9375 -1.421875 27.875 -1.421875 
Q 17.96875 -1.421875 11.734375 6.484375 
Q 5.515625 14.40625 5.515625 27.296875 
Q 5.515625 40.1875 11.734375 48.09375 
Q 17.96875 56 27.875 56 
Q 33.9375 56 38.25 53.625 
Q 42.578125 51.265625 45.40625 46.390625 
z
M 14.796875 27.296875 
Q 14.796875 17.390625 18.875 11.75 
Q 22.953125 6.109375 30.078125 6.109375 
Q 37.203125 6.109375 41.296875 11.75 
Q 45.40625 17.390625 45.40625 27.296875 
Q 45.40625 37.203125 41.296875 42.84375 
Q 37.203125 48.484375 30.078125 48.484375 
Q 22.953125 48.484375 18.875 42.84375 
Q 14.796875 37.203125 14.796875 27.296875 
z
" id="DejaVuSans-100"/>
     <path d="M 44.390625 34.1875 
Q 47.5625 33.109375 50.5625 29.59375 
Q 53.5625 26.078125 56.59375 19.921875 
L 66.609375 0 
L 56 0 
L 46.6875 18.703125 
Q 43.0625 26.03125 39.671875 28.421875 
Q 36.28125 30.8125 30.421875 30.8125 
L 19.671875 30.8125 
L 19.671875 0 
L 9.8125 0 
L 9.8125 72.90625 
L 32.078125 72.90625 
Q 44.578125 72.90625 50.734375 67.671875 
Q 56.890625 62.453125 56.890625 51.90625 
Q 56.890625 45.015625 53.6875 40.46875 
Q 50.484375 35.9375 44.390625 34.1875 
z
M 19.671875 64.796875 
L 19.671875 38.921875 
L 32.078125 38.921875 
Q 39.203125 38.921875 42.84375 42.21875 
Q 46.484375 45.515625 46.484375 51.90625 
Q 46.484375 58.296875 42.84375 61.546875 
Q 39.203125 64.796875 32.078125 64.796875 
z
" id="DejaVuSans-82"/>
     <path d="M 4.203125 54.6875 
L 13.1875 54.6875 
L 24.421875 12.015625 
L 35.59375 54.6875 
L 46.1875 54.6875 
L 57.421875 12.015625 
L 68.609375 54.6875 
L 77.59375 54.6875 
L 63.28125 0 
L 52.6875 0 
L 40.921875 44.828125 
L 29.109375 0 
L 18.5 0 
z
" id="DejaVuSans-119"/>
    </defs>
    <g transform="translate(684.678654 319.147127)rotate(-86.408962)scale(0.1 -0.1)">
     <use xlink:href="#DejaVuSans-89"/>
     <use x="60.880859" xlink:href="#DejaVuSans-111"/>
     <use x="122.0625" xlink:href="#DejaVuSans-117"/>
     <use x="185.441406" xlink:href="#DejaVuSans-114"/>
     <use x="226.554688" xlink:href="#DejaVuSans-32"/>
     <use x="258.341797" xlink:href="#DejaVuSans-69"/>
     <use x="321.525391" xlink:href="#DejaVuSans-120"/>
     <use x="380.705078" xlink:href="#DejaVuSans-112"/>
     <use x="444.181641" xlink:href="#DejaVuSans-101"/>
     <use x="505.705078" xlink:href="#DejaVuSans-99"/>
     <use x="560.685547" xlink:href="#DejaVuSans-116"/>
     <use x="599.894531" xlink:href="#DejaVuSans-101"/>
     <use x="661.417969" xlink:href="#DejaVuSans-100"/>
     <use x="724.894531" xlink:href="#DejaVuSans-32"/>
     <use x="756.681641" xlink:href="#DejaVuSans-82"/>
     <use x="826.101562" xlink:href="#DejaVuSans-101"/>
     <use x="887.625" xlink:href="#DejaVuSans-119"/>
     <use x="969.412109" xlink:href="#DejaVuSans-97"/>
     <use x="1030.691406" xlink:href="#DejaVuSans-114"/>
     <use x="1071.789062" xlink:href="#DejaVuSans-100"/>
    </g>
   </g>
   <g id="Line3DCollection_3">
    <path d="M 633.302754 359.878098 
L 447.187387 241.892645 
L 107.567017 299.031872 
" style="fill:none;stroke:#b0b0b0;stroke-width:0.8;"/>
    <path d="M 635.227024 329.216164 
L 447.731337 212.743578 
L 105.788076 269.134603 
" style="fill:none;stroke:#b0b0b0;stroke-width:0.8;"/>
    <path d="M 637.179126 298.11075 
L 448.282561 183.204701 
L 103.984406 238.821736 
" style="fill:none;stroke:#b0b0b0;stroke-width:0.8;"/>
    <path d="M 639.159668 266.552163 
L 448.841206 153.26814 
L 102.155489 208.084545 
" style="fill:none;stroke:#b0b0b0;stroke-width:0.8;"/>
    <path d="M 641.169277 234.530429 
L 449.407424 122.925812 
L 100.300789 176.914057 
" style="fill:none;stroke:#b0b0b0;stroke-width:0.8;"/>
    <path d="M 643.208595 202.035276 
L 449.981368 92.16941 
L 98.419759 145.301046 
" style="fill:none;stroke:#b0b0b0;stroke-width:0.8;"/>
    <path d="M 645.278289 169.056127 
L 450.563199 60.990399 
L 96.511833 113.236021 
" style="fill:none;stroke:#b0b0b0;stroke-width:0.8;"/>
   </g>
   <g id="xtick_21">
    <g id="line2d_30">
     <path d="M 631.695177 358.858995 
L 636.524118 361.920241 
" style="fill:none;stroke:#000000;stroke-linecap:square;stroke-width:0.8;"/>
    </g>
    <g id="text_30">
     <!-- −0.4 -->
     <defs>
      <path d="M 10.59375 35.5 
L 73.1875 35.5 
L 73.1875 27.203125 
L 10.59375 27.203125 
z
" id="DejaVuSans-8722"/>
     </defs>
     <g transform="translate(641.663149 369.849319)scale(0.1 -0.1)">
      <use xlink:href="#DejaVuSans-8722"/>
      <use x="83.789062" xlink:href="#DejaVuSans-48"/>
      <use x="147.412109" xlink:href="#DejaVuSans-46"/>
      <use x="179.199219" xlink:href="#DejaVuSans-52"/>
     </g>
    </g>
   </g>
   <g id="xtick_22">
    <g id="line2d_31">
     <path d="M 633.606667 328.209596 
L 638.474044 331.233217 
" style="fill:none;stroke:#000000;stroke-linecap:square;stroke-width:0.8;"/>
    </g>
    <g id="text_31">
     <!-- −0.2 -->
     <g transform="translate(643.737741 339.158237)scale(0.1 -0.1)">
      <use xlink:href="#DejaVuSans-8722"/>
      <use x="83.789062" xlink:href="#DejaVuSans-48"/>
      <use x="147.412109" xlink:href="#DejaVuSans-46"/>
      <use x="179.199219" xlink:href="#DejaVuSans-50"/>
     </g>
    </g>
   </g>
   <g id="xtick_23">
    <g id="line2d_32">
     <path d="M 635.545786 297.117186 
L 640.452209 300.10177 
" style="fill:none;stroke:#000000;stroke-linecap:square;stroke-width:0.8;"/>
    </g>
    <g id="text_32">
     <!-- 0.0 -->
     <g transform="translate(650.032228 308.022578)scale(0.1 -0.1)">
      <use xlink:href="#DejaVuSans-48"/>
      <use x="63.623047" xlink:href="#DejaVuSans-46"/>
      <use x="95.410156" xlink:href="#DejaVuSans-48"/>
     </g>
    </g>
   </g>
   <g id="xtick_24">
    <g id="line2d_33">
     <path d="M 637.513137 265.572092 
L 642.459231 268.516175 
" style="fill:none;stroke:#000000;stroke-linecap:square;stroke-width:0.8;"/>
    </g>
    <g id="text_33">
     <!-- 0.2 -->
     <g transform="translate(652.167581 276.432614)scale(0.1 -0.1)">
      <use xlink:href="#DejaVuSans-48"/>
      <use x="63.623047" xlink:href="#DejaVuSans-46"/>
      <use x="95.410156" xlink:href="#DejaVuSans-50"/>
     </g>
    </g>
   </g>
   <g id="xtick_25">
    <g id="line2d_34">
     <path d="M 639.509342 233.564354 
L 644.495747 236.466422 
" style="fill:none;stroke:#000000;stroke-linecap:square;stroke-width:0.8;"/>
    </g>
    <g id="text_34">
     <!-- 0.4 -->
     <g transform="translate(654.33432 244.378327)scale(0.1 -0.1)">
      <use xlink:href="#DejaVuSans-48"/>
      <use x="63.623047" xlink:href="#DejaVuSans-46"/>
      <use x="95.410156" xlink:href="#DejaVuSans-52"/>
     </g>
    </g>
   </g>
   <g id="xtick_26">
    <g id="line2d_35">
     <path d="M 641.53504 201.08372 
L 646.562412 203.942202 
" style="fill:none;stroke:#000000;stroke-linecap:square;stroke-width:0.8;"/>
    </g>
    <g id="text_35">
     <!-- 0.6 -->
     <g transform="translate(656.533143 211.849405)scale(0.1 -0.1)">
      <use xlink:href="#DejaVuSans-48"/>
      <use x="63.623047" xlink:href="#DejaVuSans-46"/>
      <use x="95.410156" xlink:href="#DejaVuSans-54"/>
     </g>
    </g>
   </g>
   <g id="xtick_27">
    <g id="line2d_36">
     <path d="M 643.590888 168.11963 
L 648.6599 170.932902 
" style="fill:none;stroke:#000000;stroke-linecap:square;stroke-width:0.8;"/>
    </g>
    <g id="text_36">
     <!-- 0.8 -->
     <g transform="translate(658.764767 178.835226)scale(0.1 -0.1)">
      <use xlink:href="#DejaVuSans-48"/>
      <use x="63.623047" xlink:href="#DejaVuSans-46"/>
      <use x="95.410156" xlink:href="#DejaVuSans-56"/>
     </g>
    </g>
   </g>
  </g>
  <g id="axes_2">
   <g id="Poly3DCollection_1">
    <path clip-path="url(#p763586f704)" d="M 334.77507 175.337859 
L 351.477242 196.332614 
L 366.541445 193.329333 
L 349.789671 172.999394 
z
" style="fill:#6afdc0;"/>
    <path clip-path="url(#p763586f704)" d="M 349.789671 172.999394 
L 366.541445 193.329333 
L 381.615375 174.715702 
L 364.750966 153.448768 
z
" style="fill:#7effb5;"/>
    <path clip-path="url(#p763586f704)" d="M 319.652721 172.188633 
L 336.307317 190.460392 
L 351.477242 196.332614 
L 334.77507 175.337859 
z
" style="fill:#72febb;"/>
    <path clip-path="url(#p763586f704)" d="M 364.750966 153.448768 
L 381.615375 174.715702 
L 396.818596 145.956928 
L 379.793671 128.544575 
z
" style="fill:#b4f295;"/>
    <path clip-path="url(#p763586f704)" d="M 351.477242 196.332614 
L 368.355169 216.460589 
L 383.482435 211.625774 
L 366.541445 193.329333 
z
" style="fill:#52f5cb;"/>
    <path clip-path="url(#p763586f704)" d="M 366.541445 193.329333 
L 383.482435 211.625774 
L 398.658921 195.502845 
L 381.615375 174.715702 
z
" style="fill:#66fcc2;"/>
    <path clip-path="url(#p763586f704)" d="M 304.414385 167.079769 
L 321.002077 181.940789 
L 336.307317 190.460392 
L 319.652721 172.188633 
z
" style="fill:#86ffb0;"/>
    <path clip-path="url(#p763586f704)" d="M 379.793671 128.544575 
L 396.818596 145.956928 
L 412.100639 121.702994 
L 394.946587 101.984163 
z
" style="fill:#f0c46c;"/>
    <path clip-path="url(#p763586f704)" d="M 336.307317 190.460392 
L 353.153248 207.193512 
L 368.355169 216.460589 
L 351.477242 196.332614 
z
" style="fill:#5df9c7;"/>
    <path clip-path="url(#p763586f704)" d="M 381.615375 174.715702 
L 398.658921 195.502845 
L 414.050643 163.426947 
L 396.818596 145.956928 
z
" style="fill:#9efaa2;"/>
    <path clip-path="url(#p763586f704)" d="M 394.946587 101.984163 
L 412.100639 121.702994 
L 427.519293 94.39283 
L 410.149804 81.445422 
z
" style="fill:#ff8143;"/>
    <path clip-path="url(#p763586f704)" d="M 288.960118 155.365279 
L 305.548098 171.868588 
L 321.002077 181.940789 
L 304.414385 167.079769 
z
" style="fill:#a4f89f;"/>
    <path clip-path="url(#p763586f704)" d="M 243.554732 187.999607 
L 259.98625 210.537087 
L 275.219317 200.841909 
L 258.920155 186.972429 
z
" style="fill:#70febc;"/>
    <path clip-path="url(#p763586f704)" d="M 258.920155 186.972429 
L 275.219317 200.841909 
L 290.364959 186.138412 
L 273.896207 169.988253 
z
" style="fill:#84ffb2;"/>
    <path clip-path="url(#p763586f704)" d="M 383.482435 211.625774 
L 400.609031 231.997125 
L 415.926377 212.864004 
L 398.658921 195.502845 
z
" style="fill:#52f5cb;"/>
    <path clip-path="url(#p763586f704)" d="M 368.355169 216.460589 
L 385.447663 230.622056 
L 400.609031 231.997125 
L 383.482435 211.625774 
z
" style="fill:#3febd5;"/>
    <path clip-path="url(#p763586f704)" d="M 273.896207 169.988253 
L 290.364959 186.138412 
L 305.548098 171.868588 
L 288.960118 155.365279 
z
" style="fill:#a4f89f;"/>
    <path clip-path="url(#p763586f704)" d="M 228.193916 191.210391 
L 244.555921 213.125213 
L 259.98625 210.537087 
L 243.554732 187.999607 
z
" style="fill:#6dfdbf;"/>
    <path clip-path="url(#p763586f704)" d="M 321.002077 181.940789 
L 337.826501 199.344096 
L 353.153248 207.193512 
L 336.307317 190.460392 
z
" style="fill:#76ffb9;"/>
    <path clip-path="url(#p763586f704)" d="M 410.149804 81.445422 
L 427.519293 94.39283 
L 442.942728 73.513034 
L 425.39736 62.798563 
z
" style="fill:#ff381c;"/>
    <path clip-path="url(#p763586f704)" d="M 396.818596 145.956928 
L 414.050643 163.426947 
L 429.556693 133.745733 
L 412.100639 121.702994 
z
" style="fill:#e0d377;"/>
    <path clip-path="url(#p763586f704)" d="M 212.821397 195.476698 
L 229.054409 215.127595 
L 244.555921 213.125213 
L 228.193916 191.210391 
z
" style="fill:#6afdc0;"/>
    <path clip-path="url(#p763586f704)" d="M 425.39736 62.798563 
L 442.942728 73.513034 
L 458.370533 55.910952 
L 440.60706 49.881509 
z
" style="fill:#ff0000;"/>
    <path clip-path="url(#p763586f704)" d="M 353.153248 207.193512 
L 370.213661 222.978104 
L 385.447663 230.622056 
L 368.355169 216.460589 
z
" style="fill:#4ef3cd;"/>
    <path clip-path="url(#p763586f704)" d="M 398.658921 195.502845 
L 415.926377 212.864004 
L 431.487722 181.472217 
L 414.050643 163.426947 
z
" style="fill:#8bfeae;"/>
    <path clip-path="url(#p763586f704)" d="M 197.303657 196.990018 
L 213.496195 217.156712 
L 229.054409 215.127595 
L 212.821397 195.476698 
z
" style="fill:#6afdc0;"/>
    <path clip-path="url(#p763586f704)" d="M 412.100639 121.702994 
L 429.556693 133.745733 
L 445.081685 110.438045 
L 427.519293 94.39283 
z
" style="fill:#ff914c;"/>
    <path clip-path="url(#p763586f704)" d="M 305.548098 171.868588 
L 322.366282 190.587307 
L 337.826501 199.344096 
L 321.002077 181.940789 
z
" style="fill:#94fda8;"/>
    <path clip-path="url(#p763586f704)" d="M 259.98625 210.537087 
L 276.528618 230.636301 
L 291.821024 219.407182 
L 275.219317 200.841909 
z
" style="fill:#5df9c7;"/>
    <path clip-path="url(#p763586f704)" d="M 400.609031 231.997125 
L 417.963567 249.372288 
L 433.362926 233.374321 
L 415.926377 212.864004 
z
" style="fill:#3dead5;"/>
    <path clip-path="url(#p763586f704)" d="M 275.219317 200.841909 
L 291.821024 219.407182 
L 307.072854 204.535956 
L 290.364959 186.138412 
z
" style="fill:#76ffb9;"/>
    <path clip-path="url(#p763586f704)" d="M 181.747146 199.030659 
L 197.892568 219.513052 
L 213.496195 217.156712 
L 197.303657 196.990018 
z
" style="fill:#6dfdbf;"/>
    <path clip-path="url(#p763586f704)" d="M 244.555921 213.125213 
L 261.033553 233.00611 
L 276.528618 230.636301 
L 259.98625 210.537087 
z
" style="fill:#52f5cb;"/>
    <path clip-path="url(#p763586f704)" d="M 385.447663 230.622056 
L 402.755384 247.722547 
L 417.963567 249.372288 
L 400.609031 231.997125 
z
" style="fill:#2fe0db;"/>
    <path clip-path="url(#p763586f704)" d="M 290.364959 186.138412 
L 307.072854 204.535956 
L 322.366282 190.587307 
L 305.548098 171.868588 
z
" style="fill:#94fda8;"/>
    <path clip-path="url(#p763586f704)" d="M 337.826501 199.344096 
L 354.855987 215.398172 
L 370.213661 222.978104 
L 353.153248 207.193512 
z
" style="fill:#68fcc1;"/>
    <path clip-path="url(#p763586f704)" d="M 166.188964 202.308312 
L 182.316304 223.874476 
L 197.892568 219.513052 
L 181.747146 199.030659 
z
" style="fill:#6afdc0;"/>
    <path clip-path="url(#p763586f704)" d="M 229.054409 215.127595 
L 245.510398 236.380751 
L 261.033553 233.00611 
L 244.555921 213.125213 
z
" style="fill:#52f5cb;"/>
    <path clip-path="url(#p763586f704)" d="M 414.050643 163.426947 
L 431.487722 181.472217 
L 447.185244 150.539744 
L 429.556693 133.745733 
z
" style="fill:#d2de81;"/>
    <path clip-path="url(#p763586f704)" d="M 427.519293 94.39283 
L 445.081685 110.438045 
L 460.713611 86.224349 
L 442.942728 73.513034 
z
" style="fill:#ff4422;"/>
    <path clip-path="url(#p763586f704)" d="M 150.539033 204.70248 
L 166.552977 225.017984 
L 182.316304 223.874476 
L 166.188964 202.308312 
z
" style="fill:#6afdc0;"/>
    <path clip-path="url(#p763586f704)" d="M 415.926377 212.864004 
L 433.362926 233.374321 
L 449.20857 195.908618 
L 431.487722 181.472217 
z
" style="fill:#78ffb8;"/>
    <path clip-path="url(#p763586f704)" d="M 213.496195 217.156712 
L 229.916456 239.038849 
L 245.510398 236.380751 
L 229.054409 215.127595 
z
" style="fill:#52f5cb;"/>
    <path clip-path="url(#p763586f704)" d="M 370.213661 222.978104 
L 387.500868 238.900951 
L 402.755384 247.722547 
L 385.447663 230.622056 
z
" style="fill:#42edd3;"/>
    <path clip-path="url(#p763586f704)" d="M 442.942728 73.513034 
L 460.713611 86.224349 
L 476.301845 67.643623 
L 458.370533 55.910952 
z
" style="fill:#ff0000;"/>
    <path clip-path="url(#p763586f704)" d="M 134.831025 207.047882 
L 150.828585 228.302873 
L 166.552977 225.017984 
L 150.539033 204.70248 
z
" style="fill:#6afdc0;"/>
    <path clip-path="url(#p763586f704)" d="M 276.528618 230.636301 
L 293.224419 248.9278 
L 308.594187 236.070068 
L 291.821024 219.407182 
z
" style="fill:#48f1d0;"/>
    <path clip-path="url(#p763586f704)" d="M 322.366282 190.587307 
L 339.36494 206.259461 
L 354.855987 215.398172 
L 337.826501 199.344096 
z
" style="fill:#84ffb2;"/>
    <path clip-path="url(#p763586f704)" d="M 261.033553 233.00611 
L 277.875074 261.877709 
L 293.224419 248.9278 
L 276.528618 230.636301 
z
" style="fill:#37e6d8;"/>
    <path clip-path="url(#p763586f704)" d="M 197.892568 219.513052 
L 214.205507 239.871128 
L 229.916456 239.038849 
L 213.496195 217.156712 
z
" style="fill:#52f5cb;"/>
    <path clip-path="url(#p763586f704)" d="M 417.963567 249.372288 
L 435.416117 274.468416 
L 451.155578 245.850109 
L 433.362926 233.374321 
z
" style="fill:#2adddd;"/>
    <path clip-path="url(#p763586f704)" d="M 429.556693 133.745733 
L 447.185244 150.539744 
L 462.947535 123.101625 
L 445.081685 110.438045 
z
" style="fill:#ff9d53;"/>
    <path clip-path="url(#p763586f704)" d="M 291.821024 219.407182 
L 308.594187 236.070068 
L 323.965289 221.386441 
L 307.072854 204.535956 
z
" style="fill:#64fbc3;"/>
    <path clip-path="url(#p763586f704)" d="M 402.755384 247.722547 
L 420.318001 262.373129 
L 435.416117 274.468416 
L 417.963567 249.372288 
z
" style="fill:#1dd1e2;"/>
    <path clip-path="url(#p763586f704)" d="M 307.072854 204.535956 
L 323.965289 221.386441 
L 339.36494 206.259461 
L 322.366282 190.587307 
z
" style="fill:#84ffb2;"/>
    <path clip-path="url(#p763586f704)" d="M 245.510398 236.380751 
L 262.055476 254.072027 
L 277.875074 261.877709 
L 261.033553 233.00611 
z
" style="fill:#37e6d8;"/>
    <path clip-path="url(#p763586f704)" d="M 182.316304 223.874476 
L 198.506259 242.792368 
L 214.205507 239.871128 
L 197.892568 219.513052 
z
" style="fill:#52f5cb;"/>
    <path clip-path="url(#p763586f704)" d="M 354.855987 215.398172 
L 372.111854 230.732232 
L 387.500868 238.900951 
L 370.213661 222.978104 
z
" style="fill:#5df9c7;"/>
    <path clip-path="url(#p763586f704)" d="M 431.487722 181.472217 
L 449.20857 195.908618 
L 465.100127 164.750657 
L 447.185244 150.539744 
z
" style="fill:#c4e88a;"/>
    <path clip-path="url(#p763586f704)" d="M 166.552977 225.017984 
L 182.76024 245.864865 
L 198.506259 242.792368 
L 182.316304 223.874476 
z
" style="fill:#52f5cb;"/>
    <path clip-path="url(#p763586f704)" d="M 445.081685 110.438045 
L 462.947535 123.101625 
L 478.738334 99.156608 
L 460.713611 86.224349 
z
" style="fill:#ff5029;"/>
    <path clip-path="url(#p763586f704)" d="M 229.916456 239.038849 
L 246.390391 256.723245 
L 262.055476 254.072027 
L 245.510398 236.380751 
z
" style="fill:#3dead5;"/>
    <path clip-path="url(#p763586f704)" d="M 387.500868 238.900951 
L 405.027363 254.184686 
L 420.318001 262.373129 
L 402.755384 247.722547 
z
" style="fill:#37e6d8;"/>
    <path clip-path="url(#p763586f704)" d="M 433.362926 233.374321 
L 451.155578 245.850109 
L 467.318419 204.399009 
L 449.20857 195.908618 
z
" style="fill:#72febb;"/>
    <path clip-path="url(#p763586f704)" d="M 150.828585 228.302873 
L 166.954119 248.765959 
L 182.76024 245.864865 
L 166.552977 225.017984 
z
" style="fill:#52f5cb;"/>
    <path clip-path="url(#p763586f704)" d="M 214.205507 239.871128 
L 230.696527 260.229899 
L 246.390391 256.723245 
L 229.916456 239.038849 
z
" style="fill:#3dead5;"/>
    <path clip-path="url(#p763586f704)" d="M 277.875074 261.877709 
L 294.524788 271.429363 
L 310.103143 265.659425 
L 293.224419 248.9278 
z
" style="fill:#24d8df;"/>
    <path clip-path="url(#p763586f704)" d="M 460.713611 86.224349 
L 478.738334 99.156608 
L 494.550726 77.68213 
L 476.301845 67.643623 
z
" style="fill:#ff0603;"/>
    <path clip-path="url(#p763586f704)" d="M 435.416117 274.468416 
L 453.37159 282.88634 
L 468.796874 276.148011 
L 451.155578 245.850109 
z
" style="fill:#17cbe4;"/>
    <path clip-path="url(#p763586f704)" d="M 293.224419 248.9278 
L 310.103143 265.659425 
L 325.585509 252.894017 
L 308.594187 236.070068 
z
" style="fill:#3ae8d6;"/>
    <path clip-path="url(#p763586f704)" d="M 339.36494 206.259461 
L 356.592976 222.543256 
L 372.111854 230.732232 
L 354.855987 215.398172 
z
" style="fill:#78ffb8;"/>
    <path clip-path="url(#p763586f704)" d="M 308.594187 236.070068 
L 325.585509 252.894017 
L 341.071667 237.650378 
L 323.965289 221.386441 
z
" style="fill:#56f7ca;"/>
    <path clip-path="url(#p763586f704)" d="M 447.185244 150.539744 
L 465.100127 164.750657 
L 481.003423 138.67142 
L 462.947535 123.101625 
z
" style="fill:#ffa95b;"/>
    <path clip-path="url(#p763586f704)" d="M 198.506259 242.792368 
L 214.936581 263.249279 
L 230.696527 260.229899 
L 214.205507 239.871128 
z
" style="fill:#3dead5;"/>
    <path clip-path="url(#p763586f704)" d="M 420.318001 262.373129 
L 438.139171 276.592858 
L 453.37159 282.88634 
L 435.416117 274.468416 
z
" style="fill:#12c8e6;"/>
    <path clip-path="url(#p763586f704)" d="M 262.055476 254.072027 
L 278.85056 274.018999 
L 294.524788 271.429363 
L 277.875074 261.877709 
z
" style="fill:#22d6e0;"/>
    <path clip-path="url(#p763586f704)" d="M 323.965289 221.386441 
L 341.071667 237.650378 
L 356.592976 222.543256 
L 339.36494 206.259461 
z
" style="fill:#76ffb9;"/>
    <path clip-path="url(#p763586f704)" d="M 372.111854 230.732232 
L 389.596784 247.690583 
L 405.027363 254.184686 
L 387.500868 238.900951 
z
" style="fill:#52f5cb;"/>
    <path clip-path="url(#p763586f704)" d="M 182.76024 245.864865 
L 199.141437 266.741756 
L 214.936581 263.249279 
L 198.506259 242.792368 
z
" style="fill:#3dead5;"/>
    <path clip-path="url(#p763586f704)" d="M 246.390391 256.723245 
L 263.105973 275.999186 
L 278.85056 274.018999 
L 262.055476 254.072027 
z
" style="fill:#2adddd;"/>
    <path clip-path="url(#p763586f704)" d="M 462.947535 123.101625 
L 481.003423 138.67142 
L 497.02598 112.175173 
L 478.738334 99.156608 
z
" style="fill:#ff5c2f;"/>
    <path clip-path="url(#p763586f704)" d="M 449.20857 195.908618 
L 467.318419 204.399009 
L 483.432348 172.916091 
L 465.100127 164.750657 
z
" style="fill:#c4e88a;"/>
    <path clip-path="url(#p763586f704)" d="M 166.954119 248.765959 
L 183.204297 268.033164 
L 199.141437 266.741756 
L 182.76024 245.864865 
z
" style="fill:#3ae8d6;"/>
    <path clip-path="url(#p763586f704)" d="M 451.155578 245.850109 
L 468.796874 276.148011 
L 485.47901 222.395504 
L 467.318419 204.399009 
z
" style="fill:#62fbc4;"/>
    <path clip-path="url(#p763586f704)" d="M 230.696527 260.229899 
L 247.366134 280.400878 
L 263.105973 275.999186 
L 246.390391 256.723245 
z
" style="fill:#28dbde;"/>
    <path clip-path="url(#p763586f704)" d="M 405.027363 254.184686 
L 422.772976 271.514961 
L 438.139171 276.592858 
L 420.318001 262.373129 
z
" style="fill:#2ddedc;"/>
    <path clip-path="url(#p763586f704)" d="M 453.37159 282.88634 
L 471.475893 297.962386 
L 486.662357 303.033776 
L 468.796874 276.148011 
z
" style="fill:#00b5eb;"/>
    <path clip-path="url(#p763586f704)" d="M 294.524788 271.429363 
L 311.654599 297.573713 
L 327.216904 283.97412 
L 310.103143 265.659425 
z
" style="fill:#17cbe4;"/>
    <path clip-path="url(#p763586f704)" d="M 310.103143 265.659425 
L 327.216904 283.97412 
L 342.806072 271.06978 
L 325.585509 252.894017 
z
" style="fill:#2ddedc;"/>
    <path clip-path="url(#p763586f704)" d="M 356.592976 222.543256 
L 374.049734 239.706684 
L 389.596784 247.690583 
L 372.111854 230.732232 
z
" style="fill:#6dfdbf;"/>
    <path clip-path="url(#p763586f704)" d="M 214.936581 263.249279 
L 231.499008 282.083081 
L 247.366134 280.400878 
L 230.696527 260.229899 
z
" style="fill:#28dbde;"/>
    <path clip-path="url(#p763586f704)" d="M 278.85056 274.018999 
L 295.925084 299.269353 
L 311.654599 297.573713 
L 294.524788 271.429363 
z
" style="fill:#0dc2e8;"/>
    <path clip-path="url(#p763586f704)" d="M 325.585509 252.894017 
L 342.806072 271.06978 
L 358.409622 255.786175 
L 341.071667 237.650378 
z
" style="fill:#48f1d0;"/>
    <path clip-path="url(#p763586f704)" d="M 478.738334 99.156608 
L 497.02598 112.175173 
L 513.088326 87.811858 
L 494.550726 77.68213 
z
" style="fill:#ff0d06;"/>
    <path clip-path="url(#p763586f704)" d="M 341.071667 237.650378 
L 358.409622 255.786175 
L 374.049734 239.706684 
L 356.592976 222.543256 
z
" style="fill:#68fcc1;"/>
    <path clip-path="url(#p763586f704)" d="M 465.100127 164.750657 
L 483.432348 172.916091 
L 499.519221 147.189073 
L 481.003423 138.67142 
z
" style="fill:#ffae5e;"/>
    <path clip-path="url(#p763586f704)" d="M 438.139171 276.592858 
L 456.182756 292.748577 
L 471.475893 297.962386 
L 453.37159 282.88634 
z
" style="fill:#0fc4e7;"/>
    <path clip-path="url(#p763586f704)" d="M 199.141437 266.741756 
L 215.609491 284.971035 
L 231.499008 282.083081 
L 214.936581 263.249279 
z
" style="fill:#27dade;"/>
    <path clip-path="url(#p763586f704)" d="M 263.105973 275.999186 
L 280.189553 303.88141 
L 295.925084 299.269353 
L 278.85056 274.018999 
z
" style="fill:#0dc2e8;"/>
    <path clip-path="url(#p763586f704)" d="M 389.596784 247.690583 
L 407.332558 262.727168 
L 422.772976 271.514961 
L 405.027363 254.184686 
z
" style="fill:#46efd1;"/>
    <path clip-path="url(#p763586f704)" d="M 468.796874 276.148011 
L 486.662357 303.033776 
L 503.610591 248.847498 
L 485.47901 222.395504 
z
" style="fill:#3febd5;"/>
    <path clip-path="url(#p763586f704)" d="M 247.366134 280.400878 
L 264.367043 306.584688 
L 280.189553 303.88141 
L 263.105973 275.999186 
z
" style="fill:#0ac0e8;"/>
    <path clip-path="url(#p763586f704)" d="M 183.204297 268.033164 
L 199.622465 286.756887 
L 215.609491 284.971035 
L 199.141437 266.741756 
z
" style="fill:#28dbde;"/>
    <path clip-path="url(#p763586f704)" d="M 471.475893 297.962386 
L 489.707299 317.791562 
L 504.944512 322.075147 
L 486.662357 303.033776 
z
" style="fill:#149df1;"/>
    <path clip-path="url(#p763586f704)" d="M 481.003423 138.67142 
L 499.519221 147.189073 
L 515.73232 120.822429 
L 497.02598 112.175173 
z
" style="fill:#ff5f30;"/>
    <path clip-path="url(#p763586f704)" d="M 311.654599 297.573713 
L 328.876913 316.574629 
L 344.547817 302.597243 
L 327.216904 283.97412 
z
" style="fill:#00b5eb;"/>
    <path clip-path="url(#p763586f704)" d="M 295.925084 299.269353 
L 313.192121 327.263931 
L 328.876913 316.574629 
L 311.654599 297.573713 
z
" style="fill:#149df1;"/>
    <path clip-path="url(#p763586f704)" d="M 467.318419 204.399009 
L 485.47901 222.395504 
L 502.108926 180.172075 
L 483.432348 172.916091 
z
" style="fill:#c6e789;"/>
    <path clip-path="url(#p763586f704)" d="M 231.499008 282.083081 
L 248.496549 309.614715 
L 264.367043 306.584688 
L 247.366134 280.400878 
z
" style="fill:#0ac0e8;"/>
    <path clip-path="url(#p763586f704)" d="M 422.772976 271.514961 
L 440.791104 286.789569 
L 456.182756 292.748577 
L 438.139171 276.592858 
z
" style="fill:#22d6e0;"/>
    <path clip-path="url(#p763586f704)" d="M 327.216904 283.97412 
L 344.547817 302.597243 
L 360.2442 288.399748 
L 342.806072 271.06978 
z
" style="fill:#1acfe3;"/>
    <path clip-path="url(#p763586f704)" d="M 280.189553 303.88141 
L 297.356466 328.28021 
L 313.192121 327.263931 
L 295.925084 299.269353 
z
" style="fill:#1898f2;"/>
    <path clip-path="url(#p763586f704)" d="M 374.049734 239.706684 
L 391.739179 256.53382 
L 407.332558 262.727168 
L 389.596784 247.690583 
z
" style="fill:#5efac6;"/>
    <path clip-path="url(#p763586f704)" d="M 342.806072 271.06978 
L 360.2442 288.399748 
L 375.970522 273.060465 
L 358.409622 255.786175 
z
" style="fill:#38e7d7;"/>
    <path clip-path="url(#p763586f704)" d="M 215.609491 284.971035 
L 232.533712 311.423571 
L 248.496549 309.614715 
L 231.499008 282.083081 
z
" style="fill:#0dc2e8;"/>
    <path clip-path="url(#p763586f704)" d="M 486.662357 303.033776 
L 504.944512 322.075147 
L 521.800933 278.425982 
L 503.610591 248.847498 
z
" style="fill:#1dd1e2;"/>
    <path clip-path="url(#p763586f704)" d="M 358.409622 255.786175 
L 375.970522 273.060465 
L 391.739179 256.53382 
L 374.049734 239.706684 
z
" style="fill:#5af8c8;"/>
    <path clip-path="url(#p763586f704)" d="M 497.02598 112.175173 
L 515.73232 120.822429 
L 531.882644 99.114939 
L 513.088326 87.811858 
z
" style="fill:#ff0d06;"/>
    <path clip-path="url(#p763586f704)" d="M 264.367043 306.584688 
L 281.501716 331.893185 
L 297.356466 328.28021 
L 280.189553 303.88141 
z
" style="fill:#1898f2;"/>
    <path clip-path="url(#p763586f704)" d="M 456.182756 292.748577 
L 474.387578 312.60495 
L 489.707299 317.791562 
L 471.475893 297.962386 
z
" style="fill:#01b3ec;"/>
    <path clip-path="url(#p763586f704)" d="M 199.622465 286.756887 
L 216.553354 314.58991 
L 232.533712 311.423571 
L 215.609491 284.971035 
z
" style="fill:#0dc2e8;"/>
    <path clip-path="url(#p763586f704)" d="M 407.332558 262.727168 
L 425.295004 279.875141 
L 440.791104 286.789569 
L 422.772976 271.514961 
z
" style="fill:#3ae8d6;"/>
    <path clip-path="url(#p763586f704)" d="M 248.496549 309.614715 
L 265.597042 335.548434 
L 281.501716 331.893185 
L 264.367043 306.584688 
z
" style="fill:#1996f3;"/>
    <path clip-path="url(#p763586f704)" d="M 483.432348 172.916091 
L 502.108926 180.172075 
L 518.392908 154.501808 
L 499.519221 147.189073 
z
" style="fill:#ffa558;"/>
    <path clip-path="url(#p763586f704)" d="M 313.192121 327.263931 
L 330.51522 344.601488 
L 346.307906 334.094737 
L 328.876913 316.574629 
z
" style="fill:#2884f6;"/>
    <path clip-path="url(#p763586f704)" d="M 489.707299 317.791562 
L 508.28746 334.071997 
L 523.558306 338.567822 
L 504.944512 322.075147 
z
" style="fill:#2489f5;"/>
    <path clip-path="url(#p763586f704)" d="M 328.876913 316.574629 
L 346.307906 334.094737 
L 362.098414 320.611563 
L 344.547817 302.597243 
z
" style="fill:#10a2f0;"/>
    <path clip-path="url(#p763586f704)" d="M 485.47901 222.395504 
L 503.610591 248.847498 
L 520.615521 201.804759 
L 502.108926 180.172075 
z
" style="fill:#b4f295;"/>
    <path clip-path="url(#p763586f704)" d="M 232.533712 311.423571 
L 249.602128 337.746286 
L 265.597042 335.548434 
L 248.496549 309.614715 
z
" style="fill:#1996f3;"/>
    <path clip-path="url(#p763586f704)" d="M 297.356466 328.28021 
L 314.693138 352.620612 
L 330.51522 344.601488 
L 313.192121 327.263931 
z
" style="fill:#3473f8;"/>
    <path clip-path="url(#p763586f704)" d="M 440.791104 286.789569 
L 458.951537 307.590213 
L 474.387578 312.60495 
L 456.182756 292.748577 
z
" style="fill:#14cae5;"/>
    <path clip-path="url(#p763586f704)" d="M 344.547817 302.597243 
L 362.098414 320.611563 
L 377.915411 305.526324 
L 360.2442 288.399748 
z
" style="fill:#0dc2e8;"/>
    <path clip-path="url(#p763586f704)" d="M 504.944512 322.075147 
L 523.558306 338.567822 
L 540.230682 305.760885 
L 521.800933 278.425982 
z
" style="fill:#00b5eb;"/>
    <path clip-path="url(#p763586f704)" d="M 281.501716 331.893185 
L 298.8504 360.503761 
L 314.693138 352.620612 
L 297.356466 328.28021 
z
" style="fill:#396bf9;"/>
    <path clip-path="url(#p763586f704)" d="M 499.519221 147.189073 
L 518.392908 154.501808 
L 534.741205 129.902794 
L 515.73232 120.822429 
z
" style="fill:#ff592d;"/>
    <path clip-path="url(#p763586f704)" d="M 391.739179 256.53382 
L 409.665187 273.780083 
L 425.295004 279.875141 
L 407.332558 262.727168 
z
" style="fill:#52f5cb;"/>
    <path clip-path="url(#p763586f704)" d="M 360.2442 288.399748 
L 377.915411 305.526324 
L 393.771461 289.568103 
L 375.970522 273.060465 
z
" style="fill:#2ddedc;"/>
    <path clip-path="url(#p763586f704)" d="M 216.553354 314.58991 
L 233.568025 340.696339 
L 249.602128 337.746286 
L 232.533712 311.423571 
z
" style="fill:#1898f2;"/>
    <path clip-path="url(#p763586f704)" d="M 265.597042 335.548434 
L 282.837299 360.584909 
L 298.8504 360.503761 
L 281.501716 331.893185 
z
" style="fill:#3c68f9;"/>
    <path clip-path="url(#p763586f704)" d="M 375.970522 273.060465 
L 393.771461 289.568103 
L 409.665187 273.780083 
L 391.739179 256.53382 
z
" style="fill:#4df3ce;"/>
    <path clip-path="url(#p763586f704)" d="M 474.387578 312.60495 
L 492.904497 329.708313 
L 508.28746 334.071997 
L 489.707299 317.791562 
z
" style="fill:#10a2f0;"/>
    <path clip-path="url(#p763586f704)" d="M 425.295004 279.875141 
L 443.404894 302.4883 
L 458.951537 307.590213 
L 440.791104 286.789569 
z
" style="fill:#28dbde;"/>
    <path clip-path="url(#p763586f704)" d="M 503.610591 248.847498 
L 521.800933 278.425982 
L 539.085189 229.886555 
L 520.615521 201.804759 
z
" style="fill:#8efeac;"/>
    <path clip-path="url(#p763586f704)" d="M 515.73232 120.822429 
L 534.741205 129.902794 
L 551.041315 108.827495 
L 531.882644 99.114939 
z
" style="fill:#ff0905;"/>
    <path clip-path="url(#p763586f704)" d="M 249.602128 337.746286 
L 266.813572 363.613626 
L 282.837299 360.584909 
L 265.597042 335.548434 
z
" style="fill:#3c68f9;"/>
    <path clip-path="url(#p763586f704)" d="M 330.51522 344.601488 
L 348.092531 366.903915 
L 363.975019 357.070607 
L 346.307906 334.094737 
z
" style="fill:#3c68f9;"/>
    <path clip-path="url(#p763586f704)" d="M 346.307906 334.094737 
L 363.975019 357.070607 
L 379.861157 344.572897 
L 362.098414 320.611563 
z
" style="fill:#2686f5;"/>
    <path clip-path="url(#p763586f704)" d="M 314.693138 352.620612 
L 332.18916 374.752939 
L 348.092531 366.903915 
L 330.51522 344.601488 
z
" style="fill:#4c50fc;"/>
    <path clip-path="url(#p763586f704)" d="M 502.108926 180.172075 
L 520.615521 201.804759 
L 537.552495 163.143008 
L 518.392908 154.501808 
z
" style="fill:#ffa558;"/>
    <path clip-path="url(#p763586f704)" d="M 298.8504 360.503761 
L 316.257892 381.954354 
L 332.18916 374.752939 
L 314.693138 352.620612 
z
" style="fill:#583efd;"/>
    <path clip-path="url(#p763586f704)" d="M 362.098414 320.611563 
L 379.861157 344.572897 
L 395.77875 329.653957 
L 377.915411 305.526324 
z
" style="fill:#09a9ee;"/>
    <path clip-path="url(#p763586f704)" d="M 458.951537 307.590213 
L 477.445318 324.12271 
L 492.904497 329.708313 
L 474.387578 312.60495 
z
" style="fill:#04b9ea;"/>
    <path clip-path="url(#p763586f704)" d="M 233.568025 340.696339 
L 250.704923 365.599872 
L 266.813572 363.613626 
L 249.602128 337.746286 
z
" style="fill:#396bf9;"/>
    <path clip-path="url(#p763586f704)" d="M 377.915411 305.526324 
L 395.77875 329.653957 
L 411.738487 313.789043 
L 393.771461 289.568103 
z
" style="fill:#17cbe4;"/>
    <path clip-path="url(#p763586f704)" d="M 409.665187 273.780083 
L 427.756671 296.549974 
L 443.404894 302.4883 
L 425.295004 279.875141 
z
" style="fill:#3febd5;"/>
    <path clip-path="url(#p763586f704)" d="M 282.837299 360.584909 
L 300.265797 386.848548 
L 316.257892 381.954354 
L 298.8504 360.503761 
z
" style="fill:#5e35fe;"/>
    <path clip-path="url(#p763586f704)" d="M 521.800933 278.425982 
L 540.230682 305.760885 
L 557.668568 259.168589 
L 539.085189 229.886555 
z
" style="fill:#64fbc3;"/>
    <path clip-path="url(#p763586f704)" d="M 393.771461 289.568103 
L 411.738487 313.789043 
L 427.756671 296.549974 
L 409.665187 273.780083 
z
" style="fill:#38e7d7;"/>
    <path clip-path="url(#p763586f704)" d="M 266.813572 363.613626 
L 284.205659 390.443924 
L 300.265797 386.848548 
L 282.837299 360.584909 
z
" style="fill:#5e35fe;"/>
    <path clip-path="url(#p763586f704)" d="M 518.392908 154.501808 
L 537.552495 163.143008 
L 554.017568 140.353097 
L 534.741205 129.902794 
z
" style="fill:#ff5029;"/>
    <path clip-path="url(#p763586f704)" d="M 443.404894 302.4883 
L 461.863468 318.75693 
L 477.445318 324.12271 
L 458.951537 307.590213 
z
" style="fill:#18cde4;"/>
    <path clip-path="url(#p763586f704)" d="M 250.704923 365.599872 
L 268.114581 395.020375 
L 284.205659 390.443924 
L 266.813572 363.613626 
z
" style="fill:#5e35fe;"/>
    <path clip-path="url(#p763586f704)" d="M 348.092531 366.903915 
L 365.871434 381.432279 
L 381.868215 372.408411 
L 363.975019 357.070607 
z
" style="fill:#4c50fc;"/>
    <path clip-path="url(#p763586f704)" d="M 363.975019 357.070607 
L 381.868215 372.408411 
L 397.871982 360.88302 
L 379.861157 344.572897 
z
" style="fill:#386df9;"/>
    <path clip-path="url(#p763586f704)" d="M 520.615521 201.804759 
L 539.085189 229.886555 
L 556.500852 184.508741 
L 537.552495 163.143008 
z
" style="fill:#f6be68;"/>
    <path clip-path="url(#p763586f704)" d="M 332.18916 374.752939 
L 349.858047 389.244072 
L 365.871434 381.432279 
L 348.092531 366.903915 
z
" style="fill:#5a3bfd;"/>
    <path clip-path="url(#p763586f704)" d="M 379.861157 344.572897 
L 397.871982 360.88302 
L 413.90581 347.290024 
L 395.77875 329.653957 
z
" style="fill:#1e91f3;"/>
    <path clip-path="url(#p763586f704)" d="M 534.741205 129.902794 
L 554.017568 140.353097 
L 570.498551 119.063707 
L 551.041315 108.827495 
z
" style="fill:#ff0603;"/>
    <path clip-path="url(#p763586f704)" d="M 316.257892 381.954354 
L 333.829271 397.87575 
L 349.858047 389.244072 
L 332.18916 374.752939 
z
" style="fill:#6629fe;"/>
    <path clip-path="url(#p763586f704)" d="M 395.77875 329.653957 
L 413.90581 347.290024 
L 429.997856 331.280623 
L 411.738487 313.789043 
z
" style="fill:#02b7eb;"/>
    <path clip-path="url(#p763586f704)" d="M 300.265797 386.848548 
L 317.775526 405.656147 
L 333.829271 397.87575 
L 316.257892 381.954354 
z
" style="fill:#7216ff;"/>
    <path clip-path="url(#p763586f704)" d="M 427.756671 296.549974 
L 446.150101 314.165454 
L 461.863468 318.75693 
L 443.404894 302.4883 
z
" style="fill:#2ddedc;"/>
    <path clip-path="url(#p763586f704)" d="M 284.205659 390.443924 
L 301.732549 415.611838 
L 317.775526 405.656147 
L 300.265797 386.848548 
z
" style="fill:#7a09ff;"/>
    <path clip-path="url(#p763586f704)" d="M 411.738487 313.789043 
L 429.997856 331.280623 
L 446.150101 314.165454 
L 427.756671 296.549974 
z
" style="fill:#24d8df;"/>
    <path clip-path="url(#p763586f704)" d="M 268.114581 395.020375 
L 285.572245 419.657998 
L 301.732549 415.611838 
L 284.205659 390.443924 
z
" style="fill:#8000ff;"/>
    <path clip-path="url(#p763586f704)" d="M 539.085189 229.886555 
L 557.668568 259.168589 
L 575.26036 214.708534 
L 556.500852 184.508741 
z
" style="fill:#d0e082;"/>
    <path clip-path="url(#p763586f704)" d="M 537.552495 163.143008 
L 556.500852 184.508741 
L 573.600357 151.16206 
L 554.017568 140.353097 
z
" style="fill:#ff562c;"/>
    <path clip-path="url(#p763586f704)" d="M 554.017568 140.353097 
L 573.600357 151.16206 
L 590.249068 129.991856 
L 570.498551 119.063707 
z
" style="fill:#ff0603;"/>
    <path clip-path="url(#p763586f704)" d="M 556.500852 184.508741 
L 575.26036 214.708534 
L 593.077576 170.502789 
L 573.600357 151.16206 
z
" style="fill:#ff763d;"/>
    <path clip-path="url(#p763586f704)" d="M 573.600357 151.16206 
L 593.077576 170.502789 
L 610.354014 140.508815 
L 590.249068 129.991856 
z
" style="fill:#ff0d06;"/>
   </g>
  </g>
 </g>
 <defs>
  <clipPath id="p763586f704">
   <rect height="468" width="711.36" x="0" y="0"/>
  </clipPath>
 </defs>
</svg>
