<?xml version="1.0" encoding="utf-8" standalone="no"?>
<!DOCTYPE svg PUBLIC "-//W3C//DTD SVG 1.1//EN"
  "http://www.w3.org/Graphics/SVG/1.1/DTD/svg11.dtd">
<!-- Created with matplotlib (https://matplotlib.org/) -->
<svg height="458.64pt" version="1.1" viewBox="0 0 718.56 458.64" width="718.56pt" xmlns="http://www.w3.org/2000/svg" xmlns:xlink="http://www.w3.org/1999/xlink">
 <defs>
  <style type="text/css">
*{stroke-linecap:butt;stroke-linejoin:round;}
  </style>
 </defs>
 <g id="figure_1">
  <g id="patch_1">
   <path d="M 0 458.64 
L 718.56 458.64 
L 718.56 0 
L 0 0 
z
" style="fill:#ffffff;"/>
  </g>
  <g id="axes_1">
   <g id="patch_2">
    <path d="M 89.82 408.1896 
L 646.704 408.1896 
L 646.704 55.0368 
L 89.82 55.0368 
z
" style="fill:#ffffff;"/>
   </g>
   <g id="matplotlib.axis_1">
    <g id="xtick_1">
     <g id="line2d_1">
      <defs>
       <path d="M 0 0 
L 0 3.5 
" id="m574206cf7e" style="stroke:#000000;stroke-width:0.8;"/>
      </defs>
      <g>
       <use style="stroke:#000000;stroke-width:0.8;" x="89.82" xlink:href="#m574206cf7e" y="408.1896"/>
      </g>
     </g>
     <g id="text_1">
      <!-- 0.0 -->
      <defs>
       <path d="M 31.78125 66.40625 
Q 24.171875 66.40625 20.328125 58.90625 
Q 16.5 51.421875 16.5 36.375 
Q 16.5 21.390625 20.328125 13.890625 
Q 24.171875 6.390625 31.78125 6.390625 
Q 39.453125 6.390625 43.28125 13.890625 
Q 47.125 21.390625 47.125 36.375 
Q 47.125 51.421875 43.28125 58.90625 
Q 39.453125 66.40625 31.78125 66.40625 
z
M 31.78125 74.21875 
Q 44.046875 74.21875 50.515625 64.515625 
Q 56.984375 54.828125 56.984375 36.375 
Q 56.984375 17.96875 50.515625 8.265625 
Q 44.046875 -1.421875 31.78125 -1.421875 
Q 19.53125 -1.421875 13.0625 8.265625 
Q 6.59375 17.96875 6.59375 36.375 
Q 6.59375 54.828125 13.0625 64.515625 
Q 19.53125 74.21875 31.78125 74.21875 
z
" id="DejaVuSans-48"/>
       <path d="M 10.6875 12.40625 
L 21 12.40625 
L 21 0 
L 10.6875 0 
z
" id="DejaVuSans-46"/>
      </defs>
      <g transform="translate(81.868438 422.788037)scale(0.1 -0.1)">
       <use xlink:href="#DejaVuSans-48"/>
       <use x="63.623047" xlink:href="#DejaVuSans-46"/>
       <use x="95.410156" xlink:href="#DejaVuSans-48"/>
      </g>
     </g>
    </g>
    <g id="xtick_2">
     <g id="line2d_2">
      <g>
       <use style="stroke:#000000;stroke-width:0.8;" x="201.1968" xlink:href="#m574206cf7e" y="408.1896"/>
      </g>
     </g>
     <g id="text_2">
      <!-- 0.2 -->
      <defs>
       <path d="M 19.1875 8.296875 
L 53.609375 8.296875 
L 53.609375 0 
L 7.328125 0 
L 7.328125 8.296875 
Q 12.9375 14.109375 22.625 23.890625 
Q 32.328125 33.6875 34.8125 36.53125 
Q 39.546875 41.84375 41.421875 45.53125 
Q 43.3125 49.21875 43.3125 52.78125 
Q 43.3125 58.59375 39.234375 62.25 
Q 35.15625 65.921875 28.609375 65.921875 
Q 23.96875 65.921875 18.8125 64.3125 
Q 13.671875 62.703125 7.8125 59.421875 
L 7.8125 69.390625 
Q 13.765625 71.78125 18.9375 73 
Q 24.125 74.21875 28.421875 74.21875 
Q 39.75 74.21875 46.484375 68.546875 
Q 53.21875 62.890625 53.21875 53.421875 
Q 53.21875 48.921875 51.53125 44.890625 
Q 49.859375 40.875 45.40625 35.40625 
Q 44.1875 33.984375 37.640625 27.21875 
Q 31.109375 20.453125 19.1875 8.296875 
z
" id="DejaVuSans-50"/>
      </defs>
      <g transform="translate(193.245238 422.788037)scale(0.1 -0.1)">
       <use xlink:href="#DejaVuSans-48"/>
       <use x="63.623047" xlink:href="#DejaVuSans-46"/>
       <use x="95.410156" xlink:href="#DejaVuSans-50"/>
      </g>
     </g>
    </g>
    <g id="xtick_3">
     <g id="line2d_3">
      <g>
       <use style="stroke:#000000;stroke-width:0.8;" x="312.5736" xlink:href="#m574206cf7e" y="408.1896"/>
      </g>
     </g>
     <g id="text_3">
      <!-- 0.4 -->
      <defs>
       <path d="M 37.796875 64.3125 
L 12.890625 25.390625 
L 37.796875 25.390625 
z
M 35.203125 72.90625 
L 47.609375 72.90625 
L 47.609375 25.390625 
L 58.015625 25.390625 
L 58.015625 17.1875 
L 47.609375 17.1875 
L 47.609375 0 
L 37.796875 0 
L 37.796875 17.1875 
L 4.890625 17.1875 
L 4.890625 26.703125 
z
" id="DejaVuSans-52"/>
      </defs>
      <g transform="translate(304.622037 422.788037)scale(0.1 -0.1)">
       <use xlink:href="#DejaVuSans-48"/>
       <use x="63.623047" xlink:href="#DejaVuSans-46"/>
       <use x="95.410156" xlink:href="#DejaVuSans-52"/>
      </g>
     </g>
    </g>
    <g id="xtick_4">
     <g id="line2d_4">
      <g>
       <use style="stroke:#000000;stroke-width:0.8;" x="423.9504" xlink:href="#m574206cf7e" y="408.1896"/>
      </g>
     </g>
     <g id="text_4">
      <!-- 0.6 -->
      <defs>
       <path d="M 33.015625 40.375 
Q 26.375 40.375 22.484375 35.828125 
Q 18.609375 31.296875 18.609375 23.390625 
Q 18.609375 15.53125 22.484375 10.953125 
Q 26.375 6.390625 33.015625 6.390625 
Q 39.65625 6.390625 43.53125 10.953125 
Q 47.40625 15.53125 47.40625 23.390625 
Q 47.40625 31.296875 43.53125 35.828125 
Q 39.65625 40.375 33.015625 40.375 
z
M 52.59375 71.296875 
L 52.59375 62.3125 
Q 48.875 64.0625 45.09375 64.984375 
Q 41.3125 65.921875 37.59375 65.921875 
Q 27.828125 65.921875 22.671875 59.328125 
Q 17.53125 52.734375 16.796875 39.40625 
Q 19.671875 43.65625 24.015625 45.921875 
Q 28.375 48.1875 33.59375 48.1875 
Q 44.578125 48.1875 50.953125 41.515625 
Q 57.328125 34.859375 57.328125 23.390625 
Q 57.328125 12.15625 50.6875 5.359375 
Q 44.046875 -1.421875 33.015625 -1.421875 
Q 20.359375 -1.421875 13.671875 8.265625 
Q 6.984375 17.96875 6.984375 36.375 
Q 6.984375 53.65625 15.1875 63.9375 
Q 23.390625 74.21875 37.203125 74.21875 
Q 40.921875 74.21875 44.703125 73.484375 
Q 48.484375 72.75 52.59375 71.296875 
z
" id="DejaVuSans-54"/>
      </defs>
      <g transform="translate(415.998838 422.788037)scale(0.1 -0.1)">
       <use xlink:href="#DejaVuSans-48"/>
       <use x="63.623047" xlink:href="#DejaVuSans-46"/>
       <use x="95.410156" xlink:href="#DejaVuSans-54"/>
      </g>
     </g>
    </g>
    <g id="xtick_5">
     <g id="line2d_5">
      <g>
       <use style="stroke:#000000;stroke-width:0.8;" x="535.3272" xlink:href="#m574206cf7e" y="408.1896"/>
      </g>
     </g>
     <g id="text_5">
      <!-- 0.8 -->
      <defs>
       <path d="M 31.78125 34.625 
Q 24.75 34.625 20.71875 30.859375 
Q 16.703125 27.09375 16.703125 20.515625 
Q 16.703125 13.921875 20.71875 10.15625 
Q 24.75 6.390625 31.78125 6.390625 
Q 38.8125 6.390625 42.859375 10.171875 
Q 46.921875 13.96875 46.921875 20.515625 
Q 46.921875 27.09375 42.890625 30.859375 
Q 38.875 34.625 31.78125 34.625 
z
M 21.921875 38.8125 
Q 15.578125 40.375 12.03125 44.71875 
Q 8.5 49.078125 8.5 55.328125 
Q 8.5 64.0625 14.71875 69.140625 
Q 20.953125 74.21875 31.78125 74.21875 
Q 42.671875 74.21875 48.875 69.140625 
Q 55.078125 64.0625 55.078125 55.328125 
Q 55.078125 49.078125 51.53125 44.71875 
Q 48 40.375 41.703125 38.8125 
Q 48.828125 37.15625 52.796875 32.3125 
Q 56.78125 27.484375 56.78125 20.515625 
Q 56.78125 9.90625 50.3125 4.234375 
Q 43.84375 -1.421875 31.78125 -1.421875 
Q 19.734375 -1.421875 13.25 4.234375 
Q 6.78125 9.90625 6.78125 20.515625 
Q 6.78125 27.484375 10.78125 32.3125 
Q 14.796875 37.15625 21.921875 38.8125 
z
M 18.3125 54.390625 
Q 18.3125 48.734375 21.84375 45.5625 
Q 25.390625 42.390625 31.78125 42.390625 
Q 38.140625 42.390625 41.71875 45.5625 
Q 45.3125 48.734375 45.3125 54.390625 
Q 45.3125 60.0625 41.71875 63.234375 
Q 38.140625 66.40625 31.78125 66.40625 
Q 25.390625 66.40625 21.84375 63.234375 
Q 18.3125 60.0625 18.3125 54.390625 
z
" id="DejaVuSans-56"/>
      </defs>
      <g transform="translate(527.375638 422.788037)scale(0.1 -0.1)">
       <use xlink:href="#DejaVuSans-48"/>
       <use x="63.623047" xlink:href="#DejaVuSans-46"/>
       <use x="95.410156" xlink:href="#DejaVuSans-56"/>
      </g>
     </g>
    </g>
    <g id="xtick_6">
     <g id="line2d_6">
      <g>
       <use style="stroke:#000000;stroke-width:0.8;" x="646.704" xlink:href="#m574206cf7e" y="408.1896"/>
      </g>
     </g>
     <g id="text_6">
      <!-- 1.0 -->
      <defs>
       <path d="M 12.40625 8.296875 
L 28.515625 8.296875 
L 28.515625 63.921875 
L 10.984375 60.40625 
L 10.984375 69.390625 
L 28.421875 72.90625 
L 38.28125 72.90625 
L 38.28125 8.296875 
L 54.390625 8.296875 
L 54.390625 0 
L 12.40625 0 
z
" id="DejaVuSans-49"/>
      </defs>
      <g transform="translate(638.752438 422.788037)scale(0.1 -0.1)">
       <use xlink:href="#DejaVuSans-49"/>
       <use x="63.623047" xlink:href="#DejaVuSans-46"/>
       <use x="95.410156" xlink:href="#DejaVuSans-48"/>
      </g>
     </g>
    </g>
    <g id="text_7">
     <!-- Dealer's Points -->
     <defs>
      <path d="M 19.671875 64.796875 
L 19.671875 8.109375 
L 31.59375 8.109375 
Q 46.6875 8.109375 53.6875 14.9375 
Q 60.6875 21.78125 60.6875 36.53125 
Q 60.6875 51.171875 53.6875 57.984375 
Q 46.6875 64.796875 31.59375 64.796875 
z
M 9.8125 72.90625 
L 30.078125 72.90625 
Q 51.265625 72.90625 61.171875 64.09375 
Q 71.09375 55.28125 71.09375 36.53125 
Q 71.09375 17.671875 61.125 8.828125 
Q 51.171875 0 30.078125 0 
L 9.8125 0 
z
" id="DejaVuSans-68"/>
      <path d="M 56.203125 29.59375 
L 56.203125 25.203125 
L 14.890625 25.203125 
Q 15.484375 15.921875 20.484375 11.0625 
Q 25.484375 6.203125 34.421875 6.203125 
Q 39.59375 6.203125 44.453125 7.46875 
Q 49.3125 8.734375 54.109375 11.28125 
L 54.109375 2.78125 
Q 49.265625 0.734375 44.1875 -0.34375 
Q 39.109375 -1.421875 33.890625 -1.421875 
Q 20.796875 -1.421875 13.15625 6.1875 
Q 5.515625 13.8125 5.515625 26.8125 
Q 5.515625 40.234375 12.765625 48.109375 
Q 20.015625 56 32.328125 56 
Q 43.359375 56 49.78125 48.890625 
Q 56.203125 41.796875 56.203125 29.59375 
z
M 47.21875 32.234375 
Q 47.125 39.59375 43.09375 43.984375 
Q 39.0625 48.390625 32.421875 48.390625 
Q 24.90625 48.390625 20.390625 44.140625 
Q 15.875 39.890625 15.1875 32.171875 
z
" id="DejaVuSans-101"/>
      <path d="M 34.28125 27.484375 
Q 23.390625 27.484375 19.1875 25 
Q 14.984375 22.515625 14.984375 16.5 
Q 14.984375 11.71875 18.140625 8.90625 
Q 21.296875 6.109375 26.703125 6.109375 
Q 34.1875 6.109375 38.703125 11.40625 
Q 43.21875 16.703125 43.21875 25.484375 
L 43.21875 27.484375 
z
M 52.203125 31.203125 
L 52.203125 0 
L 43.21875 0 
L 43.21875 8.296875 
Q 40.140625 3.328125 35.546875 0.953125 
Q 30.953125 -1.421875 24.3125 -1.421875 
Q 15.921875 -1.421875 10.953125 3.296875 
Q 6 8.015625 6 15.921875 
Q 6 25.140625 12.171875 29.828125 
Q 18.359375 34.515625 30.609375 34.515625 
L 43.21875 34.515625 
L 43.21875 35.40625 
Q 43.21875 41.609375 39.140625 45 
Q 35.0625 48.390625 27.6875 48.390625 
Q 23 48.390625 18.546875 47.265625 
Q 14.109375 46.140625 10.015625 43.890625 
L 10.015625 52.203125 
Q 14.9375 54.109375 19.578125 55.046875 
Q 24.21875 56 28.609375 56 
Q 40.484375 56 46.34375 49.84375 
Q 52.203125 43.703125 52.203125 31.203125 
z
" id="DejaVuSans-97"/>
      <path d="M 9.421875 75.984375 
L 18.40625 75.984375 
L 18.40625 0 
L 9.421875 0 
z
" id="DejaVuSans-108"/>
      <path d="M 41.109375 46.296875 
Q 39.59375 47.171875 37.8125 47.578125 
Q 36.03125 48 33.890625 48 
Q 26.265625 48 22.1875 43.046875 
Q 18.109375 38.09375 18.109375 28.8125 
L 18.109375 0 
L 9.078125 0 
L 9.078125 54.6875 
L 18.109375 54.6875 
L 18.109375 46.1875 
Q 20.953125 51.171875 25.484375 53.578125 
Q 30.03125 56 36.53125 56 
Q 37.453125 56 38.578125 55.875 
Q 39.703125 55.765625 41.0625 55.515625 
z
" id="DejaVuSans-114"/>
      <path d="M 17.921875 72.90625 
L 17.921875 45.796875 
L 9.625 45.796875 
L 9.625 72.90625 
z
" id="DejaVuSans-39"/>
      <path d="M 44.28125 53.078125 
L 44.28125 44.578125 
Q 40.484375 46.53125 36.375 47.5 
Q 32.28125 48.484375 27.875 48.484375 
Q 21.1875 48.484375 17.84375 46.4375 
Q 14.5 44.390625 14.5 40.28125 
Q 14.5 37.15625 16.890625 35.375 
Q 19.28125 33.59375 26.515625 31.984375 
L 29.59375 31.296875 
Q 39.15625 29.25 43.1875 25.515625 
Q 47.21875 21.78125 47.21875 15.09375 
Q 47.21875 7.46875 41.1875 3.015625 
Q 35.15625 -1.421875 24.609375 -1.421875 
Q 20.21875 -1.421875 15.453125 -0.5625 
Q 10.6875 0.296875 5.421875 2 
L 5.421875 11.28125 
Q 10.40625 8.6875 15.234375 7.390625 
Q 20.0625 6.109375 24.8125 6.109375 
Q 31.15625 6.109375 34.5625 8.28125 
Q 37.984375 10.453125 37.984375 14.40625 
Q 37.984375 18.0625 35.515625 20.015625 
Q 33.0625 21.96875 24.703125 23.78125 
L 21.578125 24.515625 
Q 13.234375 26.265625 9.515625 29.90625 
Q 5.8125 33.546875 5.8125 39.890625 
Q 5.8125 47.609375 11.28125 51.796875 
Q 16.75 56 26.8125 56 
Q 31.78125 56 36.171875 55.265625 
Q 40.578125 54.546875 44.28125 53.078125 
z
" id="DejaVuSans-115"/>
      <path id="DejaVuSans-32"/>
      <path d="M 19.671875 64.796875 
L 19.671875 37.40625 
L 32.078125 37.40625 
Q 38.96875 37.40625 42.71875 40.96875 
Q 46.484375 44.53125 46.484375 51.125 
Q 46.484375 57.671875 42.71875 61.234375 
Q 38.96875 64.796875 32.078125 64.796875 
z
M 9.8125 72.90625 
L 32.078125 72.90625 
Q 44.34375 72.90625 50.609375 67.359375 
Q 56.890625 61.8125 56.890625 51.125 
Q 56.890625 40.328125 50.609375 34.8125 
Q 44.34375 29.296875 32.078125 29.296875 
L 19.671875 29.296875 
L 19.671875 0 
L 9.8125 0 
z
" id="DejaVuSans-80"/>
      <path d="M 30.609375 48.390625 
Q 23.390625 48.390625 19.1875 42.75 
Q 14.984375 37.109375 14.984375 27.296875 
Q 14.984375 17.484375 19.15625 11.84375 
Q 23.34375 6.203125 30.609375 6.203125 
Q 37.796875 6.203125 41.984375 11.859375 
Q 46.1875 17.53125 46.1875 27.296875 
Q 46.1875 37.015625 41.984375 42.703125 
Q 37.796875 48.390625 30.609375 48.390625 
z
M 30.609375 56 
Q 42.328125 56 49.015625 48.375 
Q 55.71875 40.765625 55.71875 27.296875 
Q 55.71875 13.875 49.015625 6.21875 
Q 42.328125 -1.421875 30.609375 -1.421875 
Q 18.84375 -1.421875 12.171875 6.21875 
Q 5.515625 13.875 5.515625 27.296875 
Q 5.515625 40.765625 12.171875 48.375 
Q 18.84375 56 30.609375 56 
z
" id="DejaVuSans-111"/>
      <path d="M 9.421875 54.6875 
L 18.40625 54.6875 
L 18.40625 0 
L 9.421875 0 
z
M 9.421875 75.984375 
L 18.40625 75.984375 
L 18.40625 64.59375 
L 9.421875 64.59375 
z
" id="DejaVuSans-105"/>
      <path d="M 54.890625 33.015625 
L 54.890625 0 
L 45.90625 0 
L 45.90625 32.71875 
Q 45.90625 40.484375 42.875 44.328125 
Q 39.84375 48.1875 33.796875 48.1875 
Q 26.515625 48.1875 22.3125 43.546875 
Q 18.109375 38.921875 18.109375 30.90625 
L 18.109375 0 
L 9.078125 0 
L 9.078125 54.6875 
L 18.109375 54.6875 
L 18.109375 46.1875 
Q 21.34375 51.125 25.703125 53.5625 
Q 30.078125 56 35.796875 56 
Q 45.21875 56 50.046875 50.171875 
Q 54.890625 44.34375 54.890625 33.015625 
z
" id="DejaVuSans-110"/>
      <path d="M 18.3125 70.21875 
L 18.3125 54.6875 
L 36.8125 54.6875 
L 36.8125 47.703125 
L 18.3125 47.703125 
L 18.3125 18.015625 
Q 18.3125 11.328125 20.140625 9.421875 
Q 21.96875 7.515625 27.59375 7.515625 
L 36.8125 7.515625 
L 36.8125 0 
L 27.59375 0 
Q 17.1875 0 13.234375 3.875 
Q 9.28125 7.765625 9.28125 18.015625 
L 9.28125 47.703125 
L 2.6875 47.703125 
L 2.6875 54.6875 
L 9.28125 54.6875 
L 9.28125 70.21875 
z
" id="DejaVuSans-116"/>
     </defs>
     <g transform="translate(330.987781 436.466162)scale(0.1 -0.1)">
      <use xlink:href="#DejaVuSans-68"/>
      <use x="77.001953" xlink:href="#DejaVuSans-101"/>
      <use x="138.525391" xlink:href="#DejaVuSans-97"/>
      <use x="199.804688" xlink:href="#DejaVuSans-108"/>
      <use x="227.587891" xlink:href="#DejaVuSans-101"/>
      <use x="289.111328" xlink:href="#DejaVuSans-114"/>
      <use x="330.224609" xlink:href="#DejaVuSans-39"/>
      <use x="357.714844" xlink:href="#DejaVuSans-115"/>
      <use x="409.814453" xlink:href="#DejaVuSans-32"/>
      <use x="441.601562" xlink:href="#DejaVuSans-80"/>
      <use x="501.857422" xlink:href="#DejaVuSans-111"/>
      <use x="563.039062" xlink:href="#DejaVuSans-105"/>
      <use x="590.822266" xlink:href="#DejaVuSans-110"/>
      <use x="654.201172" xlink:href="#DejaVuSans-116"/>
      <use x="693.410156" xlink:href="#DejaVuSans-115"/>
     </g>
    </g>
   </g>
   <g id="matplotlib.axis_2">
    <g id="ytick_1">
     <g id="line2d_7">
      <defs>
       <path d="M 0 0 
L -3.5 0 
" id="m0be644ab36" style="stroke:#000000;stroke-width:0.8;"/>
      </defs>
      <g>
       <use style="stroke:#000000;stroke-width:0.8;" x="89.82" xlink:href="#m0be644ab36" y="408.1896"/>
      </g>
     </g>
     <g id="text_8">
      <!-- 0.0 -->
      <g transform="translate(66.916875 411.988819)scale(0.1 -0.1)">
       <use xlink:href="#DejaVuSans-48"/>
       <use x="63.623047" xlink:href="#DejaVuSans-46"/>
       <use x="95.410156" xlink:href="#DejaVuSans-48"/>
      </g>
     </g>
    </g>
    <g id="ytick_2">
     <g id="line2d_8">
      <g>
       <use style="stroke:#000000;stroke-width:0.8;" x="89.82" xlink:href="#m0be644ab36" y="337.55904"/>
      </g>
     </g>
     <g id="text_9">
      <!-- 0.2 -->
      <g transform="translate(66.916875 341.358259)scale(0.1 -0.1)">
       <use xlink:href="#DejaVuSans-48"/>
       <use x="63.623047" xlink:href="#DejaVuSans-46"/>
       <use x="95.410156" xlink:href="#DejaVuSans-50"/>
      </g>
     </g>
    </g>
    <g id="ytick_3">
     <g id="line2d_9">
      <g>
       <use style="stroke:#000000;stroke-width:0.8;" x="89.82" xlink:href="#m0be644ab36" y="266.92848"/>
      </g>
     </g>
     <g id="text_10">
      <!-- 0.4 -->
      <g transform="translate(66.916875 270.727699)scale(0.1 -0.1)">
       <use xlink:href="#DejaVuSans-48"/>
       <use x="63.623047" xlink:href="#DejaVuSans-46"/>
       <use x="95.410156" xlink:href="#DejaVuSans-52"/>
      </g>
     </g>
    </g>
    <g id="ytick_4">
     <g id="line2d_10">
      <g>
       <use style="stroke:#000000;stroke-width:0.8;" x="89.82" xlink:href="#m0be644ab36" y="196.29792"/>
      </g>
     </g>
     <g id="text_11">
      <!-- 0.6 -->
      <g transform="translate(66.916875 200.097139)scale(0.1 -0.1)">
       <use xlink:href="#DejaVuSans-48"/>
       <use x="63.623047" xlink:href="#DejaVuSans-46"/>
       <use x="95.410156" xlink:href="#DejaVuSans-54"/>
      </g>
     </g>
    </g>
    <g id="ytick_5">
     <g id="line2d_11">
      <g>
       <use style="stroke:#000000;stroke-width:0.8;" x="89.82" xlink:href="#m0be644ab36" y="125.66736"/>
      </g>
     </g>
     <g id="text_12">
      <!-- 0.8 -->
      <g transform="translate(66.916875 129.466579)scale(0.1 -0.1)">
       <use xlink:href="#DejaVuSans-48"/>
       <use x="63.623047" xlink:href="#DejaVuSans-46"/>
       <use x="95.410156" xlink:href="#DejaVuSans-56"/>
      </g>
     </g>
    </g>
    <g id="ytick_6">
     <g id="line2d_12">
      <g>
       <use style="stroke:#000000;stroke-width:0.8;" x="89.82" xlink:href="#m0be644ab36" y="55.0368"/>
      </g>
     </g>
     <g id="text_13">
      <!-- 1.0 -->
      <g transform="translate(66.916875 58.836019)scale(0.1 -0.1)">
       <use xlink:href="#DejaVuSans-49"/>
       <use x="63.623047" xlink:href="#DejaVuSans-46"/>
       <use x="95.410156" xlink:href="#DejaVuSans-48"/>
      </g>
     </g>
    </g>
    <g id="text_14">
     <!-- Your Points -->
     <defs>
      <path d="M -0.203125 72.90625 
L 10.40625 72.90625 
L 30.609375 42.921875 
L 50.6875 72.90625 
L 61.28125 72.90625 
L 35.5 34.71875 
L 35.5 0 
L 25.59375 0 
L 25.59375 34.71875 
z
" id="DejaVuSans-89"/>
      <path d="M 8.5 21.578125 
L 8.5 54.6875 
L 17.484375 54.6875 
L 17.484375 21.921875 
Q 17.484375 14.15625 20.5 10.265625 
Q 23.53125 6.390625 29.59375 6.390625 
Q 36.859375 6.390625 41.078125 11.03125 
Q 45.3125 15.671875 45.3125 23.6875 
L 45.3125 54.6875 
L 54.296875 54.6875 
L 54.296875 0 
L 45.3125 0 
L 45.3125 8.40625 
Q 42.046875 3.421875 37.71875 1 
Q 33.40625 -1.421875 27.6875 -1.421875 
Q 18.265625 -1.421875 13.375 4.4375 
Q 8.5 10.296875 8.5 21.578125 
z
M 31.109375 56 
z
" id="DejaVuSans-117"/>
     </defs>
     <g transform="translate(60.837187 259.724137)rotate(-90)scale(0.1 -0.1)">
      <use xlink:href="#DejaVuSans-89"/>
      <use x="60.880859" xlink:href="#DejaVuSans-111"/>
      <use x="122.0625" xlink:href="#DejaVuSans-117"/>
      <use x="185.441406" xlink:href="#DejaVuSans-114"/>
      <use x="226.554688" xlink:href="#DejaVuSans-32"/>
      <use x="258.341797" xlink:href="#DejaVuSans-80"/>
      <use x="318.597656" xlink:href="#DejaVuSans-111"/>
      <use x="379.779297" xlink:href="#DejaVuSans-105"/>
      <use x="407.5625" xlink:href="#DejaVuSans-110"/>
      <use x="470.941406" xlink:href="#DejaVuSans-116"/>
      <use x="510.150391" xlink:href="#DejaVuSans-115"/>
     </g>
    </g>
   </g>
   <g id="patch_3">
    <path d="M 89.82 408.1896 
L 89.82 55.0368 
" style="fill:none;stroke:#000000;stroke-linecap:square;stroke-linejoin:miter;stroke-width:0.8;"/>
   </g>
   <g id="patch_4">
    <path d="M 646.704 408.1896 
L 646.704 55.0368 
" style="fill:none;stroke:#000000;stroke-linecap:square;stroke-linejoin:miter;stroke-width:0.8;"/>
   </g>
   <g id="patch_5">
    <path d="M 89.82 408.1896 
L 646.704 408.1896 
" style="fill:none;stroke:#000000;stroke-linecap:square;stroke-linejoin:miter;stroke-width:0.8;"/>
   </g>
   <g id="patch_6">
    <path d="M 89.82 55.0368 
L 646.704 55.0368 
" style="fill:none;stroke:#000000;stroke-linecap:square;stroke-linejoin:miter;stroke-width:0.8;"/>
   </g>
  </g>
  <g id="patch_7">
   <path d="M 0 458.64 
L 718.56 458.64 
L 718.56 0 
L 0 0 
z
" style="fill:#ffffff;"/>
  </g>
  <g id="pane3d_1">
   <g id="patch_8">
    <path d="M 106.837882 308.617556 
L 446.150044 253.202252 
L 449.764959 34.588126 
L 94.022889 83.220999 
" style="fill:#f2f2f2;opacity:0.5;stroke:#f2f2f2;stroke-linejoin:miter;"/>
   </g>
  </g>
  <g id="pane3d_2">
   <g id="patch_9">
    <path d="M 446.150044 253.202252 
L 641.099213 361.568975 
L 654.931801 129.868448 
L 449.764959 34.588126 
" style="fill:#e6e6e6;opacity:0.5;stroke:#e6e6e6;stroke-linejoin:miter;"/>
   </g>
  </g>
  <g id="pane3d_3">
   <g id="patch_10">
    <path d="M 106.837882 308.617556 
L 281.84047 426.536177 
L 641.099213 361.568975 
L 446.150044 253.202252 
" style="fill:#ececec;opacity:0.5;stroke:#ececec;stroke-linejoin:miter;"/>
   </g>
  </g>
  <g id="axis3d_1">
   <g id="line2d_13">
    <path d="M 106.837882 308.617556 
L 281.84047 426.536177 
" style="fill:none;stroke:#000000;stroke-linecap:square;stroke-width:0.8;"/>
   </g>
   <g id="Line3DCollection_1">
    <path d="M 133.081221 326.300599 
L 475.468066 269.49931 
L 480.520128 48.870952 
" style="fill:none;stroke:#b0b0b0;stroke-width:0.8;"/>
    <path d="M 165.672385 348.260875 
L 511.836525 289.715507 
L 518.720152 66.6112 
" style="fill:none;stroke:#b0b0b0;stroke-width:0.8;"/>
    <path d="M 199.293414 370.915085 
L 549.306573 310.544045 
L 558.133887 84.9151 
" style="fill:none;stroke:#b0b0b0;stroke-width:0.8;"/>
    <path d="M 233.993904 394.296648 
L 587.92903 332.013176 
L 598.82011 103.809949 
" style="fill:none;stroke:#b0b0b0;stroke-width:0.8;"/>
    <path d="M 269.826692 418.441165 
L 627.757891 354.152912 
L 640.841457 123.324835 
" style="fill:none;stroke:#b0b0b0;stroke-width:0.8;"/>
   </g>
   <g id="xtick_7">
    <g id="line2d_14">
     <path d="M 135.934175 325.827299 
L 127.369568 327.24815 
" style="fill:none;stroke:#000000;stroke-linecap:square;stroke-width:0.8;"/>
    </g>
    <g id="text_15">
     <!-- 2 -->
     <g transform="translate(116.937956 344.249193)scale(0.1 -0.1)">
      <use xlink:href="#DejaVuSans-50"/>
     </g>
    </g>
   </g>
   <g id="xtick_8">
    <g id="line2d_15">
     <path d="M 168.558604 347.772741 
L 159.894047 349.238143 
" style="fill:none;stroke:#000000;stroke-linecap:square;stroke-width:0.8;"/>
    </g>
    <g id="text_16">
     <!-- 4 -->
     <g transform="translate(149.320997 366.366008)scale(0.1 -0.1)">
      <use xlink:href="#DejaVuSans-52"/>
     </g>
    </g>
   </g>
   <g id="xtick_9">
    <g id="line2d_16">
     <path d="M 202.213591 370.411406 
L 193.446993 371.923488 
" style="fill:none;stroke:#000000;stroke-linecap:square;stroke-width:0.8;"/>
    </g>
    <g id="text_17">
     <!-- 6 -->
     <g transform="translate(182.727116 389.181559)scale(0.1 -0.1)">
      <use xlink:href="#DejaVuSans-54"/>
     </g>
    </g>
   </g>
   <g id="xtick_10">
    <g id="line2d_17">
     <path d="M 236.948751 393.776671 
L 228.077974 395.337699 
" style="fill:none;stroke:#000000;stroke-linecap:square;stroke-width:0.8;"/>
    </g>
    <g id="text_18">
     <!-- 8 -->
     <g transform="translate(217.205574 412.729492)scale(0.1 -0.1)">
      <use xlink:href="#DejaVuSans-56"/>
     </g>
    </g>
   </g>
   <g id="xtick_11">
    <g id="line2d_18">
     <path d="M 272.816935 417.904085 
L 263.839791 419.516476 
" style="fill:none;stroke:#000000;stroke-linecap:square;stroke-width:0.8;"/>
    </g>
    <g id="text_19">
     <!-- 10 -->
     <g transform="translate(249.627598 437.045646)scale(0.1 -0.1)">
      <use xlink:href="#DejaVuSans-49"/>
      <use x="63.623047" xlink:href="#DejaVuSans-48"/>
     </g>
    </g>
   </g>
  </g>
  <g id="axis3d_2">
   <g id="line2d_19">
    <path d="M 641.099213 361.568975 
L 281.84047 426.536177 
" style="fill:none;stroke:#000000;stroke-linecap:square;stroke-width:0.8;"/>
   </g>
   <g id="Line3DCollection_2">
    <path d="M 101.440187 82.206993 
L 113.89918 307.464329 
L 289.341477 425.179719 
" style="fill:none;stroke:#b0b0b0;stroke-width:0.8;"/>
    <path d="M 141.672691 76.706878 
L 152.210633 301.207433 
L 330.020314 417.823488 
" style="fill:none;stroke:#b0b0b0;stroke-width:0.8;"/>
    <path d="M 181.52799 71.25833 
L 190.17947 295.006492 
L 370.30492 410.538549 
" style="fill:none;stroke:#b0b0b0;stroke-width:0.8;"/>
    <path d="M 221.011365 65.860628 
L 227.810266 288.860759 
L 410.200998 403.32387 
" style="fill:none;stroke:#b0b0b0;stroke-width:0.8;"/>
    <path d="M 260.127997 60.513062 
L 265.107515 282.7695 
L 449.714142 396.178439 
" style="fill:none;stroke:#b0b0b0;stroke-width:0.8;"/>
    <path d="M 298.882973 55.214937 
L 302.075633 276.731993 
L 488.84984 389.101265 
" style="fill:none;stroke:#b0b0b0;stroke-width:0.8;"/>
    <path d="M 337.281285 49.965571 
L 338.718957 270.747531 
L 527.613473 382.091373 
" style="fill:none;stroke:#b0b0b0;stroke-width:0.8;"/>
    <path d="M 375.327834 44.764294 
L 375.041748 264.815416 
L 566.010322 375.14781 
" style="fill:none;stroke:#b0b0b0;stroke-width:0.8;"/>
    <path d="M 413.027432 39.610448 
L 411.048195 258.934966 
L 604.045569 368.269638 
" style="fill:none;stroke:#b0b0b0;stroke-width:0.8;"/>
   </g>
   <g id="xtick_12">
    <g id="line2d_20">
     <path d="M 287.820364 424.159108 
L 292.389881 427.225087 
" style="fill:none;stroke:#000000;stroke-linecap:square;stroke-width:0.8;"/>
    </g>
    <g id="text_20">
     <!-- 0.0 -->
     <g transform="translate(288.687575 446.098441)scale(0.1 -0.1)">
      <use xlink:href="#DejaVuSans-48"/>
      <use x="63.623047" xlink:href="#DejaVuSans-46"/>
      <use x="95.410156" xlink:href="#DejaVuSans-48"/>
     </g>
    </g>
   </g>
   <g id="xtick_13">
    <g id="line2d_21">
     <path d="M 328.479255 416.812789 
L 333.10866 419.848973 
" style="fill:none;stroke:#000000;stroke-linecap:square;stroke-width:0.8;"/>
    </g>
    <g id="text_21">
     <!-- 2.5 -->
     <defs>
      <path d="M 10.796875 72.90625 
L 49.515625 72.90625 
L 49.515625 64.59375 
L 19.828125 64.59375 
L 19.828125 46.734375 
Q 21.96875 47.46875 24.109375 47.828125 
Q 26.265625 48.1875 28.421875 48.1875 
Q 40.625 48.1875 47.75 41.5 
Q 54.890625 34.8125 54.890625 23.390625 
Q 54.890625 11.625 47.5625 5.09375 
Q 40.234375 -1.421875 26.90625 -1.421875 
Q 22.3125 -1.421875 17.546875 -0.640625 
Q 12.796875 0.140625 7.71875 1.703125 
L 7.71875 11.625 
Q 12.109375 9.234375 16.796875 8.0625 
Q 21.484375 6.890625 26.703125 6.890625 
Q 35.15625 6.890625 40.078125 11.328125 
Q 45.015625 15.765625 45.015625 23.390625 
Q 45.015625 31 40.078125 35.4375 
Q 35.15625 39.890625 26.703125 39.890625 
Q 22.75 39.890625 18.8125 39.015625 
Q 14.890625 38.140625 10.796875 36.28125 
z
" id="DejaVuSans-53"/>
     </defs>
     <g transform="translate(329.38253 438.667919)scale(0.1 -0.1)">
      <use xlink:href="#DejaVuSans-50"/>
      <use x="63.623047" xlink:href="#DejaVuSans-46"/>
      <use x="95.410156" xlink:href="#DejaVuSans-53"/>
     </g>
    </g>
   </g>
   <g id="xtick_14">
    <g id="line2d_22">
     <path d="M 368.744372 409.537617 
L 373.432291 412.544438 
" style="fill:none;stroke:#000000;stroke-linecap:square;stroke-width:0.8;"/>
    </g>
    <g id="text_22">
     <!-- 5.0 -->
     <g transform="translate(369.682599 431.3095)scale(0.1 -0.1)">
      <use xlink:href="#DejaVuSans-53"/>
      <use x="63.623047" xlink:href="#DejaVuSans-46"/>
      <use x="95.410156" xlink:href="#DejaVuSans-48"/>
     </g>
    </g>
   </g>
   <g id="xtick_15">
    <g id="line2d_23">
     <path d="M 408.621408 402.332565 
L 413.3665 405.310447 
" style="fill:none;stroke:#000000;stroke-linecap:square;stroke-width:0.8;"/>
    </g>
    <g id="text_23">
     <!-- 7.5 -->
     <defs>
      <path d="M 8.203125 72.90625 
L 55.078125 72.90625 
L 55.078125 68.703125 
L 28.609375 0 
L 18.3125 0 
L 43.21875 64.59375 
L 8.203125 64.59375 
z
" id="DejaVuSans-55"/>
     </defs>
     <g transform="translate(409.593501 424.022139)scale(0.1 -0.1)">
      <use xlink:href="#DejaVuSans-55"/>
      <use x="63.623047" xlink:href="#DejaVuSans-46"/>
      <use x="95.410156" xlink:href="#DejaVuSans-53"/>
     </g>
    </g>
   </g>
   <g id="xtick_16">
    <g id="line2d_24">
     <path d="M 448.115947 395.196624 
L 452.9169 398.145982 
" style="fill:none;stroke:#000000;stroke-linecap:square;stroke-width:0.8;"/>
    </g>
    <g id="text_24">
     <!-- 10.0 -->
     <g transform="translate(445.939598 416.804812)scale(0.1 -0.1)">
      <use xlink:href="#DejaVuSans-49"/>
      <use x="63.623047" xlink:href="#DejaVuSans-48"/>
      <use x="127.246094" xlink:href="#DejaVuSans-46"/>
      <use x="159.033203" xlink:href="#DejaVuSans-48"/>
     </g>
    </g>
   </g>
   <g id="xtick_17">
    <g id="line2d_25">
     <path d="M 487.233465 388.128802 
L 492.088998 391.050045 
" style="fill:none;stroke:#000000;stroke-linecap:square;stroke-width:0.8;"/>
    </g>
    <g id="text_25">
     <!-- 12.5 -->
     <g transform="translate(485.088892 409.656513)scale(0.1 -0.1)">
      <use xlink:href="#DejaVuSans-49"/>
      <use x="63.623047" xlink:href="#DejaVuSans-50"/>
      <use x="127.246094" xlink:href="#DejaVuSans-46"/>
      <use x="159.033203" xlink:href="#DejaVuSans-53"/>
     </g>
    </g>
   </g>
   <g id="xtick_18">
    <g id="line2d_26">
     <path d="M 525.979335 381.128131 
L 530.888196 384.021658 
" style="fill:none;stroke:#000000;stroke-linecap:square;stroke-width:0.8;"/>
    </g>
    <g id="text_26">
     <!-- 15.0 -->
     <g transform="translate(523.86553 402.576258)scale(0.1 -0.1)">
      <use xlink:href="#DejaVuSans-49"/>
      <use x="63.623047" xlink:href="#DejaVuSans-53"/>
      <use x="127.246094" xlink:href="#DejaVuSans-46"/>
      <use x="159.033203" xlink:href="#DejaVuSans-48"/>
     </g>
    </g>
   </g>
   <g id="xtick_19">
    <g id="line2d_27">
     <path d="M 564.35883 374.193658 
L 569.319792 377.059862 
" style="fill:none;stroke:#000000;stroke-linecap:square;stroke-width:0.8;"/>
    </g>
    <g id="text_27">
     <!-- 17.5 -->
     <g transform="translate(562.274808 395.56308)scale(0.1 -0.1)">
      <use xlink:href="#DejaVuSans-49"/>
      <use x="63.623047" xlink:href="#DejaVuSans-55"/>
      <use x="127.246094" xlink:href="#DejaVuSans-46"/>
      <use x="159.033203" xlink:href="#DejaVuSans-53"/>
     </g>
    </g>
   </g>
   <g id="xtick_20">
    <g id="line2d_28">
     <path d="M 602.37712 367.324447 
L 607.388988 370.163713 
" style="fill:none;stroke:#000000;stroke-linecap:square;stroke-width:0.8;"/>
    </g>
    <g id="text_28">
     <!-- 20.0 -->
     <g transform="translate(600.321923 388.61603)scale(0.1 -0.1)">
      <use xlink:href="#DejaVuSans-50"/>
      <use x="63.623047" xlink:href="#DejaVuSans-48"/>
      <use x="127.246094" xlink:href="#DejaVuSans-46"/>
      <use x="159.033203" xlink:href="#DejaVuSans-48"/>
     </g>
    </g>
   </g>
  </g>
  <g id="axis3d_3">
   <g id="line2d_29">
    <path d="M 641.099213 361.568975 
L 654.931801 129.868448 
" style="fill:none;stroke:#000000;stroke-linecap:square;stroke-width:0.8;"/>
   </g>
   <g id="text_29">
    <!-- Your Expected Reward -->
    <defs>
     <path d="M 9.8125 72.90625 
L 55.90625 72.90625 
L 55.90625 64.59375 
L 19.671875 64.59375 
L 19.671875 43.015625 
L 54.390625 43.015625 
L 54.390625 34.71875 
L 19.671875 34.71875 
L 19.671875 8.296875 
L 56.78125 8.296875 
L 56.78125 0 
L 9.8125 0 
z
" id="DejaVuSans-69"/>
     <path d="M 54.890625 54.6875 
L 35.109375 28.078125 
L 55.90625 0 
L 45.3125 0 
L 29.390625 21.484375 
L 13.484375 0 
L 2.875 0 
L 24.125 28.609375 
L 4.6875 54.6875 
L 15.28125 54.6875 
L 29.78125 35.203125 
L 44.28125 54.6875 
z
" id="DejaVuSans-120"/>
     <path d="M 18.109375 8.203125 
L 18.109375 -20.796875 
L 9.078125 -20.796875 
L 9.078125 54.6875 
L 18.109375 54.6875 
L 18.109375 46.390625 
Q 20.953125 51.265625 25.265625 53.625 
Q 29.59375 56 35.59375 56 
Q 45.5625 56 51.78125 48.09375 
Q 58.015625 40.1875 58.015625 27.296875 
Q 58.015625 14.40625 51.78125 6.484375 
Q 45.5625 -1.421875 35.59375 -1.421875 
Q 29.59375 -1.421875 25.265625 0.953125 
Q 20.953125 3.328125 18.109375 8.203125 
z
M 48.6875 27.296875 
Q 48.6875 37.203125 44.609375 42.84375 
Q 40.53125 48.484375 33.40625 48.484375 
Q 26.265625 48.484375 22.1875 42.84375 
Q 18.109375 37.203125 18.109375 27.296875 
Q 18.109375 17.390625 22.1875 11.75 
Q 26.265625 6.109375 33.40625 6.109375 
Q 40.53125 6.109375 44.609375 11.75 
Q 48.6875 17.390625 48.6875 27.296875 
z
" id="DejaVuSans-112"/>
     <path d="M 48.78125 52.59375 
L 48.78125 44.1875 
Q 44.96875 46.296875 41.140625 47.34375 
Q 37.3125 48.390625 33.40625 48.390625 
Q 24.65625 48.390625 19.8125 42.84375 
Q 14.984375 37.3125 14.984375 27.296875 
Q 14.984375 17.28125 19.8125 11.734375 
Q 24.65625 6.203125 33.40625 6.203125 
Q 37.3125 6.203125 41.140625 7.25 
Q 44.96875 8.296875 48.78125 10.40625 
L 48.78125 2.09375 
Q 45.015625 0.34375 40.984375 -0.53125 
Q 36.96875 -1.421875 32.421875 -1.421875 
Q 20.0625 -1.421875 12.78125 6.34375 
Q 5.515625 14.109375 5.515625 27.296875 
Q 5.515625 40.671875 12.859375 48.328125 
Q 20.21875 56 33.015625 56 
Q 37.15625 56 41.109375 55.140625 
Q 45.0625 54.296875 48.78125 52.59375 
z
" id="DejaVuSans-99"/>
     <path d="M 45.40625 46.390625 
L 45.40625 75.984375 
L 54.390625 75.984375 
L 54.390625 0 
L 45.40625 0 
L 45.40625 8.203125 
Q 42.578125 3.328125 38.25 0.953125 
Q 33.9375 -1.421875 27.875 -1.421875 
Q 17.96875 -1.421875 11.734375 6.484375 
Q 5.515625 14.40625 5.515625 27.296875 
Q 5.515625 40.1875 11.734375 48.09375 
Q 17.96875 56 27.875 56 
Q 33.9375 56 38.25 53.625 
Q 42.578125 51.265625 45.40625 46.390625 
z
M 14.796875 27.296875 
Q 14.796875 17.390625 18.875 11.75 
Q 22.953125 6.109375 30.078125 6.109375 
Q 37.203125 6.109375 41.296875 11.75 
Q 45.40625 17.390625 45.40625 27.296875 
Q 45.40625 37.203125 41.296875 42.84375 
Q 37.203125 48.484375 30.078125 48.484375 
Q 22.953125 48.484375 18.875 42.84375 
Q 14.796875 37.203125 14.796875 27.296875 
z
" id="DejaVuSans-100"/>
     <path d="M 44.390625 34.1875 
Q 47.5625 33.109375 50.5625 29.59375 
Q 53.5625 26.078125 56.59375 19.921875 
L 66.609375 0 
L 56 0 
L 46.6875 18.703125 
Q 43.0625 26.03125 39.671875 28.421875 
Q 36.28125 30.8125 30.421875 30.8125 
L 19.671875 30.8125 
L 19.671875 0 
L 9.8125 0 
L 9.8125 72.90625 
L 32.078125 72.90625 
Q 44.578125 72.90625 50.734375 67.671875 
Q 56.890625 62.453125 56.890625 51.90625 
Q 56.890625 45.015625 53.6875 40.46875 
Q 50.484375 35.9375 44.390625 34.1875 
z
M 19.671875 64.796875 
L 19.671875 38.921875 
L 32.078125 38.921875 
Q 39.203125 38.921875 42.84375 42.21875 
Q 46.484375 45.515625 46.484375 51.90625 
Q 46.484375 58.296875 42.84375 61.546875 
Q 39.203125 64.796875 32.078125 64.796875 
z
" id="DejaVuSans-82"/>
     <path d="M 4.203125 54.6875 
L 13.1875 54.6875 
L 24.421875 12.015625 
L 35.59375 54.6875 
L 46.1875 54.6875 
L 57.421875 12.015625 
L 68.609375 54.6875 
L 77.59375 54.6875 
L 63.28125 0 
L 52.6875 0 
L 40.921875 44.828125 
L 29.109375 0 
L 18.5 0 
z
" id="DejaVuSans-119"/>
    </defs>
    <g transform="translate(693.729152 309.66688)rotate(-86.583481)scale(0.1 -0.1)">
     <use xlink:href="#DejaVuSans-89"/>
     <use x="60.880859" xlink:href="#DejaVuSans-111"/>
     <use x="122.0625" xlink:href="#DejaVuSans-117"/>
     <use x="185.441406" xlink:href="#DejaVuSans-114"/>
     <use x="226.554688" xlink:href="#DejaVuSans-32"/>
     <use x="258.341797" xlink:href="#DejaVuSans-69"/>
     <use x="321.525391" xlink:href="#DejaVuSans-120"/>
     <use x="380.705078" xlink:href="#DejaVuSans-112"/>
     <use x="444.181641" xlink:href="#DejaVuSans-101"/>
     <use x="505.705078" xlink:href="#DejaVuSans-99"/>
     <use x="560.685547" xlink:href="#DejaVuSans-116"/>
     <use x="599.894531" xlink:href="#DejaVuSans-101"/>
     <use x="661.417969" xlink:href="#DejaVuSans-100"/>
     <use x="724.894531" xlink:href="#DejaVuSans-32"/>
     <use x="756.681641" xlink:href="#DejaVuSans-82"/>
     <use x="826.101562" xlink:href="#DejaVuSans-101"/>
     <use x="887.625" xlink:href="#DejaVuSans-119"/>
     <use x="969.412109" xlink:href="#DejaVuSans-97"/>
     <use x="1030.691406" xlink:href="#DejaVuSans-114"/>
     <use x="1071.789062" xlink:href="#DejaVuSans-100"/>
    </g>
   </g>
   <g id="Line3DCollection_3">
    <path d="M 641.668735 352.029288 
L 446.299422 244.168517 
L 106.309316 299.320869 
" style="fill:none;stroke:#b0b0b0;stroke-width:0.8;"/>
    <path d="M 643.498884 321.373676 
L 446.77913 215.157931 
L 104.611327 269.455772 
" style="fill:none;stroke:#b0b0b0;stroke-width:0.8;"/>
    <path d="M 645.353766 290.303777 
L 447.264827 185.785072 
L 102.891242 239.202061 
" style="fill:none;stroke:#b0b0b0;stroke-width:0.8;"/>
    <path d="M 647.233886 258.811138 
L 447.756628 156.043113 
L 101.148629 208.552104 
" style="fill:none;stroke:#b0b0b0;stroke-width:0.8;"/>
    <path d="M 649.139762 226.88707 
L 448.254648 125.925051 
L 99.383042 177.498063 
" style="fill:none;stroke:#b0b0b0;stroke-width:0.8;"/>
    <path d="M 651.071927 194.522647 
L 448.759006 95.423708 
L 97.594023 146.031894 
" style="fill:none;stroke:#b0b0b0;stroke-width:0.8;"/>
    <path d="M 653.03093 161.708695 
L 449.269824 64.53172 
L 95.781102 114.145339 
" style="fill:none;stroke:#b0b0b0;stroke-width:0.8;"/>
   </g>
   <g id="xtick_21">
    <g id="line2d_30">
     <path d="M 639.980099 351.097015 
L 645.052591 353.897469 
" style="fill:none;stroke:#000000;stroke-linecap:square;stroke-width:0.8;"/>
    </g>
    <g id="text_30">
     <!-- −0.4 -->
     <defs>
      <path d="M 10.59375 35.5 
L 73.1875 35.5 
L 73.1875 27.203125 
L 10.59375 27.203125 
z
" id="DejaVuSans-8722"/>
     </defs>
     <g transform="translate(650.404277 361.68315)scale(0.1 -0.1)">
      <use xlink:href="#DejaVuSans-8722"/>
      <use x="83.789062" xlink:href="#DejaVuSans-48"/>
      <use x="147.412109" xlink:href="#DejaVuSans-46"/>
      <use x="179.199219" xlink:href="#DejaVuSans-52"/>
     </g>
    </g>
   </g>
   <g id="xtick_22">
    <g id="line2d_31">
     <path d="M 641.797727 320.455162 
L 646.907876 323.214307 
" style="fill:none;stroke:#000000;stroke-linecap:square;stroke-width:0.8;"/>
    </g>
    <g id="text_31">
     <!-- −0.2 -->
     <g transform="translate(652.377383 330.997228)scale(0.1 -0.1)">
      <use xlink:href="#DejaVuSans-8722"/>
      <use x="83.789062" xlink:href="#DejaVuSans-48"/>
      <use x="147.412109" xlink:href="#DejaVuSans-46"/>
      <use x="179.199219" xlink:href="#DejaVuSans-50"/>
     </g>
    </g>
   </g>
   <g id="xtick_23">
    <g id="line2d_32">
     <path d="M 643.639902 289.399482 
L 648.788266 292.11594 
" style="fill:none;stroke:#000000;stroke-linecap:square;stroke-width:0.8;"/>
    </g>
    <g id="text_32">
     <!-- 0.0 -->
     <g transform="translate(658.567036 299.89601)scale(0.1 -0.1)">
      <use xlink:href="#DejaVuSans-48"/>
      <use x="63.623047" xlink:href="#DejaVuSans-46"/>
      <use x="95.410156" xlink:href="#DejaVuSans-48"/>
     </g>
    </g>
   </g>
   <g id="xtick_24">
    <g id="line2d_33">
     <path d="M 645.507126 257.921534 
L 650.694275 260.593884 
" style="fill:none;stroke:#000000;stroke-linecap:square;stroke-width:0.8;"/>
    </g>
    <g id="text_33">
     <!-- 0.2 -->
     <g transform="translate(660.594094 268.371007)scale(0.1 -0.1)">
      <use xlink:href="#DejaVuSans-48"/>
      <use x="63.623047" xlink:href="#DejaVuSans-46"/>
      <use x="95.410156" xlink:href="#DejaVuSans-50"/>
     </g>
    </g>
   </g>
   <g id="xtick_25">
    <g id="line2d_34">
     <path d="M 647.399912 226.012646 
L 652.62643 228.63942 
" style="fill:none;stroke:#000000;stroke-linecap:square;stroke-width:0.8;"/>
    </g>
    <g id="text_34">
     <!-- 0.4 -->
     <g transform="translate(662.648963 236.413498)scale(0.1 -0.1)">
      <use xlink:href="#DejaVuSans-48"/>
      <use x="63.623047" xlink:href="#DejaVuSans-46"/>
      <use x="95.410156" xlink:href="#DejaVuSans-52"/>
     </g>
    </g>
   </g>
   <g id="xtick_26">
    <g id="line2d_35">
     <path d="M 649.31879 193.663908 
L 654.585272 196.243589 
" style="fill:none;stroke:#000000;stroke-linecap:square;stroke-width:0.8;"/>
    </g>
    <g id="text_35">
     <!-- 0.6 -->
     <g transform="translate(664.732218 204.014521)scale(0.1 -0.1)">
      <use xlink:href="#DejaVuSans-48"/>
      <use x="63.623047" xlink:href="#DejaVuSans-46"/>
      <use x="95.410156" xlink:href="#DejaVuSans-54"/>
     </g>
    </g>
   </g>
   <g id="xtick_27">
    <g id="line2d_36">
     <path d="M 651.264302 160.866162 
L 656.571359 163.397183 
" style="fill:none;stroke:#000000;stroke-linecap:square;stroke-width:0.8;"/>
    </g>
    <g id="text_36">
     <!-- 0.8 -->
     <g transform="translate(666.844452 171.164864)scale(0.1 -0.1)">
      <use xlink:href="#DejaVuSans-48"/>
      <use x="63.623047" xlink:href="#DejaVuSans-46"/>
      <use x="95.410156" xlink:href="#DejaVuSans-56"/>
     </g>
    </g>
   </g>
  </g>
  <g id="axes_2">
   <g id="Poly3DCollection_1">
    <path clip-path="url(#p6f1a82ebf3)" d="M 349.456003 173.96686 
L 367.062528 193.595138 
L 382.096917 176.556303 
L 364.386487 157.845432 
z
" style="fill:#7affb7;"/>
    <path clip-path="url(#p6f1a82ebf3)" d="M 334.458076 176.243827 
L 352.013734 195.763941 
L 367.062528 193.595138 
L 349.456003 173.96686 
z
" style="fill:#68fcc1;"/>
    <path clip-path="url(#p6f1a82ebf3)" d="M 364.386487 157.845432 
L 382.096917 176.556303 
L 397.245129 146.839299 
L 379.375066 130.207221 
z
" style="fill:#aef498;"/>
    <path clip-path="url(#p6f1a82ebf3)" d="M 319.360099 174.158653 
L 336.85675 190.234427 
L 352.013734 195.763941 
L 334.458076 176.243827 
z
" style="fill:#70febc;"/>
    <path clip-path="url(#p6f1a82ebf3)" d="M 367.062528 193.595138 
L 384.866295 212.474924 
L 400.012269 195.006994 
L 382.096917 176.556303 
z
" style="fill:#62fbc4;"/>
    <path clip-path="url(#p6f1a82ebf3)" d="M 379.375066 130.207221 
L 397.245129 146.839299 
L 412.485938 119.945109 
L 394.456468 104.830119 
z
" style="fill:#eec66d;"/>
    <path clip-path="url(#p6f1a82ebf3)" d="M 352.013734 195.763941 
L 369.764538 214.38586 
L 384.866295 212.474924 
L 367.062528 193.595138 
z
" style="fill:#4ef3cd;"/>
    <path clip-path="url(#p6f1a82ebf3)" d="M 304.071854 164.19129 
L 321.553785 180.689092 
L 336.85675 190.234427 
L 319.360099 174.158653 
z
" style="fill:#86ffb0;"/>
    <path clip-path="url(#p6f1a82ebf3)" d="M 382.096917 176.556303 
L 400.012269 195.006994 
L 415.339355 163.198552 
L 397.245129 146.839299 
z
" style="fill:#9bfba5;"/>
    <path clip-path="url(#p6f1a82ebf3)" d="M 394.456468 104.830119 
L 412.485938 119.945109 
L 427.793678 95.739748 
L 409.601452 82.602329 
z
" style="fill:#ff8444;"/>
    <path clip-path="url(#p6f1a82ebf3)" d="M 336.85675 190.234427 
L 354.57229 205.785895 
L 369.764538 214.38586 
L 352.013734 195.763941 
z
" style="fill:#5df9c7;"/>
    <path clip-path="url(#p6f1a82ebf3)" d="M 288.639926 153.637919 
L 306.11293 170.734229 
L 321.553785 180.689092 
L 304.071854 164.19129 
z
" style="fill:#a6f89d;"/>
    <path clip-path="url(#p6f1a82ebf3)" d="M 409.601452 82.602329 
L 427.793678 95.739748 
L 443.132106 74.905655 
L 424.780408 63.504436 
z
" style="fill:#ff3e1f;"/>
    <path clip-path="url(#p6f1a82ebf3)" d="M 384.866295 212.474924 
L 402.881802 230.593686 
L 418.152044 212.193438 
L 400.012269 195.006994 
z
" style="fill:#4df3ce;"/>
    <path clip-path="url(#p6f1a82ebf3)" d="M 243.312806 189.851269 
L 260.564394 210.110964 
L 275.795802 200.132214 
L 258.526274 182.560967 
z
" style="fill:#70febc;"/>
    <path clip-path="url(#p6f1a82ebf3)" d="M 369.764538 214.38586 
L 387.739713 228.826 
L 402.881802 230.593686 
L 384.866295 212.474924 
z
" style="fill:#3dead5;"/>
    <path clip-path="url(#p6f1a82ebf3)" d="M 258.526274 182.560967 
L 275.795802 200.132214 
L 290.948065 185.772158 
L 273.577625 168.387101 
z
" style="fill:#86ffb0;"/>
    <path clip-path="url(#p6f1a82ebf3)" d="M 397.245129 146.839299 
L 415.339355 163.198552 
L 430.757235 134.568588 
L 412.485938 119.945109 
z
" style="fill:#ded579;"/>
    <path clip-path="url(#p6f1a82ebf3)" d="M 424.780408 63.504436 
L 443.132106 74.905655 
L 458.470427 57.382315 
L 439.96 47.807841 
z
" style="fill:#ff0000;"/>
    <path clip-path="url(#p6f1a82ebf3)" d="M 273.577625 168.387101 
L 290.948065 185.772158 
L 306.11293 170.734229 
L 288.639926 153.637919 
z
" style="fill:#a6f89d;"/>
    <path clip-path="url(#p6f1a82ebf3)" d="M 321.553785 180.689092 
L 339.250986 196.832236 
L 354.57229 205.785895 
L 336.85675 190.234427 
z
" style="fill:#76ffb9;"/>
    <path clip-path="url(#p6f1a82ebf3)" d="M 227.927967 192.204456 
L 245.116204 212.116245 
L 260.564394 210.110964 
L 243.312806 189.851269 
z
" style="fill:#68fcc1;"/>
    <path clip-path="url(#p6f1a82ebf3)" d="M 400.012269 195.006994 
L 418.152044 212.193438 
L 433.671132 179.014865 
L 415.339355 163.198552 
z
" style="fill:#86ffb0;"/>
    <path clip-path="url(#p6f1a82ebf3)" d="M 212.482369 194.433043 
L 229.631985 214.922223 
L 245.116204 212.116245 
L 227.927967 192.204456 
z
" style="fill:#68fcc1;"/>
    <path clip-path="url(#p6f1a82ebf3)" d="M 354.57229 205.785895 
L 372.519365 220.66499 
L 387.739713 228.826 
L 369.764538 214.38586 
z
" style="fill:#4df3ce;"/>
    <path clip-path="url(#p6f1a82ebf3)" d="M 412.485938 119.945109 
L 430.757235 134.568588 
L 446.238427 108.901542 
L 427.793678 95.739748 
z
" style="fill:#ff934d;"/>
    <path clip-path="url(#p6f1a82ebf3)" d="M 196.983856 196.797175 
L 214.082078 217.399153 
L 229.631985 214.922223 
L 212.482369 194.433043 
z
" style="fill:#68fcc1;"/>
    <path clip-path="url(#p6f1a82ebf3)" d="M 306.11293 170.734229 
L 323.795014 187.392258 
L 339.250986 196.832236 
L 321.553785 180.689092 
z
" style="fill:#94fda8;"/>
    <path clip-path="url(#p6f1a82ebf3)" d="M 402.881802 230.593686 
L 421.125389 247.842867 
L 436.522485 229.160272 
L 418.152044 212.193438 
z
" style="fill:#3ae8d6;"/>
    <path clip-path="url(#p6f1a82ebf3)" d="M 260.564394 210.110964 
L 277.977978 229.131067 
L 293.26451 217.242568 
L 275.795802 200.132214 
z
" style="fill:#5af8c8;"/>
    <path clip-path="url(#p6f1a82ebf3)" d="M 427.793678 95.739748 
L 446.238427 108.901542 
L 461.752838 86.273703 
L 443.132106 74.905655 
z
" style="fill:#ff4a26;"/>
    <path clip-path="url(#p6f1a82ebf3)" d="M 275.795802 200.132214 
L 293.26451 217.242568 
L 308.522196 202.701397 
L 290.948065 185.772158 
z
" style="fill:#74feba;"/>
    <path clip-path="url(#p6f1a82ebf3)" d="M 387.739713 228.826 
L 405.963671 242.984659 
L 421.125389 247.842867 
L 402.881802 230.593686 
z
" style="fill:#2ddedc;"/>
    <path clip-path="url(#p6f1a82ebf3)" d="M 181.431113 199.240032 
L 198.465709 219.627298 
L 214.082078 217.399153 
L 196.983856 196.797175 
z
" style="fill:#68fcc1;"/>
    <path clip-path="url(#p6f1a82ebf3)" d="M 415.339355 163.198552 
L 433.671132 179.014865 
L 449.276841 149.069234 
L 430.757235 134.568588 
z
" style="fill:#cee184;"/>
    <path clip-path="url(#p6f1a82ebf3)" d="M 245.116204 212.116245 
L 262.488553 231.860644 
L 277.977978 229.131067 
L 260.564394 210.110964 
z
" style="fill:#4ef3cd;"/>
    <path clip-path="url(#p6f1a82ebf3)" d="M 290.948065 185.772158 
L 308.522196 202.701397 
L 323.795014 187.392258 
L 306.11293 170.734229 
z
" style="fill:#94fda8;"/>
    <path clip-path="url(#p6f1a82ebf3)" d="M 339.250986 196.832236 
L 357.172751 212.140858 
L 372.519365 220.66499 
L 354.57229 205.785895 
z
" style="fill:#68fcc1;"/>
    <path clip-path="url(#p6f1a82ebf3)" d="M 443.132106 74.905655 
L 461.752838 86.273703 
L 477.262939 67.063586 
L 458.470427 57.382315 
z
" style="fill:#ff0603;"/>
    <path clip-path="url(#p6f1a82ebf3)" d="M 165.827713 201.835757 
L 182.8009 222.134813 
L 198.465709 219.627298 
L 181.431113 199.240032 
z
" style="fill:#68fcc1;"/>
    <path clip-path="url(#p6f1a82ebf3)" d="M 229.631985 214.922223 
L 246.93624 234.317724 
L 262.488553 231.860644 
L 245.116204 212.116245 
z
" style="fill:#4ef3cd;"/>
    <path clip-path="url(#p6f1a82ebf3)" d="M 418.152044 212.193438 
L 436.522485 229.160272 
L 452.241869 194.9636 
L 433.671132 179.014865 
z
" style="fill:#76ffb9;"/>
    <path clip-path="url(#p6f1a82ebf3)" d="M 372.519365 220.66499 
L 390.710521 235.349831 
L 405.963671 242.984659 
L 387.739713 228.826 
z
" style="fill:#40ecd4;"/>
    <path clip-path="url(#p6f1a82ebf3)" d="M 430.757235 134.568588 
L 449.276841 149.069234 
L 464.95126 121.665222 
L 446.238427 108.901542 
z
" style="fill:#ffa256;"/>
    <path clip-path="url(#p6f1a82ebf3)" d="M 150.15762 204.214443 
L 167.064489 224.327319 
L 182.8009 222.134813 
L 165.827713 201.835757 
z
" style="fill:#68fcc1;"/>
    <path clip-path="url(#p6f1a82ebf3)" d="M 214.082078 217.399153 
L 231.322131 236.646138 
L 246.93624 234.317724 
L 229.631985 214.922223 
z
" style="fill:#4ef3cd;"/>
    <path clip-path="url(#p6f1a82ebf3)" d="M 323.795014 187.392258 
L 341.693929 202.997801 
L 357.172751 212.140858 
L 339.250986 196.832236 
z
" style="fill:#86ffb0;"/>
    <path clip-path="url(#p6f1a82ebf3)" d="M 277.977978 229.131067 
L 295.574284 247.001358 
L 310.934861 233.17638 
L 293.26451 217.242568 
z
" style="fill:#46efd1;"/>
    <path clip-path="url(#p6f1a82ebf3)" d="M 421.125389 247.842867 
L 439.633013 262.975683 
L 455.160308 244.430671 
L 436.522485 229.160272 
z
" style="fill:#2adddd;"/>
    <path clip-path="url(#p6f1a82ebf3)" d="M 134.414779 206.306465 
L 151.286066 226.920523 
L 167.064489 224.327319 
L 150.15762 204.214443 
z
" style="fill:#68fcc1;"/>
    <path clip-path="url(#p6f1a82ebf3)" d="M 198.465709 219.627298 
L 215.663539 239.426654 
L 231.322131 236.646138 
L 214.082078 217.399153 
z
" style="fill:#4ef3cd;"/>
    <path clip-path="url(#p6f1a82ebf3)" d="M 293.26451 217.242568 
L 310.934861 233.17638 
L 326.305561 218.53253 
L 308.522196 202.701397 
z
" style="fill:#64fbc3;"/>
    <path clip-path="url(#p6f1a82ebf3)" d="M 262.488553 231.860644 
L 280.030481 250.281231 
L 295.574284 247.001358 
L 277.977978 229.131067 
z
" style="fill:#38e7d7;"/>
    <path clip-path="url(#p6f1a82ebf3)" d="M 446.238427 108.901542 
L 464.95126 121.665222 
L 480.650187 97.636403 
L 461.752838 86.273703 
z
" style="fill:#ff532a;"/>
    <path clip-path="url(#p6f1a82ebf3)" d="M 405.963671 242.984659 
L 424.455883 256.133973 
L 439.633013 262.975683 
L 421.125389 247.842867 
z
" style="fill:#20d5e1;"/>
    <path clip-path="url(#p6f1a82ebf3)" d="M 433.671132 179.014865 
L 452.241869 194.9636 
L 468.06106 163.085264 
L 449.276841 149.069234 
z
" style="fill:#c2ea8c;"/>
    <path clip-path="url(#p6f1a82ebf3)" d="M 308.522196 202.701397 
L 326.305561 218.53253 
L 341.693929 202.997801 
L 323.795014 187.392258 
z
" style="fill:#84ffb2;"/>
    <path clip-path="url(#p6f1a82ebf3)" d="M 357.172751 212.140858 
L 375.335027 227.009233 
L 390.710521 235.349831 
L 372.519365 220.66499 
z
" style="fill:#5df9c7;"/>
    <path clip-path="url(#p6f1a82ebf3)" d="M 182.8009 222.134813 
L 199.921059 241.453954 
L 215.663539 239.426654 
L 198.465709 219.627298 
z
" style="fill:#4ef3cd;"/>
    <path clip-path="url(#p6f1a82ebf3)" d="M 246.93624 234.317724 
L 264.415018 252.726982 
L 280.030481 250.281231 
L 262.488553 231.860644 
z
" style="fill:#38e7d7;"/>
    <path clip-path="url(#p6f1a82ebf3)" d="M 461.752838 86.273703 
L 480.650187 97.636403 
L 496.345713 76.807265 
L 477.262939 67.063586 
z
" style="fill:#ff0905;"/>
    <path clip-path="url(#p6f1a82ebf3)" d="M 436.522485 229.160272 
L 455.160308 244.430671 
L 471.264603 201.476585 
L 452.241869 194.9636 
z
" style="fill:#6dfdbf;"/>
    <path clip-path="url(#p6f1a82ebf3)" d="M 167.064489 224.327319 
L 184.136797 243.99739 
L 199.921059 241.453954 
L 182.8009 222.134813 
z
" style="fill:#4ef3cd;"/>
    <path clip-path="url(#p6f1a82ebf3)" d="M 231.322131 236.646138 
L 248.74225 255.237662 
L 264.415018 252.726982 
L 246.93624 234.317724 
z
" style="fill:#38e7d7;"/>
    <path clip-path="url(#p6f1a82ebf3)" d="M 390.710521 235.349831 
L 409.163359 248.918414 
L 424.455883 256.133973 
L 405.963671 242.984659 
z
" style="fill:#38e7d7;"/>
    <path clip-path="url(#p6f1a82ebf3)" d="M 449.276841 149.069234 
L 468.06106 163.085264 
L 483.938204 134.299779 
L 464.95126 121.665222 
z
" style="fill:#ffac5c;"/>
    <path clip-path="url(#p6f1a82ebf3)" d="M 151.286066 226.920523 
L 168.286234 246.373542 
L 184.136797 243.99739 
L 167.064489 224.327319 
z
" style="fill:#4ef3cd;"/>
    <path clip-path="url(#p6f1a82ebf3)" d="M 215.663539 239.426654 
L 233.015946 257.93444 
L 248.74225 255.237662 
L 231.322131 236.646138 
z
" style="fill:#38e7d7;"/>
    <path clip-path="url(#p6f1a82ebf3)" d="M 341.693929 202.997801 
L 359.830141 218.387234 
L 375.335027 227.009233 
L 357.172751 212.140858 
z
" style="fill:#78ffb8;"/>
    <path clip-path="url(#p6f1a82ebf3)" d="M 439.633013 262.975683 
L 458.416382 277.099527 
L 473.820679 270.11019 
L 455.160308 244.430671 
z
" style="fill:#18cde4;"/>
    <path clip-path="url(#p6f1a82ebf3)" d="M 295.574284 247.001358 
L 313.360885 262.758258 
L 328.834801 248.866836 
L 310.934861 233.17638 
z
" style="fill:#38e7d7;"/>
    <path clip-path="url(#p6f1a82ebf3)" d="M 280.030481 250.281231 
L 297.774536 268.146458 
L 313.360885 262.758258 
L 295.574284 247.001358 
z
" style="fill:#27dade;"/>
    <path clip-path="url(#p6f1a82ebf3)" d="M 310.934861 233.17638 
L 328.834801 248.866836 
L 344.321428 234.041212 
L 326.305561 218.53253 
z
" style="fill:#56f7ca;"/>
    <path clip-path="url(#p6f1a82ebf3)" d="M 326.305561 218.53253 
L 344.321428 234.041212 
L 359.830141 218.387234 
L 341.693929 202.997801 
z
" style="fill:#76ffb9;"/>
    <path clip-path="url(#p6f1a82ebf3)" d="M 199.921059 241.453954 
L 217.217462 260.199739 
L 233.015946 257.93444 
L 215.663539 239.426654 
z
" style="fill:#38e7d7;"/>
    <path clip-path="url(#p6f1a82ebf3)" d="M 424.455883 256.133973 
L 443.194004 270.935345 
L 458.416382 277.099527 
L 439.633013 262.975683 
z
" style="fill:#18cde4;"/>
    <path clip-path="url(#p6f1a82ebf3)" d="M 464.95126 121.665222 
L 483.938204 134.299779 
L 499.840659 108.688968 
L 480.650187 97.636403 
z
" style="fill:#ff5f30;"/>
    <path clip-path="url(#p6f1a82ebf3)" d="M 264.415018 252.726982 
L 282.092069 270.511769 
L 297.774536 268.146458 
L 280.030481 250.281231 
z
" style="fill:#24d8df;"/>
    <path clip-path="url(#p6f1a82ebf3)" d="M 452.241869 194.9636 
L 471.264603 201.476585 
L 487.275449 170.513535 
L 468.06106 163.085264 
z
" style="fill:#beec8e;"/>
    <path clip-path="url(#p6f1a82ebf3)" d="M 375.335027 227.009233 
L 393.750744 241.352897 
L 409.163359 248.918414 
L 390.710521 235.349831 
z
" style="fill:#52f5cb;"/>
    <path clip-path="url(#p6f1a82ebf3)" d="M 184.136797 243.99739 
L 201.369082 262.787468 
L 217.217462 260.199739 
L 199.921059 241.453954 
z
" style="fill:#38e7d7;"/>
    <path clip-path="url(#p6f1a82ebf3)" d="M 455.160308 244.430671 
L 473.820679 270.11019 
L 490.360234 218.066619 
L 471.264603 201.476585 
z
" style="fill:#5efac6;"/>
    <path clip-path="url(#p6f1a82ebf3)" d="M 248.74225 255.237662 
L 266.354509 273.119254 
L 282.092069 270.511769 
L 264.415018 252.726982 
z
" style="fill:#24d8df;"/>
    <path clip-path="url(#p6f1a82ebf3)" d="M 480.650187 97.636403 
L 499.840659 108.688968 
L 515.72296 86.732315 
L 496.345713 76.807265 
z
" style="fill:#ff1008;"/>
    <path clip-path="url(#p6f1a82ebf3)" d="M 168.286234 246.373542 
L 185.451374 265.13183 
L 201.369082 262.787468 
L 184.136797 243.99739 
z
" style="fill:#38e7d7;"/>
    <path clip-path="url(#p6f1a82ebf3)" d="M 409.163359 248.918414 
L 427.859264 264.523643 
L 443.194004 270.935345 
L 424.455883 256.133973 
z
" style="fill:#2fe0db;"/>
    <path clip-path="url(#p6f1a82ebf3)" d="M 458.416382 277.099527 
L 477.430855 292.994542 
L 492.674657 295.19533 
L 473.820679 270.11019 
z
" style="fill:#00b5eb;"/>
    <path clip-path="url(#p6f1a82ebf3)" d="M 233.015946 257.93444 
L 250.564131 275.978271 
L 266.354509 273.119254 
L 248.74225 255.237662 
z
" style="fill:#24d8df;"/>
    <path clip-path="url(#p6f1a82ebf3)" d="M 468.06106 163.085264 
L 487.275449 170.513535 
L 503.330651 142.477112 
L 483.938204 134.299779 
z
" style="fill:#ffb05f;"/>
    <path clip-path="url(#p6f1a82ebf3)" d="M 297.774536 268.146458 
L 315.804163 291.600695 
L 331.38688 278.639039 
L 313.360885 262.758258 
z
" style="fill:#14cae5;"/>
    <path clip-path="url(#p6f1a82ebf3)" d="M 359.830141 218.387234 
L 378.213513 233.51261 
L 393.750744 241.352897 
L 375.335027 227.009233 
z
" style="fill:#6dfdbf;"/>
    <path clip-path="url(#p6f1a82ebf3)" d="M 313.360885 262.758258 
L 331.38688 278.639039 
L 346.974693 264.41059 
L 328.834801 248.866836 
z
" style="fill:#2adddd;"/>
    <path clip-path="url(#p6f1a82ebf3)" d="M 328.834801 248.866836 
L 346.974693 264.41059 
L 362.580837 249.323138 
L 344.321428 234.041212 
z
" style="fill:#48f1d0;"/>
    <path clip-path="url(#p6f1a82ebf3)" d="M 217.217462 260.199739 
L 234.707959 278.565847 
L 250.564131 275.978271 
L 233.015946 257.93444 
z
" style="fill:#24d8df;"/>
    <path clip-path="url(#p6f1a82ebf3)" d="M 282.092069 270.511769 
L 300.10419 295.942698 
L 315.804163 291.600695 
L 297.774536 268.146458 
z
" style="fill:#0ac0e8;"/>
    <path clip-path="url(#p6f1a82ebf3)" d="M 344.321428 234.041212 
L 362.580837 249.323138 
L 378.213513 233.51261 
L 359.830141 218.387234 
z
" style="fill:#68fcc1;"/>
    <path clip-path="url(#p6f1a82ebf3)" d="M 443.194004 270.935345 
L 462.171839 287.090863 
L 477.430855 292.994542 
L 458.416382 277.099527 
z
" style="fill:#0dc2e8;"/>
    <path clip-path="url(#p6f1a82ebf3)" d="M 473.820679 270.11019 
L 492.674657 295.19533 
L 509.399157 245.137934 
L 490.360234 218.066619 
z
" style="fill:#3febd5;"/>
    <path clip-path="url(#p6f1a82ebf3)" d="M 393.750744 241.352897 
L 412.412883 257.430351 
L 427.859264 264.523643 
L 409.163359 248.918414 
z
" style="fill:#46efd1;"/>
    <path clip-path="url(#p6f1a82ebf3)" d="M 266.354509 273.119254 
L 284.326344 298.641365 
L 300.10419 295.942698 
L 282.092069 270.511769 
z
" style="fill:#0ac0e8;"/>
    <path clip-path="url(#p6f1a82ebf3)" d="M 483.938204 134.299779 
L 503.330651 142.477112 
L 519.400029 117.405206 
L 499.840659 108.688968 
z
" style="fill:#ff5f30;"/>
    <path clip-path="url(#p6f1a82ebf3)" d="M 201.369082 262.787468 
L 218.778253 280.742876 
L 234.707959 278.565847 
L 217.217462 260.199739 
z
" style="fill:#24d8df;"/>
    <path clip-path="url(#p6f1a82ebf3)" d="M 471.264603 201.476585 
L 490.360234 218.066619 
L 506.813203 178.133717 
L 487.275449 170.513535 
z
" style="fill:#c0eb8d;"/>
    <path clip-path="url(#p6f1a82ebf3)" d="M 250.564131 275.978271 
L 268.48537 301.169743 
L 284.326344 298.641365 
L 266.354509 273.119254 
z
" style="fill:#0ac0e8;"/>
    <path clip-path="url(#p6f1a82ebf3)" d="M 185.451374 265.13183 
L 202.792625 283.132014 
L 218.778253 280.742876 
L 201.369082 262.787468 
z
" style="fill:#27dade;"/>
    <path clip-path="url(#p6f1a82ebf3)" d="M 477.430855 292.994542 
L 496.683928 309.878158 
L 511.882881 314.933387 
L 492.674657 295.19533 
z
" style="fill:#169bf2;"/>
    <path clip-path="url(#p6f1a82ebf3)" d="M 499.840659 108.688968 
L 519.400029 117.405206 
L 535.443563 95.614912 
L 515.72296 86.732315 
z
" style="fill:#ff1008;"/>
    <path clip-path="url(#p6f1a82ebf3)" d="M 427.859264 264.523643 
L 446.795406 281.325524 
L 462.171839 287.090863 
L 443.194004 270.935345 
z
" style="fill:#22d6e0;"/>
    <path clip-path="url(#p6f1a82ebf3)" d="M 315.804163 291.600695 
L 333.978087 309.742378 
L 349.665467 296.384023 
L 331.38688 278.639039 
z
" style="fill:#00b5eb;"/>
    <path clip-path="url(#p6f1a82ebf3)" d="M 300.10419 295.942698 
L 318.281427 321.037439 
L 333.978087 309.742378 
L 315.804163 291.600695 
z
" style="fill:#149df1;"/>
    <path clip-path="url(#p6f1a82ebf3)" d="M 234.707959 278.565847 
L 252.584424 303.740475 
L 268.48537 301.169743 
L 250.564131 275.978271 
z
" style="fill:#08bee9;"/>
    <path clip-path="url(#p6f1a82ebf3)" d="M 331.38688 278.639039 
L 349.665467 296.384023 
L 365.365379 281.948884 
L 346.974693 264.41059 
z
" style="fill:#1dd1e2;"/>
    <path clip-path="url(#p6f1a82ebf3)" d="M 378.213513 233.51261 
L 396.843906 250.198969 
L 412.412883 257.430351 
L 393.750744 241.352897 
z
" style="fill:#60fac5;"/>
    <path clip-path="url(#p6f1a82ebf3)" d="M 492.674657 295.19533 
L 511.882881 314.933387 
L 528.644552 271.315348 
L 509.399157 245.137934 
z
" style="fill:#1acfe3;"/>
    <path clip-path="url(#p6f1a82ebf3)" d="M 346.974693 264.41059 
L 365.365379 281.948884 
L 381.08891 266.336932 
L 362.580837 249.323138 
z
" style="fill:#3ae8d6;"/>
    <path clip-path="url(#p6f1a82ebf3)" d="M 284.326344 298.641365 
L 302.457767 323.605165 
L 318.281427 321.037439 
L 300.10419 295.942698 
z
" style="fill:#1996f3;"/>
    <path clip-path="url(#p6f1a82ebf3)" d="M 487.275449 170.513535 
L 506.813203 178.133717 
L 523.048582 150.666981 
L 503.330651 142.477112 
z
" style="fill:#ffa95b;"/>
    <path clip-path="url(#p6f1a82ebf3)" d="M 362.580837 249.323138 
L 381.08891 266.336932 
L 396.843906 250.198969 
L 378.213513 233.51261 
z
" style="fill:#5df9c7;"/>
    <path clip-path="url(#p6f1a82ebf3)" d="M 218.778253 280.742876 
L 236.632004 306.65016 
L 252.584424 303.740475 
L 234.707959 278.565847 
z
" style="fill:#0ac0e8;"/>
    <path clip-path="url(#p6f1a82ebf3)" d="M 462.171839 287.090863 
L 481.378921 304.664581 
L 496.683928 309.878158 
L 477.430855 292.994542 
z
" style="fill:#01b3ec;"/>
    <path clip-path="url(#p6f1a82ebf3)" d="M 412.412883 257.430351 
L 431.311199 275.0202 
L 446.795406 281.325524 
L 427.859264 264.523643 
z
" style="fill:#38e7d7;"/>
    <path clip-path="url(#p6f1a82ebf3)" d="M 268.48537 301.169743 
L 286.582467 326.704002 
L 302.457767 323.605165 
L 284.326344 298.641365 
z
" style="fill:#1c93f3;"/>
    <path clip-path="url(#p6f1a82ebf3)" d="M 490.360234 218.066619 
L 509.399157 245.137934 
L 526.34659 196.011621 
L 506.813203 178.133717 
z
" style="fill:#aef498;"/>
    <path clip-path="url(#p6f1a82ebf3)" d="M 202.792625 283.132014 
L 220.607859 309.17344 
L 236.632004 306.65016 
L 218.778253 280.742876 
z
" style="fill:#0ac0e8;"/>
    <path clip-path="url(#p6f1a82ebf3)" d="M 503.330651 142.477112 
L 523.048582 150.666981 
L 539.279705 126.232814 
L 519.400029 117.405206 
z
" style="fill:#ff5c2f;"/>
    <path clip-path="url(#p6f1a82ebf3)" d="M 252.584424 303.740475 
L 270.635636 329.167822 
L 286.582467 326.704002 
L 268.48537 301.169743 
z
" style="fill:#1c93f3;"/>
    <path clip-path="url(#p6f1a82ebf3)" d="M 496.683928 309.878158 
L 516.150333 328.396542 
L 531.400851 332.729949 
L 511.882881 314.933387 
z
" style="fill:#2884f6;"/>
    <path clip-path="url(#p6f1a82ebf3)" d="M 446.795406 281.325524 
L 465.960515 299.52735 
L 481.378921 304.664581 
L 462.171839 287.090863 
z
" style="fill:#12c8e6;"/>
    <path clip-path="url(#p6f1a82ebf3)" d="M 318.281427 321.037439 
L 336.589249 339.601169 
L 352.388839 329.022688 
L 333.978087 309.742378 
z
" style="fill:#2c7ef7;"/>
    <path clip-path="url(#p6f1a82ebf3)" d="M 333.978087 309.742378 
L 352.388839 329.022688 
L 368.181891 315.904282 
L 349.665467 296.384023 
z
" style="fill:#149df1;"/>
    <path clip-path="url(#p6f1a82ebf3)" d="M 511.882881 314.933387 
L 531.400851 332.729949 
L 548.082933 297.393071 
L 528.644552 271.315348 
z
" style="fill:#01b3ec;"/>
    <path clip-path="url(#p6f1a82ebf3)" d="M 349.665467 296.384023 
L 368.181891 315.904282 
L 383.992127 300.988339 
L 365.365379 281.948884 
z
" style="fill:#08bee9;"/>
    <path clip-path="url(#p6f1a82ebf3)" d="M 302.457767 323.605165 
L 320.752293 347.219717 
L 336.589249 339.601169 
L 318.281427 321.037439 
z
" style="fill:#386df9;"/>
    <path clip-path="url(#p6f1a82ebf3)" d="M 236.632004 306.65016 
L 254.630676 331.819305 
L 270.635636 329.167822 
L 252.584424 303.740475 
z
" style="fill:#1c93f3;"/>
    <path clip-path="url(#p6f1a82ebf3)" d="M 396.843906 250.198969 
L 415.709256 268.537631 
L 431.311199 275.0202 
L 412.412883 257.430351 
z
" style="fill:#50f4cc;"/>
    <path clip-path="url(#p6f1a82ebf3)" d="M 519.400029 117.405206 
L 539.279705 126.232814 
L 555.474731 104.88107 
L 535.443563 95.614912 
z
" style="fill:#ff1008;"/>
    <path clip-path="url(#p6f1a82ebf3)" d="M 365.365379 281.948884 
L 383.992127 300.988339 
L 399.832361 285.097196 
L 381.08891 266.336932 
z
" style="fill:#28dbde;"/>
    <path clip-path="url(#p6f1a82ebf3)" d="M 286.582467 326.704002 
L 304.840769 351.441244 
L 320.752293 347.219717 
L 302.457767 323.605165 
z
" style="fill:#3e65fa;"/>
    <path clip-path="url(#p6f1a82ebf3)" d="M 381.08891 266.336932 
L 399.832361 285.097196 
L 415.709256 268.537631 
L 396.843906 250.198969 
z
" style="fill:#4af2cf;"/>
    <path clip-path="url(#p6f1a82ebf3)" d="M 481.378921 304.664581 
L 500.807672 323.568174 
L 516.150333 328.396542 
L 496.683928 309.878158 
z
" style="fill:#149df1;"/>
    <path clip-path="url(#p6f1a82ebf3)" d="M 509.399157 245.137934 
L 528.644552 271.315348 
L 545.762757 223.879579 
L 526.34659 196.011621 
z
" style="fill:#8bfeae;"/>
    <path clip-path="url(#p6f1a82ebf3)" d="M 220.607859 309.17344 
L 238.562345 334.421178 
L 254.630676 331.819305 
L 236.632004 306.65016 
z
" style="fill:#1c93f3;"/>
    <path clip-path="url(#p6f1a82ebf3)" d="M 506.813203 178.133717 
L 526.34659 196.011621 
L 543.098607 158.955566 
L 523.048582 150.666981 
z
" style="fill:#ffac5c;"/>
    <path clip-path="url(#p6f1a82ebf3)" d="M 431.311199 275.0202 
L 450.440901 293.770659 
L 465.960515 299.52735 
L 446.795406 281.325524 
z
" style="fill:#27dade;"/>
    <path clip-path="url(#p6f1a82ebf3)" d="M 270.635636 329.167822 
L 288.854366 354.297748 
L 304.840769 351.441244 
L 286.582467 326.704002 
z
" style="fill:#3e65fa;"/>
    <path clip-path="url(#p6f1a82ebf3)" d="M 254.630676 331.819305 
L 272.809617 357.277057 
L 288.854366 354.297748 
L 270.635636 329.167822 
z
" style="fill:#3e65fa;"/>
    <path clip-path="url(#p6f1a82ebf3)" d="M 465.960515 299.52735 
L 485.34987 318.923502 
L 500.807672 323.568174 
L 481.378921 304.664581 
z
" style="fill:#01b3ec;"/>
    <path clip-path="url(#p6f1a82ebf3)" d="M 352.388839 329.022688 
L 371.030342 348.493087 
L 386.926368 336.054462 
L 368.181891 315.904282 
z
" style="fill:#2884f6;"/>
    <path clip-path="url(#p6f1a82ebf3)" d="M 336.589249 339.601169 
L 355.132546 358.278245 
L 371.030342 348.493087 
L 352.388839 329.022688 
z
" style="fill:#3e65fa;"/>
    <path clip-path="url(#p6f1a82ebf3)" d="M 368.181891 315.904282 
L 386.926368 336.054462 
L 402.846644 321.170271 
L 383.992127 300.988339 
z
" style="fill:#0ca7ef;"/>
    <path clip-path="url(#p6f1a82ebf3)" d="M 320.752293 347.219717 
L 339.208367 365.902033 
L 355.132546 358.278245 
L 336.589249 339.601169 
z
" style="fill:#4e4dfc;"/>
    <path clip-path="url(#p6f1a82ebf3)" d="M 523.048582 150.666981 
L 543.098607 158.955566 
L 559.493455 135.037321 
L 539.279705 126.232814 
z
" style="fill:#ff562c;"/>
    <path clip-path="url(#p6f1a82ebf3)" d="M 528.644552 271.315348 
L 548.082933 297.393071 
L 565.375631 251.316442 
L 545.762757 223.879579 
z
" style="fill:#62fbc4;"/>
    <path clip-path="url(#p6f1a82ebf3)" d="M 415.709256 268.537631 
L 434.806193 287.868237 
L 450.440901 293.770659 
L 431.311199 275.0202 
z
" style="fill:#3dead5;"/>
    <path clip-path="url(#p6f1a82ebf3)" d="M 383.992127 300.988339 
L 402.846644 321.170271 
L 418.804911 304.896068 
L 399.832361 285.097196 
z
" style="fill:#14cae5;"/>
    <path clip-path="url(#p6f1a82ebf3)" d="M 304.840769 351.441244 
L 323.260848 373.944758 
L 339.208367 365.902033 
L 320.752293 347.219717 
z
" style="fill:#583efd;"/>
    <path clip-path="url(#p6f1a82ebf3)" d="M 238.562345 334.421178 
L 256.69328 359.807309 
L 272.809617 357.277057 
L 254.630676 331.819305 
z
" style="fill:#3e65fa;"/>
    <path clip-path="url(#p6f1a82ebf3)" d="M 399.832361 285.097196 
L 418.804911 304.896068 
L 434.806193 287.868237 
L 415.709256 268.537631 
z
" style="fill:#37e6d8;"/>
    <path clip-path="url(#p6f1a82ebf3)" d="M 288.854366 354.297748 
L 307.249466 379.114953 
L 323.260848 373.944758 
L 304.840769 351.441244 
z
" style="fill:#5e35fe;"/>
    <path clip-path="url(#p6f1a82ebf3)" d="M 539.279705 126.232814 
L 559.493455 135.037321 
L 575.836398 114.181428 
L 555.474731 104.88107 
z
" style="fill:#ff0d06;"/>
    <path clip-path="url(#p6f1a82ebf3)" d="M 526.34659 196.011621 
L 545.762757 223.879579 
L 563.069755 177.604796 
L 543.098607 158.955566 
z
" style="fill:#f2c26b;"/>
    <path clip-path="url(#p6f1a82ebf3)" d="M 450.440901 293.770659 
L 469.79289 313.780873 
L 485.34987 318.923502 
L 465.960515 299.52735 
z
" style="fill:#12c8e6;"/>
    <path clip-path="url(#p6f1a82ebf3)" d="M 272.809617 357.277057 
L 291.15613 382.155534 
L 307.249466 379.114953 
L 288.854366 354.297748 
z
" style="fill:#6032fe;"/>
    <path clip-path="url(#p6f1a82ebf3)" d="M 371.030342 348.493087 
L 389.908234 368.020078 
L 405.902681 356.301635 
L 386.926368 336.054462 
z
" style="fill:#3e65fa;"/>
    <path clip-path="url(#p6f1a82ebf3)" d="M 355.132546 358.278245 
L 373.917229 377.286426 
L 389.908234 368.020078 
L 371.030342 348.493087 
z
" style="fill:#5247fc;"/>
    <path clip-path="url(#p6f1a82ebf3)" d="M 386.926368 336.054462 
L 405.902681 356.301635 
L 421.924418 342.290359 
L 402.846644 321.170271 
z
" style="fill:#2489f5;"/>
    <path clip-path="url(#p6f1a82ebf3)" d="M 256.69328 359.807309 
L 274.995857 384.909377 
L 291.15613 382.155534 
L 272.809617 357.277057 
z
" style="fill:#6032fe;"/>
    <path clip-path="url(#p6f1a82ebf3)" d="M 339.208367 365.902033 
L 357.905234 384.72397 
L 373.917229 377.286426 
L 355.132546 358.278245 
z
" style="fill:#6032fe;"/>
    <path clip-path="url(#p6f1a82ebf3)" d="M 434.806193 287.868237 
L 454.119312 308.761518 
L 469.79289 313.780873 
L 450.440901 293.770659 
z
" style="fill:#27dade;"/>
    <path clip-path="url(#p6f1a82ebf3)" d="M 402.846644 321.170271 
L 421.924418 342.290359 
L 437.992863 326.276791 
L 418.804911 304.896068 
z
" style="fill:#04b0ed;"/>
    <path clip-path="url(#p6f1a82ebf3)" d="M 323.260848 373.944758 
L 341.867026 392.73072 
L 357.905234 384.72397 
L 339.208367 365.902033 
z
" style="fill:#6c1fff;"/>
    <path clip-path="url(#p6f1a82ebf3)" d="M 545.762757 223.879579 
L 565.375631 251.316442 
L 582.833076 206.647632 
L 563.069755 177.604796 
z
" style="fill:#cee184;"/>
    <path clip-path="url(#p6f1a82ebf3)" d="M 418.804911 304.896068 
L 437.992863 326.276791 
L 454.119312 308.761518 
L 434.806193 287.868237 
z
" style="fill:#1fd3e1;"/>
    <path clip-path="url(#p6f1a82ebf3)" d="M 543.098607 158.955566 
L 563.069755 177.604796 
L 580.030473 144.301417 
L 559.493455 135.037321 
z
" style="fill:#ff5c2f;"/>
    <path clip-path="url(#p6f1a82ebf3)" d="M 307.249466 379.114953 
L 325.809695 401.435238 
L 341.867026 392.73072 
L 323.260848 373.944758 
z
" style="fill:#780dff;"/>
    <path clip-path="url(#p6f1a82ebf3)" d="M 291.15613 382.155534 
L 309.686887 406.754493 
L 325.809695 401.435238 
L 307.249466 379.114953 
z
" style="fill:#8000ff;"/>
    <path clip-path="url(#p6f1a82ebf3)" d="M 559.493455 135.037321 
L 580.030473 144.301417 
L 596.528381 123.724541 
L 575.836398 114.181428 
z
" style="fill:#ff0905;"/>
    <path clip-path="url(#p6f1a82ebf3)" d="M 274.995857 384.909377 
L 293.478078 409.657586 
L 309.686887 406.754493 
L 291.15613 382.155534 
z
" style="fill:#8000ff;"/>
    <path clip-path="url(#p6f1a82ebf3)" d="M 563.069755 177.604796 
L 582.833076 206.647632 
L 600.424306 163.702641 
L 580.030473 144.301417 
z
" style="fill:#ff7b40;"/>
    <path clip-path="url(#p6f1a82ebf3)" d="M 580.030473 144.301417 
L 600.424306 163.702641 
L 617.565009 133.37507 
L 596.528381 123.724541 
z
" style="fill:#ff1309;"/>
   </g>
  </g>
 </g>
 <defs>
  <clipPath id="p6f1a82ebf3">
   <rect height="458.64" width="718.56" x="0" y="0"/>
  </clipPath>
 </defs>
</svg>
